<svg width="20" height="21" viewBox="0 0 20 21" fill="none" xmlns="http://www.w3.org/2000/svg">
<g clip-path="url(#clip0)">
<path d="M13.849 0.489746C13.8956 0.489746 13.9421 0.489746 13.9913 0.489746C14.1055 1.90019 13.5671 2.95407 12.9128 3.71725C12.2708 4.47517 11.3917 5.21025 9.96985 5.09871C9.875 3.70847 10.4142 2.73275 11.0676 1.97132C11.6736 1.26171 12.7846 0.630263 13.849 0.489746Z" fill="white"/>
<path d="M18.1529 15.1702C18.1529 15.1843 18.1529 15.1966 18.1529 15.2097C17.7533 16.42 17.1834 17.4571 16.4878 18.4197C15.8528 19.2935 15.0747 20.4695 13.6854 20.4695C12.4848 20.4695 11.6874 19.6975 10.457 19.6764C9.15543 19.6554 8.43967 20.3219 7.24967 20.4897C7.11354 20.4897 6.97742 20.4897 6.84392 20.4897C5.97008 20.3632 5.26486 19.6712 4.75109 19.0476C3.23614 17.2051 2.06546 14.8251 1.84766 11.7794C1.84766 11.4808 1.84766 11.1831 1.84766 10.8845C1.93987 8.70468 2.99902 6.9324 4.40683 6.07349C5.14981 5.61681 6.1712 5.22775 7.30851 5.40164C7.79593 5.47717 8.29389 5.64404 8.73037 5.80914C9.14402 5.9681 9.6613 6.25002 10.1514 6.23509C10.4833 6.22543 10.8135 6.05241 11.1481 5.93034C12.1283 5.57641 13.089 5.17067 14.3555 5.36124C15.8774 5.59134 16.9577 6.26758 17.6251 7.31092C16.3376 8.13031 15.3198 9.36511 15.4936 11.4737C15.6482 13.3892 16.7618 14.5098 18.1529 15.1702Z" fill="white"/>
</g>
<defs>
<clipPath id="clip0">
<rect width="20" height="20" fill="white" transform="translate(0 0.489746)"/>
</clipPath>
</defs>
</svg>
