<svg width="20" height="21" viewBox="0 0 20 21" fill="none" xmlns="http://www.w3.org/2000/svg">
<g clip-path="url(#clip0)">
<path d="M18.896 0.489746H1.10306C0.493774 0.490051 -0.000152553 0.984283 3.53445e-08 1.59372V19.3867C0.000305211 19.996 0.494537 20.4899 1.10397 20.4897H18.896C19.5056 20.4899 19.9998 19.9958 20 19.3862C20 19.3861 20 19.3859 20 19.3858V1.5928C19.9997 0.983521 19.5055 0.489594 18.896 0.489746Z" fill="#4267B2"/>
<path d="M13.8086 20.4898V12.7554H16.416L16.8066 9.72806H13.8086V7.79996C13.8086 6.92548 14.0514 6.32962 15.3053 6.32962H16.8945V3.62927C16.618 3.5925 15.6694 3.51025 14.5656 3.51025C12.2609 3.51025 10.6836 4.9165 10.6836 7.50012V9.72806H8.08594V12.7554H10.6836V20.4898H13.8086Z" fill="white"/>
</g>
<defs>
<clipPath id="clip0">
<rect width="20" height="20" fill="white" transform="translate(0 0.489746)"/>
</clipPath>
</defs>
</svg>
