<svg width="20" height="21" viewBox="0 0 20 21" fill="none" xmlns="http://www.w3.org/2000/svg">
<g clip-path="url(#clip0)">
<rect y="0.489746" width="20" height="20" rx="2" fill="#436EAB"/>
<path d="M17.4818 13.8965C17.4408 13.828 17.1875 13.2776 15.9686 12.1463C14.6926 10.9617 14.864 11.1541 16.401 9.10581C17.337 7.85837 17.7112 7.09658 17.5941 6.77092C17.4827 6.46049 16.7942 6.54238 16.7942 6.54238L14.5051 6.55571C14.5051 6.55571 14.3356 6.53286 14.2089 6.60808C14.0861 6.68236 14.007 6.85376 14.007 6.85376C14.007 6.85376 13.6442 7.81933 13.1605 8.64016C12.1406 10.3723 11.7321 10.4637 11.5655 10.3561C11.1779 10.1057 11.2751 9.34863 11.2751 8.81157C11.2751 7.13277 11.5293 6.43287 10.7789 6.25195C10.5294 6.19196 10.3466 6.15196 9.70957 6.1453C8.89254 6.13673 8.20027 6.14815 7.80889 6.33955C7.54798 6.46715 7.34706 6.75187 7.4699 6.76806C7.6213 6.78806 7.96411 6.86043 8.14599 7.10801C8.38119 7.42701 8.37262 8.145 8.37262 8.145C8.37262 8.145 8.50784 10.1209 8.05743 10.3666C7.74795 10.5351 7.3242 10.1914 6.41481 8.61921C5.94917 7.81457 5.59684 6.92423 5.59684 6.92423C5.59684 6.92423 5.52923 6.75854 5.40829 6.66998C5.26165 6.56238 5.05597 6.5281 5.05597 6.5281L2.87914 6.54143C2.87914 6.54143 2.55252 6.55095 2.43254 6.69283C2.32589 6.81948 2.42397 7.08039 2.42397 7.08039C2.42397 7.08039 4.12848 11.0674 6.05772 13.0776C7.82794 14.9202 9.83717 14.7992 9.83717 14.7992H10.7475C10.7475 14.7992 11.0227 14.7688 11.1627 14.6174C11.2922 14.4783 11.2874 14.2174 11.2874 14.2174C11.2874 14.2174 11.2693 12.9957 11.8369 12.8157C12.3958 12.6386 13.1138 13.9965 13.8747 14.5193C14.4498 14.9145 14.8869 14.8278 14.8869 14.8278L16.9218 14.7992C16.9218 14.7992 17.9864 14.7335 17.4818 13.8965Z" fill="white"/>
</g>
<defs>
<clipPath id="clip0">
<rect width="20" height="20" fill="white" transform="translate(0 0.489746)"/>
</clipPath>
</defs>
</svg>
