<svg width="30" height="30" viewBox="0 0 30 30" fill="none" xmlns="http://www.w3.org/2000/svg">
<path d="M5.6018 14.6525L10.0917 16.3281L11.8294 21.9169C11.9406 22.2747 12.3781 22.4069 12.6686 22.1694L15.1713 20.1294C15.4337 19.9155 15.8073 19.9049 16.0813 20.104L20.5953 23.3811C20.906 23.6068 21.3462 23.4367 21.4243 23.0612L24.7309 7.15585C24.816 6.74557 24.4129 6.40343 24.0225 6.55445L5.59673 13.6625C5.14199 13.838 5.14586 14.4816 5.6018 14.6525ZM11.5494 15.4363L20.3237 10.0321C20.4812 9.93525 20.6436 10.1486 20.5081 10.2742L13.2668 17.0054C13.0122 17.2422 12.8481 17.5594 12.8015 17.9035L12.555 19.7316C12.5221 19.9757 12.1793 19.9998 12.1119 19.7635L11.1633 16.4301C11.0548 16.05 11.213 15.6439 11.5494 15.4363Z" fill="white"/>
<path d="M5 0C2.23858 0 0 2.23858 0 5V25C0 27.7614 2.23858 30 5 30H25C27.7614 30 30 27.7614 30 25V5C30 2.23858 27.7614 0 25 0H5ZM28.1443 23.1443C28.1443 25.9057 25.9058 28.1443 23.1443 28.1443H6.85568C4.09425 28.1443 1.85567 25.9058 1.85567 23.1443V6.85568C1.85567 4.09425 4.09425 1.85567 6.85567 1.85567H23.1443C25.9057 1.85567 28.1443 4.09425 28.1443 6.85567V23.1443Z" fill="white"/>
</svg>
