<svg width="30" height="30" viewBox="0 0 30 30" fill="none" xmlns="http://www.w3.org/2000/svg">
<path d="M8.95388 17.0699C9.70606 18.0891 10.5703 18.9904 11.6869 19.628C12.9513 20.3507 14.3126 20.5686 15.7483 20.5022C16.4191 20.4701 16.6208 20.2951 16.6518 19.6268C16.6726 19.1689 16.7255 18.7122 16.9509 18.3008C17.1725 17.8973 17.5086 17.8209 17.8964 18.0719C18.0894 18.1988 18.252 18.3575 18.406 18.5274C18.7839 18.9399 19.1497 19.367 19.5411 19.766C20.0333 20.2671 20.6171 20.5624 21.3494 20.5022L24.187 20.5034C24.6437 20.4725 24.8812 19.9126 24.6191 19.4014C24.4345 19.0445 24.1921 18.727 23.936 18.4189C23.3561 17.7223 22.6728 17.1286 22.0267 16.4985C21.4444 15.93 21.4074 15.5999 21.8752 14.9439C22.3872 14.2272 22.9362 13.5391 23.452 12.8263C23.9333 12.1604 24.4272 11.4954 24.6792 10.699C24.8406 10.1907 24.6978 9.96668 24.1786 9.87679C24.0887 9.86205 23.9952 9.86205 23.9041 9.86205L20.8164 9.85819C20.4361 9.85215 20.2268 10.0184 20.0925 10.3554C19.9103 10.8112 19.7233 11.2666 19.5063 11.7049C19.0165 12.7021 18.4685 13.6659 17.7004 14.4809C17.5306 14.6605 17.3421 14.8883 17.0591 14.7948C16.7059 14.6655 16.6013 14.0823 16.6073 13.8853L16.6047 10.3211C16.536 9.813 16.4225 9.58515 15.9168 9.48633H12.7097C12.2827 9.48633 12.0672 9.65281 11.8381 9.9198C11.7077 10.0752 11.6668 10.1747 11.9379 10.2264C12.4695 10.3272 12.7713 10.672 12.8501 11.2052C12.9769 12.0584 12.9682 12.915 12.8945 13.7706C12.8735 14.0204 12.8305 14.2693 12.7317 14.5032C12.5768 14.8712 12.3255 14.9451 11.9969 14.7187C11.7004 14.5143 11.4912 14.2263 11.2853 13.937C10.516 12.8497 9.90298 11.6781 9.40185 10.4468C9.25784 10.0909 9.008 9.87558 8.63131 9.8693C7.70541 9.85456 6.77854 9.85239 5.85143 9.87051C5.29497 9.88042 5.12874 10.1513 5.35659 10.6572C6.36488 12.9014 7.48771 15.0828 8.95388 17.0699Z" fill="white"/>
<path d="M5 0C2.23858 0 0 2.23858 0 5V25C0 27.7614 2.23858 30 5 30H25C27.7614 30 30 27.7614 30 25V5C30 2.23858 27.7614 0 25 0H5ZM28.1443 23.1443C28.1443 25.9057 25.9058 28.1443 23.1443 28.1443H6.85568C4.09425 28.1443 1.85567 25.9058 1.85567 23.1443V6.85568C1.85567 4.09425 4.09425 1.85567 6.85567 1.85567H23.1443C25.9057 1.85567 28.1443 4.09425 28.1443 6.85567V23.1443Z" fill="white"/>
</svg>
