<svg width="126" height="47" viewBox="0 0 126 47" fill="none" xmlns="http://www.w3.org/2000/svg">
<path d="M46.2 23.1C46.2 35.8578 35.8578 46.2 23.1 46.2C10.3422 46.2 0 35.8578 0 23.1C0 10.3422 10.3422 0 23.1 0C35.8578 0 46.2 10.3422 46.2 23.1Z" fill="white"/>
<path d="M16.6603 30.24C15.4119 30.24 14.2837 29.9608 13.2757 29.4023C12.2792 28.8438 11.4946 28.0773 10.9219 27.1029C10.3607 26.1165 10.0801 25.0114 10.0801 23.7874C10.0801 22.5634 10.3607 21.4642 10.9219 20.4898C11.4946 19.5035 12.2792 18.7311 13.2757 18.1726C14.2837 17.6141 15.4119 17.3348 16.6603 17.3348C17.9088 17.3348 19.0313 17.6141 20.0278 18.1726C21.0243 18.7311 21.8089 19.5035 22.3816 20.4898C22.9543 21.4642 23.2406 22.5634 23.2406 23.7874C23.2406 25.0114 22.9543 26.1165 22.3816 27.1029C21.8089 28.0773 21.0243 28.8438 20.0278 29.4023C19.0313 29.9608 17.9088 30.24 16.6603 30.24ZM16.6603 27.7802C17.3705 27.7802 18.0119 27.6138 18.5846 27.2811C19.1573 26.9365 19.604 26.4612 19.9247 25.8551C20.2569 25.2491 20.4229 24.5598 20.4229 23.7874C20.4229 23.015 20.2569 22.3258 19.9247 21.7197C19.604 21.1137 19.1573 20.6443 18.5846 20.3116C18.0119 19.9669 17.3705 19.7946 16.6603 19.7946C15.9502 19.7946 15.3088 19.9669 14.7361 20.3116C14.1634 20.6443 13.711 21.1137 13.3788 21.7197C13.0581 22.3258 12.8977 23.015 12.8977 23.7874C12.8977 24.5598 13.0581 25.2491 13.3788 25.8551C13.711 26.4612 14.1634 26.9365 14.7361 27.2811C15.3088 27.6138 15.9502 27.7802 16.6603 27.7802Z" fill="#12AF65"/>
<path d="M29.1122 26.2651L27.8236 27.5841V30.0261H25.1434V16.8H27.8236V24.2865L31.7408 20.4363H34.9365L31.088 24.5004L35.2801 30.0261H32.0329L29.1122 26.2651Z" fill="#12AF65"/>
<path d="M71.1349 16.8V30.0967H68.4257V28.9856C67.7226 29.8219 66.7044 30.24 65.371 30.24C64.4498 30.24 63.6134 30.037 62.8619 29.6308C62.1225 29.2246 61.5406 28.6452 61.1164 27.8925C60.6921 27.1399 60.48 26.2678 60.48 25.2762C60.48 24.2846 60.6921 23.4125 61.1164 22.6599C61.5406 21.9072 62.1225 21.3278 62.8619 20.9216C63.6134 20.5155 64.4498 20.3124 65.371 20.3124C66.6196 20.3124 67.5954 20.7006 68.2984 21.4772V16.8H71.1349ZM65.862 27.9463C66.5771 27.9463 67.1711 27.7074 67.6438 27.2295C68.1166 26.7397 68.353 26.0886 68.353 25.2762C68.353 24.4638 68.1166 23.8187 67.6438 23.3408C67.1711 22.851 66.5771 22.6061 65.862 22.6061C65.1347 22.6061 64.5347 22.851 64.0619 23.3408C63.5892 23.8187 63.3528 24.4638 63.3528 25.2762C63.3528 26.0886 63.5892 26.7397 64.0619 27.2295C64.5347 27.7074 65.1347 27.9463 65.862 27.9463Z" fill="white"/>
<path d="M76.4693 21.728C76.8087 21.2621 77.2632 20.9097 77.833 20.6708C78.4148 20.4318 79.0815 20.3124 79.833 20.3124V22.8928C79.5179 22.869 79.3057 22.857 79.1966 22.857C78.3845 22.857 77.7481 23.084 77.2875 23.538C76.8269 23.98 76.5965 24.649 76.5965 25.545V30.0967H73.7601V20.4557H76.4693V21.728Z" fill="white"/>
<path d="M91.0129 25.312C91.0129 25.3479 90.9947 25.5988 90.9584 26.0647H83.5581C83.6915 26.662 84.0066 27.1339 84.5036 27.4804C85.0006 27.8268 85.6188 28 86.3582 28C86.8673 28 87.3158 27.9284 87.7037 27.785C88.1037 27.6297 88.4734 27.3908 88.8128 27.0682L90.322 28.681C89.4007 29.7204 88.0553 30.24 86.2855 30.24C85.1824 30.24 84.2066 30.031 83.3581 29.6128C82.5096 29.1828 81.8551 28.5914 81.3944 27.8388C80.9338 27.0861 80.7035 26.2319 80.7035 25.2762C80.7035 24.3324 80.9277 23.4842 81.3762 22.7316C81.8369 21.967 82.4611 21.3756 83.249 20.9575C84.0491 20.5274 84.94 20.3124 85.9218 20.3124C86.8795 20.3124 87.7462 20.5155 88.5219 20.9216C89.2977 21.3278 89.9038 21.9132 90.3402 22.6778C90.7887 23.4304 91.0129 24.3085 91.0129 25.312ZM85.94 22.4269C85.2976 22.4269 84.7582 22.6061 84.3218 22.9645C83.8854 23.3229 83.6187 23.8127 83.5218 24.434H88.3401C88.2431 23.8247 87.9765 23.3408 87.5401 22.9824C87.1037 22.6121 86.5704 22.4269 85.94 22.4269Z" fill="white"/>
<path d="M96.5806 20.3124C98.0958 20.3124 99.2594 20.6708 100.072 21.3876C100.884 22.0924 101.29 23.1616 101.29 24.5952V30.0967H98.6352V28.896C98.1018 29.792 97.1079 30.24 95.6533 30.24C94.9017 30.24 94.2472 30.1146 93.6896 29.8637C93.1441 29.6128 92.7259 29.2664 92.435 28.8244C92.1441 28.3823 91.9986 27.8806 91.9986 27.3191C91.9986 26.4231 92.338 25.7182 93.0168 25.2045C93.7078 24.6908 94.7684 24.434 96.1987 24.434H98.4534C98.4534 23.8247 98.2655 23.3588 97.8897 23.0362C97.5139 22.7017 96.9503 22.5344 96.1987 22.5344C95.6775 22.5344 95.1623 22.6181 94.6532 22.7853C94.1563 22.9406 93.732 23.1557 93.3805 23.4304L92.3623 21.4772C92.8956 21.1068 93.532 20.8201 94.2714 20.617C95.0229 20.4139 95.7927 20.3124 96.5806 20.3124ZM96.3624 28.3584C96.8472 28.3584 97.2776 28.2509 97.6533 28.0359C98.0291 27.8089 98.2958 27.4804 98.4534 27.0503V26.0647H96.5078C95.3442 26.0647 94.7623 26.441 94.7623 27.1936C94.7623 27.552 94.9017 27.8388 95.1805 28.0538C95.4714 28.2569 95.8654 28.3584 96.3624 28.3584Z" fill="white"/>
<path d="M116.385 20.3124C117.609 20.3124 118.579 20.6708 119.294 21.3876C120.021 22.0924 120.385 23.1557 120.385 24.5773V30.0967H117.548V25.0074C117.548 24.2428 117.385 23.6754 117.057 23.305C116.742 22.9227 116.288 22.7316 115.694 22.7316C115.027 22.7316 114.5 22.9466 114.112 23.3767C113.724 23.7948 113.53 24.422 113.53 25.2583V30.0967H110.694V25.0074C110.694 23.4902 110.075 22.7316 108.839 22.7316C108.184 22.7316 107.663 22.9466 107.275 23.3767C106.887 23.7948 106.693 24.422 106.693 25.2583V30.0967H103.857V20.4557H106.566V21.5668C106.93 21.1606 107.372 20.85 107.893 20.6349C108.427 20.4199 109.009 20.3124 109.639 20.3124C110.33 20.3124 110.954 20.4498 111.512 20.7245C112.069 20.9874 112.518 21.3756 112.857 21.8893C113.257 21.3876 113.76 20.9993 114.366 20.7245C114.985 20.4498 115.657 20.3124 116.385 20.3124Z" fill="white"/>
<path d="M122.564 17.5527H125.945L125.382 25.7421H123.127L122.564 17.5527ZM124.254 30.24C123.757 30.24 123.339 30.0847 123 29.7741C122.673 29.4516 122.509 29.0633 122.509 28.6093C122.509 28.1554 122.673 27.779 123 27.4804C123.327 27.1698 123.745 27.0144 124.254 27.0144C124.764 27.0144 125.182 27.1698 125.509 27.4804C125.836 27.779 126 28.1554 126 28.6093C126 29.0633 125.83 29.4516 125.491 29.7741C125.164 30.0847 124.751 30.24 124.254 30.24Z" fill="white"/>
</svg>
