<svg width="90" height="90" viewBox="0 0 90 90" fill="none" xmlns="http://www.w3.org/2000/svg">
<circle cx="45" cy="45" r="43.5" fill="white" stroke="white" stroke-width="3"/>
<path d="M35.8335 37.6667C35.8335 32.6041 39.9376 28.5 45.0002 28.5C50.0628 28.5 54.1668 32.6041 54.1668 37.6667C54.1668 42.7293 50.0628 46.8333 45.0002 46.8333C39.9376 46.8333 35.8335 42.7293 35.8335 37.6667ZM45.0002 43.1667C48.0377 43.1667 50.5002 40.7042 50.5002 37.6667C50.5002 34.6291 48.0377 32.1667 45.0002 32.1667C41.9626 32.1667 39.5002 34.6291 39.5002 37.6667C39.5002 40.7042 41.9626 43.1667 45.0002 43.1667Z" fill="#0080FF"/>
<path d="M34.6293 52.9624C31.8787 55.713 30.3335 59.4435 30.3335 63.3333H34.0002C34.0002 60.416 35.1591 57.6181 37.222 55.5552C39.2849 53.4923 42.0828 52.3333 45.0002 52.3333C47.9175 52.3333 50.7154 53.4923 52.7783 55.5552C54.8412 57.6181 56.0002 60.416 56.0002 63.3333H59.6668C59.6668 59.4435 58.1216 55.713 55.3711 52.9624C52.6205 50.2119 48.89 48.6667 45.0002 48.6667C41.1103 48.6667 37.3798 50.2119 34.6293 52.9624Z" fill="#0080FF"/>
</svg>
