<svg width="39" height="39" viewBox="0 0 39 39" fill="none" xmlns="http://www.w3.org/2000/svg">
<circle cx="19.5" cy="19.5" r="19.5" fill="#FF8700"/>
<path d="M27.2188 20.1002C26.68 19.3679 25.8669 18.8649 24.7797 18.5916C26.1642 17.8493 26.7727 16.5895 26.6056 14.812C26.5498 14.1674 26.3803 13.6087 26.0968 13.1352C25.8131 12.6616 25.4302 12.2809 24.9467 11.9928C24.4636 11.7044 23.9382 11.4849 23.3717 11.3335C22.8051 11.1822 22.1545 11.0723 21.4204 11.004V7.3125H19.2743V10.9014C18.9027 10.9014 18.3359 10.9112 17.5741 10.9307V7.3125H15.4276V11.004C15.1209 11.0138 14.6704 11.0187 14.0757 11.0187L11.1211 11.004V13.4064H12.668C13.3742 13.4064 13.7877 13.7385 13.9084 14.4025V18.6067C14.0015 18.6067 14.0757 18.6117 14.1315 18.6215H13.9084V24.51C13.8342 25.0079 13.5648 25.2571 13.1001 25.2571H11.5533L11.1212 27.9379H13.9087C14.0853 27.9379 14.3406 27.9404 14.6752 27.9448C15.0097 27.9497 15.2604 27.9522 15.4277 27.9522V31.6875H17.5745V27.9961C17.9647 28.0061 18.5314 28.0109 19.2747 28.0109V31.6875H21.4209V27.9522C22.183 27.9132 22.8589 27.8403 23.4486 27.7325C24.0387 27.6247 24.6033 27.4565 25.1421 27.2269C25.6808 26.9975 26.1314 26.7117 26.4937 26.3699C26.8562 26.0284 27.1556 25.5936 27.3929 25.0662C27.6295 24.5387 27.7807 23.9284 27.8455 23.2349C27.9668 21.8778 27.7576 20.8327 27.2188 20.1002ZM17.6158 13.5671C17.6809 13.5671 17.8644 13.5646 18.1664 13.5597C18.4685 13.5547 18.7193 13.5498 18.919 13.5449C19.1188 13.5401 19.3883 13.5523 19.7276 13.5816C20.0667 13.6109 20.3523 13.6501 20.5846 13.6988C20.8168 13.7475 21.0725 13.8281 21.351 13.9405C21.63 14.0527 21.8529 14.1894 22.0199 14.3506C22.1873 14.5117 22.329 14.7168 22.4449 14.9659C22.5612 15.2149 22.6193 15.5005 22.6193 15.8227C22.6193 16.0962 22.5775 16.3453 22.494 16.57C22.4106 16.7946 22.2849 16.9826 22.1178 17.134C21.9507 17.2854 21.7785 17.4174 21.6019 17.5296C21.4256 17.6418 21.2 17.7322 20.926 17.8005C20.6521 17.8689 20.4128 17.9226 20.2085 17.9616C20.0041 18.0007 19.7486 18.0276 19.442 18.0422C19.1353 18.0567 18.9029 18.0667 18.745 18.0715C18.587 18.0763 18.3711 18.0763 18.0969 18.0715C17.8226 18.0667 17.6625 18.0641 17.616 18.0641V13.567H17.6158V13.5671ZM23.4767 23.5426C23.3882 23.7674 23.2745 23.9628 23.1352 24.1289C22.9957 24.2947 22.8121 24.4413 22.5846 24.5681C22.3571 24.6952 22.1362 24.7976 21.9227 24.8757C21.7089 24.9542 21.451 25.0221 21.1493 25.0809C20.8469 25.1396 20.5823 25.1808 20.3544 25.2054C20.1269 25.2299 19.8552 25.2493 19.5392 25.2641C19.2234 25.2785 18.977 25.2859 18.8005 25.2859C18.624 25.2859 18.4009 25.2833 18.1315 25.2785C17.8619 25.2739 17.6901 25.2715 17.6157 25.2715V20.32C17.69 20.32 17.9107 20.3153 18.2778 20.3053C18.6449 20.2954 18.9444 20.2909 19.1767 20.2909C19.409 20.2909 19.7297 20.3053 20.1386 20.3348C20.5472 20.3639 20.891 20.4077 21.17 20.4662C21.4487 20.5249 21.7527 20.6151 22.0828 20.7374C22.4126 20.8594 22.6798 21.0083 22.8843 21.184C23.0888 21.3601 23.2606 21.5844 23.3999 21.8579C23.5395 22.1313 23.6092 22.4438 23.6092 22.7955C23.6092 23.0692 23.5651 23.3179 23.4767 23.5426Z" fill="white"/>
</svg>
