<svg width="300" height="208" viewBox="0 0 300 208" fill="none" xmlns="http://www.w3.org/2000/svg">
<path d="M164.121 0.356506H19.1658C14.2511 0.36204 9.53922 2.31691 6.06399 5.79224C2.58875 9.26757 0.63394 13.9795 0.628418 18.8944V189.106C0.633941 194.02 2.58876 198.732 6.06399 202.208C9.53923 205.683 14.2511 207.638 19.1658 207.643H164.121C169.035 207.638 173.747 205.683 177.223 202.208C180.698 198.732 182.653 194.02 182.658 189.106V18.8944C182.653 13.9795 180.698 9.26757 177.223 5.79224C173.747 2.31691 169.035 0.36204 164.121 0.356506Z" fill="#F2F2F2"/>
<path d="M164.121 5.69318H19.1658C15.6659 5.6971 12.3104 7.0892 9.83565 9.56405C7.36084 12.0389 5.96877 15.3944 5.96484 18.8944V189.106C5.96878 192.606 7.36085 195.961 9.83565 198.436C12.3105 200.911 15.6659 202.303 19.1658 202.307H164.121C167.621 202.303 170.976 200.911 173.451 198.436C175.926 195.961 177.318 192.606 177.322 189.106V18.8944C177.318 15.3944 175.926 12.039 173.451 9.56411C170.976 7.08925 167.621 5.69714 164.121 5.69318Z" fill="white"/>
<path d="M142.305 55.186H69.002C68.1833 55.186 67.3981 54.8608 66.8192 54.2818C66.2403 53.7029 65.915 52.9177 65.915 52.099C65.915 51.2802 66.2403 50.495 66.8192 49.9161C67.3981 49.3371 68.1833 49.0119 69.002 49.0119H142.305C142.71 49.0119 143.112 49.0918 143.486 49.2469C143.861 49.402 144.201 49.6294 144.488 49.9161C144.774 50.2027 145.002 50.5431 145.157 50.9176C145.312 51.2921 145.392 51.6936 145.392 52.099C145.392 52.5044 145.312 52.9058 145.157 53.2803C145.002 53.6549 144.774 53.9952 144.488 54.2818C144.201 54.5685 143.861 54.7959 143.486 54.951C143.112 55.1061 142.71 55.186 142.305 55.186Z" fill="#F2F2F2"/>
<path d="M155.039 65.6048H69.0025C68.1844 65.6039 67.4001 65.2783 66.8219 64.6994C66.2437 64.1206 65.9189 63.3359 65.9189 62.5178C65.9189 61.6996 66.2437 60.915 66.8219 60.3361C67.4001 59.7573 68.1844 59.4316 69.0025 59.4307H155.039C155.857 59.4316 156.641 59.7573 157.22 60.3361C157.798 60.915 158.123 61.6996 158.123 62.5178C158.123 63.3359 157.798 64.1206 157.22 64.6994C156.641 65.2783 155.857 65.6039 155.039 65.6048Z" fill="#F2F2F2"/>
<path d="M142.305 101.878H69.002C68.1833 101.878 67.3981 101.552 66.8192 100.973C66.2403 100.395 65.915 99.6093 65.915 98.7906C65.915 97.9719 66.2403 97.1867 66.8192 96.6077C67.3981 96.0288 68.1833 95.7036 69.002 95.7036H142.305C142.71 95.7036 143.112 95.7834 143.486 95.9385C143.861 96.0937 144.201 96.3211 144.488 96.6077C144.774 96.8944 145.002 97.2347 145.157 97.6092C145.312 97.9838 145.392 98.3852 145.392 98.7906C145.392 99.196 145.312 99.5974 145.157 99.972C145.002 100.347 144.774 100.687 144.488 100.973C144.201 101.26 143.861 101.488 143.486 101.643C143.112 101.798 142.71 101.878 142.305 101.878Z" fill="#F2F2F2"/>
<path d="M155.039 112.296H69.0025C68.1844 112.296 67.4001 111.97 66.8219 111.391C66.2437 110.812 65.9189 110.028 65.9189 109.209C65.9189 108.391 66.2437 107.607 66.8219 107.028C67.4001 106.449 68.1844 106.123 69.0025 106.122H155.039C155.857 106.123 156.641 106.449 157.22 107.028C157.798 107.607 158.123 108.391 158.123 109.209C158.123 110.028 157.798 110.812 157.22 111.391C156.641 111.97 155.857 112.296 155.039 112.296Z" fill="#F2F2F2"/>
<path d="M142.305 148.569H69.002C68.1833 148.569 67.3981 148.244 66.8192 147.665C66.2403 147.086 65.915 146.301 65.915 145.482C65.915 144.664 66.2403 143.878 66.8192 143.299C67.3981 142.72 68.1833 142.395 69.002 142.395H142.305C142.71 142.395 143.112 142.474 143.487 142.629C143.862 142.784 144.203 143.011 144.49 143.298C144.777 143.585 145.005 143.925 145.16 144.3C145.315 144.675 145.395 145.077 145.395 145.482C145.395 145.888 145.315 146.29 145.16 146.664C145.005 147.039 144.777 147.38 144.49 147.666C144.203 147.953 143.862 148.18 143.487 148.335C143.112 148.49 142.71 148.57 142.305 148.569Z" fill="#F2F2F2"/>
<path d="M155.039 158.988H69.0025C68.1844 158.987 67.4001 158.662 66.8219 158.083C66.2437 157.504 65.9189 156.719 65.9189 155.901C65.9189 155.083 66.2437 154.298 66.8219 153.719C67.4001 153.141 68.1844 152.815 69.0025 152.814H155.039C155.857 152.815 156.641 153.141 157.22 153.719C157.798 154.298 158.123 155.083 158.123 155.901C158.123 156.719 157.798 157.504 157.22 158.083C156.641 158.662 155.857 158.987 155.039 158.988Z" fill="#F2F2F2"/>
<path d="M52.5825 70.3345H26.6413C26.2489 70.3341 25.8726 70.178 25.5952 69.9005C25.3177 69.623 25.1616 69.2467 25.1611 68.8543V45.7625C25.1616 45.37 25.3177 44.9938 25.5952 44.7163C25.8726 44.4387 26.2489 44.2827 26.6413 44.2822H52.5825C52.9749 44.2827 53.3512 44.4387 53.6287 44.7163C53.9062 44.9938 54.0623 45.37 54.0627 45.7625V68.8543C54.0623 69.2467 53.9062 69.623 53.6287 69.9005C53.3512 70.178 52.9749 70.3341 52.5825 70.3345Z" fill="#E6E6E6"/>
<path d="M52.5825 117.026H26.6413C26.2489 117.026 25.8726 116.87 25.5952 116.592C25.3177 116.315 25.1616 115.938 25.1611 115.546V92.4541C25.1616 92.0617 25.3177 91.6854 25.5952 91.4079C25.8726 91.1304 26.2489 90.9743 26.6413 90.9739H52.5825C52.9749 90.9743 53.3512 91.1304 53.6287 91.4079C53.9062 91.6854 54.0623 92.0617 54.0627 92.4541V115.546C54.0622 115.938 53.9062 116.315 53.6287 116.592C53.3512 116.87 52.9749 117.026 52.5825 117.026Z" fill="#E6E6E6"/>
<path d="M52.5825 163.718H26.6413C26.2489 163.717 25.8726 163.561 25.5952 163.284C25.3177 163.006 25.1616 162.63 25.1611 162.238V139.146C25.1616 138.753 25.3177 138.377 25.5952 138.1C25.8726 137.822 26.2489 137.666 26.6413 137.666H52.5825C52.9749 137.666 53.3512 137.822 53.6287 138.1C53.9062 138.377 54.0623 138.753 54.0627 139.146V162.238C54.0623 162.63 53.9062 163.006 53.6287 163.284C53.3512 163.561 52.9749 163.717 52.5825 163.718Z" fill="#E6E6E6"/>
<path d="M291.816 161.336L292.966 151.279L298.732 100.853L299.882 90.7961C300.435 85.9125 299.028 81.0089 295.97 77.1613C292.912 73.3137 288.453 70.8361 283.571 70.2723L152.735 55.3112C147.852 54.7583 142.949 56.1652 139.101 59.2232C135.253 62.2811 132.776 66.7405 132.212 71.6229L132.209 71.6489L124.149 142.137L124.146 142.163C123.593 147.047 125 151.95 128.058 155.798C131.116 159.645 135.575 162.123 140.458 162.687L271.293 177.648C276.176 178.201 281.08 176.794 284.927 173.736C288.775 170.678 291.252 166.219 291.816 161.336Z" fill="#E6E6E6"/>
<path d="M286.514 160.73L287.876 148.818L293.218 102.102L294.58 90.1899C294.974 86.7121 293.972 83.2202 291.795 80.4802C289.617 77.7402 286.441 75.9759 282.965 75.5743L152.129 60.6132C148.652 60.2195 145.16 61.2213 142.42 63.399C139.68 65.5767 137.916 68.7523 137.514 72.2292L137.511 72.2552L129.451 142.743L129.448 142.769C129.054 146.247 130.056 149.739 132.234 152.479C134.412 155.219 137.587 156.983 141.064 157.385L271.899 172.346C275.377 172.74 278.869 171.738 281.609 169.56C284.349 167.383 286.113 164.207 286.514 160.73Z" fill="white"/>
<path d="M265.099 96.8173L192.271 88.4893C191.868 88.4436 191.477 88.319 191.123 88.1224C190.768 87.9259 190.455 87.6613 190.203 87.3439C189.95 87.0264 189.762 86.6623 189.651 86.2723C189.539 85.8824 189.505 85.4742 189.551 85.0712C189.597 84.6681 189.722 84.2781 189.919 83.9235C190.116 83.5688 190.381 83.2564 190.699 83.0042C191.016 82.7519 191.381 82.5648 191.771 82.4534C192.161 82.3421 192.569 82.3087 192.972 82.3552L265.8 90.6832C266.613 90.7769 267.355 91.1895 267.864 91.8303C268.373 92.4711 268.606 93.2877 268.513 94.1006C268.42 94.9135 268.009 95.6562 267.368 96.1656C266.728 96.675 265.912 96.9094 265.099 96.8173Z" fill="#E6E6E6"/>
<path d="M276.566 108.615L191.087 98.8407C190.684 98.795 190.294 98.6703 189.939 98.4737C189.584 98.2772 189.271 98.0126 189.019 97.6952C188.766 97.3777 188.579 97.0136 188.467 96.6237C188.355 96.2337 188.322 95.8256 188.368 95.4226C188.414 95.0195 188.539 94.6296 188.736 94.2749C188.933 93.9202 189.197 93.6079 189.515 93.3556C189.833 93.1034 190.197 92.9162 190.587 92.8049C190.977 92.6935 191.385 92.6601 191.788 92.7065L277.268 102.481C277.67 102.527 278.06 102.652 278.415 102.849C278.769 103.046 279.081 103.31 279.334 103.628C279.586 103.945 279.773 104.309 279.885 104.699C279.996 105.088 280.03 105.496 279.984 105.899C279.938 106.302 279.813 106.691 279.616 107.046C279.42 107.4 279.155 107.713 278.838 107.965C278.52 108.217 278.156 108.404 277.767 108.516C277.377 108.628 276.969 108.661 276.566 108.615Z" fill="#E6E6E6"/>
<path d="M274.183 129.261L148.159 114.85C147.347 114.756 146.604 114.343 146.096 113.703C145.587 113.062 145.353 112.245 145.446 111.432C145.539 110.62 145.951 109.877 146.591 109.367C147.232 108.858 148.048 108.624 148.861 108.716L274.884 123.127C275.287 123.172 275.677 123.297 276.032 123.494C276.387 123.69 276.7 123.955 276.952 124.272C277.205 124.59 277.392 124.954 277.504 125.344C277.616 125.734 277.649 126.142 277.603 126.545C277.557 126.948 277.432 127.338 277.235 127.692C277.038 128.047 276.774 128.359 276.456 128.612C276.138 128.864 275.774 129.051 275.384 129.162C274.994 129.274 274.586 129.307 274.183 129.261H274.183Z" fill="#E6E6E6"/>
<path d="M273.405 139.658L146.976 125.201C146.164 125.107 145.421 124.695 144.913 124.054C144.404 123.413 144.17 122.597 144.263 121.784C144.356 120.971 144.768 120.228 145.408 119.719C146.048 119.209 146.865 118.975 147.678 119.067L274.106 133.524C274.919 133.618 275.661 134.031 276.17 134.671C276.679 135.312 276.912 136.129 276.819 136.942C276.726 137.755 276.314 138.497 275.674 139.007C275.034 139.516 274.218 139.75 273.405 139.658Z" fill="#E6E6E6"/>
<path d="M271.864 149.544L145.841 135.133C145.438 135.088 145.048 134.963 144.693 134.767C144.338 134.57 144.025 134.305 143.773 133.988C143.52 133.671 143.333 133.306 143.221 132.916C143.109 132.526 143.075 132.118 143.122 131.715C143.168 131.312 143.293 130.922 143.49 130.568C143.686 130.213 143.951 129.901 144.269 129.648C144.587 129.396 144.951 129.209 145.341 129.098C145.731 128.986 146.139 128.953 146.542 128.999L272.566 143.41C273.378 143.504 274.121 143.917 274.629 144.557C275.138 145.198 275.372 146.015 275.279 146.828C275.186 147.64 274.774 148.383 274.134 148.893C273.493 149.402 272.677 149.636 271.864 149.544V149.544Z" fill="#E6E6E6"/>
<path d="M271.086 159.942L144.657 145.485C143.845 145.391 143.102 144.978 142.594 144.338C142.085 143.697 141.851 142.88 141.944 142.067C142.037 141.254 142.449 140.512 143.089 140.002C143.73 139.493 144.546 139.259 145.359 139.351L271.787 153.808C272.19 153.853 272.58 153.978 272.935 154.175C273.29 154.371 273.603 154.636 273.855 154.953C274.108 155.271 274.295 155.635 274.407 156.025C274.519 156.415 274.553 156.823 274.506 157.226C274.46 157.629 274.335 158.019 274.138 158.374C273.942 158.728 273.677 159.041 273.359 159.293C273.041 159.545 272.677 159.732 272.287 159.844C271.897 159.955 271.489 159.988 271.086 159.942Z" fill="#E6E6E6"/>
<path d="M174.236 101.674L148.463 98.727C148.073 98.682 147.717 98.4842 147.473 98.1769C147.228 97.8697 147.116 97.4781 147.16 97.0882L149.784 74.1459C149.829 73.756 150.026 73.3999 150.334 73.1558C150.641 72.9116 151.032 72.7992 151.422 72.8434L177.196 75.7906C177.585 75.8356 177.942 76.0334 178.186 76.3407C178.43 76.6479 178.542 77.0394 178.498 77.4294L175.875 100.372C175.83 100.762 175.632 101.118 175.325 101.362C175.017 101.606 174.626 101.718 174.236 101.674Z" fill="#0080FF"/>
</svg>
