<svg width="199" height="39" viewBox="0 0 199 39" fill="none" xmlns="http://www.w3.org/2000/svg">
<path d="M73.996 9H77.3L71.7 28.6H68.48L63.748 14.432L59.1 28.6H55.852L50 9H53.864L57.812 22.972L62.18 9H65.596L70.076 23L73.996 9Z" fill="white"/>
<path d="M78.4745 27.06C77.2238 25.8093 76.5985 24.2227 76.5985 22.3C76.5985 20.3773 77.2238 18.8 78.4745 17.568C79.7251 16.3173 81.3865 15.692 83.4585 15.692C85.5118 15.692 87.1638 16.3173 88.4145 17.568C89.6838 18.8 90.3185 20.3773 90.3185 22.3C90.3185 24.204 89.6838 25.7907 88.4145 27.06C87.1451 28.292 85.4931 28.908 83.4585 28.908C81.3865 28.908 79.7251 28.292 78.4745 27.06ZM81.0225 19.724C80.3691 20.396 80.0425 21.2547 80.0425 22.3C80.0425 23.3453 80.3598 24.2133 80.9945 24.904C81.6478 25.576 82.4691 25.912 83.4585 25.912C84.4665 25.912 85.2878 25.576 85.9225 24.904C86.5758 24.232 86.9025 23.364 86.9025 22.3C86.9025 21.2547 86.5758 20.396 85.9225 19.724C85.2691 19.052 84.4478 18.716 83.4585 18.716C82.4878 18.716 81.6758 19.052 81.0225 19.724Z" fill="white"/>
<path d="M96.3251 28.6H93.1051V16H96.3251V17.232C97.0158 16.2613 97.9771 15.776 99.2091 15.776C100.086 15.776 100.74 15.9347 101.169 16.252L100.021 19.276C99.4798 18.9587 98.9385 18.8 98.3971 18.8C97.4638 18.8 96.7731 19.248 96.3251 20.144V28.6Z" fill="white"/>
<path d="M110.788 16H114.848L110.116 21.768L115.408 28.6H111.264L106.28 22.02L110.788 16ZM106.224 28.6H103.004V9H106.224V28.6Z" fill="white"/>
<path d="M121.754 28.6H118.31V9H129.51V12.22H121.754V17.764H128.67V20.984H121.754V28.6Z" fill="white"/>
<path d="M132.67 27.06C131.419 25.8093 130.794 24.2227 130.794 22.3C130.794 20.3773 131.419 18.8 132.67 17.568C133.92 16.3173 135.582 15.692 137.654 15.692C139.707 15.692 141.359 16.3173 142.61 17.568C143.879 18.8 144.514 20.3773 144.514 22.3C144.514 24.204 143.879 25.7907 142.61 27.06C141.34 28.292 139.688 28.908 137.654 28.908C135.582 28.908 133.92 28.292 132.67 27.06ZM135.218 19.724C134.564 20.396 134.238 21.2547 134.238 22.3C134.238 23.3453 134.555 24.2133 135.19 24.904C135.843 25.576 136.664 25.912 137.654 25.912C138.662 25.912 139.483 25.576 140.118 24.904C140.771 24.232 141.098 23.364 141.098 22.3C141.098 21.2547 140.771 20.396 140.118 19.724C139.464 19.052 138.643 18.716 137.654 18.716C136.683 18.716 135.871 19.052 135.218 19.724Z" fill="white"/>
<path d="M150.52 28.6H147.3V16H150.52V17.232C151.211 16.2613 152.172 15.776 153.404 15.776C154.282 15.776 154.935 15.9347 155.364 16.252L154.216 19.276C153.675 18.9587 153.134 18.8 152.592 18.8C151.659 18.8 150.968 19.248 150.52 20.144V28.6Z" fill="white"/>
<path d="M169.155 9H172.879L165.907 20.424V28.6H162.463V20.424L155.547 9H159.467L164.339 17.204L169.155 9Z" fill="white"/>
<path d="M172.564 27.06C171.314 25.8093 170.688 24.2227 170.688 22.3C170.688 20.3773 171.314 18.8 172.564 17.568C173.815 16.3173 175.476 15.692 177.548 15.692C179.602 15.692 181.254 16.3173 182.504 17.568C183.774 18.8 184.408 20.3773 184.408 22.3C184.408 24.204 183.774 25.7907 182.504 27.06C181.235 28.292 179.583 28.908 177.548 28.908C175.476 28.908 173.815 28.292 172.564 27.06ZM175.112 19.724C174.459 20.396 174.132 21.2547 174.132 22.3C174.132 23.3453 174.45 24.2133 175.084 24.904C175.738 25.576 176.559 25.912 177.548 25.912C178.556 25.912 179.378 25.576 180.012 24.904C180.666 24.232 180.992 23.364 180.992 22.3C180.992 21.2547 180.666 20.396 180.012 19.724C179.359 19.052 178.538 18.716 177.548 18.716C176.578 18.716 175.766 19.052 175.112 19.724Z" fill="white"/>
<path d="M195.371 16H198.591V28.6H195.371V27.06C194.363 28.292 193.019 28.908 191.339 28.908C189.995 28.908 188.922 28.46 188.119 27.564C187.316 26.668 186.915 25.38 186.915 23.7V16H190.135V23.028C190.135 24.9507 190.938 25.912 192.543 25.912C193.644 25.912 194.587 25.3987 195.371 24.372V16Z" fill="white"/>
<rect x="3.22559" y="12.9033" width="6.45161" height="25.8065" fill="white"/>
<path d="M6.45161 0L12.9032 12.9032H0L6.45161 0Z" fill="white"/>
<rect x="16.7744" y="12.9033" width="6.45161" height="25.8065" fill="white"/>
<path d="M20 0L26.4516 12.9032H13.5483L20 0Z" fill="white"/>
<rect x="30.3228" y="12.9033" width="6.45161" height="25.8065" fill="white"/>
<path d="M33.5483 0L39.9999 12.9032H27.0967L33.5483 0Z" fill="white"/>
<circle cx="20.0002" cy="25.1613" r="9.67742" fill="white"/>
<path d="M21.1503 28.434C21.1503 27.9695 21.0356 27.6049 20.8063 27.3403C20.5769 27.0756 20.1741 26.8257 19.5978 26.5905C19.0216 26.3553 18.4894 26.1171 18.0013 25.876C17.5133 25.6349 17.0928 25.3556 16.74 25.0381C16.3872 24.7205 16.1167 24.353 15.9285 23.9355C15.7403 23.518 15.6462 23.0123 15.6462 22.4184C15.6462 21.4246 15.9814 20.6072 16.6518 19.9663C17.3221 19.3194 18.216 18.9431 19.3332 18.8372V16.9761H20.7357V18.8725C21.8118 19.0313 22.6556 19.4753 23.2672 20.2044C23.8846 20.9277 24.1934 21.848 24.1934 22.9653H21.212C21.212 22.3537 21.0944 21.8833 20.8592 21.554C20.624 21.2247 20.2888 21.06 19.8536 21.06C19.4655 21.06 19.1627 21.1835 18.9451 21.4305C18.7334 21.6716 18.6276 22.0068 18.6276 22.436C18.6276 22.8712 18.7511 23.2181 18.998 23.4768C19.245 23.7297 19.6419 23.9737 20.1888 24.209C20.7357 24.4383 21.2502 24.6794 21.7324 24.9322C22.2205 25.1792 22.6409 25.4615 22.9938 25.779C23.3466 26.0966 23.623 26.467 23.8229 26.8904C24.0228 27.3138 24.1228 27.8224 24.1228 28.4164C24.1228 29.4219 23.8023 30.2422 23.1614 30.8773C22.5263 31.5124 21.6589 31.8828 20.5593 31.9887V33.7616H19.1568V31.9799C17.8749 31.8446 16.8899 31.4065 16.2019 30.6656C15.5198 29.9188 15.1787 28.9368 15.1787 27.7195H18.1513C18.1513 28.3899 18.2983 28.9015 18.5923 29.2543C18.8922 29.6013 19.3156 29.7747 19.8625 29.7747C20.2623 29.7747 20.5769 29.6571 20.8063 29.4219C21.0356 29.1808 21.1503 28.8515 21.1503 28.434Z" fill="#0080FF"/>
</svg>
