<svg width="39" height="39" viewBox="0 0 39 39" fill="none" xmlns="http://www.w3.org/2000/svg">
<path fill-rule="evenodd" clip-rule="evenodd" d="M39 19.5C39 30.2696 30.2696 39 19.5 39C8.73045 39 0 30.2696 0 19.5C0 8.73045 8.73045 0 19.5 0C30.2696 0 39 8.73045 39 19.5ZM5.75291 12.636V12.6362H5.79783C6.44781 12.6423 7.66391 12.7808 7.66391 13.299V12.6362H7.66483V19.7342H9.77083V12.6372C9.83862 12.6372 9.9135 12.6365 9.99418 12.6358C10.6803 12.6298 11.786 12.6202 12.5179 12.9687C14.2144 13.7765 14.4289 14.4897 14.4289 16.5957C14.4289 18.7017 13.1224 19.6377 11.0164 20.1252C9.33157 20.5152 5.12737 20.1577 3.23587 19.9302C4.67237 20.3072 8.23957 20.9988 11.0164 20.7492C14.4874 20.4372 15.5794 19.3452 15.9694 18.3312C16.3594 17.3172 16.4764 14.9187 15.5794 13.4367C14.679 11.9491 11.9933 11.9352 9.77083 11.9352V11.9342H9.76979H7.66483H5.75291V12.636ZM5.75291 26.3254V27.0274H11.8369V26.3254H5.75291ZM9.77083 21.2938H7.66483V25.5452C7.59983 25.7662 7.35283 26.2316 6.88483 26.3252H7.66483V26.3248H9.77051V26.3252H10.5504C10.0832 26.2317 9.8363 25.7677 9.77083 25.5462V21.2938ZM17.3758 12.6359V12.6362H17.4272C18.0787 12.6432 19.2867 12.7824 19.2867 13.2989L18.7796 24.3415V24.2969C18.7796 24.3166 18.7793 24.3361 18.7789 24.3555L18.7733 24.4769C18.6717 25.9204 17.3483 26.3124 16.6736 26.3249H18.6885L18.6885 26.325H16.6736V27.027H21.7046V26.325H21.7045L21.7046 26.3249C21.0751 26.3249 19.8423 26.1672 19.7416 25.5493L20.0471 14.8214L25.604 27.0077H25.955L31.7668 15.2142V25.4667C31.7668 26.1375 30.6228 26.3182 30.0508 26.3247L30.0542 26.325H30.0508V27.027H35.7448V26.325H35.7432L35.7448 26.3247C35.0558 26.3182 33.6777 26.0322 33.6777 24.9402V13.3377C33.6777 13.1081 34.0418 12.6534 35.4842 12.6362H35.5882V11.9342H31.9612V12.3822H31.9609V11.9342L26.3255 23.8292L21.197 13.1432V12.6362H21.1978V11.9342H17.3758V12.6359ZM21.1868 12.6362H21.1586V12.6902L21.1868 12.6362ZM31.7668 26.3247L31.7701 26.325H31.7668V26.3247Z" fill="#ED1019"/>
</svg>
