<svg width="138" height="48" viewBox="0 0 138 48" fill="none" xmlns="http://www.w3.org/2000/svg">
<path d="M129.615 29L119.657 47.3428L124.636 29H129.615Z" fill="white"/>
<path d="M138 29L128.042 47.3428L133.021 29H138Z" fill="white"/>
<path d="M53.6539 31.4747V37.5059H54.4683L57.8471 31.4747H61.7871L57.4839 39.0356L62.6125 46.8827H58.6285L54.5784 40.6535H53.6539V46.8827H50V31.4747H53.6539Z" fill="white"/>
<path d="M68.9145 44.0432C69.4941 44.0432 70.0151 43.9002 70.4773 43.614C70.9395 43.3205 71.2844 42.9317 71.5118 42.4474V39.9271C71.2844 39.4429 70.9359 39.054 70.4663 38.7605C70.0041 38.467 69.4868 38.3203 68.9145 38.3203C68.1001 38.3203 67.4177 38.5954 66.8674 39.1457C66.3172 39.696 66.042 40.3747 66.042 41.1818C66.042 41.9888 66.3172 42.6675 66.8674 43.2178C67.4177 43.7681 68.1001 44.0432 68.9145 44.0432ZM71.5118 46.8827V45.8262C71.0716 46.2444 70.5507 46.5709 69.949 46.8057C69.3547 47.0331 68.7311 47.1469 68.0781 47.1469C67.0435 47.1469 66.1007 46.8827 65.2496 46.3544C64.3985 45.8188 63.7308 45.0961 63.2466 44.1863C62.7696 43.2692 62.5312 42.2677 62.5312 41.1818C62.5312 40.0959 62.7696 39.098 63.2466 38.1882C63.7308 37.2711 64.3985 36.5484 65.2496 36.0201C66.1007 35.4845 67.0435 35.2167 68.0781 35.2167C68.7311 35.2167 69.3547 35.3341 69.949 35.5689C70.5507 35.7963 71.0716 36.1191 71.5118 36.5374V35.4808H74.9896V46.8827H71.5118Z" fill="white"/>
<path d="M77.767 46.8827V35.4808H81.3109V46.8827H77.767ZM78.0972 33.874C77.7083 33.4998 77.5139 33.0412 77.5139 32.4983C77.5139 31.9553 77.7083 31.5004 78.0972 31.1336C78.4861 30.7594 78.9667 30.5723 79.539 30.5723C80.1112 30.5723 80.5918 30.7594 80.9807 31.1336C81.3696 31.5004 81.564 31.9553 81.564 32.4983C81.564 33.0412 81.3696 33.4998 80.9807 33.874C80.5918 34.2408 80.1112 34.4243 79.539 34.4243C78.9667 34.4243 78.4861 34.2408 78.0972 33.874Z" fill="white"/>
<path d="M89.9632 38.3203C89.4863 38.3203 89.0424 38.4634 88.6316 38.7495C88.228 39.0283 87.8978 39.4098 87.641 39.8941V46.8827H84.0972V35.4808H87.641V36.8235C87.9565 36.3393 88.3527 35.9504 88.8297 35.6569C89.3066 35.3634 89.8275 35.2167 90.3925 35.2167C90.7813 35.2167 91.1262 35.3047 91.427 35.4808L91.2069 38.5624C90.774 38.401 90.3594 38.3203 89.9632 38.3203Z" fill="white"/>
<path d="M93.1494 44.2083C92.5991 43.2912 92.324 42.2823 92.324 41.1818C92.324 40.0812 92.5991 39.076 93.1494 38.1662C93.707 37.2491 94.4737 36.53 95.4496 36.0091C96.4254 35.4808 97.5113 35.2167 98.7073 35.2167C99.9032 35.2167 100.989 35.4808 101.965 36.0091C102.941 36.53 103.704 37.2491 104.254 38.1662C104.812 39.076 105.091 40.0812 105.091 41.1818C105.091 42.2823 104.812 43.2912 104.254 44.2083C103.704 45.1181 102.941 45.8372 101.965 46.3654C100.989 46.8864 99.9032 47.1469 98.7073 47.1469C97.5113 47.1469 96.4254 46.8864 95.4496 46.3654C94.4737 45.8372 93.707 45.1181 93.1494 44.2083ZM96.6602 39.1457C96.1099 39.696 95.8348 40.3747 95.8348 41.1818C95.8348 41.9888 96.1099 42.6675 96.6602 43.2178C97.2105 43.7681 97.8928 44.0432 98.7073 44.0432C99.5217 44.0432 100.204 43.7681 100.754 43.2178C101.305 42.6675 101.58 41.9888 101.58 41.1818C101.58 40.3747 101.305 39.696 100.754 39.1457C100.204 38.5954 99.5217 38.3203 98.7073 38.3203C97.8928 38.3203 97.2105 38.5954 96.6602 39.1457Z" fill="white"/>
<path d="M106.359 45.2539L107.977 43.1628C108.336 43.559 108.766 43.8745 109.264 44.1093C109.763 44.3441 110.284 44.4615 110.827 44.4615C111.26 44.4615 111.598 44.3808 111.84 44.2193C112.089 44.0506 112.214 43.8268 112.214 43.548C112.214 43.2618 112.082 43.0271 111.818 42.8436C111.554 42.6529 111.102 42.4914 110.464 42.3594C109.268 42.1099 108.355 41.666 107.724 41.0277C107.093 40.3894 106.777 39.5933 106.777 38.6394C106.777 37.6416 107.17 36.8235 107.955 36.1852C108.747 35.5395 109.763 35.2167 111.003 35.2167C111.766 35.2167 112.507 35.3597 113.227 35.6459C113.953 35.9247 114.599 36.3026 115.164 36.7795L113.601 38.8706C112.816 38.2249 112.06 37.9021 111.334 37.9021C110.989 37.9021 110.71 37.9718 110.497 38.1112C110.292 38.2506 110.189 38.4413 110.189 38.6835C110.189 39.2411 110.721 39.63 111.785 39.8501C114.345 40.3783 115.626 41.6183 115.626 43.57C115.626 44.6045 115.208 45.4593 114.371 46.1343C113.542 46.8093 112.456 47.1469 111.113 47.1469C110.152 47.1469 109.253 46.9818 108.417 46.6516C107.581 46.3141 106.895 45.8482 106.359 45.2539Z" fill="white"/>
<path d="M27.7727 15.0249L23.8645 19.6668L25.4826 38.3403L40.0002 47.7524L27.7727 15.0249Z" fill="url(#paint0_linear)"/>
<path d="M22.1589 0L0 48L0.00950707 47.9953L0.0108198 47.9944L9.54845 36.6678L23.8642 19.6672L27.7724 15.0254L22.1589 0Z" fill="url(#paint1_linear)"/>
<path d="M25.4824 38.3403L22.9027 36.6673L13.4556 41.3418L26.0052 44.3725L40 47.7524L25.4824 38.3403Z" fill="url(#paint2_linear)"/>
<path d="M9.54812 36.6678L0.010498 47.9944L13.4552 41.3423L22.9023 36.6678H9.54812Z" fill="url(#paint3_linear)"/>
<defs>
<linearGradient id="paint0_linear" x1="32.7135" y1="41.3592" x2="11.039" y2="-33.4721" gradientUnits="userSpaceOnUse">
<stop stop-color="white"/>
<stop offset="1" stop-color="white" stop-opacity="0"/>
</linearGradient>
<linearGradient id="paint1_linear" x1="-36.2605" y1="106.298" x2="15.0538" y2="18.8335" gradientUnits="userSpaceOnUse">
<stop stop-color="white" stop-opacity="0"/>
<stop offset="1" stop-color="white"/>
</linearGradient>
<linearGradient id="paint2_linear" x1="-4.72955" y1="25.5111" x2="39.8382" y2="48.6316" gradientUnits="userSpaceOnUse">
<stop stop-color="white" stop-opacity="0"/>
<stop offset="1" stop-color="white"/>
</linearGradient>
<linearGradient id="paint3_linear" x1="3.94108" y1="37.8809" x2="57.1484" y2="36.6753" gradientUnits="userSpaceOnUse">
<stop stop-color="white"/>
<stop offset="1" stop-color="white" stop-opacity="0"/>
</linearGradient>
</defs>
</svg>
