<svg width="22" height="16" viewBox="0 0 22 16" fill="none" xmlns="http://www.w3.org/2000/svg">
<path fill-rule="evenodd" clip-rule="evenodd" d="M0 0H21.3333V1.23125H0V0ZM0 2.4625H21.3333V3.69375H0V2.4625ZM0 4.92188H21.3333V6.15625H0V4.92188ZM0 7.38438H21.3333V8.61563H0V7.38438ZM0 9.84688H21.3333V11.0781H0V9.84688ZM0 12.3063H21.3333V13.5375H0V12.3063ZM0 14.7688H21.3333V16H0V14.7688Z" fill="#BD3D44"/>
<path fill-rule="evenodd" clip-rule="evenodd" d="M0 1.33337H21.3333V2.54605H0V1.33337ZM0 3.75874H21.3333V4.96834H0V3.75874ZM0 6.18102H21.3333V7.3937H0V6.18102ZM0 8.60638H21.3333V9.81906H0V8.60638ZM0 11.0317H21.3333V12.2444H0V11.0317ZM0 13.454H21.3333V14.6667H0V13.454Z" fill="white"/>
<path fill-rule="evenodd" clip-rule="evenodd" d="M0 0H12.1594V8.61563H0V0Z" fill="#192F5D"/>
<path fill-rule="evenodd" clip-rule="evenodd" d="M1.01245 0.368774L1.12495 0.709399H1.4812L1.1937 0.918774L1.30308 1.26252L1.01245 1.05002L0.724951 1.2594L0.834326 0.918774L0.543701 0.709399H0.906201L1.01245 0.368774ZM3.04058 0.368774L3.14995 0.709399H3.50933L3.2187 0.918774L3.32808 1.26252L3.04058 1.05002L2.74995 1.2594L2.85933 0.918774L2.57183 0.709399H2.92808L3.04058 0.368774ZM5.06558 0.368774L5.17808 0.709399H5.5312L5.2437 0.918774L5.35308 1.26252L5.06245 1.05002L4.77495 1.2594L4.88433 0.918774L4.5937 0.709399H4.95308L5.06558 0.368774ZM7.0937 0.368774L7.20308 0.709399H7.56245L7.27183 0.918774L7.38433 1.26252L7.0937 1.05002L6.80308 1.2594L6.91558 0.918774L6.62495 0.709399H6.9812L7.0937 0.368774ZM9.1187 0.368774L9.2312 0.709399H9.58745L9.29995 0.918774L9.40933 1.26252L9.1187 1.05002L8.8312 1.2594L8.94058 0.918774L8.65308 0.709399H9.00933L9.1187 0.368774ZM11.1468 0.368774L11.2562 0.709399H11.6156L11.325 0.918774L11.4375 1.26252L11.1468 1.05002L10.8562 1.2594L10.9687 0.918774L10.6781 0.709399H11.0375L11.1468 0.368774ZM2.02808 1.23127L2.13745 1.5719H2.49683L2.2062 1.78127L2.31245 2.1219L2.0312 1.91252L1.74058 2.1219L1.8437 1.78127L1.56245 1.5719H1.9187L2.02808 1.23127ZM4.05308 1.23127L4.16558 1.5719H4.52183L4.2312 1.78127L4.3437 2.1219L4.05308 1.91252L3.76245 2.1219L3.87495 1.78127L3.58433 1.5719H3.9437L4.05308 1.23127ZM6.0812 1.23127L6.19058 1.5719H6.54995L6.25933 1.78127L6.3687 2.1219L6.0812 1.91252L5.79058 2.1219L5.89995 1.78127L5.61245 1.5719H5.9687L6.0812 1.23127ZM8.1062 1.23127L8.2187 1.5719H8.57495L8.28433 1.78127L8.39683 2.1219L8.1062 1.91252L7.8187 2.1219L7.92808 1.78127L7.63745 1.5719H7.99995L8.1062 1.23127ZM10.1343 1.23127L10.2437 1.5719H10.6031L10.3125 1.78127L10.4218 2.1219L10.1343 1.91252L9.8437 2.1219L9.95308 1.78127L9.66558 1.5719H10.0218L10.1343 1.23127ZM1.01245 2.09065L1.12495 2.43752H1.4812L1.1937 2.6469L1.30308 2.98752L1.01245 2.77502L0.724951 2.98752L0.834326 2.64377L0.543701 2.4344H0.906201L1.01245 2.09065ZM3.04058 2.09065L3.14995 2.4344H3.50933L3.2187 2.64377L3.32808 2.9844L3.04058 2.7719L2.74995 2.9844L2.85933 2.64065L2.57183 2.43127H2.92808L3.04058 2.09065ZM5.06558 2.09065L5.17808 2.4344H5.5312L5.2437 2.64377L5.35308 2.9844L5.06245 2.7719L4.77495 2.9844L4.88433 2.64065L4.5937 2.43127H4.95308L5.06558 2.09065ZM7.0937 2.09065L7.20308 2.4344H7.56245L7.27183 2.64377L7.38433 2.9844L7.0937 2.7719L6.80308 2.9844L6.91558 2.64065L6.62495 2.43127H6.9812L7.0937 2.09065ZM9.1187 2.09065L9.2312 2.4344H9.58745L9.29995 2.64377L9.40933 2.9844L9.1187 2.7719L8.8312 2.9844L8.94058 2.64065L8.65308 2.43127H9.00933L9.1187 2.09065ZM11.1468 2.09065L11.2562 2.4344H11.6156L11.325 2.64377L11.4375 2.9844L11.1468 2.7719L10.8562 2.9844L10.9687 2.64065L10.6781 2.43127H11.0375L11.1468 2.09065ZM2.02808 2.95315L2.13745 3.29377H2.49683L2.2062 3.50315L2.31558 3.8469L2.02808 3.6344L1.73745 3.84377L1.84683 3.50315L1.55933 3.29377H1.91558L2.02808 2.95315ZM4.05308 2.95315L4.16558 3.29377H4.52183L4.2312 3.50315L4.3437 3.8469L4.05308 3.6344L3.76245 3.84377L3.87495 3.50315L3.58433 3.29377H3.9437L4.05308 2.95315ZM6.0812 2.95315L6.19058 3.29377H6.54995L6.25933 3.50315L6.3687 3.8469L6.0812 3.6344L5.79058 3.84377L5.89995 3.50315L5.61245 3.29377H5.9687L6.0812 2.95315ZM8.1062 2.95315L8.2187 3.29377H8.57495L8.28745 3.50315L8.39683 3.8469L8.1062 3.6344L7.8187 3.84377L7.92808 3.50315L7.63745 3.29377H7.99995L8.1062 2.95315ZM10.1343 2.95315L10.2437 3.29377H10.6031L10.3125 3.50315L10.4218 3.8469L10.1343 3.6344L9.8437 3.84377L9.95308 3.50315L9.66558 3.29377H10.0218L10.1343 2.95315ZM1.01245 3.81565L1.12495 4.15627H1.4812L1.1937 4.36565L1.30308 4.7094L1.01245 4.4969L0.724951 4.70627L0.834326 4.36565L0.543701 4.15627H0.906201L1.01245 3.81565ZM3.04058 3.81565L3.14995 4.15627H3.50933L3.2187 4.36565L3.32808 4.70627L3.04058 4.4969L2.74995 4.70627L2.85933 4.36565L2.57183 4.15627H2.92808L3.04058 3.81565ZM5.06558 3.81565L5.17808 4.15627H5.5312L5.2437 4.36565L5.35308 4.7094L5.06245 4.4969L4.77495 4.70627L4.88433 4.36565L4.5937 4.15627H4.95308L5.06558 3.81565ZM7.0937 3.81565L7.20308 4.15627H7.56245L7.27183 4.36565L7.38433 4.7094L7.0937 4.4969L6.80308 4.70627L6.91558 4.36565L6.62495 4.15627H6.9812L7.0937 3.81565ZM9.1187 3.81565L9.2312 4.15627H9.58745L9.29995 4.36565L9.40933 4.7094L9.1187 4.4969L8.8312 4.70627L8.94058 4.36565L8.65308 4.15627H9.00933L9.1187 3.81565ZM11.1468 3.81565L11.2562 4.15627H11.6156L11.325 4.36565L11.4375 4.7094L11.1468 4.4969L10.8562 4.70627L10.9687 4.36565L10.6781 4.15627H11.0375L11.1468 3.81565ZM2.02808 4.67815L2.13745 5.01877H2.49683L2.2062 5.22815L2.31558 5.56877L2.02808 5.35627L1.73745 5.56877L1.84683 5.22502L1.55933 5.01565H1.91558L2.02808 4.67815ZM4.05308 4.67815L4.16558 5.01877H4.52183L4.2312 5.22815L4.3437 5.56877L4.05308 5.35627L3.76245 5.56877L3.87495 5.22502L3.58433 5.01565H3.9437L4.05308 4.67815ZM6.0812 4.67815L6.19058 5.01877H6.54995L6.25933 5.22815L6.3687 5.56877L6.0812 5.35627L5.79058 5.56877L5.89995 5.22502L5.61245 5.01565H5.9687L6.0812 4.67815ZM8.1062 4.67815L8.2187 5.01877H8.57495L8.28745 5.22815L8.39683 5.56877L8.1062 5.35627L7.8187 5.56877L7.92808 5.22502L7.63745 5.01565H7.99995L8.1062 4.67815ZM10.1343 4.67815L10.2437 5.01877H10.6031L10.3125 5.22815L10.4218 5.56877L10.1343 5.35627L9.8437 5.56877L9.95308 5.22502L9.66558 5.01565H10.0218L10.1343 4.67815ZM1.01245 5.53752L1.12495 5.88127H1.4812L1.1937 6.09065L1.30308 6.42815L1.01245 6.21877L0.724951 6.42815L0.834326 6.08752L0.543701 5.87815H0.906201L1.01245 5.53752ZM3.04058 5.53752L3.14995 5.88127H3.50933L3.2187 6.09065L3.3312 6.42815L3.04058 6.21877L2.74995 6.42815L2.86245 6.08752L2.57183 5.87815H2.92808L3.04058 5.53752ZM5.06558 5.53752L5.17808 5.88127H5.5312L5.2437 6.09065L5.35308 6.42815L5.06245 6.21877L4.77495 6.42815L4.88433 6.08752L4.5937 5.87815H4.95308L5.06558 5.53752ZM7.0937 5.53752L7.20308 5.88127H7.56245L7.27183 6.09065L7.38433 6.42815L7.0937 6.21877L6.80308 6.42815L6.91558 6.08752L6.62495 5.87815H6.9812L7.0937 5.53752ZM9.1187 5.53752L9.2312 5.88127H9.58745L9.29995 6.09065L9.40933 6.42815L9.1187 6.21877L8.8312 6.42815L8.94058 6.08752L8.65308 5.87815H9.00933L9.1187 5.53752ZM11.1468 5.53752L11.2562 5.88127H11.6156L11.325 6.09065L11.4375 6.42815L11.1468 6.21877L10.8562 6.42815L10.9687 6.08752L10.6781 5.87815H11.0375L11.1468 5.53752ZM2.02808 6.40002L2.13745 6.74065H2.49683L2.2062 6.95002L2.31558 7.29377L2.02808 7.08127L1.73745 7.29065L1.84683 6.95002L1.55933 6.74065H1.91558L2.02808 6.40002ZM4.05308 6.40002L4.16558 6.74065H4.52183L4.2312 6.95002L4.3437 7.29377L4.05308 7.08127L3.76245 7.29065L3.87495 6.95002L3.58433 6.74065H3.9437L4.05308 6.40002ZM6.0812 6.40002L6.19058 6.74065H6.54995L6.25933 6.95002L6.3687 7.29377L6.0812 7.08127L5.79058 7.29065L5.89995 6.95002L5.61245 6.74065H5.9687L6.0812 6.40002ZM8.1062 6.40002L8.2187 6.74065H8.57495L8.28745 6.95002L8.39683 7.29377L8.1062 7.08127L7.8187 7.29065L7.92808 6.95002L7.63745 6.74065H7.99995L8.1062 6.40002ZM10.1343 6.40002L10.2437 6.74065H10.6031L10.3125 6.95002L10.4218 7.29377L10.1343 7.08127L9.8437 7.29065L9.95308 6.95002L9.66558 6.74065H10.0218L10.1343 6.40002ZM1.01245 7.26252L1.12495 7.60315H1.4812L1.1937 7.81252L1.30308 8.15315L1.01245 7.94377L0.724951 8.15315L0.834326 7.8094L0.543701 7.60002H0.906201L1.01245 7.26252ZM3.04058 7.26252L3.14995 7.60315H3.50933L3.2187 7.81252L3.3312 8.15315L3.04058 7.94377L2.74995 8.15315L2.86245 7.8094L2.57183 7.60002H2.92808L3.04058 7.26252ZM5.06558 7.26252L5.17808 7.60315H5.5312L5.24995 7.81252L5.35933 8.15315L5.0687 7.94377L4.7812 8.15315L4.89058 7.8094L4.59995 7.60002H4.95933L5.06558 7.26252ZM7.0937 7.26252L7.20308 7.60315H7.56245L7.27183 7.81252L7.38433 8.15315L7.0937 7.94377L6.80308 8.15315L6.91558 7.8094L6.62495 7.60002H6.9812L7.0937 7.26252ZM9.1187 7.26252L9.2312 7.60315H9.58745L9.29995 7.81252L9.40933 8.15315L9.1187 7.94377L8.8312 8.15315L8.94058 7.8094L8.65308 7.60002H9.00933L9.1187 7.26252ZM11.1468 7.26252L11.2562 7.60315H11.6156L11.325 7.81252L11.4375 8.15315L11.1468 7.94377L10.8562 8.15315L10.9687 7.8094L10.6781 7.60002H11.0375L11.1468 7.26252Z" fill="white"/>
</svg>
