<svg width="46" height="46" viewBox="0 0 46 46" fill="none" xmlns="http://www.w3.org/2000/svg">
<path d="M23 46C35.7025 46 46 35.7025 46 23C46 10.2975 35.7025 0 23 0C10.2975 0 0 10.2975 0 23C0 35.7025 10.2975 46 23 46Z" fill="#00A478"/>
<path d="M19.8672 21.6239V15.3203H11.5403V9.79492H34.8091V15.3981H26.4821V21.6239H19.8672Z" fill="white"/>
<path d="M22.9803 19.1336C31.6964 19.1336 36.2101 21.546 36.7548 22.3243C36.2101 23.1025 31.7742 24.2698 22.9803 24.2698C14.2643 24.2698 9.7506 23.1025 9.20585 22.3243C9.7506 21.4682 14.2643 19.1336 22.9803 19.1336ZM22.9803 18.511C14.6534 18.511 7.96069 20.2231 7.96069 22.3243C7.96069 24.4255 14.6534 26.1375 22.9803 26.1375C31.3073 26.1375 38 24.4255 38 22.3243C38 20.2231 31.3073 18.511 22.9803 18.511Z" fill="white"/>
<path d="M26.4825 23.5695V19.2114C25.393 19.1336 24.2257 19.0558 23.0584 19.0558C21.9689 19.0558 20.9572 19.0558 19.9455 19.1336V23.4916C20.8794 23.4916 21.9689 23.5695 23.0584 23.5695C24.2257 23.6473 25.393 23.6473 26.4825 23.5695ZM22.9806 26.1376C21.891 26.1376 20.8794 26.1376 19.8677 26.0598V37.6553H26.4047V25.9819C25.3152 26.0598 24.1479 26.1376 22.9806 26.1376Z" fill="white"/>
</svg>
