<svg width="46" height="46" viewBox="0 0 46 46" fill="none" xmlns="http://www.w3.org/2000/svg">
<path d="M23 46C10.3141 46 0 35.6859 0 23C0 10.3141 10.3141 0 23 0C35.6859 0 46 10.3141 46 23C46 35.6859 35.6859 46 23 46Z" fill="black"/>
<path d="M7.4751 32.0922C7.97822 30.6188 8.44541 29.2531 8.94854 27.8516C8.98447 27.7078 9.27197 27.6 9.41572 27.6C10.2423 27.5641 11.1048 27.6 11.9313 27.6H28.3907C28.822 27.6 29.0376 27.4563 29.1454 27.061C30.0438 24.3656 31.0142 21.6703 31.9485 18.975C31.9845 18.8313 32.0204 18.6875 32.0923 18.4719H12.147C12.6501 16.9625 13.1532 15.561 13.6204 14.1594C13.6563 14.0516 13.872 13.9438 14.0157 13.9438C14.5188 13.9078 15.022 13.9438 15.5251 13.9438C22.2813 13.9438 29.0376 13.9797 35.7579 13.9078C37.7704 13.8719 39.9267 15.4531 39.0642 18.4C38.4173 20.5922 37.5907 22.7485 36.836 24.9406C36.5845 25.6953 36.3329 26.4141 36.0814 27.1688C35.147 29.7563 33.2423 31.3375 30.6188 32.0563C30.3673 32.1281 30.1157 32.1281 29.8642 32.1281H8.01416C7.87041 32.0922 7.72666 32.0922 7.4751 32.0922Z" fill="white"/>
<path d="M20.089 20.8796C19.5859 22.3171 19.0828 23.6468 18.5796 24.9765C18.5437 25.0843 18.3281 25.1562 18.2203 25.1562H6.89995C6.86401 25.1562 6.79214 25.1203 6.68433 25.0843C7.15151 23.7546 7.6187 22.4609 8.12183 21.1671C8.15776 21.0593 8.37339 20.9156 8.4812 20.9156C12.3265 20.8796 16.1718 20.8796 20.089 20.8796Z" fill="white"/>
</svg>
