<svg width="46" height="46" viewBox="0 0 46 46" fill="none" xmlns="http://www.w3.org/2000/svg">
<circle cx="23" cy="23" r="23" fill="#F3BA2F"/>
<path d="M17.5622 20.7659L23.0001 15.3281L28.4405 20.7683L31.6045 17.6043L23.0001 9L14.3984 17.6017L17.5623 20.7657L17.5622 20.7659ZM9 23.0001L12.1641 19.8355L15.328 22.9994L12.1639 26.1636L9 23.0001ZM17.5622 25.2347L23.0001 30.6722L28.4404 25.2321L31.6061 28.3944L31.6045 28.3961L23.0001 37.0002L14.3984 28.3986L14.3939 28.3941L17.5626 25.2343L17.5622 25.2347ZM30.6721 23.0015L33.8362 19.8373L37.0001 23.0012L33.8361 26.1654L30.6721 23.0015Z" fill="white"/>
<path d="M26.2089 22.9983H26.2103L22.9999 19.7877L20.6269 22.16L20.3543 22.4327L19.7921 22.9951L19.7876 22.9995L19.7921 23.0041L22.9999 26.2123L26.2105 23.0017L26.2121 22.9999L26.2091 22.9983" fill="white"/>
</svg>
