<svg width="46" height="46" viewBox="0 0 46 46" fill="none" xmlns="http://www.w3.org/2000/svg">
<path d="M23 46C35.7025 46 46 35.7025 46 23C46 10.2975 35.7025 0 23 0C10.2975 0 0 10.2975 0 23C0 35.7025 10.2975 46 23 46Z" fill="#F5B300"/>
<path d="M16.7603 11.2461C17.5584 11.4637 18.3565 11.6088 19.1546 11.8265C19.9527 12.0442 20.7508 12.1893 21.5489 12.4069C21.7666 12.4795 21.8391 12.4069 21.9117 12.1893C22.2019 10.9558 22.4921 9.79496 22.7823 8.56152C22.8549 8.34386 22.9275 8.2713 23.1451 8.34386C23.8707 8.56152 24.5237 8.70663 25.2492 8.85174C25.4669 8.9243 25.4669 8.99686 25.3943 9.14197C25.1041 10.3028 24.8139 11.5363 24.5237 12.6972C24.5237 12.7697 24.5237 12.8423 24.4511 12.9874C25.0316 13.1325 25.6846 13.2776 26.265 13.4227C26.3376 13.4227 26.4101 13.2776 26.4827 13.2051C26.7003 12.2618 26.918 11.3912 27.2082 10.448L27.4259 9.5773C27.4259 9.43219 27.4984 9.35963 27.6435 9.43219C28.3691 9.64985 29.0946 9.79496 29.8928 10.0126C29.9653 10.0126 29.9653 10.0852 30.0379 10.0852C29.8202 11.0284 29.6025 11.8991 29.3849 12.7697C29.3123 13.1325 29.2398 13.4953 29.0946 13.8581C29.0221 14.0757 29.0946 14.1483 29.3123 14.2208L31.7066 15.3092C32.4322 15.7445 33.0852 16.3249 33.5931 17.0505C34.2461 18.1388 34.3186 19.2997 34.0284 20.4606C33.8107 21.2587 33.5205 21.9842 32.9401 22.5647C32.5047 23 31.9243 23.2902 31.3439 23.5079C31.2713 23.5079 31.1987 23.5805 31.0536 23.5805C31.3439 23.7981 31.6341 23.9432 31.9243 24.1609C32.795 24.8139 33.3754 25.612 33.6656 26.6278C33.8107 27.4259 33.7382 28.2965 33.5205 29.0946C33.2303 30.1104 32.8675 30.9811 32.2145 31.7792C31.4164 32.7224 30.4006 33.2303 29.2398 33.3754C27.7161 33.5931 26.265 33.448 24.8139 33.2303C24.5962 33.1577 24.4511 33.2303 24.3786 33.448C24.0883 34.6088 23.7981 35.8423 23.5079 37.0032C23.4353 37.2934 23.4353 37.3659 23.0726 37.2208C22.4196 37.0757 21.694 36.8581 21.041 36.7129C20.8234 36.6404 20.8234 36.5678 20.8959 36.4227C21.1861 35.1893 21.4764 33.9558 21.8391 32.795C21.8391 32.6499 21.9117 32.5773 21.7666 32.5047C21.1861 32.3596 20.6057 32.2145 19.9527 32.0694C19.8076 32.7224 19.5899 33.3754 19.4448 34.0284C19.2997 34.6814 19.082 35.3344 18.9369 35.9874C18.8644 36.1325 18.8644 36.2051 18.6467 36.1325C17.9211 35.9148 17.1956 35.7697 16.47 35.6246C16.2524 35.5521 16.2524 35.4795 16.3249 35.3344C16.6152 34.101 16.9054 32.8675 17.2681 31.7066C17.2681 31.6341 17.3407 31.5615 17.3407 31.4164C15.6719 30.9811 14.0032 30.5457 12.2618 30.1104C12.407 29.8202 12.4795 29.6025 12.6246 29.3123C12.9148 28.6593 13.2051 28.0063 13.4227 27.4259C13.4953 27.2082 13.5678 27.2082 13.7855 27.2082C14.2934 27.3533 14.8738 27.4984 15.3817 27.571C15.9622 27.7161 16.3975 27.4259 16.47 26.918C17.4133 23.2177 18.3565 19.5174 19.2271 15.7445C19.3723 15.164 19.0095 14.5111 18.3565 14.2934C17.7035 14.0757 17.0505 13.9306 16.47 13.7855C16.3249 13.7855 16.2524 13.7129 16.3249 13.5678C16.5426 12.7697 16.7603 11.8991 16.9779 11.101C16.6877 11.3186 16.6877 11.3186 16.7603 11.2461ZM20.4606 29.1672C20.5331 29.1672 20.6057 29.2398 20.6057 29.2398C21.7666 29.53 23 29.8928 24.2335 29.9653C25.1041 30.0379 25.9022 30.0379 26.7003 29.7476C28.0789 29.3123 28.6593 27.4984 27.8612 26.3375C27.4984 25.7571 26.918 25.3943 26.3376 25.0316C25.0316 24.306 23.5079 24.0158 22.0568 23.7256C21.8391 23.653 21.8391 23.7256 21.7666 23.9432C21.6215 24.6688 21.4038 25.3218 21.2587 26.0473C20.9685 27.0631 20.7508 28.0789 20.4606 29.1672ZM26.5552 21.7666C26.7003 21.7666 27.0631 21.694 27.3533 21.6215C28.7319 21.3312 29.4574 19.735 28.7319 18.5016C28.3691 17.8486 27.7161 17.4133 27.0631 17.123C26.0473 16.6877 25.0316 16.47 23.9432 16.1798C23.7256 16.1073 23.653 16.1798 23.5805 16.3975C23.2177 17.9211 22.8549 19.3722 22.4196 20.8959C22.347 21.041 22.4196 21.1136 22.5647 21.1861C22.8549 21.2587 23.0726 21.3312 23.3628 21.4038C24.4511 21.5489 25.3943 21.7666 26.5552 21.7666Z" fill="white"/>
</svg>
