<svg width="46" height="46" viewBox="0 0 46 46" fill="none" xmlns="http://www.w3.org/2000/svg">
<path d="M23 46C35.7025 46 46 35.7025 46 23C46 10.2975 35.7025 0 23 0C10.2975 0 0 10.2975 0 23C0 35.7025 10.2975 46 23 46Z" fill="#FF0000"/>
<path d="M19.867 21.6239V15.3203H11.54V9.79492H34.8088V15.3981H26.4819V21.6239H19.867Z" fill="white"/>
<path d="M22.9806 19.1336C31.6967 19.1336 36.2103 21.5461 36.7551 22.3243C36.2103 23.1025 31.7745 24.2699 22.9806 24.2699C14.2645 24.2699 9.75084 23.1025 9.20609 22.3243C9.75084 21.4683 14.2645 19.1336 22.9806 19.1336V19.1336ZM22.9806 18.511C14.6536 18.511 7.96094 20.2231 7.96094 22.3243C7.96094 24.4255 14.6536 26.1376 22.9806 26.1376C31.3075 26.1376 38.0002 24.4255 38.0002 22.3243C38.0002 20.2231 31.3075 18.511 22.9806 18.511V18.511Z" fill="white"/>
<path d="M26.483 23.5695V19.2115C25.3935 19.1337 24.2262 19.0558 23.0589 19.0558C21.9694 19.0558 20.9577 19.0558 19.946 19.1337V23.4917C20.8799 23.4917 21.9694 23.5695 23.0589 23.5695C24.2262 23.6473 25.3935 23.6473 26.483 23.5695V23.5695ZM22.981 26.1377C21.8915 26.1377 20.8799 26.1377 19.8682 26.0598V37.6553H26.4052V25.982C25.3157 26.0598 24.1484 26.1377 22.981 26.1377Z" fill="white"/>
</svg>
