<svg width="46" height="46" viewBox="0 0 46 46" fill="none" xmlns="http://www.w3.org/2000/svg">
<path d="M23 46C35.7025 46 46 35.7025 46 23C46 10.2975 35.7025 0 23 0C10.2975 0 0 10.2975 0 23C0 35.7025 10.2975 46 23 46Z" fill="#F8BF1A"/>
<path d="M10.2302 35.9149V29.8203H13.7854V15.8897H10.2302V10.0127H25.104C26.1198 10.0127 27.1356 10.3029 28.0788 10.6657C29.9652 11.3912 31.634 12.4796 32.94 14.0758C34.1009 15.4543 34.899 17.0506 35.3343 18.8644C36.0599 21.9117 36.0599 25.0316 35.1892 28.0789C34.0283 32.0695 31.5615 34.754 27.3533 35.6972C26.6277 35.8423 25.8296 35.9149 25.104 35.9875H10.8107C10.593 35.9149 10.4479 35.9149 10.2302 35.9149ZM21.0409 29.8203C21.8391 29.8203 22.6372 29.8928 23.4353 29.8203C24.451 29.7477 25.3943 29.3849 26.0473 28.5143C26.6277 27.7887 27.1356 26.9906 27.4258 26.12C28.0062 24.161 27.7886 22.202 27.3533 20.243C27.1356 19.0821 26.5551 17.9938 25.8296 17.1231C25.3943 16.6152 24.8138 16.0348 24.1608 15.9622C23.1451 15.7446 22.0567 15.8897 21.0409 15.8897V29.8203Z" fill="white"/>
</svg>
