<svg width="46" height="46" viewBox="0 0 46 46" fill="none" xmlns="http://www.w3.org/2000/svg">
<circle cx="23" cy="23" r="23" fill="#FF0000"/>
<path fill-rule="evenodd" clip-rule="evenodd" d="M7.63117 15.7441V15.7442H7.66142C8.3367 15.7484 9.6293 15.893 9.6293 16.4469V15.7442H9.63079V23.2686H11.8329V15.7452C11.9044 15.7452 11.9835 15.7445 12.0688 15.7437L12.0688 15.7437H12.0688C12.7865 15.7374 13.9429 15.7271 14.7084 16.0966C16.4829 16.953 16.7072 17.709 16.7072 19.9415C16.7072 22.174 15.3407 23.1662 13.1379 23.683C11.3757 24.0964 6.9784 23.7174 5 23.4763C6.50249 23.8759 10.2336 24.6091 13.1379 24.3445C16.7684 24.0137 17.9106 22.8561 18.3185 21.7812C18.7264 20.7063 18.8488 18.1637 17.9106 16.5927C16.9685 15.0153 14.158 15.001 11.8329 15.001V15H11.8326V15H7.63117V15.7441ZM7.6311 30.2557V30.9999H13.9946V30.2557H7.6311ZM11.8329 24.9218H9.63086V29.4283C9.56289 29.6626 9.30462 30.1559 8.81527 30.2552H9.63086V30.2551H11.8329V24.9218ZM11.8333 29.4283C11.9012 29.6626 12.1594 30.1559 12.6487 30.2552H11.8333V29.4283Z" fill="white"/>
<path fill-rule="evenodd" clip-rule="evenodd" d="M19.3592 15.7442V15H23.3568V15.7238L23.3569 15.7235V16.2817L28.721 27.6096L34.6151 15.0005V15H34.6153H38.4087V15.7442H38.2862C36.7889 15.7652 36.4104 16.2451 36.4104 16.4877V28.7871C36.4104 29.9447 37.8518 30.2479 38.5724 30.2548L38.5701 30.2553H38.5724V30.9994H32.6168V30.2553H32.6218L32.6168 30.2548C33.2151 30.2479 34.4117 30.0563 34.4117 29.3453V18.4782L28.3335 30.979H27.9663L22.1536 18.0594L22.1539 18.0589H22.1524L22.1525 18.0593L21.8332 29.4271C21.9317 30.087 23.227 30.2552 23.8873 30.2552L23.8872 30.2553H23.8873V30.9994H18.6251V30.2553H20.7319L20.7319 30.2552H18.6251C19.3268 30.242 20.6991 29.8311 20.8194 28.3224L20.8277 28.1403L20.8279 28.1054V28.1356L21.3573 16.4469C21.3573 15.8932 20.0657 15.7485 19.3903 15.7442H19.3592ZM23.3147 15.7442V15.8055L23.3463 15.7442H23.3147ZM34.4166 30.2553L34.4117 30.2548V30.2553H34.4166Z" fill="white"/>
</svg>
