<svg width="46" height="46" viewBox="0 0 46 46" fill="none" xmlns="http://www.w3.org/2000/svg">
<path d="M23 46C35.7025 46 46 35.7025 46 23C46 10.2975 35.7025 0 23 0C10.2975 0 0 10.2975 0 23C0 35.7025 10.2975 46 23 46Z" fill="#739BEE"/>
<path d="M31.5677 26.1696C30.5758 25.5831 29.4589 25.4135 28.352 25.3733C27.4234 25.3402 26.0376 24.7307 26.0376 23.0014C26.0376 21.7105 27.0582 20.6726 28.352 20.6266C29.4589 20.5878 30.5772 20.4168 31.5691 19.8303C34.0316 18.3726 35.1197 15.3151 34.1465 12.5766C33.1734 9.8382 30.422 8.21095 27.6203 8.71695C24.8186 9.22295 22.7759 11.7156 22.7759 14.6308C22.7759 15.7938 23.1813 16.8647 23.6959 17.8566C24.13 18.6918 24.3486 20.2428 22.8622 21.1211C21.7553 21.7752 20.3753 21.3612 19.6853 20.2313C19.1046 19.2768 18.4016 18.3827 17.4169 17.8005C14.9545 16.3429 11.825 16.9093 9.99655 19.1403C9.10936 20.231 8.625 21.594 8.625 22.9999C8.625 24.4059 9.10936 25.7689 9.99655 26.8596C11.825 29.0921 14.9545 29.657 17.4169 28.1994C18.4016 27.6186 19.1045 26.7245 19.6867 25.77C20.164 24.9866 21.3571 23.9875 22.8622 24.8788C23.9662 25.5328 24.3083 26.9631 23.6959 28.1433C23.1799 29.1352 22.7759 30.2061 22.7759 31.3705C22.7759 34.2843 24.8186 36.7769 27.6203 37.2829C30.422 37.7889 33.1734 36.1617 34.1465 33.4233C35.1183 30.6848 34.0316 27.6273 31.5691 26.1696H31.5677Z" fill="white"/>
</svg>
