<svg width="169" height="26" viewBox="0 0 169 26" fill="none" xmlns="http://www.w3.org/2000/svg">
<path d="M0.9 2.5H4.5V16.85H11.475V20H0.9V2.5ZM18.6477 20.25C17.381 20.25 16.281 20.0083 15.3477 19.525C14.4143 19.025 13.6893 18.325 13.1727 17.425C12.6727 16.525 12.4227 15.4667 12.4227 14.25C12.4227 12.4167 12.981 10.9583 14.0977 9.875C15.2143 8.79167 16.731 8.25 18.6477 8.25C20.5477 8.25 22.0227 8.76667 23.0727 9.8C24.1227 10.8167 24.6477 12.25 24.6477 14.1C24.6477 14.2667 24.6393 14.425 24.6227 14.575C24.606 14.725 24.5977 14.85 24.5977 14.95H15.7227C15.8227 15.85 16.1227 16.55 16.6227 17.05C17.1393 17.5333 17.8143 17.775 18.6477 17.775C20.0643 17.775 21.0977 17.2167 21.7477 16.1L24.5977 17C23.3977 19.1667 21.4143 20.25 18.6477 20.25ZM18.5977 10.55C17.031 10.55 16.0977 11.3583 15.7977 12.975H21.1477C21.081 12.2417 20.8143 11.6583 20.3477 11.225C19.8977 10.775 19.3143 10.55 18.5977 10.55ZM25.5898 8.5H27.5648V4.5H30.7148V8.5H32.7148V11.25H30.7148V20H27.5648V11.25H25.5898V8.5ZM41.8635 13C41.8635 12.25 41.7135 11.675 41.4135 11.275C41.1301 10.8583 40.6468 10.65 39.9635 10.65C39.2968 10.65 38.7468 10.8583 38.3135 11.275C37.8801 11.6917 37.6635 12.2667 37.6635 13V20H34.4135V0.499999H37.6635V10.175C37.9968 9.54167 38.4551 9.04167 39.0385 8.675C39.6385 8.30833 40.3468 8.125 41.1635 8.125C42.5135 8.125 43.5051 8.50833 44.1385 9.275C44.7885 10.025 45.1135 11.1167 45.1135 12.55V20H41.8635V13ZM49.3307 11.75L48.1307 9.55C48.7307 9.23333 49.464 8.93333 50.3307 8.65C51.1973 8.35 52.164 8.2 53.2307 8.2C54.214 8.2 55.089 8.34167 55.8557 8.625C56.6223 8.90833 57.2223 9.325 57.6557 9.875C58.1057 10.4083 58.3307 11.0667 58.3307 11.85V20H55.1807V18.425C54.8307 19.025 54.2973 19.4833 53.5807 19.8C52.8807 20.1 52.1473 20.25 51.3807 20.25C50.6473 20.25 49.9723 20.1083 49.3557 19.825C48.739 19.5417 48.2473 19.1333 47.8807 18.6C47.514 18.05 47.3307 17.3833 47.3307 16.6C47.3307 15.5 47.7223 14.625 48.5057 13.975C49.289 13.3083 50.3973 12.975 51.8307 12.975C52.564 12.975 53.2057 13.05 53.7557 13.2C54.3223 13.35 54.7973 13.525 55.1807 13.725V12.55C55.1807 11.9167 54.9723 11.4583 54.5557 11.175C54.1557 10.8917 53.5973 10.75 52.8807 10.75C52.0807 10.75 51.3473 10.875 50.6807 11.125C50.014 11.375 49.564 11.5833 49.3307 11.75ZM50.6057 16.4C50.6057 16.9167 50.7807 17.3167 51.1307 17.6C51.4807 17.8667 51.9307 18 52.4807 18C53.214 18 53.8473 17.7833 54.3807 17.35C54.914 16.9 55.1807 16.25 55.1807 15.4C54.4307 15.0667 53.614 14.9 52.7307 14.9C51.9807 14.9 51.439 15.0333 51.1057 15.3C50.7723 15.55 50.6057 15.9167 50.6057 16.4ZM69.1129 2.5H72.7129V9.05H80.8629V2.5H84.4629V20H80.8629V12.325H72.7129V20H69.1129V2.5ZM87.1297 14.25C87.1297 13.05 87.4047 12 87.9547 11.1C88.5214 10.2 89.2797 9.5 90.2297 9C91.1964 8.5 92.288 8.25 93.5047 8.25C94.7214 8.25 95.813 8.5 96.7797 9C97.7464 9.5 98.5047 10.2 99.0547 11.1C99.6214 12 99.9047 13.05 99.9047 14.25C99.9047 15.4333 99.6214 16.4833 99.0547 17.4C98.5047 18.3 97.7464 19 96.7797 19.5C95.813 20 94.7214 20.25 93.5047 20.25C92.288 20.25 91.1964 20 90.2297 19.5C89.2797 19 88.5214 18.3 87.9547 17.4C87.4047 16.4833 87.1297 15.4333 87.1297 14.25ZM90.4547 14.25C90.4547 15.2167 90.7464 16 91.3297 16.6C91.9297 17.2 92.6547 17.5 93.5047 17.5C94.3547 17.5 95.0714 17.2 95.6547 16.6C96.2547 16 96.5547 15.2167 96.5547 14.25C96.5547 13.2667 96.2547 12.4833 95.6547 11.9C95.0714 11.3 94.3547 11 93.5047 11C92.6547 11 91.9297 11.3 91.3297 11.9C90.7464 12.4833 90.4547 13.2667 90.4547 14.25ZM102.309 0.499999H105.559V20H102.309V0.499999ZM107.979 14.25C107.979 12.9667 108.238 11.8833 108.754 11C109.271 10.1 109.946 9.41667 110.779 8.95C111.629 8.48333 112.538 8.25 113.504 8.25C115.221 8.25 116.538 8.96667 117.454 10.4V0.499999H120.704V20H117.454V18.1C116.538 19.5333 115.221 20.25 113.504 20.25C112.538 20.25 111.629 20.0167 110.779 19.55C109.946 19.0833 109.271 18.4 108.754 17.5C108.238 16.6 107.979 15.5167 107.979 14.25ZM111.354 14.25C111.354 15.2667 111.654 16.075 112.254 16.675C112.871 17.2583 113.604 17.55 114.454 17.55C114.921 17.55 115.379 17.425 115.829 17.175C116.296 16.9083 116.679 16.5333 116.979 16.05C117.296 15.55 117.454 14.95 117.454 14.25C117.454 13.55 117.296 12.9583 116.979 12.475C116.679 11.975 116.296 11.6 115.829 11.35C115.379 11.0833 114.921 10.95 114.454 10.95C113.604 10.95 112.871 11.2417 112.254 11.825C111.654 12.4083 111.354 13.2167 111.354 14.25ZM123.643 4.05C123.643 3.51667 123.827 3.075 124.193 2.725C124.577 2.375 125.043 2.2 125.593 2.2C126.143 2.2 126.602 2.375 126.968 2.725C127.352 3.075 127.543 3.51667 127.543 4.05C127.543 4.56667 127.352 5.00833 126.968 5.375C126.602 5.725 126.143 5.9 125.593 5.9C125.043 5.9 124.577 5.725 124.193 5.375C123.827 5.00833 123.643 4.56667 123.643 4.05ZM123.993 8.5H127.143V20H123.993V8.5ZM138.03 13C138.03 12.25 137.88 11.675 137.58 11.275C137.297 10.8583 136.814 10.65 136.13 10.65C135.464 10.65 134.914 10.8583 134.48 11.275C134.047 11.6917 133.83 12.2667 133.83 13V20H130.58V8.5H133.83V10.25C134.547 8.91667 135.714 8.25 137.33 8.25C138.697 8.25 139.714 8.64167 140.38 9.425C141.047 10.1917 141.38 11.2667 141.38 12.65V20H138.03V13ZM144.02 20.8H147.22C147.27 21.55 147.553 22.1417 148.07 22.575C148.586 23.0083 149.27 23.225 150.12 23.225C150.67 23.225 151.186 23.1 151.67 22.85C152.153 22.6 152.536 22.2167 152.82 21.7C153.12 21.1833 153.27 20.5333 153.27 19.75V17.975C152.37 19.3583 151.053 20.05 149.32 20.05C148.353 20.05 147.445 19.825 146.595 19.375C145.761 18.925 145.086 18.2583 144.57 17.375C144.053 16.4917 143.795 15.4167 143.795 14.15C143.795 12.8667 144.053 11.7917 144.57 10.925C145.086 10.0417 145.761 9.375 146.595 8.925C147.445 8.475 148.353 8.25 149.32 8.25C151.053 8.25 152.37 8.94167 153.27 10.325V8.5H156.395V19.75C156.395 21.1833 156.111 22.35 155.545 23.25C154.995 24.1667 154.253 24.8333 153.32 25.25C152.386 25.6833 151.37 25.9 150.27 25.9C148.253 25.9 146.728 25.425 145.695 24.475C144.678 23.5417 144.12 22.3167 144.02 20.8ZM147.17 14.15C147.17 15.1667 147.47 15.9583 148.07 16.525C148.686 17.075 149.42 17.35 150.27 17.35C150.736 17.35 151.195 17.2333 151.645 17C152.111 16.75 152.495 16.3917 152.795 15.925C153.111 15.4417 153.27 14.85 153.27 14.15C153.27 13.45 153.111 12.8667 152.795 12.4C152.495 11.9167 152.111 11.5583 151.645 11.325C151.195 11.075 150.736 10.95 150.27 10.95C149.42 10.95 148.686 11.225 148.07 11.775C147.47 12.325 147.17 13.1167 147.17 14.15ZM160.086 16.025C160.819 16.6917 161.478 17.175 162.061 17.475C162.644 17.7583 163.186 17.9 163.686 17.9C164.569 17.9 165.011 17.55 165.011 16.85C165.011 16.4167 164.803 16.075 164.386 15.825C163.986 15.5583 163.361 15.2833 162.511 15C161.978 14.8167 161.461 14.5917 160.961 14.325C160.461 14.0417 160.053 13.675 159.736 13.225C159.419 12.7583 159.261 12.1667 159.261 11.45C159.261 10.4 159.653 9.60833 160.436 9.075C161.236 8.525 162.211 8.25 163.361 8.25C164.328 8.25 165.211 8.425 166.011 8.775C166.811 9.125 167.494 9.56667 168.061 10.1L166.636 12.15C166.219 11.7 165.719 11.3333 165.136 11.05C164.553 10.75 163.994 10.6 163.461 10.6C163.094 10.6 162.803 10.675 162.586 10.825C162.369 10.975 162.261 11.1833 162.261 11.45C162.261 11.8667 162.503 12.1833 162.986 12.4C163.469 12.6167 164.094 12.875 164.861 13.175C165.478 13.4083 166.044 13.675 166.561 13.975C167.078 14.2583 167.486 14.6167 167.786 15.05C168.103 15.4833 168.261 16.05 168.261 16.75C168.261 17.9 167.886 18.8 167.136 19.45C166.403 20.0833 165.378 20.4 164.061 20.4C162.844 20.4 161.769 20.1667 160.836 19.7C159.919 19.2333 159.144 18.6833 158.511 18.05L160.086 16.025Z" fill="white"/>
</svg>
