<svg width="291" height="31" viewBox="0 0 291 31" fill="none" xmlns="http://www.w3.org/2000/svg">
<path fill-rule="evenodd" clip-rule="evenodd" d="M32.2287 27.5553C32.4763 27.8007 32.4763 28.2936 32.4763 28.539C32.4763 30.0158 31.4903 30.9995 30.0136 30.9995H8.11225C7.88464 31.0049 7.6583 30.964 7.44694 30.8793C7.23558 30.7947 7.0436 30.668 6.8826 30.5071C6.72161 30.3461 6.59495 30.1541 6.5103 29.9427C6.42565 29.7314 6.38476 29.505 6.39011 29.2774C6.39011 28.539 7.12848 27.8007 8.11225 27.8007H28.539L21.4007 15.7413C21.1553 14.9986 21.4007 14.017 22.1391 13.7716C22.8775 13.2787 23.8612 13.5262 24.3542 14.2624L32.2287 27.5553V27.5553Z" fill="white"/>
<path fill-rule="evenodd" clip-rule="evenodd" d="M20.4149 1.22153C20.6087 0.78117 20.9605 0.429401 21.4008 0.23558C21.9611 -0.0272625 22.5993 -0.0718922 23.1908 0.110405C23.7822 0.292702 24.2845 0.688849 24.5997 1.22153L35.6752 19.924C35.8186 20.1412 35.8967 20.3692 35.9206 20.6102V20.9164C35.8958 21.1619 35.8166 21.3988 35.6889 21.6098C35.5612 21.8209 35.3881 22.001 35.1823 22.1369C34.1985 22.6299 33.2147 22.3823 32.7218 21.3986L22.6322 4.17284L15.496 15.9889C15.0031 16.7273 14.0193 16.9727 13.2809 16.4819C12.5425 16.2365 12.295 15.2527 12.7879 14.5122L20.4149 1.22153V1.22153Z" fill="white"/>
<path fill-rule="evenodd" clip-rule="evenodd" d="M2.45255 24.3521C1.95958 24.3521 1.46661 24.3521 1.22121 24.1067C-0.00578553 23.3683 -0.255528 22.1391 0.237442 20.9078L11.3108 2.20532C11.8038 1.46695 12.7876 1.22154 13.5259 1.71234C14.5097 1.95991 14.7573 2.94368 14.2643 3.68205L3.92929 21.1532H17.9561C18.9399 21.1532 19.6783 21.8916 19.6783 22.8753C19.6783 23.6137 18.9399 24.3521 17.9561 24.3521H2.45255Z" fill="white"/>
<path d="M49.8975 5.70658H53.9484V21.9107H61.797V25.4677H49.8975V5.70658Z" fill="white"/>
<path d="M64.073 5.70658H76.6196V9.15066H68.0114V13.3005H76.057V16.6599H68.0114V22.0236H76.6196V25.4677H64.073V5.70658Z" fill="white"/>
<path d="M78.6145 9.3765V5.70658H93.271V9.3765H87.9542V25.4677H83.9032V9.3765H78.6145Z" fill="white"/>
<path d="M95.556 5.70658H99.6069V13.1029H108.778V5.70658H112.829V25.4677H108.778V16.801H99.6069V25.4677H95.556V5.70658Z" fill="white"/>
<path d="M130.345 25.4677L128.292 21.0073H121.54L119.515 25.4677H114.929L124.916 4.52092L134.931 25.4677H130.345ZM124.916 12.1431L122.497 17.7891H127.335L124.916 12.1431Z" fill="white"/>
<path d="M145.5 5.70658H149.551V13.1029H158.722V5.70658H162.773V25.4677H158.722V16.801H149.551V25.4677H145.5V5.70658Z" fill="white"/>
<path d="M165.858 15.5871C165.858 14.0815 166.121 12.7077 166.646 11.4655C167.171 10.2046 167.902 9.12243 168.84 8.21907C169.796 7.29688 170.903 6.58172 172.16 6.07357C173.416 5.56543 174.785 5.31136 176.267 5.31136C177.767 5.31136 179.145 5.56543 180.402 6.07357C181.659 6.58172 182.756 7.29688 183.693 8.21907C184.65 9.12243 185.381 10.2046 185.888 11.4655C186.413 12.7077 186.675 14.0815 186.675 15.5871C186.675 17.0739 186.413 18.4572 185.888 19.737C185.381 20.9979 184.659 22.0989 183.722 23.0399C182.803 23.9621 181.705 24.6866 180.43 25.2136C179.174 25.7218 177.786 25.9758 176.267 25.9758C174.748 25.9758 173.35 25.7218 172.075 25.2136C170.819 24.6866 169.721 23.9621 168.784 23.0399C167.865 22.0989 167.143 20.9979 166.618 19.737C166.111 18.4572 165.858 17.0739 165.858 15.5871ZM170.134 15.5871C170.134 16.8481 170.387 17.9679 170.894 18.9465C171.419 19.9252 172.141 20.6968 173.06 21.2614C173.997 21.8072 175.066 22.0801 176.267 22.0801C177.486 22.0801 178.555 21.8072 179.474 21.2614C180.393 20.6968 181.105 19.9252 181.612 18.9465C182.137 17.9679 182.399 16.8481 182.399 15.5871C182.399 14.3262 182.146 13.2064 181.64 12.2277C181.133 11.2491 180.421 10.4869 179.502 9.9411C178.583 9.3765 177.504 9.0942 176.267 9.0942C175.066 9.0942 173.997 9.3765 173.06 9.9411C172.141 10.4869 171.419 11.2491 170.894 12.2277C170.387 13.2064 170.134 14.3262 170.134 15.5871Z" fill="white"/>
<path d="M189.785 5.70658H193.836V21.9107H201.685V25.4677H189.785V5.70658Z" fill="white"/>
<path d="M210.656 25.4677H203.961V5.70658H210.656C212.738 5.70658 214.547 6.11122 216.085 6.92048C217.642 7.72974 218.852 8.87777 219.714 10.3646C220.577 11.8325 221.008 13.5734 221.008 15.5871C221.008 17.5821 220.577 19.3229 219.714 20.8097C218.852 22.2965 217.642 23.4445 216.085 24.2538C214.547 25.063 212.738 25.4677 210.656 25.4677ZM210.543 9.40473H208.124V21.7695H210.543C211.706 21.7695 212.756 21.5625 213.694 21.1485C214.651 20.7156 215.41 20.0475 215.973 19.1441C216.554 18.2219 216.845 17.0363 216.845 15.5871C216.845 14.138 216.554 12.9617 215.973 12.0584C215.41 11.1362 214.651 10.4681 213.694 10.054C212.756 9.62116 211.706 9.40473 210.543 9.40473Z" fill="white"/>
<path d="M224.125 5.70658H228.232V25.4677H224.125V5.70658Z" fill="white"/>
<path d="M246.458 5.70658H250.368V26.4557L236.415 13.2723V25.4677H232.477V4.71853L246.458 17.902V5.70658Z" fill="white"/>
<path d="M264.184 18.1278V14.9096H273.917C273.974 16.4152 273.795 17.8361 273.383 19.1724C272.97 20.5086 272.342 21.6848 271.498 22.7011C270.654 23.7174 269.604 24.5173 268.347 25.1007C267.091 25.6841 265.647 25.9758 264.015 25.9758C261.971 25.9758 260.152 25.543 258.558 24.6772C256.982 23.7927 255.744 22.5694 254.844 21.0073C253.944 19.4453 253.494 17.6385 253.494 15.5871C253.494 13.5357 253.953 11.7384 254.872 10.1952C255.791 8.65193 257.048 7.45685 258.642 6.60995C260.255 5.74422 262.083 5.31136 264.128 5.31136C266.134 5.31136 267.86 5.7254 269.304 6.55349C270.748 7.36275 271.92 8.45432 272.82 9.82818L269.36 11.8608C268.854 11.0138 268.169 10.3175 267.306 9.77172C266.462 9.20712 265.403 8.92482 264.128 8.92482C262.946 8.92482 261.868 9.19771 260.892 9.74349C259.917 10.2705 259.139 11.0327 258.558 12.0301C257.995 13.0276 257.714 14.2133 257.714 15.5871C257.714 16.961 257.995 18.1561 258.558 19.1724C259.12 20.1886 259.88 20.9791 260.836 21.5437C261.811 22.0895 262.909 22.3624 264.128 22.3624C265.74 22.3624 267.006 21.9577 267.925 21.1485C268.863 20.3204 269.491 19.3135 269.81 18.1278H264.184Z" fill="white"/>
<path d="M278.918 18.8054C279.537 19.8969 280.249 20.7815 281.056 21.459C281.881 22.1365 282.819 22.4753 283.869 22.4753C284.694 22.4753 285.351 22.2683 285.838 21.8542C286.326 21.4214 286.57 20.8568 286.57 20.1604C286.57 19.5582 286.41 19.0689 286.091 18.6924C285.791 18.2972 285.341 17.9585 284.741 17.6762C284.141 17.375 283.4 17.0551 282.519 16.7163C282.031 16.5281 281.487 16.2929 280.887 16.0106C280.287 15.7283 279.706 15.3613 279.143 14.9096C278.599 14.4391 278.149 13.8745 277.793 13.2158C277.436 12.5383 277.258 11.729 277.258 10.788C277.258 9.67762 277.539 8.7178 278.102 7.90853C278.683 7.08045 279.462 6.44057 280.437 5.98888C281.431 5.5372 282.547 5.31136 283.785 5.31136C285.022 5.31136 286.101 5.52779 287.02 5.96065C287.939 6.3747 288.698 6.91107 289.298 7.56977C289.917 8.20966 290.395 8.86836 290.733 9.54588L287.582 11.3526C287.17 10.6374 286.654 10.0352 286.035 9.54588C285.416 9.03774 284.666 8.78367 283.785 8.78367C282.997 8.78367 282.406 8.97187 282.012 9.34827C281.619 9.70585 281.422 10.1293 281.422 10.6186C281.422 11.3526 281.787 11.9643 282.519 12.4536C283.25 12.9241 284.357 13.4134 285.838 13.9216C286.701 14.2227 287.507 14.6367 288.258 15.1637C289.026 15.6718 289.645 16.3211 290.114 17.1116C290.602 17.8832 290.846 18.8242 290.846 19.9346C290.846 21.2143 290.517 22.3059 289.861 23.2093C289.205 24.1126 288.342 24.7996 287.273 25.2701C286.223 25.7406 285.107 25.9758 283.925 25.9758C282.706 25.9758 281.572 25.75 280.521 25.2983C279.49 24.8466 278.58 24.235 277.793 23.4633C277.024 22.6917 276.424 21.8354 275.992 20.8944L278.918 18.8054Z" fill="white"/>
</svg>
