<svg width="22" height="22" viewBox="0 0 22 22" fill="none" xmlns="http://www.w3.org/2000/svg">
<path d="M21.739 8.52915C21.6648 8.30068 21.4674 8.13418 21.2297 8.09969L14.5527 7.12941L11.5665 1.07902C11.4603 0.863635 11.2409 0.727295 11.0007 0.727295C10.7605 0.727295 10.5412 0.863635 10.4349 1.07902L7.44861 7.12941L0.771708 8.09969C0.534071 8.13418 0.336566 8.30068 0.262359 8.52911C0.188111 8.75758 0.250033 9.00834 0.422046 9.17598L5.25337 13.8856L4.11302 20.5357C4.07238 20.7724 4.16972 21.0116 4.36403 21.1528C4.47395 21.2327 4.60415 21.2733 4.73498 21.2733C4.83544 21.2733 4.93623 21.2494 5.02852 21.2008L11.0007 18.061L16.9726 21.2008C17.1852 21.3126 17.4428 21.294 17.6371 21.1528C17.8314 21.0116 17.9288 20.7723 17.8882 20.5356L16.7475 13.8856L21.5793 9.17593C21.7513 9.00834 21.8133 8.75758 21.739 8.52915Z" fill="white"/>
</svg>
