<svg width="1920" height="1162" viewBox="0 0 1920 1162" fill="none" xmlns="http://www.w3.org/2000/svg">
<line x1="1388.95" y1="-2.08349e-08" x2="1388.95" y2="1242" stroke="white" stroke-opacity="0.02"/>
<line x1="1654.34" y1="-2.08349e-08" x2="1654.34" y2="1242" stroke="white" stroke-opacity="0.02"/>
<line x1="1630.22" y1="-2.08349e-08" x2="1630.22" y2="1242" stroke="white" stroke-opacity="0.02"/>
<line x1="1895.61" y1="-2.08349e-08" x2="1895.61" y2="1242" stroke="white" stroke-opacity="0.02"/>
<line x1="616.89" y1="-2.08349e-08" x2="616.89" y2="1242" stroke="white" stroke-opacity="0.02"/>
<line x1="2064" y1="762.389" x2="-144" y2="762.389" stroke="white" stroke-opacity="0.02"/>
<line x1="1002.92" y1="-2.08349e-08" x2="1002.92" y2="1242" stroke="white" stroke-opacity="0.02"/>
<line x1="2064" y1="1149.38" x2="-144" y2="1149.38" stroke="white" stroke-opacity="0.02"/>
<line x1="230.86" y1="-2.08349e-08" x2="230.86" y2="1242" stroke="white" stroke-opacity="0.02"/>
<line x1="2064" y1="375.398" x2="-144" y2="375.398" stroke="white" stroke-opacity="0.02"/>
<line x1="1195.93" y1="-2.08349e-08" x2="1195.93" y2="1242" stroke="white" stroke-opacity="0.02"/>
<line x1="1437.2" y1="-2.08349e-08" x2="1437.2" y2="1242" stroke="white" stroke-opacity="0.02"/>
<line x1="1702.6" y1="-2.08349e-08" x2="1702.6" y2="1242" stroke="white" stroke-opacity="0.02"/>
<line x1="423.875" y1="-2.08349e-08" x2="423.875" y2="1242" stroke="white" stroke-opacity="0.02"/>
<line x1="2064" y1="568.893" x2="-144" y2="568.893" stroke="white" stroke-opacity="0.02"/>
<line x1="809.905" y1="-2.08349e-08" x2="809.905" y2="1242" stroke="white" stroke-opacity="0.02"/>
<line x1="2064" y1="955.884" x2="-144" y2="955.884" stroke="white" stroke-opacity="0.02"/>
<line x1="37.8457" y1="-2.08349e-08" x2="37.8458" y2="1242" stroke="white" stroke-opacity="0.02"/>
<line x1="2064" y1="181.902" x2="-144" y2="181.902" stroke="white" stroke-opacity="0.02"/>
<line x1="1292.44" y1="-2.08349e-08" x2="1292.44" y2="1242" stroke="white" stroke-opacity="0.02"/>
<line x1="1533.71" y1="-2.08349e-08" x2="1533.71" y2="1242" stroke="white" stroke-opacity="0.02"/>
<line x1="1799.1" y1="-2.08349e-08" x2="1799.1" y2="1242" stroke="white" stroke-opacity="0.02"/>
<line x1="520.382" y1="-2.08349e-08" x2="520.382" y2="1242" stroke="white" stroke-opacity="0.02"/>
<line x1="2064" y1="665.641" x2="-144" y2="665.641" stroke="white" stroke-opacity="0.02"/>
<line x1="906.412" y1="-2.08349e-08" x2="906.412" y2="1242" stroke="white" stroke-opacity="0.02"/>
<line x1="2064" y1="1052.63" x2="-144" y2="1052.63" stroke="white" stroke-opacity="0.02"/>
<line x1="134.353" y1="-2.08349e-08" x2="134.353" y2="1242" stroke="white" stroke-opacity="0.02"/>
<line x1="2064" y1="278.65" x2="-144" y2="278.65" stroke="white" stroke-opacity="0.02"/>
<line x1="1099.43" y1="-2.08349e-08" x2="1099.43" y2="1242" stroke="white" stroke-opacity="0.02"/>
<line x1="327.368" y1="-2.08349e-08" x2="327.368" y2="1242" stroke="white" stroke-opacity="0.02"/>
<line x1="2064" y1="472.146" x2="-144" y2="472.146" stroke="white" stroke-opacity="0.02"/>
<line x1="713.397" y1="-2.08349e-08" x2="713.397" y2="1242" stroke="white" stroke-opacity="0.02"/>
<line x1="2064" y1="859.137" x2="-144" y2="859.137" stroke="white" stroke-opacity="0.02"/>
<line x1="2064" y1="85.1541" x2="-144" y2="85.1541" stroke="white" stroke-opacity="0.02"/>
<line x1="1340.69" y1="-2.08349e-08" x2="1340.69" y2="1242" stroke="white" stroke-opacity="0.02"/>
<line x1="1581.96" y1="-2.08349e-08" x2="1581.96" y2="1242" stroke="white" stroke-opacity="0.02"/>
<line x1="1847.36" y1="-2.08349e-08" x2="1847.36" y2="1242" stroke="white" stroke-opacity="0.02"/>
<line x1="568.636" y1="-2.08349e-08" x2="568.636" y2="1242" stroke="white" stroke-opacity="0.02"/>
<line x1="2064" y1="714.015" x2="-144" y2="714.015" stroke="white" stroke-opacity="0.02"/>
<line x1="954.666" y1="-2.08349e-08" x2="954.666" y2="1242" stroke="white" stroke-opacity="0.02"/>
<line x1="2064" y1="1101.01" x2="-144" y2="1101.01" stroke="white" stroke-opacity="0.02"/>
<line x1="182.607" y1="-2.08349e-08" x2="182.607" y2="1242" stroke="white" stroke-opacity="0.02"/>
<line x1="2064" y1="327.024" x2="-144" y2="327.024" stroke="white" stroke-opacity="0.02"/>
<line x1="1147.68" y1="-2.08349e-08" x2="1147.68" y2="1242" stroke="white" stroke-opacity="0.02"/>
<line x1="375.621" y1="-2.08349e-08" x2="375.621" y2="1242" stroke="white" stroke-opacity="0.02"/>
<line x1="2064" y1="520.52" x2="-144" y2="520.52" stroke="white" stroke-opacity="0.02"/>
<line x1="761.651" y1="-2.08349e-08" x2="761.651" y2="1242" stroke="white" stroke-opacity="0.02"/>
<line x1="2064" y1="907.511" x2="-144" y2="907.511" stroke="white" stroke-opacity="0.02"/>
<line x1="2064" y1="133.528" x2="-144" y2="133.528" stroke="white" stroke-opacity="0.02"/>
<line x1="1244.19" y1="-2.08349e-08" x2="1244.19" y2="1242" stroke="white" stroke-opacity="0.02"/>
<line x1="1485.46" y1="-2.08349e-08" x2="1485.46" y2="1242" stroke="white" stroke-opacity="0.02"/>
<line x1="1750.85" y1="-2.08349e-08" x2="1750.85" y2="1242" stroke="white" stroke-opacity="0.02"/>
<line x1="472.129" y1="-2.08349e-08" x2="472.129" y2="1242" stroke="white" stroke-opacity="0.02"/>
<line x1="2064" y1="617.267" x2="-144" y2="617.267" stroke="white" stroke-opacity="0.02"/>
<line x1="858.158" y1="-2.08349e-08" x2="858.158" y2="1242" stroke="white" stroke-opacity="0.02"/>
<line x1="2064" y1="1004.26" x2="-144" y2="1004.26" stroke="white" stroke-opacity="0.02"/>
<line x1="86.0994" y1="-2.08349e-08" x2="86.0994" y2="1242" stroke="white" stroke-opacity="0.02"/>
<line x1="2064" y1="230.276" x2="-144" y2="230.276" stroke="white" stroke-opacity="0.02"/>
<line x1="1051.17" y1="-2.08349e-08" x2="1051.17" y2="1242" stroke="white" stroke-opacity="0.02"/>
<line x1="279.114" y1="-2.08349e-08" x2="279.114" y2="1242" stroke="white" stroke-opacity="0.02"/>
<line x1="2064" y1="423.772" x2="-144" y2="423.772" stroke="white" stroke-opacity="0.02"/>
<line x1="665.144" y1="-2.08349e-08" x2="665.144" y2="1242" stroke="white" stroke-opacity="0.02"/>
<line x1="2064" y1="810.763" x2="-144" y2="810.763" stroke="white" stroke-opacity="0.02"/>
<line x1="2064" y1="36.7805" x2="-144" y2="36.7805" stroke="white" stroke-opacity="0.02"/>
<line x1="1364.82" y1="-2.08349e-08" x2="1364.82" y2="1242" stroke="white" stroke-opacity="0.02"/>
<line x1="1606.09" y1="-2.08349e-08" x2="1606.09" y2="1242" stroke="white" stroke-opacity="0.02"/>
<line x1="1871.49" y1="-2.08349e-08" x2="1871.49" y2="1242" stroke="white" stroke-opacity="0.02"/>
<line x1="592.763" y1="-2.08349e-08" x2="592.763" y2="1242" stroke="white" stroke-opacity="0.02"/>
<line x1="2064" y1="738.202" x2="-144" y2="738.202" stroke="white" stroke-opacity="0.02"/>
<line x1="978.792" y1="-2.08349e-08" x2="978.792" y2="1242" stroke="white" stroke-opacity="0.02"/>
<line x1="2064" y1="1125.19" x2="-144" y2="1125.19" stroke="white" stroke-opacity="0.02"/>
<line x1="206.733" y1="-2.08349e-08" x2="206.733" y2="1242" stroke="white" stroke-opacity="0.02"/>
<line x1="2064" y1="351.211" x2="-144" y2="351.211" stroke="white" stroke-opacity="0.02"/>
<line x1="1171.81" y1="-2.08349e-08" x2="1171.81" y2="1242" stroke="white" stroke-opacity="0.02"/>
<line x1="1413.08" y1="-2.08349e-08" x2="1413.08" y2="1242" stroke="white" stroke-opacity="0.02"/>
<line x1="1678.47" y1="-2.08349e-08" x2="1678.47" y2="1242" stroke="white" stroke-opacity="0.02"/>
<line x1="399.748" y1="-2.08349e-08" x2="399.748" y2="1242" stroke="white" stroke-opacity="0.02"/>
<line x1="2064" y1="544.707" x2="-144" y2="544.707" stroke="white" stroke-opacity="0.02"/>
<line x1="785.777" y1="-2.08349e-08" x2="785.777" y2="1242" stroke="white" stroke-opacity="0.02"/>
<line x1="2064" y1="931.698" x2="-144" y2="931.698" stroke="white" stroke-opacity="0.02"/>
<line x1="13.7188" y1="-2.08349e-08" x2="13.7188" y2="1242" stroke="white" stroke-opacity="0.02"/>
<line x1="2064" y1="157.715" x2="-144" y2="157.715" stroke="white" stroke-opacity="0.02"/>
<line x1="1268.31" y1="-2.08349e-08" x2="1268.31" y2="1242" stroke="white" stroke-opacity="0.02"/>
<line x1="1509.58" y1="-2.08349e-08" x2="1509.58" y2="1242" stroke="white" stroke-opacity="0.02"/>
<line x1="1774.98" y1="-2.08349e-08" x2="1774.98" y2="1242" stroke="white" stroke-opacity="0.02"/>
<line x1="496.255" y1="-2.08349e-08" x2="496.255" y2="1242" stroke="white" stroke-opacity="0.02"/>
<line x1="2064" y1="641.454" x2="-144" y2="641.454" stroke="white" stroke-opacity="0.02"/>
<line x1="882.285" y1="-2.08349e-08" x2="882.285" y2="1242" stroke="white" stroke-opacity="0.02"/>
<line x1="2064" y1="1028.45" x2="-144" y2="1028.45" stroke="white" stroke-opacity="0.02"/>
<line x1="110.226" y1="-2.08349e-08" x2="110.226" y2="1242" stroke="white" stroke-opacity="0.02"/>
<line x1="2064" y1="254.463" x2="-144" y2="254.463" stroke="white" stroke-opacity="0.02"/>
<line x1="1075.3" y1="-2.08349e-08" x2="1075.3" y2="1242" stroke="white" stroke-opacity="0.02"/>
<line x1="303.241" y1="-2.08349e-08" x2="303.241" y2="1242" stroke="white" stroke-opacity="0.02"/>
<line x1="2064" y1="447.958" x2="-144" y2="447.958" stroke="white" stroke-opacity="0.02"/>
<line x1="689.27" y1="-2.08349e-08" x2="689.27" y2="1242" stroke="white" stroke-opacity="0.02"/>
<line x1="2064" y1="834.95" x2="-144" y2="834.95" stroke="white" stroke-opacity="0.02"/>
<line x1="2064" y1="60.9678" x2="-144" y2="60.9678" stroke="white" stroke-opacity="0.02"/>
<line x1="1316.57" y1="-2.08349e-08" x2="1316.57" y2="1242" stroke="white" stroke-opacity="0.02"/>
<line x1="1557.84" y1="-2.08349e-08" x2="1557.84" y2="1242" stroke="white" stroke-opacity="0.02"/>
<line x1="1823.23" y1="-2.08349e-08" x2="1823.23" y2="1242" stroke="white" stroke-opacity="0.02"/>
<line x1="1907.68" y1="-2.08349e-08" x2="1907.68" y2="1242" stroke="white" stroke-opacity="0.02"/>
<line x1="544.509" y1="-2.08349e-08" x2="544.509" y2="1242" stroke="white" stroke-opacity="0.02"/>
<line x1="2064" y1="689.828" x2="-144" y2="689.828" stroke="white" stroke-opacity="0.02"/>
<line x1="930.539" y1="-2.08349e-08" x2="930.539" y2="1242" stroke="white" stroke-opacity="0.02"/>
<line x1="2064" y1="1076.82" x2="-144" y2="1076.82" stroke="white" stroke-opacity="0.02"/>
<line x1="158.48" y1="-2.08349e-08" x2="158.48" y2="1242" stroke="white" stroke-opacity="0.02"/>
<line x1="2064" y1="302.837" x2="-144" y2="302.837" stroke="white" stroke-opacity="0.02"/>
<line x1="1123.55" y1="-2.08349e-08" x2="1123.55" y2="1242" stroke="white" stroke-opacity="0.02"/>
<line x1="351.495" y1="-2.08349e-08" x2="351.495" y2="1242" stroke="white" stroke-opacity="0.02"/>
<line x1="2064" y1="496.333" x2="-144" y2="496.333" stroke="white" stroke-opacity="0.02"/>
<line x1="737.524" y1="-2.08349e-08" x2="737.524" y2="1242" stroke="white" stroke-opacity="0.02"/>
<line x1="2064" y1="883.324" x2="-144" y2="883.324" stroke="white" stroke-opacity="0.02"/>
<line x1="2064" y1="109.341" x2="-144" y2="109.341" stroke="white" stroke-opacity="0.02"/>
<line x1="1220.06" y1="-2.08349e-08" x2="1220.06" y2="1242" stroke="white" stroke-opacity="0.02"/>
<line x1="1461.33" y1="-2.08349e-08" x2="1461.33" y2="1242" stroke="white" stroke-opacity="0.02"/>
<line x1="1726.72" y1="-2.08349e-08" x2="1726.72" y2="1242" stroke="white" stroke-opacity="0.02"/>
<line x1="448.002" y1="-2.08349e-08" x2="448.002" y2="1242" stroke="white" stroke-opacity="0.02"/>
<line x1="2064" y1="593.08" x2="-144" y2="593.08" stroke="white" stroke-opacity="0.02"/>
<line x1="834.031" y1="-2.08349e-08" x2="834.032" y2="1242" stroke="white" stroke-opacity="0.02"/>
<line x1="2064" y1="980.072" x2="-144" y2="980.072" stroke="white" stroke-opacity="0.02"/>
<line x1="61.9727" y1="-2.08349e-08" x2="61.9727" y2="1242" stroke="white" stroke-opacity="0.02"/>
<line x1="2064" y1="206.089" x2="-144" y2="206.089" stroke="white" stroke-opacity="0.02"/>
<line x1="1027.05" y1="-2.08349e-08" x2="1027.05" y2="1242" stroke="white" stroke-opacity="0.02"/>
<line x1="254.987" y1="-2.08349e-08" x2="254.987" y2="1242" stroke="white" stroke-opacity="0.02"/>
<line x1="2064" y1="399.585" x2="-144" y2="399.585" stroke="white" stroke-opacity="0.02"/>
<line x1="641.017" y1="-2.08349e-08" x2="641.017" y2="1242" stroke="white" stroke-opacity="0.02"/>
<line x1="2064" y1="786.576" x2="-144" y2="786.576" stroke="white" stroke-opacity="0.02"/>
<line x1="2064" y1="12.5935" x2="-144" y2="12.5935" stroke="white" stroke-opacity="0.02"/>
<line x1="1376.89" y1="-2.08349e-08" x2="1376.89" y2="1242" stroke="white" stroke-opacity="0.02"/>
<line x1="1642.28" y1="-2.08349e-08" x2="1642.28" y2="1242" stroke="white" stroke-opacity="0.02"/>
<line x1="1618.15" y1="-2.08349e-08" x2="1618.15" y2="1242" stroke="white" stroke-opacity="0.02"/>
<line x1="1883.55" y1="-2.08349e-08" x2="1883.55" y2="1242" stroke="white" stroke-opacity="0.02"/>
<line x1="604.826" y1="-2.08349e-08" x2="604.826" y2="1242" stroke="white" stroke-opacity="0.02"/>
<line x1="2064" y1="750.295" x2="-144" y2="750.295" stroke="white" stroke-opacity="0.02"/>
<line x1="990.856" y1="-2.08349e-08" x2="990.856" y2="1242" stroke="white" stroke-opacity="0.02"/>
<line x1="2064" y1="1137.29" x2="-144" y2="1137.29" stroke="white" stroke-opacity="0.02"/>
<line x1="218.797" y1="-2.08349e-08" x2="218.797" y2="1242" stroke="white" stroke-opacity="0.02"/>
<line x1="2064" y1="363.304" x2="-144" y2="363.304" stroke="white" stroke-opacity="0.02"/>
<line x1="1183.87" y1="-2.08349e-08" x2="1183.87" y2="1242" stroke="white" stroke-opacity="0.02"/>
<line x1="1425.14" y1="-2.08349e-08" x2="1425.14" y2="1242" stroke="white" stroke-opacity="0.02"/>
<line x1="1690.53" y1="-2.08349e-08" x2="1690.53" y2="1242" stroke="white" stroke-opacity="0.02"/>
<line x1="411.812" y1="-2.08349e-08" x2="411.812" y2="1242" stroke="white" stroke-opacity="0.02"/>
<line x1="2064" y1="556.8" x2="-144" y2="556.8" stroke="white" stroke-opacity="0.02"/>
<line x1="797.841" y1="-2.08349e-08" x2="797.841" y2="1242" stroke="white" stroke-opacity="0.02"/>
<line x1="2064" y1="943.791" x2="-144" y2="943.791" stroke="white" stroke-opacity="0.02"/>
<line x1="25.7822" y1="-2.08349e-08" x2="25.7823" y2="1242" stroke="white" stroke-opacity="0.02"/>
<line x1="2064" y1="169.809" x2="-144" y2="169.809" stroke="white" stroke-opacity="0.02"/>
<line x1="1280.38" y1="-2.08349e-08" x2="1280.38" y2="1242" stroke="white" stroke-opacity="0.02"/>
<line x1="1521.65" y1="-2.08349e-08" x2="1521.65" y2="1242" stroke="white" stroke-opacity="0.02"/>
<line x1="1787.04" y1="-2.08349e-08" x2="1787.04" y2="1242" stroke="white" stroke-opacity="0.02"/>
<line x1="508.319" y1="-2.08349e-08" x2="508.319" y2="1242" stroke="white" stroke-opacity="0.02"/>
<line x1="2064" y1="653.548" x2="-144" y2="653.548" stroke="white" stroke-opacity="0.02"/>
<line x1="894.348" y1="-2.08349e-08" x2="894.348" y2="1242" stroke="white" stroke-opacity="0.02"/>
<line x1="2064" y1="1040.54" x2="-144" y2="1040.54" stroke="white" stroke-opacity="0.02"/>
<line x1="122.29" y1="-2.08349e-08" x2="122.29" y2="1242" stroke="white" stroke-opacity="0.02"/>
<line x1="2064" y1="266.557" x2="-144" y2="266.557" stroke="white" stroke-opacity="0.02"/>
<line x1="1087.36" y1="-2.08349e-08" x2="1087.36" y2="1242" stroke="white" stroke-opacity="0.02"/>
<line x1="315.304" y1="-2.08349e-08" x2="315.304" y2="1242" stroke="white" stroke-opacity="0.02"/>
<line x1="2064" y1="460.052" x2="-144" y2="460.052" stroke="white" stroke-opacity="0.02"/>
<line x1="701.333" y1="-2.08349e-08" x2="701.334" y2="1242" stroke="white" stroke-opacity="0.02"/>
<line x1="2064" y1="847.043" x2="-144" y2="847.043" stroke="white" stroke-opacity="0.02"/>
<line x1="2064" y1="73.0605" x2="-144" y2="73.0605" stroke="white" stroke-opacity="0.02"/>
<line x1="1328.63" y1="-2.08349e-08" x2="1328.63" y2="1242" stroke="white" stroke-opacity="0.02"/>
<line x1="1569.9" y1="-2.08349e-08" x2="1569.9" y2="1242" stroke="white" stroke-opacity="0.02"/>
<line x1="1835.29" y1="-2.08349e-08" x2="1835.29" y2="1242" stroke="white" stroke-opacity="0.02"/>
<line x1="1919.74" y1="-2.08349e-08" x2="1919.74" y2="1242" stroke="white" stroke-opacity="0.02"/>
<line x1="556.573" y1="-2.08349e-08" x2="556.573" y2="1242" stroke="white" stroke-opacity="0.02"/>
<line x1="2064" y1="701.921" x2="-144" y2="701.921" stroke="white" stroke-opacity="0.02"/>
<line x1="942.602" y1="-2.08349e-08" x2="942.602" y2="1242" stroke="white" stroke-opacity="0.02"/>
<line x1="2064" y1="1088.91" x2="-144" y2="1088.91" stroke="white" stroke-opacity="0.02"/>
<line x1="170.543" y1="-2.08349e-08" x2="170.543" y2="1242" stroke="white" stroke-opacity="0.02"/>
<line x1="2064" y1="314.931" x2="-144" y2="314.931" stroke="white" stroke-opacity="0.02"/>
<line x1="1135.62" y1="-2.08349e-08" x2="1135.62" y2="1242" stroke="white" stroke-opacity="0.02"/>
<line x1="363.558" y1="-2.08349e-08" x2="363.558" y2="1242" stroke="white" stroke-opacity="0.02"/>
<line x1="2064" y1="508.426" x2="-144" y2="508.426" stroke="white" stroke-opacity="0.02"/>
<line x1="749.587" y1="-2.08349e-08" x2="749.587" y2="1242" stroke="white" stroke-opacity="0.02"/>
<line x1="2064" y1="895.417" x2="-144" y2="895.417" stroke="white" stroke-opacity="0.02"/>
<line x1="2064" y1="121.435" x2="-144" y2="121.435" stroke="white" stroke-opacity="0.02"/>
<line x1="1232.12" y1="-2.08349e-08" x2="1232.12" y2="1242" stroke="white" stroke-opacity="0.02"/>
<line x1="1473.39" y1="-2.08349e-08" x2="1473.39" y2="1242" stroke="white" stroke-opacity="0.02"/>
<line x1="1738.79" y1="-2.08349e-08" x2="1738.79" y2="1242" stroke="white" stroke-opacity="0.02"/>
<line x1="460.065" y1="-2.08349e-08" x2="460.065" y2="1242" stroke="white" stroke-opacity="0.02"/>
<line x1="2064" y1="605.174" x2="-144" y2="605.174" stroke="white" stroke-opacity="0.02"/>
<line x1="846.095" y1="-2.08349e-08" x2="846.095" y2="1242" stroke="white" stroke-opacity="0.02"/>
<line x1="2064" y1="992.165" x2="-144" y2="992.165" stroke="white" stroke-opacity="0.02"/>
<line x1="74.0359" y1="-2.08349e-08" x2="74.0359" y2="1242" stroke="white" stroke-opacity="0.02"/>
<line x1="2064" y1="218.182" x2="-144" y2="218.182" stroke="white" stroke-opacity="0.02"/>
<line x1="1039.11" y1="-2.08349e-08" x2="1039.11" y2="1242" stroke="white" stroke-opacity="0.02"/>
<line x1="267.051" y1="-2.08349e-08" x2="267.051" y2="1242" stroke="white" stroke-opacity="0.02"/>
<line x1="2064" y1="411.678" x2="-144" y2="411.678" stroke="white" stroke-opacity="0.02"/>
<line x1="653.08" y1="-2.08349e-08" x2="653.08" y2="1242" stroke="white" stroke-opacity="0.02"/>
<line x1="2064" y1="798.67" x2="-144" y2="798.67" stroke="white" stroke-opacity="0.02"/>
<line x1="2064" y1="24.687" x2="-144" y2="24.687" stroke="white" stroke-opacity="0.02"/>
<line x1="1352.76" y1="-2.08349e-08" x2="1352.76" y2="1242" stroke="white" stroke-opacity="0.02"/>
<line x1="1594.03" y1="-2.08349e-08" x2="1594.03" y2="1242" stroke="white" stroke-opacity="0.02"/>
<line x1="1859.42" y1="-2.08349e-08" x2="1859.42" y2="1242" stroke="white" stroke-opacity="0.02"/>
<line x1="580.7" y1="-2.08349e-08" x2="580.7" y2="1242" stroke="white" stroke-opacity="0.02"/>
<line x1="2064" y1="726.108" x2="-144" y2="726.108" stroke="white" stroke-opacity="0.02"/>
<line x1="966.729" y1="-2.08349e-08" x2="966.729" y2="1242" stroke="white" stroke-opacity="0.02"/>
<line x1="2064" y1="1113.1" x2="-144" y2="1113.1" stroke="white" stroke-opacity="0.02"/>
<line x1="194.67" y1="-2.08349e-08" x2="194.67" y2="1242" stroke="white" stroke-opacity="0.02"/>
<line x1="2064" y1="339.117" x2="-144" y2="339.117" stroke="white" stroke-opacity="0.02"/>
<line x1="1159.74" y1="-2.08349e-08" x2="1159.74" y2="1242" stroke="white" stroke-opacity="0.02"/>
<line x1="1401.01" y1="-2.08349e-08" x2="1401.01" y2="1242" stroke="white" stroke-opacity="0.02"/>
<line x1="1666.41" y1="-2.08349e-08" x2="1666.41" y2="1242" stroke="white" stroke-opacity="0.02"/>
<line x1="387.685" y1="-2.08349e-08" x2="387.685" y2="1242" stroke="white" stroke-opacity="0.02"/>
<line x1="2064" y1="532.613" x2="-144" y2="532.613" stroke="white" stroke-opacity="0.02"/>
<line x1="773.714" y1="-2.08349e-08" x2="773.714" y2="1242" stroke="white" stroke-opacity="0.02"/>
<line x1="2064" y1="919.604" x2="-144" y2="919.604" stroke="white" stroke-opacity="0.02"/>
<line x1="1.65552" y1="-2.08349e-08" x2="1.65557" y2="1242" stroke="white" stroke-opacity="0.02"/>
<line x1="2064" y1="145.622" x2="-144" y2="145.622" stroke="white" stroke-opacity="0.02"/>
<line x1="1256.25" y1="-2.08349e-08" x2="1256.25" y2="1242" stroke="white" stroke-opacity="0.02"/>
<line x1="1497.52" y1="-2.08349e-08" x2="1497.52" y2="1242" stroke="white" stroke-opacity="0.02"/>
<line x1="1762.91" y1="-2.08349e-08" x2="1762.91" y2="1242" stroke="white" stroke-opacity="0.02"/>
<line x1="484.192" y1="-2.08349e-08" x2="484.192" y2="1242" stroke="white" stroke-opacity="0.02"/>
<line x1="2064" y1="629.361" x2="-144" y2="629.361" stroke="white" stroke-opacity="0.02"/>
<line x1="870.222" y1="-2.08349e-08" x2="870.222" y2="1242" stroke="white" stroke-opacity="0.02"/>
<line x1="2064" y1="1016.35" x2="-144" y2="1016.35" stroke="white" stroke-opacity="0.02"/>
<line x1="98.1628" y1="-2.08349e-08" x2="98.1629" y2="1242" stroke="white" stroke-opacity="0.02"/>
<line x1="2064" y1="242.369" x2="-144" y2="242.369" stroke="white" stroke-opacity="0.02"/>
<line x1="1063.24" y1="-2.08349e-08" x2="1063.24" y2="1242" stroke="white" stroke-opacity="0.02"/>
<line x1="291.177" y1="-2.08349e-08" x2="291.178" y2="1242" stroke="white" stroke-opacity="0.02"/>
<line x1="2064" y1="435.865" x2="-144" y2="435.865" stroke="white" stroke-opacity="0.02"/>
<line x1="677.207" y1="-2.08349e-08" x2="677.207" y2="1242" stroke="white" stroke-opacity="0.02"/>
<line x1="2064" y1="822.857" x2="-144" y2="822.857" stroke="white" stroke-opacity="0.02"/>
<line x1="2064" y1="48.874" x2="-144" y2="48.874" stroke="white" stroke-opacity="0.02"/>
<line x1="1304.5" y1="-2.08349e-08" x2="1304.5" y2="1242" stroke="white" stroke-opacity="0.02"/>
<line x1="1545.77" y1="-2.08349e-08" x2="1545.77" y2="1242" stroke="white" stroke-opacity="0.02"/>
<line x1="1811.17" y1="-2.08349e-08" x2="1811.17" y2="1242" stroke="white" stroke-opacity="0.02"/>
<line x1="532.446" y1="-2.08349e-08" x2="532.446" y2="1242" stroke="white" stroke-opacity="0.02"/>
<line x1="2064" y1="677.735" x2="-144" y2="677.735" stroke="white" stroke-opacity="0.02"/>
<line x1="918.475" y1="-2.08349e-08" x2="918.475" y2="1242" stroke="white" stroke-opacity="0.02"/>
<line x1="2064" y1="1064.73" x2="-144" y2="1064.73" stroke="white" stroke-opacity="0.02"/>
<line x1="146.417" y1="-2.08349e-08" x2="146.417" y2="1242" stroke="white" stroke-opacity="0.02"/>
<line x1="2064" y1="290.744" x2="-144" y2="290.744" stroke="white" stroke-opacity="0.02"/>
<line x1="1111.49" y1="-2.08349e-08" x2="1111.49" y2="1242" stroke="white" stroke-opacity="0.02"/>
<line x1="339.431" y1="-2.08349e-08" x2="339.431" y2="1242" stroke="white" stroke-opacity="0.02"/>
<line x1="2064" y1="484.239" x2="-144" y2="484.239" stroke="white" stroke-opacity="0.02"/>
<line x1="725.461" y1="-2.08349e-08" x2="725.461" y2="1242" stroke="white" stroke-opacity="0.02"/>
<line x1="2064" y1="871.23" x2="-144" y2="871.23" stroke="white" stroke-opacity="0.02"/>
<line x1="2064" y1="97.2476" x2="-144" y2="97.2476" stroke="white" stroke-opacity="0.02"/>
<line x1="1208" y1="-2.08349e-08" x2="1208" y2="1242" stroke="white" stroke-opacity="0.02"/>
<line x1="1449.27" y1="-2.08349e-08" x2="1449.27" y2="1242" stroke="white" stroke-opacity="0.02"/>
<line x1="1714.66" y1="-2.08349e-08" x2="1714.66" y2="1242" stroke="white" stroke-opacity="0.02"/>
<line x1="435.938" y1="-2.08349e-08" x2="435.939" y2="1242" stroke="white" stroke-opacity="0.02"/>
<line x1="2064" y1="580.987" x2="-144" y2="580.987" stroke="white" stroke-opacity="0.02"/>
<line x1="821.968" y1="-2.08349e-08" x2="821.968" y2="1242" stroke="white" stroke-opacity="0.02"/>
<line x1="2064" y1="967.978" x2="-144" y2="967.978" stroke="white" stroke-opacity="0.02"/>
<line x1="49.9092" y1="-2.08349e-08" x2="49.9092" y2="1242" stroke="white" stroke-opacity="0.02"/>
<line x1="2064" y1="193.995" x2="-144" y2="193.995" stroke="white" stroke-opacity="0.02"/>
<line x1="1014.98" y1="-2.08349e-08" x2="1014.98" y2="1242" stroke="white" stroke-opacity="0.02"/>
<line x1="2064" y1="1161.47" x2="-144" y2="1161.47" stroke="white" stroke-opacity="0.02"/>
<line x1="242.924" y1="-2.08349e-08" x2="242.924" y2="1242" stroke="white" stroke-opacity="0.02"/>
<line x1="2064" y1="387.491" x2="-144" y2="387.491" stroke="white" stroke-opacity="0.02"/>
<line x1="628.953" y1="-2.08349e-08" x2="628.953" y2="1242" stroke="white" stroke-opacity="0.02"/>
<line x1="2064" y1="774.482" x2="-144" y2="774.482" stroke="white" stroke-opacity="0.02"/>
<line x1="2064" y1="0.5" x2="-144" y2="0.5" stroke="white" stroke-opacity="0.02"/>
</svg>
