<svg width="21" height="21" viewBox="0 0 21 21" fill="none" xmlns="http://www.w3.org/2000/svg">
<g id="instagram-brands">
<path id="Shape" fill-rule="evenodd" clip-rule="evenodd" d="M20.9292 6.29164C20.8528 4.67799 20.4842 3.24863 19.302 2.07098C18.1244 0.893326 16.695 0.524748 15.0814 0.443841C13.4183 0.349449 8.43349 0.349449 6.7704 0.443841C5.16124 0.520253 3.73188 0.888831 2.54974 2.06648C1.36759 3.24413 1.00351 4.67349 0.9226 6.28714C0.828209 7.95024 0.828209 12.935 0.9226 14.5981C0.999013 16.2118 1.36759 17.6411 2.54974 18.8188C3.73188 19.9964 5.15675 20.365 6.7704 20.4459C8.43349 20.5403 13.4183 20.5403 15.0814 20.4459C16.695 20.3695 18.1244 20.0009 19.302 18.8188C20.4797 17.6411 20.8483 16.2118 20.9292 14.5981C21.0236 12.935 21.0236 7.95473 20.9292 6.29164ZM16.3045 6.2735C16.9697 6.2735 17.5091 5.73861 17.5091 5.06888C17.5091 4.40364 16.9697 3.86426 16.3045 3.86426C15.6392 3.86426 15.0999 4.40364 15.0999 5.06888C15.0999 5.73411 15.6347 6.2735 16.3045 6.2735ZM10.9285 5.28027C8.06977 5.28027 5.76392 7.58613 5.76392 10.4449C5.76392 13.3036 8.06977 15.6094 10.9285 15.6094C13.7872 15.6094 16.0931 13.3036 16.0931 10.4449C16.0931 7.58613 13.7872 5.28027 10.9285 5.28027ZM10.9282 13.8027C9.08083 13.8027 7.57056 12.2969 7.57056 10.4451C7.57056 8.59318 9.07633 7.0874 10.9282 7.0874C12.7801 7.0874 14.2859 8.59318 14.2859 10.4451C14.2859 12.2969 12.7756 13.8027 10.9282 13.8027ZM16.8653 18.2974C17.7508 17.9423 18.4295 17.2636 18.7801 16.3826C19.2312 15.2491 19.2061 12.7698 19.1898 11.1626C19.1871 10.896 19.1846 10.6534 19.1846 10.4449C19.1846 10.2364 19.1871 9.99383 19.1898 9.72732C19.2061 8.12097 19.2311 5.64451 18.7801 4.50723C18.425 3.62174 17.7463 2.94302 16.8653 2.59242C15.7282 2.1438 13.2369 2.16769 11.6301 2.18311C11.3695 2.18561 11.1321 2.18788 10.9276 2.18788C10.7191 2.18788 10.4765 2.18543 10.21 2.18273C8.60364 2.16645 6.12718 2.14136 4.98989 2.59242C4.10441 2.94751 3.42568 3.62623 3.07509 4.50723C2.62646 5.64425 2.65036 8.13562 2.66577 9.74235C2.66827 10.003 2.67055 10.2404 2.67055 10.4449C2.67055 10.6534 2.66809 10.896 2.66539 11.1625C2.64912 12.7689 2.62403 15.2453 3.07509 16.3826C3.43018 17.2681 4.1089 17.9468 4.98989 18.2974C6.12692 18.746 8.61828 18.7221 10.225 18.7067C10.4857 18.7042 10.723 18.702 10.9276 18.702C11.1361 18.702 11.3787 18.7044 11.6452 18.7071C13.2515 18.7234 15.728 18.7485 16.8653 18.2974Z" fill="#8B8D91"/>
</g>
</svg>
