<svg width="27" height="27" viewBox="0 0 27 27" fill="none" xmlns="http://www.w3.org/2000/svg">
<g clip-path="url(#clip0)">
<path d="M17.8536 12.1034L12.1096 8.96051C11.7793 8.7798 11.389 8.78655 11.0652 8.97837C10.7413 9.17038 10.5481 9.50959 10.5481 9.88608V16.1179C10.5481 16.4926 10.7401 16.8312 11.0619 17.0234C11.2299 17.1238 11.4161 17.1742 11.6028 17.1742C11.7738 17.1742 11.9452 17.1319 12.1029 17.047L17.8471 13.9583C18.1881 13.7748 18.4009 13.4203 18.4025 13.0329C18.4039 12.6455 18.1936 12.2895 17.8536 12.1034ZM12.0717 15.334V10.6764L16.3647 13.0254L12.0717 15.334Z" fill="#8B8D91"/>
<path d="M26.6605 8.06828L26.6593 8.05638C26.6373 7.84711 26.4181 5.98566 25.5131 5.03886C24.4672 3.92525 23.2814 3.78996 22.7111 3.7251C22.6639 3.71974 22.6206 3.71478 22.5819 3.70963L22.5365 3.70486C19.0993 3.45493 13.9083 3.42081 13.8563 3.42061L13.8518 3.42041L13.8472 3.42061C13.7952 3.42081 8.60425 3.45493 5.13606 3.70486L5.09024 3.70963C5.05334 3.71458 5.01268 3.71915 4.96844 3.7243C4.40469 3.78937 3.23157 3.92485 2.18263 5.07874C1.32074 6.01541 1.07159 7.83699 1.046 8.0417L1.04303 8.06828C1.03529 8.15536 0.851807 10.2285 0.851807 12.3097V14.2553C0.851807 16.3365 1.03529 18.4096 1.04303 18.4969L1.04442 18.51C1.06644 18.7159 1.28543 20.5432 2.1862 21.4904C3.16968 22.5667 4.41322 22.7092 5.08211 22.7857C5.18783 22.7978 5.27888 22.8081 5.34097 22.819L5.40107 22.8274C7.3857 23.0162 13.6082 23.1093 13.872 23.113L13.8799 23.1132L13.8879 23.113C13.9398 23.1128 19.1306 23.0787 22.5678 22.8288L22.6133 22.824C22.6567 22.8183 22.7055 22.8131 22.7591 22.8075C23.3196 22.748 24.4864 22.6245 25.5209 21.4862C26.3828 20.5494 26.6321 18.7278 26.6575 18.5233L26.6605 18.4967C26.6682 18.4094 26.8519 16.3365 26.8519 14.2553V12.3097C26.8517 10.2285 26.6682 8.15556 26.6605 8.06828ZM25.3281 14.2553C25.3281 16.1816 25.1599 18.1654 25.144 18.3475C25.0793 18.8492 24.8165 20.0017 24.3966 20.4581C23.7491 21.1704 23.084 21.2411 22.5984 21.2924C22.5397 21.2986 22.4853 21.3045 22.4361 21.3107C19.1116 21.5511 14.1166 21.588 13.8865 21.5894C13.6284 21.5856 7.49698 21.4918 5.57286 21.3131C5.47427 21.297 5.36775 21.2847 5.25548 21.272C4.68597 21.2067 3.90641 21.1175 3.30695 20.4581L3.29287 20.443C2.88027 20.0132 2.62498 18.9355 2.56011 18.3535C2.54801 18.2158 2.37544 16.2086 2.37544 14.2553V12.3097C2.37544 10.3856 2.54325 8.40392 2.55952 8.21805C2.63668 7.62712 2.90447 6.54445 3.30695 6.10686C3.97425 5.37291 4.67784 5.29158 5.1432 5.23782C5.18764 5.23267 5.22909 5.22791 5.26738 5.22295C8.64035 4.98134 13.6712 4.94543 13.8518 4.94405C14.0323 4.94524 19.0614 4.98134 22.4044 5.22295C22.4455 5.2281 22.4903 5.23326 22.5385 5.23882C23.0171 5.29337 23.7406 5.37589 24.4045 6.08405L24.4106 6.09059C24.8232 6.52045 25.0785 7.617 25.1434 8.21071C25.1549 8.34064 25.3281 10.3522 25.3281 12.3097V14.2553Z" fill="#8B8D91"/>
</g>
<defs>
<clipPath id="clip0">
<rect width="26" height="26" fill="white" transform="translate(0.851807 0.271973)"/>
</clipPath>
</defs>
</svg>
