<svg width="34" height="34" viewBox="0 0 34 34" fill="none" xmlns="http://www.w3.org/2000/svg">
<circle cx="17" cy="17" r="16" stroke="white" stroke-width="2"/>
<path d="M18.142 23H15.292V14.45H18.142V23ZM15.045 11.505C15.045 11.0237 15.2097 10.6373 15.539 10.346C15.8683 10.042 16.28 9.89 16.774 9.89C17.2173 9.89 17.5973 10.042 17.914 10.346C18.2307 10.65 18.389 11.0363 18.389 11.505C18.389 12.0243 18.2307 12.4423 17.914 12.759C17.5973 13.0757 17.2173 13.234 16.774 13.234C16.2673 13.234 15.8493 13.082 15.52 12.778C15.2033 12.4613 15.045 12.037 15.045 11.505Z" fill="white"/>
</svg>
