<svg width="170" height="36" viewBox="0 0 170 36" fill="none" xmlns="http://www.w3.org/2000/svg">
<path d="M34.9619 22.0422C32.5914 31.5504 22.9612 37.3369 13.4519 34.9659C3.94652 32.5953 -1.84004 22.9646 0.531599 13.457C2.90102 3.94769 12.5312 -1.83941 22.0377 0.53112C31.5464 2.90165 37.3324 12.5335 34.9619 22.0422Z" fill="white" fill-opacity="0.3"/>
<path d="M25.5725 15.2201C25.9258 12.8585 24.1277 11.5889 21.669 10.742L22.4666 7.54282L20.5192 7.05751L19.7427 10.1724C19.2308 10.0448 18.705 9.92445 18.1825 9.8052L18.9646 6.66982L17.0183 6.18451L16.2202 9.38255C15.7965 9.28604 15.3805 9.19066 14.9767 9.09027L14.9789 9.08028L12.2934 8.40972L11.7754 10.4896C11.7754 10.4896 13.2202 10.8207 13.1897 10.8413C13.9784 11.0381 14.1209 11.5601 14.0971 11.9738L13.1886 15.6184C13.2429 15.6322 13.3134 15.6522 13.391 15.6833C13.3261 15.6672 13.2568 15.6494 13.1852 15.6322L11.9118 20.7377C11.8153 20.9773 11.5707 21.3367 11.0194 21.2002C11.0388 21.2285 9.60395 20.8469 9.60395 20.8469L8.63721 23.076L11.1714 23.7078C11.6428 23.8259 12.1048 23.9496 12.5596 24.0661L11.7537 27.3018L13.6988 27.7871L14.497 24.5858C15.0283 24.73 15.5441 24.8631 16.0488 24.9884L15.2535 28.1748L17.2008 28.6601L18.0067 25.4305C21.3273 26.0589 23.8243 25.8054 24.8754 22.802C25.7223 20.3838 24.8332 18.9889 23.0861 18.0793C24.3584 17.7859 25.3169 16.9489 25.5725 15.2201ZM21.1232 21.4593C20.5214 23.8775 16.4498 22.5702 15.1298 22.2424L16.1992 17.9556C17.5192 18.2851 21.7522 18.9373 21.1232 21.4593ZM21.7256 15.1852C21.1765 17.3849 17.7876 16.2673 16.6883 15.9933L17.6579 12.1053C18.7571 12.3793 22.2974 12.8906 21.7256 15.1852Z" fill="white"/>
<path d="M91.4908 25.4311C91.4908 23.3961 91.8202 21.477 92.4786 19.6806C93.1358 17.8824 94.0826 16.31 95.3111 14.9606C96.5352 13.6178 98.0266 12.554 99.7821 11.7731C101.529 10.9966 103.485 10.605 105.641 10.605C106.991 10.605 108.196 10.7326 109.256 10.9883C110.321 11.2462 111.285 11.5795 112.156 11.9977L109.863 17.2113C109.264 16.9684 108.642 16.7543 108 16.5602C107.356 16.3622 106.571 16.2668 105.642 16.2668C103.423 16.2668 101.668 17.0316 100.363 18.5563C99.0622 20.0821 98.4071 22.1359 98.4071 24.7122C98.4071 26.2392 98.7366 27.4738 99.3977 28.4183C100.056 29.3629 101.271 29.8327 103.035 29.8327C103.906 29.8327 104.746 29.7417 105.551 29.5642C106.362 29.3845 107.078 29.1582 107.708 28.8909L108.205 34.2354C107.364 34.5615 106.437 34.856 105.419 35.1139C104.4 35.363 103.186 35.4922 101.779 35.4922C99.9219 35.4922 98.3494 35.2204 97.0632 34.6852C95.7765 34.1417 94.7132 33.4201 93.8757 32.506C93.0338 31.5898 92.4292 30.5199 92.0554 29.2919C91.6816 28.065 91.4908 26.776 91.4908 25.4311ZM121.025 35.4922C119.438 35.4922 118.06 35.2504 116.891 34.7717C115.725 34.2931 114.76 33.6214 113.996 32.7506C113.231 31.8843 112.659 30.8576 112.266 29.6746C111.874 28.4921 111.686 27.1826 111.686 25.7477C111.686 23.9479 111.975 22.1487 112.559 20.3544C113.14 18.5563 114.002 16.9406 115.144 15.5047C116.276 14.0665 117.674 12.8907 119.319 11.9739C120.962 11.0631 122.852 10.605 124.975 10.605C126.533 10.605 127.904 10.8474 129.09 11.326C130.269 11.8036 131.241 12.4808 132.009 13.3471C132.769 14.2179 133.347 15.2401 133.735 16.4248C134.126 17.6051 134.319 18.9179 134.319 20.3539C134.319 22.1481 134.034 23.9474 133.468 25.7472C132.902 27.5381 132.061 29.1577 130.952 30.597C129.845 32.0329 128.461 33.2082 126.798 34.1211C125.137 35.0341 123.212 35.4922 121.025 35.4922ZM52.0116 10.7387C53.4509 10.7387 54.6944 10.9966 55.7393 11.503C56.7893 12.0143 57.6556 12.7032 58.3506 13.5696C59.0361 14.4403 59.5464 15.4581 59.8758 16.6245C60.2031 17.7942 60.3672 19.0516 60.3672 20.3977C60.3672 22.4654 59.9884 24.4188 59.2236 26.2602C58.4587 28.1044 57.421 29.704 56.101 31.0684C54.782 32.4311 53.2246 33.5055 51.4287 34.2992C49.6355 35.0934 47.686 35.4905 45.5928 35.4905C45.3221 35.4905 44.8462 35.4828 44.174 35.4689C43.5018 35.455 42.7292 35.3857 41.864 35.2687C40.9932 35.1472 40.0725 34.9675 39.1002 34.7268C38.1285 34.4905 37.2055 34.1594 36.3364 33.739L44.108 1.08408L51.0687 0.00531006L48.2861 11.5934C48.8818 11.3249 49.4819 11.1169 50.0809 10.9655C50.6799 10.8163 51.3233 10.7387 52.0116 10.7387ZM84.326 11.2384H91.7836L90.437 16.7171H83.0242L81.0497 24.9812C80.8678 25.6701 80.7646 26.3135 80.7358 26.9114C80.7031 27.5121 80.7791 28.0279 80.9588 28.4622C81.1374 28.8975 81.4585 29.2331 81.9244 29.4705C82.3881 29.7118 83.052 29.8332 83.9227 29.8332C84.6399 29.8332 85.3387 29.765 86.0143 29.6297C86.686 29.4966 87.3665 29.3113 88.0554 29.0689L88.5512 34.1916C87.6527 34.521 86.6799 34.8044 85.6316 35.0429C84.5817 35.2848 83.3387 35.4012 81.9022 35.4012C79.8367 35.4012 78.2355 35.0945 77.0946 34.4839C75.9554 33.8688 75.15 33.0285 74.668 31.9647C74.1927 30.9048 73.9803 29.6829 74.0396 28.3063C74.1012 26.9264 74.3092 25.476 74.668 23.9485L79.0724 5.35314L86.0359 4.27436L84.326 11.2384ZM67.5859 34.8655H60.9374L66.552 11.2395H73.246L67.5859 34.8655ZM141.564 34.8655H134.91L140.524 11.2395H147.221L141.564 34.8655ZM152.013 12.3138C152.518 12.1663 153.081 11.9888 153.694 11.7958C154.309 11.6028 154.996 11.4231 155.764 11.2611C156.523 11.0942 157.38 10.9589 158.323 10.854C159.265 10.747 160.339 10.6949 161.532 10.6949C165.038 10.6949 167.455 11.7159 168.79 13.752C170.123 15.7881 170.354 18.5746 169.488 22.1065L166.43 34.8632H159.738L162.702 22.375C162.883 21.5952 163.025 20.8414 163.13 20.1049C163.235 19.375 163.229 18.7316 163.106 18.1747C162.988 17.6245 162.709 17.1741 162.277 16.8253C161.838 16.482 161.176 16.3095 160.276 16.3095C159.41 16.3095 158.528 16.4026 157.628 16.5823L153.27 34.8627H146.575L152.013 12.3138ZM46.1729 29.9685C47.2212 29.9685 48.209 29.7106 49.1369 29.2043C50.0676 28.6973 50.8707 28.0129 51.5435 27.1604C52.2163 26.3041 52.7487 25.3395 53.137 24.2619C53.5252 23.1842 53.7216 22.06 53.7216 20.8902C53.7216 19.4532 53.4814 18.3322 53.0028 17.5219C52.5241 16.7149 51.6383 16.3089 50.3521 16.3089C49.9306 16.3089 49.3876 16.3893 48.7143 16.533C48.0387 16.6855 47.4342 17.0022 46.8923 17.4786L43.9294 29.785C44.108 29.8166 44.2661 29.8465 44.4009 29.8748C44.5329 29.9053 44.6787 29.927 44.8241 29.9419C44.9777 29.9591 45.1535 29.968 45.3659 29.968C45.5784 29.968 45.8435 29.9685 46.1729 29.9685ZM124.348 16.2673C123.363 16.2673 122.491 16.5535 121.745 17.1187C120.996 17.6905 120.367 18.4093 119.861 19.2762C119.348 20.147 118.968 21.0966 118.711 22.1287C118.457 23.1631 118.332 24.141 118.332 25.07C118.332 26.5692 118.574 27.7367 119.049 28.577C119.531 29.4128 120.397 29.8332 121.655 29.8332C122.644 29.8332 123.511 29.5492 124.262 28.978C125.006 28.4106 125.635 27.6912 126.146 26.8226C126.655 25.9563 127.039 25.004 127.295 23.9701C127.547 22.9391 127.675 21.9557 127.675 21.0283C127.675 19.533 127.434 18.3627 126.954 17.5236C126.475 16.6877 125.605 16.2673 124.348 16.2673ZM70.8211 8.36094C69.8932 8.36094 69.0518 8.08473 68.3052 7.5312C67.5526 6.981 67.1799 6.13407 67.1799 4.99262C67.1799 4.36477 67.3074 3.77574 67.5604 3.22C67.8172 2.66536 68.1527 2.18781 68.5731 1.78182C68.993 1.37915 69.4794 1.05746 70.0318 0.815082C70.5876 0.576588 71.1788 0.45734 71.8089 0.45734C72.7362 0.45734 73.5732 0.73355 74.3225 1.28708C75.069 1.84338 75.4445 2.69032 75.4445 3.82566C75.4445 4.45573 75.3175 5.04697 75.0624 5.60161C74.8089 6.15625 74.4734 6.6338 74.053 7.03979C73.6364 7.44301 73.1456 7.76359 72.5942 8.00375C72.0379 8.24613 71.4489 8.36094 70.8211 8.36094ZM144.794 8.36094C143.866 8.36094 143.025 8.08473 142.28 7.5312C141.531 6.981 141.155 6.13407 141.155 4.99262C141.155 4.36477 141.285 3.77574 141.538 3.22C141.792 2.66536 142.129 2.18781 142.55 1.78182C142.967 1.37915 143.458 1.05746 144.01 0.815082C144.562 0.576588 145.153 0.45734 145.781 0.45734C146.711 0.45734 147.55 0.73355 148.298 1.28708C149.046 1.84338 149.424 2.69032 149.424 3.82566C149.424 4.45573 149.29 5.04697 149.038 5.60161C148.787 6.15625 148.449 6.6338 148.031 7.03979C147.609 7.44301 147.124 7.76359 146.572 8.00375C146.015 8.24613 145.425 8.36094 144.794 8.36094Z" fill="white"/>
</svg>
