<svg width="170" height="67" viewBox="0 0 170 67" fill="none" xmlns="http://www.w3.org/2000/svg">
<path d="M60.0734 35.6452C60.0734 35.8945 59.8242 36.1437 59.5749 36.1437H50.1859C50.4351 38.4702 52.18 40.6305 54.6727 40.6305C56.3344 40.6305 57.5808 39.9658 58.5778 38.6364C58.6609 38.4702 58.8271 38.3871 58.9933 38.3871C59.2425 38.3871 59.4918 38.5533 59.4918 38.8857C59.4918 38.9687 59.4918 39.0518 59.4087 39.1349C58.4947 40.7967 56.5837 41.6276 54.7558 41.6276C51.5984 41.6276 49.355 38.8026 49.355 35.7283C49.355 32.654 51.5984 29.829 54.7558 29.829C57.9131 29.829 60.0734 32.5709 60.0734 35.6452ZM59.0764 35.1467C58.9102 32.8202 57.0822 30.6599 54.5896 30.6599C52.0969 30.6599 50.352 32.8202 50.1028 35.1467H59.0764Z" fill="white"/>
<path d="M71.5399 29.9952C71.7892 29.9952 72.0385 30.2445 72.0385 30.4938C72.0385 30.743 71.8723 30.9923 71.5399 30.9923H69.0473V40.8799C69.0473 41.1291 68.8811 41.3784 68.5487 41.3784C68.2995 41.3784 68.0502 41.1291 68.0502 40.8799V30.9092H65.6406C65.3914 30.9092 65.1421 30.743 65.1421 30.4107C65.1421 30.1614 65.3083 29.9121 65.6406 29.9121H68.0502V26.2562C68.0502 26.007 68.2164 25.7577 68.5487 25.7577C68.798 25.7577 69.0473 25.9239 69.0473 26.2562V29.9121H71.5399V29.9952Z" fill="white"/>
<path d="M86.995 34.8143V40.7967C86.995 41.0459 86.7457 41.2952 86.4965 41.2952C86.2472 41.2952 85.9979 41.129 85.9979 40.7967V34.8143C85.9979 32.8202 84.8347 30.7429 82.5913 30.7429C79.6832 30.7429 78.4368 33.2356 78.603 35.8944C78.603 35.9775 78.603 36.2268 78.603 36.3099V40.7967C78.603 41.0459 78.4368 41.2952 78.1045 41.2952C77.8552 41.2952 77.606 41.129 77.606 40.7967V21.0215C77.606 20.7723 77.7721 20.523 78.1045 20.523C78.3538 20.523 78.603 20.7723 78.603 21.0215V32.1554C79.4339 30.7429 80.8464 29.7459 82.5913 29.7459C85.4163 29.7459 86.995 32.2385 86.995 34.8143Z" fill="white"/>
<path d="M103.861 35.6453C103.861 35.8945 103.612 36.1438 103.363 36.1438H93.9735C94.2227 38.4703 95.9676 40.6306 98.4603 40.6306C100.122 40.6306 101.368 39.9659 102.365 38.6365C102.449 38.4703 102.615 38.3872 102.781 38.3872C103.03 38.3872 103.279 38.5534 103.279 38.8857C103.279 38.9688 103.279 39.0519 103.196 39.135C102.282 40.7968 100.371 41.6277 98.5434 41.6277C95.386 41.6277 93.1426 38.8026 93.1426 35.7284C93.1426 32.6541 95.386 29.8291 98.5434 29.8291C101.618 29.746 103.861 32.571 103.861 35.6453ZM102.864 35.1467C102.698 32.8203 100.87 30.6599 98.3772 30.6599C95.8845 30.6599 94.1396 32.8203 93.8904 35.1467H102.864Z" fill="white"/>
<path d="M115.494 30.4106C115.494 30.743 115.328 30.9092 115.079 30.9092C112.337 31.3246 111.09 33.568 111.09 36.2268V40.7136C111.09 40.9629 110.924 41.2122 110.592 41.2122C110.343 41.2122 110.093 41.046 110.093 40.7136V30.4937C110.093 30.2444 110.259 29.9952 110.592 29.9952C110.841 29.9952 111.09 30.1614 111.09 30.4937V32.5709C111.838 31.2415 113.417 29.9952 115.079 29.9952C115.162 29.9952 115.494 30.1614 115.494 30.4106Z" fill="white"/>
<path d="M130.948 35.6453C130.948 35.8945 130.699 36.1438 130.449 36.1438H121.06C121.31 38.4703 123.055 40.6306 125.547 40.6306C127.209 40.6306 128.455 39.9659 129.452 38.6365C129.535 38.4703 129.702 38.3872 129.868 38.3872C130.117 38.3872 130.366 38.5534 130.366 38.8857C130.366 38.9688 130.366 39.0519 130.283 39.135C129.369 40.7968 127.458 41.6277 125.63 41.6277C122.473 41.6277 120.229 38.8026 120.229 35.7284C120.229 32.6541 122.473 29.8291 125.63 29.8291C128.621 29.746 130.948 32.571 130.948 35.6453ZM129.951 35.1467C129.785 32.8203 127.957 30.6599 125.464 30.6599C122.971 30.6599 121.227 32.8203 120.977 35.1467H129.951Z" fill="white"/>
<path d="M146.154 30.4937V33.7342V40.7967C146.154 41.046 145.904 41.2953 145.655 41.2953C145.406 41.2953 145.156 41.1291 145.156 40.7967V38.8026C144.409 40.3813 142.996 41.4615 141.251 41.4615C138.426 41.4615 136.931 39.0519 136.931 36.4761V30.4106C136.931 30.1614 137.097 29.9121 137.429 29.9121C137.678 29.9121 137.928 30.1614 137.928 30.4106V36.5592C137.928 38.5533 139.091 40.6306 141.334 40.6306C144.492 40.6306 145.24 37.6394 145.24 34.3989V30.5768C145.24 30.3276 145.406 30.0783 145.738 30.0783C145.904 30.0783 146.154 30.2445 146.154 30.4937Z" fill="white"/>
<path d="M170 34.7312V40.7967C170 41.046 169.75 41.2952 169.501 41.2952C169.252 41.2952 169.003 41.1291 169.003 40.7967V34.7312C169.003 32.7371 167.839 30.743 165.596 30.743C162.771 30.743 161.691 33.8173 161.691 36.1437V40.7967C161.691 41.046 161.442 41.2952 161.192 41.2952C160.943 41.2952 160.694 41.1291 160.694 40.7967V34.7312C160.694 32.7371 159.53 30.743 157.287 30.743C154.379 30.743 153.216 32.9864 153.299 35.9776C153.299 36.0607 153.299 36.1437 153.299 36.2268V40.7967C153.299 41.046 153.133 41.2952 152.8 41.2952C152.551 41.2952 152.302 41.1291 152.302 40.7967V30.4937C152.302 30.2444 152.468 29.9952 152.8 29.9952C153.05 29.9952 153.299 30.1613 153.299 30.4937V32.2386C154.13 30.8261 155.542 29.829 157.287 29.829C159.198 29.829 160.694 31.0753 161.275 32.8202C162.023 31.0753 163.602 29.829 165.513 29.829C168.421 29.7459 170 32.1555 170 34.7312Z" fill="white"/>
<path d="M0 37.7224L20.3568 66.4711V49.7702L0 37.7224Z" fill="white" fill-opacity="0.4"/>
<path d="M0 33.8171L20.3568 45.9481V24.5942L0 33.8171Z" fill="white" fill-opacity="0.5"/>
<path d="M0 33.8172L20.3568 24.5943V0L0 33.8172Z" fill="white" fill-opacity="0.4"/>
<path d="M40.7963 37.7224L20.3564 66.4711V49.7702L40.7963 37.7224Z" fill="white" fill-opacity="0.8"/>
<path d="M40.7963 33.8171L20.3564 45.9481V24.5942L40.7963 33.8171Z" fill="white"/>
<path d="M40.7963 33.8172L20.3564 24.5943V0L40.7963 33.8172Z" fill="white" fill-opacity="0.8"/>
</svg>
