<svg width="170" height="48" viewBox="0 0 170 48" fill="none" xmlns="http://www.w3.org/2000/svg">
<path d="M23.9505 0C10.7241 0 0 10.7241 0 23.9505C0 37.177 10.7241 47.9011 23.9505 47.9011C37.177 47.9011 47.9011 37.177 47.9011 23.9505C47.8736 10.7241 37.177 0 23.9505 0ZM24.308 24.7205L21.8332 33.1348H35.1421C35.6096 33.1348 35.9121 33.5748 35.8021 34.0147L34.6472 38.0019C34.5372 38.3869 34.1797 38.6618 33.7673 38.6618H13.4189L16.8561 27.0303L13.0614 28.2127L13.8864 25.4629L17.7086 24.2805L22.5482 7.94685C22.6582 7.56188 23.0156 7.28691 23.4281 7.28691H28.5702C29.0376 7.28691 29.3401 7.72687 29.2301 8.16683L25.133 21.9707L28.9276 20.7883L28.1027 23.5656L24.308 24.7205Z" fill="white" fill-opacity="0.8"/>
<path d="M61.7326 7.2594H60.2477C59.9727 7.2594 59.7802 7.42439 59.7253 7.69936L55.8756 38.1944C55.8481 38.4969 55.9306 38.6343 56.233 38.6343H57.7179C58.0204 38.6343 58.1854 38.4969 58.2404 38.1944L62.1176 7.69936C62.2 7.39689 62.0351 7.2594 61.7326 7.2594Z" fill="white"/>
<path d="M69.5145 16.0587H68.0296C67.7546 16.0587 67.5621 16.1962 67.5071 16.4987L64.7574 38.2219C64.7299 38.5244 64.8949 38.6619 65.1698 38.6619H66.6547C66.9297 38.6619 67.1222 38.5244 67.1772 38.2219L69.8995 16.5262C69.9269 16.2237 69.817 16.0587 69.5145 16.0587Z" fill="white"/>
<path d="M134.574 15.7012C132.512 15.7012 130.725 16.2787 129.212 17.4611C127.7 18.6435 126.71 20.1834 126.215 22.1082C125.803 23.6756 125.445 25.8754 125.28 27.3603C125.06 29.3676 124.868 31.0175 124.868 32.6124C124.895 34.5647 125.528 36.1046 126.71 37.287C127.92 38.4419 129.57 39.0468 131.66 39.0468C133.694 39.0468 135.482 38.4694 136.994 37.287C138.507 36.1321 139.496 34.5647 139.991 32.6124C140.321 31.32 140.651 29.5876 140.926 27.3603C141.201 25.0505 141.339 23.2906 141.339 22.0807C141.339 20.1559 140.734 18.616 139.524 17.4611C138.287 16.2787 136.637 15.7012 134.574 15.7012ZM138.754 25.243C138.617 26.3429 138.534 27.0578 138.507 27.3603C138.232 29.6151 137.984 31.21 137.764 32.1724C137.434 33.6023 136.719 34.7572 135.647 35.6371C134.574 36.517 133.309 36.9295 131.907 36.9295C130.477 36.9295 129.35 36.4895 128.497 35.6371C127.645 34.7847 127.232 33.6573 127.232 32.2549C127.232 31.5124 127.315 30.5775 127.452 29.4776C127.59 28.3777 127.672 27.6628 127.7 27.3603C127.975 25.2155 128.222 23.6206 128.442 22.5482C128.772 21.1183 129.487 19.9634 130.56 19.0835C131.632 18.2035 132.897 17.7911 134.299 17.7911C135.729 17.7911 136.857 18.231 137.709 19.056C138.562 19.9084 138.974 21.0358 138.974 22.4382C138.974 23.2356 138.892 24.143 138.754 25.243Z" fill="white"/>
<path d="M149.808 16.0587H148.351C148.076 16.0587 147.883 16.2237 147.828 16.4987L145.051 38.2219C145.023 38.5244 145.188 38.6619 145.463 38.6619H146.948C147.223 38.6619 147.416 38.5244 147.471 38.2219L150.193 16.5262C150.22 16.2237 150.11 16.0587 149.808 16.0587Z" fill="white"/>
<path d="M168.561 17.351C167.544 16.2786 166.114 15.7562 164.244 15.7562C163.034 15.7562 161.934 15.9761 160.917 16.4436C159.899 16.9111 159.047 17.5985 158.332 18.5334C158.195 18.6434 158.14 18.6159 158.14 18.4509L158.36 16.5261C158.387 16.2511 158.277 16.0861 158.002 16.0861H156.517C156.242 16.0861 156.05 16.2511 155.995 16.5261L153.273 38.2218C153.245 38.4968 153.328 38.6618 153.63 38.6618H155.115C155.39 38.6618 155.582 38.4968 155.61 38.2218L157.59 22.6581C157.92 21.2007 158.607 20.0183 159.625 19.1659C160.642 18.3135 161.852 17.8735 163.282 17.8735C164.602 17.8735 165.647 18.286 166.416 19.1109C167.186 19.9358 167.571 21.0357 167.571 22.4381C167.571 22.8506 167.544 23.1806 167.516 23.428L165.619 38.2218C165.619 38.3593 165.619 38.4418 165.674 38.5243C165.757 38.6068 165.867 38.6618 166.031 38.6618H167.516C167.791 38.6618 167.984 38.5243 168.011 38.2218L169.909 23.0706C169.964 22.4656 169.991 22.0257 169.991 21.7232C170.074 19.8533 169.579 18.3959 168.561 17.351Z" fill="white"/>
<path d="M70.4772 7.28693C69.5973 6.81947 68.4698 7.14944 68.0299 8.05686C67.5624 8.93679 67.9199 10.0642 68.7998 10.5317C69.6797 10.9991 70.7797 10.6417 71.2471 9.76173C71.7146 8.8543 71.3846 7.75439 70.4772 7.28693Z" fill="white"/>
<path d="M150.881 7.28693C150.001 6.81947 148.873 7.14944 148.433 8.05686C147.966 8.93679 148.323 10.0642 149.203 10.5317C150.083 10.9991 151.21 10.6417 151.678 9.76173C152.118 8.8543 151.76 7.75439 150.881 7.28693Z" fill="white"/>
<path d="M115.216 15.7012C113.154 15.7012 111.366 16.3062 109.854 17.4611C108.342 18.6435 107.352 20.1834 106.857 22.1082C106.444 23.6756 106.059 26.1504 105.922 27.3603C105.729 29.1201 105.509 31.0175 105.509 32.6124C105.537 34.5647 106.169 36.1046 107.352 37.287C108.562 38.4419 110.211 39.0468 112.301 39.0468C114.336 39.0468 116.123 38.4694 117.636 37.287C119.148 36.1321 120.138 34.5647 120.633 32.6124C120.661 32.4474 120.716 32.2824 120.743 32.1174C120.771 31.9799 120.661 31.8699 120.551 31.8699H118.708C118.598 31.8699 118.461 31.9249 118.433 32.0899C118.433 32.1174 118.406 32.1724 118.406 32.1724C118.076 33.6023 117.361 34.7572 116.288 35.6371C115.216 36.517 113.951 36.9295 112.549 36.9295C111.119 36.9295 109.991 36.4895 109.139 35.6371C108.287 34.7847 107.874 33.6573 107.874 32.2549C107.874 31.5124 107.957 30.5775 108.094 29.4776C108.204 28.5427 108.314 27.6628 108.342 27.3603C108.617 25.2155 108.864 23.6206 109.084 22.5482C109.414 21.1183 110.129 19.9634 111.201 19.0835C112.274 18.2035 113.539 17.7911 114.941 17.7911C116.343 17.7911 117.498 18.2035 118.351 19.056C119.203 19.9084 119.616 21.0358 119.616 22.4382V22.4657C119.616 22.6582 119.781 22.8232 119.973 22.8232H121.705C121.843 22.8232 121.98 22.7132 121.98 22.5482C121.98 22.3557 121.98 22.1907 121.98 22.0257C121.98 20.1009 121.375 18.561 120.166 17.4061C118.928 16.2787 117.306 15.7012 115.216 15.7012Z" fill="white"/>
<path d="M100.284 17.4611C99.0742 16.3062 97.4243 15.7012 95.362 15.7012C93.2996 15.7012 91.5123 16.2787 89.9999 17.4611C88.4875 18.6435 87.4976 20.1834 87.0027 22.1082C86.5902 23.6756 86.3977 25.078 86.0677 27.3603C85.7653 29.6151 85.6553 31.0175 85.6553 32.6124C85.6828 34.5647 86.3152 36.1046 87.4976 37.287C88.7075 38.4419 90.3574 39.0468 92.4472 39.0468C94.4821 39.0468 96.2694 38.4694 97.7818 37.287C99.2942 36.1321 100.284 34.5647 100.779 32.6124C100.807 32.4474 100.862 32.2824 100.889 32.1174C100.917 31.9799 100.834 31.8699 100.697 31.8699H98.8542C98.7442 31.8699 98.6067 31.9249 98.5792 32.0899C98.5792 32.1174 98.5517 32.1724 98.5517 32.1724C98.2217 33.6023 97.5068 34.7572 96.4344 35.6371C95.362 36.517 94.0971 36.9295 92.6947 36.9295C91.2648 36.9295 90.1374 36.4895 89.285 35.6371C88.4326 34.7847 88.0201 33.6573 88.0201 32.2549C88.0201 31.5949 88.0751 30.77 88.1851 29.8351L101.549 25.6829C101.824 25.6004 101.934 25.4629 101.989 25.133C102.071 24.4455 102.126 23.2631 102.126 22.0532C102.099 20.3209 101.494 18.616 100.284 17.4611ZM99.7616 23.7031C99.7616 23.8406 99.6791 23.9506 99.5416 23.9781L88.46 27.4153C88.46 27.3878 88.46 27.3878 88.46 27.3603C88.735 25.2155 88.9825 23.6206 89.2025 22.5482C89.5325 21.1183 90.2474 19.9634 91.3198 19.0835C92.3922 18.2035 93.6571 17.7911 95.0595 17.7911C96.4894 17.7911 97.6168 18.231 98.4692 19.056C99.8166 20.4583 99.8441 21.8882 99.7616 23.7031Z" fill="white"/>
<path d="M80.5687 36.2696C80.8437 36.1321 81.1461 36.3246 81.0912 36.6271L80.8987 38.1119C80.8712 38.3044 80.7337 38.4694 80.5687 38.5519C79.2488 39.0469 77.4065 39.2668 75.9216 38.6069C74.2167 37.837 73.7768 36.1596 74.0242 34.0698L75.9766 18.1486L76.2515 15.8663L76.9115 10.8067C76.939 10.5042 77.1315 10.3667 77.434 10.3667H78.8638C79.1938 10.3667 79.2763 10.5592 79.2213 10.8067L78.3689 18.0111H83.016C83.291 18.0111 83.401 18.1761 83.401 18.451L83.2635 19.496C83.236 19.6609 83.2085 19.7434 83.126 19.8534C83.0435 19.9359 82.8785 19.9634 82.7685 19.9634H78.1489L76.5265 33.0248C76.3615 34.4272 76.1691 35.6921 76.884 36.3796C77.8189 37.1495 79.6338 36.7095 80.5687 36.2696Z" fill="white"/>
</svg>
