<svg width="170" height="48" viewBox="0 0 170 48" fill="none" xmlns="http://www.w3.org/2000/svg">
<path fill-rule="evenodd" clip-rule="evenodd" d="M48 24C48 37.2548 37.2548 48 24 48C10.7452 48 0 37.2548 0 24C0 10.7452 10.7452 0 24 0C37.2548 0 48 10.7452 48 24ZM7.08006 15.5521V15.5521H7.10027C7.88666 15.5549 9.41644 15.7192 9.43194 16.3583V24.2881H12.0239V15.5531C12.108 15.5531 12.2009 15.5523 12.3011 15.5515L12.3013 15.5515C13.1458 15.5441 14.5066 15.5322 15.4074 15.9611C17.4954 16.9554 17.7594 17.8331 17.7594 20.4251C17.7594 23.0172 16.1514 24.1691 13.5594 24.7691C11.4858 25.2491 6.31142 24.8092 3.98342 24.5292C5.75142 24.9931 10.1418 25.8443 13.5594 25.5371C17.8314 25.1531 19.1754 23.8092 19.6554 22.5612C20.1354 21.3132 20.2794 18.3612 19.1754 16.5372C18.0669 14.7058 14.7598 14.6892 12.0239 14.6891V14.6881H12.0239H9.43194H7.08006V15.5521ZM7.08006 32.4004V33.2644H14.5681V32.4004H7.08006ZM12.0239 26.208H9.43194V31.4401C9.35194 31.7121 9.04794 32.2849 8.47194 32.4001H9.43194V32.4H12.0239L12.0239 32.4001H12.9838C12.4079 32.2849 12.1039 31.7121 12.0239 31.4401L12.0239 26.208ZM21.3829 15.5519V15.552H21.417C22.2114 15.5566 23.7348 15.7244 23.7348 16.3679L23.1106 29.9601V29.904C23.1106 29.9196 23.1105 29.9351 23.1103 29.9505C23.1101 29.9599 23.11 29.9691 23.1098 29.9784L23.1031 30.1232C22.9792 31.9017 21.3494 32.3846 20.5186 32.4H22.9986L22.9986 32.4001H20.5186V33.2641H26.7106V32.4001H26.7105L26.7106 32.4C25.936 32.4 24.419 32.2059 24.2947 31.4457L24.6708 18.2401H24.6709L31.5108 33.24H31.9428L39.0947 18.7269V31.3439C39.0947 32.1695 37.6867 32.3919 36.9827 32.3999L36.9849 32.4001H36.9827V33.2641H43.9907V32.4001H43.9897L43.9907 32.3999C43.1427 32.3919 41.4467 32.0399 41.4467 30.6959V16.4159C41.4467 16.1299 41.9059 15.5598 43.7362 15.552H43.7986V14.688H39.3347H39.3346V14.6881L32.3988 29.328L26.0869 16.176V15.552H26.0869V14.688H21.3829V15.5519ZM26.0387 15.6203V15.552H26.0743L26.0387 15.6203ZM39.0947 32.3999L39.0969 32.4001H39.0947V32.3999Z" fill="white" fill-opacity="0.8"/>
<path d="M62.3501 28.04V17.54H66.4901C67.7101 17.54 68.6801 17.86 69.4001 18.5C70.1201 19.14 70.4801 20 70.4801 21.08C70.4801 22.21 70.0801 23.09 69.2801 23.72C68.4901 24.35 67.4901 24.665 66.2801 24.665H64.1951V28.04H62.3501ZM64.1951 23H66.3401C67.0301 23 67.5801 22.825 67.9901 22.475C68.4001 22.125 68.6051 21.665 68.6051 21.095C68.6051 20.495 68.4001 20.035 67.9901 19.715C67.5901 19.385 67.0401 19.22 66.3401 19.22H64.1951V23Z" fill="white"/>
<path d="M75.7896 28.22C74.6296 28.22 73.6596 27.835 72.8796 27.065C72.1096 26.295 71.7246 25.3 71.7246 24.08C71.7246 22.93 72.0896 21.955 72.8196 21.155C73.5496 20.355 74.4746 19.955 75.5946 19.955C76.7946 19.955 77.7246 20.365 78.3846 21.185C79.0546 21.995 79.3896 23.005 79.3896 24.215C79.3896 24.435 79.3796 24.605 79.3596 24.725H73.5396C73.6396 25.355 73.8946 25.85 74.3046 26.21C74.7146 26.56 75.2196 26.735 75.8196 26.735C76.5996 26.735 77.3146 26.42 77.9646 25.79L79.0296 26.735C78.2096 27.725 77.1296 28.22 75.7896 28.22ZM73.5246 23.525H77.5896C77.5296 22.915 77.3246 22.415 76.9746 22.025C76.6246 21.635 76.1596 21.44 75.5796 21.44C75.0296 21.44 74.5696 21.635 74.1996 22.025C73.8296 22.405 73.6046 22.905 73.5246 23.525Z" fill="white"/>
<path d="M81.2124 28.04V20.12H83.0274V21.905C83.5874 20.555 84.5224 19.91 85.8324 19.97V21.89H85.7274C84.9074 21.89 84.2524 22.16 83.7624 22.7C83.2724 23.23 83.0274 24.005 83.0274 25.025V28.04H81.2124Z" fill="white"/>
<path d="M87.8137 28.04V21.68H86.8087V20.165H87.8137V19.595C87.8137 18.715 88.0287 18.06 88.4587 17.63C88.8787 17.21 89.4737 17 90.2437 17C90.7537 17 91.2437 17.07 91.7137 17.21V18.74C91.3237 18.61 90.9687 18.545 90.6487 18.545C89.9487 18.545 89.5987 18.945 89.5987 19.745V20.18H91.6987V21.68H89.6287V28.04H87.8137Z" fill="white"/>
<path d="M96.5318 28.22C95.3718 28.22 94.4018 27.835 93.6218 27.065C92.8518 26.295 92.4668 25.3 92.4668 24.08C92.4668 22.93 92.8318 21.955 93.5618 21.155C94.2918 20.355 95.2168 19.955 96.3368 19.955C97.5368 19.955 98.4668 20.365 99.1268 21.185C99.7968 21.995 100.132 23.005 100.132 24.215C100.132 24.435 100.122 24.605 100.102 24.725H94.2818C94.3818 25.355 94.6368 25.85 95.0468 26.21C95.4568 26.56 95.9618 26.735 96.5618 26.735C97.3418 26.735 98.0568 26.42 98.7068 25.79L99.7718 26.735C98.9518 27.725 97.8718 28.22 96.5318 28.22ZM94.2668 23.525H98.3318C98.2718 22.915 98.0668 22.415 97.7168 22.025C97.3668 21.635 96.9018 21.44 96.3218 21.44C95.7718 21.44 95.3118 21.635 94.9418 22.025C94.5718 22.405 94.3468 22.905 94.2668 23.525Z" fill="white"/>
<path d="M105.615 28.22C104.445 28.22 103.47 27.82 102.69 27.02C101.91 26.22 101.52 25.245 101.52 24.095C101.52 22.955 101.91 21.98 102.69 21.17C103.48 20.36 104.46 19.955 105.63 19.955C106.91 19.955 107.965 20.41 108.795 21.32L107.67 22.535C107.04 21.875 106.355 21.545 105.615 21.545C104.965 21.545 104.42 21.795 103.98 22.295C103.55 22.785 103.335 23.385 103.335 24.095C103.335 24.815 103.555 25.42 103.995 25.91C104.445 26.4 105.015 26.645 105.705 26.645C106.435 26.645 107.12 26.315 107.76 25.655L108.855 26.735C108.425 27.215 107.955 27.585 107.445 27.845C106.945 28.095 106.335 28.22 105.615 28.22Z" fill="white"/>
<path d="M113.179 28.175C111.659 28.175 110.899 27.4 110.899 25.85V21.68H109.894V20.12H110.899V17.945H112.714V20.12H114.844V21.68H112.714V25.565C112.714 26.225 113.039 26.555 113.689 26.555C114.079 26.555 114.454 26.465 114.814 26.285V27.77C114.334 28.04 113.789 28.175 113.179 28.175Z" fill="white"/>
<path d="M121.383 28.04V17.54H123.348L126.543 22.505L129.738 17.54H131.703V28.04H129.858V20.51L126.543 25.46H126.483L123.198 20.54V28.04H121.383Z" fill="white"/>
<path d="M137.961 28.22C136.761 28.22 135.761 27.82 134.961 27.02C134.161 26.22 133.761 25.245 133.761 24.095C133.761 22.945 134.166 21.97 134.976 21.17C135.786 20.36 136.791 19.955 137.991 19.955C139.191 19.955 140.191 20.355 140.991 21.155C141.801 21.955 142.206 22.935 142.206 24.095C142.206 25.235 141.801 26.21 140.991 27.02C140.181 27.82 139.171 28.22 137.961 28.22ZM137.991 26.645C138.711 26.645 139.291 26.4 139.731 25.91C140.171 25.42 140.391 24.815 140.391 24.095C140.391 23.385 140.161 22.785 139.701 22.295C139.241 21.795 138.661 21.545 137.961 21.545C137.251 21.545 136.676 21.79 136.236 22.28C135.796 22.77 135.576 23.375 135.576 24.095C135.576 24.795 135.806 25.395 136.266 25.895C136.726 26.395 137.301 26.645 137.991 26.645Z" fill="white"/>
<path d="M144.054 28.04V20.12H145.869V21.35C146.499 20.42 147.324 19.955 148.344 19.955C149.224 19.955 149.914 20.23 150.414 20.78C150.914 21.33 151.164 22.07 151.164 23V28.04H149.349V23.54C149.349 22.92 149.199 22.445 148.899 22.115C148.609 21.775 148.194 21.605 147.654 21.605C147.124 21.605 146.694 21.78 146.364 22.13C146.034 22.48 145.869 22.96 145.869 23.57V28.04H144.054Z" fill="white"/>
<path d="M156.986 28.22C155.826 28.22 154.856 27.835 154.076 27.065C153.306 26.295 152.921 25.3 152.921 24.08C152.921 22.93 153.286 21.955 154.016 21.155C154.746 20.355 155.671 19.955 156.791 19.955C157.991 19.955 158.921 20.365 159.581 21.185C160.251 21.995 160.586 23.005 160.586 24.215C160.586 24.435 160.576 24.605 160.556 24.725H154.736C154.836 25.355 155.091 25.85 155.501 26.21C155.911 26.56 156.416 26.735 157.016 26.735C157.796 26.735 158.511 26.42 159.161 25.79L160.226 26.735C159.406 27.725 158.326 28.22 156.986 28.22ZM154.721 23.525H158.786C158.726 22.915 158.521 22.415 158.171 22.025C157.821 21.635 157.356 21.44 156.776 21.44C156.226 21.44 155.766 21.635 155.396 22.025C155.026 22.405 154.801 22.905 154.721 23.525Z" fill="white"/>
<path d="M163.648 30.485C162.988 30.485 162.363 30.325 161.773 30.005L162.388 28.655C162.758 28.855 163.113 28.955 163.453 28.955C163.713 28.955 163.928 28.885 164.098 28.745C164.268 28.615 164.428 28.38 164.578 28.04L161.278 20.12H163.213L165.463 26L167.518 20.12H169.408L166.258 28.265C165.938 29.075 165.583 29.645 165.193 29.975C164.803 30.315 164.288 30.485 163.648 30.485Z" fill="white"/>
</svg>
