<svg width="36" height="36" viewBox="0 0 36 36" fill="none" xmlns="http://www.w3.org/2000/svg">
<rect width="36" height="36" rx="5" fill="white"/>
<path d="M18.197 8.00168C11.8466 7.89497 6.61021 12.8722 6.50171 19.1186C6.44009 22.6603 8.04494 25.8435 10.6002 27.9603C10.7673 27.8169 10.9465 27.6854 11.1457 27.5787L14.5772 25.7376C15.0272 25.496 15.3076 25.032 15.3076 24.5274V23.1444C15.3076 23.1444 14.3003 21.9594 13.9162 20.313C13.5977 20.1102 13.3842 19.7597 13.3842 19.3606V17.847C13.3842 17.514 13.5348 17.2165 13.7687 17.0082V14.82C13.7687 14.82 13.3117 11.4149 18 11.4149C22.6883 11.4149 22.2313 14.82 22.2313 14.82V17.0082C22.4656 17.2165 22.6158 17.514 22.6158 17.847V19.3606C22.6158 19.8695 22.2686 20.2976 21.7973 20.4406C21.5347 21.2435 21.1559 22.0089 20.6551 22.7047C20.5288 22.8802 20.4107 23.0287 20.3075 23.1444V24.5624C20.3075 25.0845 20.6073 25.5622 21.0821 25.7952L24.7566 27.6022C24.9771 27.7106 25.1763 27.8476 25.3598 28C27.8379 25.9673 29.4388 22.928 29.4983 19.5053C29.6076 13.259 24.5479 8.1084 18.197 8.00168Z" fill="#171617"/>
</svg>
