<svg width="24" height="24" viewBox="0 0 24 24" fill="none" xmlns="http://www.w3.org/2000/svg">
<circle cx="12" cy="12" r="12" fill="#FF0000"/>
<path d="M10.436 5.4H13.784L13.226 13.626H10.994L10.436 5.4ZM12.11 18.144C11.618 18.144 11.204 17.988 10.868 17.676C10.544 17.352 10.382 16.962 10.382 16.506C10.382 16.05 10.544 15.672 10.868 15.372C11.192 15.06 11.606 14.904 12.11 14.904C12.614 14.904 13.028 15.06 13.352 15.372C13.676 15.672 13.838 16.05 13.838 16.506C13.838 16.962 13.67 17.352 13.334 17.676C13.01 17.988 12.602 18.144 12.11 18.144Z" fill="white"/>
</svg>
