<svg width="46" height="46" viewBox="0 0 46 46" fill="none" xmlns="http://www.w3.org/2000/svg">
<path d="M23 46C35.7025 46 46 35.7025 46 23C46 10.2975 35.7025 0 23 0C10.2975 0 0 10.2975 0 23C0 35.7025 10.2975 46 23 46Z" fill="#F5B300"/>
<path d="M16.7601 11.2461C17.5582 11.4637 18.3564 11.6088 19.1545 11.8265C19.9526 12.0442 20.7507 12.1893 21.5488 12.4069C21.7665 12.4795 21.839 12.4069 21.9116 12.1893C22.2018 10.9558 22.492 9.79496 22.7822 8.56152C22.8548 8.34386 22.9273 8.2713 23.145 8.34386C23.8706 8.56152 24.5235 8.70663 25.2491 8.85174C25.4668 8.9243 25.4668 8.99686 25.3942 9.14197C25.104 10.3028 24.8138 11.5363 24.5235 12.6972C24.5235 12.7697 24.5235 12.8423 24.451 12.9874C25.0314 13.1325 25.6844 13.2776 26.2649 13.4227C26.3374 13.4227 26.41 13.2776 26.4825 13.2051C26.7002 12.2618 26.9179 11.3912 27.2081 10.448L27.4258 9.5773C27.4258 9.43219 27.4983 9.35963 27.6434 9.43219C28.369 9.64985 29.0945 9.79496 29.8926 10.0126C29.9652 10.0126 29.9652 10.0852 30.0377 10.0852C29.8201 11.0284 29.6024 11.8991 29.3847 12.7697C29.3122 13.1325 29.2396 13.4953 29.0945 13.8581C29.022 14.0757 29.0945 14.1483 29.3122 14.2208L31.7065 15.3092C32.4321 15.7445 33.0851 16.3249 33.5929 17.0505C34.2459 18.1388 34.3185 19.2997 34.0283 20.4606C33.8106 21.2587 33.5204 21.9842 32.94 22.5647C32.5046 23 31.9242 23.2902 31.3437 23.5079C31.2712 23.5079 31.1986 23.5805 31.0535 23.5805C31.3437 23.7981 31.634 23.9432 31.9242 24.1609C32.7948 24.8139 33.3753 25.612 33.6655 26.6278C33.8106 27.4259 33.7381 28.2965 33.5204 29.0946C33.2302 30.1104 32.8674 30.9811 32.2144 31.7792C31.4163 32.7224 30.4005 33.2303 29.2396 33.3754C27.716 33.5931 26.2649 33.448 24.8138 33.2303C24.5961 33.1577 24.451 33.2303 24.3784 33.448C24.0882 34.6088 23.798 35.8423 23.5078 37.0032C23.4352 37.2934 23.4352 37.3659 23.0724 37.2208C22.4194 37.0757 21.6939 36.8581 21.0409 36.7129C20.8232 36.6404 20.8232 36.5678 20.8958 36.4227C21.186 35.1893 21.4762 33.9558 21.839 32.795C21.839 32.6499 21.9116 32.5773 21.7665 32.5047C21.186 32.3596 20.6056 32.2145 19.9526 32.0694C19.8075 32.7224 19.5898 33.3754 19.4447 34.0284C19.2996 34.6814 19.0819 35.3344 18.9368 35.9874C18.8642 36.1325 18.8642 36.2051 18.6466 36.1325C17.921 35.9148 17.1955 35.7697 16.4699 35.6246C16.2523 35.5521 16.2523 35.4795 16.3248 35.3344C16.615 34.101 16.9053 32.8675 17.268 31.7066C17.268 31.6341 17.3406 31.5615 17.3406 31.4164C15.6718 30.9811 14.003 30.5457 12.2617 30.1104C12.4068 29.8202 12.4794 29.6025 12.6245 29.3123C12.9147 28.6593 13.2049 28.0063 13.4226 27.4259C13.4952 27.2082 13.5677 27.2082 13.7854 27.2082C14.2933 27.3533 14.8737 27.4984 15.3816 27.571C15.962 27.7161 16.3974 27.4259 16.4699 26.918C17.4131 23.2177 18.3564 19.5174 19.227 15.7445C19.3721 15.164 19.0094 14.5111 18.3564 14.2934C17.7034 14.0757 17.0504 13.9306 16.4699 13.7855C16.3248 13.7855 16.2523 13.7129 16.3248 13.5678C16.5425 12.7697 16.7601 11.8991 16.9778 11.101C16.6876 11.3186 16.6876 11.3186 16.7601 11.2461ZM20.4605 29.1672C20.533 29.1672 20.6056 29.2398 20.6056 29.2398C21.7664 29.53 22.9999 29.8928 24.2333 29.9653C25.104 30.0379 25.9021 30.0379 26.7002 29.7476C28.0788 29.3123 28.6592 27.4984 27.8611 26.3375C27.4983 25.7571 26.9179 25.3943 26.3374 25.0316C25.0314 24.306 23.5078 24.0158 22.0567 23.7256C21.839 23.653 21.839 23.7256 21.7665 23.9432C21.6213 24.6688 21.4037 25.3218 21.2586 26.0473C20.9683 27.0631 20.7507 28.0789 20.4605 29.1672ZM26.5551 21.7666C26.7002 21.7666 27.063 21.694 27.3532 21.6215C28.7318 21.3312 29.4573 19.735 28.7317 18.5016C28.369 17.8486 27.716 17.4133 27.063 17.123C26.0472 16.6877 25.0314 16.47 23.9431 16.1798C23.7254 16.1073 23.6529 16.1798 23.5803 16.3975C23.2176 17.9211 22.8548 19.3722 22.4194 20.8959C22.3469 21.041 22.4194 21.1136 22.5646 21.1861C22.8548 21.2587 23.0724 21.3312 23.3627 21.4038C24.451 21.5489 25.3942 21.7666 26.5551 21.7666Z" fill="white"/>
</svg>
