<svg width="36" height="36" viewBox="0 0 36 36" fill="none" xmlns="http://www.w3.org/2000/svg">
<path d="M25.7142 6.42856H3.85714C1.7269 6.42856 0 8.15546 0 10.2857V32.1428C0 34.273 1.7269 35.9999 3.85714 35.9999H25.7142C27.8445 35.9999 29.5714 34.273 29.5714 32.1428V10.2857C29.5714 8.15546 27.8445 6.42856 25.7142 6.42856ZM27 32.1429C27 32.853 26.4243 33.4286 25.7142 33.4286H3.85714C3.14703 33.4286 2.5714 32.853 2.5714 32.1429V10.2857C2.5714 9.57559 3.14703 8.99996 3.85714 8.99996H25.7142C26.4243 8.99996 27 9.57559 27 10.2857V32.1429Z" fill="#1B253C"/>
<path d="M32.143 0H9.0002C6.86996 0 5.14307 1.7269 5.14307 3.85714C5.14307 4.56724 5.7187 5.14287 6.4288 5.14287C7.13891 5.14287 7.71447 4.56724 7.71447 3.85714C7.71447 3.14703 8.2901 2.5714 9.0002 2.5714H32.143C32.8531 2.5714 33.4288 3.14703 33.4288 3.85714V27C33.4288 27.7101 32.8531 28.2857 32.143 28.2857C31.4329 28.2857 30.8573 28.8613 30.8573 29.5714C30.8573 30.2815 31.4329 30.8572 32.143 30.8572C34.2733 30.8572 36.0002 29.1303 36.0002 27V3.85714C36.0002 1.7269 34.2733 0 32.143 0Z" fill="#1B253C"/>
</svg>
