<svg width="46" height="46" viewBox="0 0 46 46" fill="none" xmlns="http://www.w3.org/2000/svg">
<path d="M23 46C35.7025 46 46 35.7025 46 23C46 10.2975 35.7025 0 23 0C10.2975 0 0 10.2975 0 23C0 35.7025 10.2975 46 23 46Z" fill="#F8BF1A"/>
<path d="M10.2305 35.9149V29.8203H13.7857V15.8897H10.2305V10.0127H25.1043C26.1201 10.0127 27.1358 10.3029 28.079 10.6657C29.9655 11.3912 31.6343 12.4796 32.9402 14.0758C34.1011 15.4543 34.8992 17.0506 35.3346 18.8644C36.0601 21.9117 36.0601 25.0316 35.1895 28.0789C34.0286 32.0695 31.5617 34.754 27.3535 35.6972C26.6279 35.8423 25.8298 35.9149 25.1043 35.9875H10.8109C10.5932 35.9149 10.4481 35.9149 10.2305 35.9149ZM21.0412 29.8203C21.8393 29.8203 22.6374 29.8928 23.4355 29.8203C24.4513 29.7477 25.3945 29.3849 26.0475 28.5143C26.6279 27.7887 27.1358 26.9906 27.4261 26.12C28.0065 24.161 27.7888 22.202 27.3535 20.243C27.1358 19.0821 26.5554 17.9938 25.8298 17.1231C25.3945 16.6152 24.8141 16.0348 24.1611 15.9622C23.1453 15.7446 22.057 15.8897 21.0412 15.8897V29.8203Z" fill="white"/>
</svg>
