<svg width="46" height="46" viewBox="0 0 46 46" fill="none" xmlns="http://www.w3.org/2000/svg">
<path d="M23 46C35.7025 46 46 35.7025 46 23C46 10.2975 35.7025 0 23 0C10.2975 0 0 10.2975 0 23C0 35.7025 10.2975 46 23 46Z" fill="#4956FC"/>
<path d="M31.6448 21.9004L30.2065 22.7168L22.8937 25.4768L14.3555 21.9004L22.8937 7.26929L31.6448 21.9004Z" fill="#FEFEFE"/>
<path d="M31.6448 21.9004L22.8937 26.8651L14.3555 21.9004L22.8937 17.9141L31.6448 21.9004Z" fill="#C0CBF8"/>
<path d="M31.6448 25.3916L22.8937 38.7307L14.3555 25.3916L22.8937 30.3553L31.6448 25.3916Z" fill="#FEFEFE"/>
<path d="M31.6447 25.3916L22.8936 38.7307V30.3553L31.6447 25.3916Z" fill="#C0CBF8"/>
<path d="M31.6447 21.9004L30.2063 22.7168L22.8936 18.5351V7.26929L31.6447 21.9004Z" fill="#C0CBF8"/>
<path d="M31.6447 21.9004L22.8936 26.8651V17.9141L31.6447 21.9004Z" fill="#8095F0"/>
</svg>
