<svg width="30" height="30" viewBox="0 0 30 30" fill="none" xmlns="http://www.w3.org/2000/svg">
<rect width="30" height="30" rx="3" fill="#E6E8EB"/>
<path d="M24.6324 22.1266C24.3683 21.2727 23.8897 20.4113 23.1839 19.9101C21.8257 18.9383 20.2432 18.42 18.713 17.865C18.3439 17.7257 17.9689 17.5737 17.6315 17.3575C17.3304 17.1646 17.2173 16.7691 17.1474 16.4217C17.1165 16.2379 17.0976 16.0493 17.0878 15.8638C18.1973 14.2279 18.9333 11.5579 18.9333 9.3687C18.9333 5.95212 17.1423 5 14.9332 5C12.7238 5 10.9331 5.95071 10.9331 9.36729C10.9331 11.6349 11.7222 14.4164 12.8986 16.0323C12.8879 16.1599 12.8738 16.2875 12.8525 16.4144C12.7824 16.7618 12.6695 17.15 12.3685 17.3428C12.0308 17.5591 11.6558 17.6963 11.2866 17.8357C9.75644 18.3906 8.17402 18.8799 6.81615 19.8516C6.10989 20.3529 5.63154 21.2727 5.3677 22.1266C5.09601 23.0128 4.98489 24.1105 5.00164 25H14.9996H24.9983C25.0152 24.1106 24.9039 23.0129 24.6324 22.1266Z" fill="#0B42D5"/>
</svg>
