<svg width="46" height="46" viewBox="0 0 46 46" fill="none" xmlns="http://www.w3.org/2000/svg">
<circle cx="23" cy="23" r="23" fill="#FF0000"/>
<path fill-rule="evenodd" clip-rule="evenodd" d="M7.63117 15.744V15.7442H7.66437C8.34046 15.7488 9.6293 15.8938 9.6293 16.4469V15.7442H9.63079V23.2686H11.8329V15.7452C11.9044 15.7452 11.9835 15.7445 12.0688 15.7437C12.7865 15.7374 13.9429 15.7271 14.7084 16.0966C16.4829 16.953 16.7072 17.709 16.7072 19.9415C16.7072 22.174 15.3407 23.1662 13.1379 23.683C11.3757 24.0964 6.9784 23.7174 5 23.4763C6.50249 23.8759 10.2336 24.6091 13.1379 24.3445C16.7684 24.0137 17.9106 22.8561 18.3185 21.7812C18.7264 20.7063 18.8488 18.1637 17.9106 16.5927C16.9685 15.0153 14.158 15.001 11.8329 15.001V15H11.8326V15H7.63117V15.744ZM7.6311 30.2557V30.9999H13.9946V30.2557H7.6311ZM11.8329 24.9218H9.63086V29.4283C9.56289 29.6626 9.30462 30.1559 8.81527 30.2551H9.63086V30.2551H11.8329V24.9218ZM11.8333 29.4283C11.9012 29.6626 12.1594 30.1559 12.6487 30.2551H11.8333V29.4283Z" fill="white"/>
<path fill-rule="evenodd" clip-rule="evenodd" d="M19.3591 15.7442V15H23.3567V15.7237L23.3568 15.7235V16.2817L28.7209 27.6096L34.615 15.0005V15H34.6152H38.4086V15.7442H38.2862C36.7888 15.7652 36.4103 16.245 36.4103 16.4877V28.7871C36.4103 29.9447 37.8516 30.2479 38.5723 30.2548L38.57 30.2552H38.5723V30.9994H32.6167V30.2552H32.6218L32.6167 30.2548C33.215 30.2479 34.4115 30.0563 34.4115 29.3452V18.4782L28.3333 30.979H27.9662L22.1535 18.0594L22.1537 18.0589H22.1523L22.1524 18.0592L21.8331 29.4271C21.9316 30.087 23.2268 30.2552 23.8871 30.2552V30.2552V30.9994H18.625V30.2552H20.7317L20.7317 30.2552H18.625C19.3267 30.242 20.699 29.8311 20.8193 28.3224L20.8275 28.1402L20.8278 28.1053V28.1356L21.3572 16.4469C21.3572 15.8941 20.0695 15.7489 19.3932 15.7442H19.3591ZM23.3146 15.7442V15.8055L23.3462 15.7442H23.3146ZM34.4165 30.2552L34.4115 30.2548V30.2552H34.4165Z" fill="white"/>
</svg>
