<svg width="20" height="20" viewBox="0 0 20 20" fill="none" xmlns="http://www.w3.org/2000/svg">
<path d="M13.5629 11.7661L10.7743 9.67474V5.4145C10.7743 4.98614 10.4281 4.63989 9.99971 4.63989C9.57135 4.63989 9.2251 4.98614 9.2251 5.4145V10.0621C9.2251 10.3061 9.33975 10.5361 9.53494 10.6818L12.6333 13.0056C12.7727 13.1101 12.9354 13.1605 13.0973 13.1605C13.3335 13.1605 13.5659 13.0543 13.7178 12.8499C13.975 12.5082 13.9053 12.0225 13.5629 11.7661Z" fill="white"/>
<path d="M10 0C4.48566 0 0 4.48566 0 10C0 15.5143 4.48566 20 10 20C15.5143 20 20 15.5143 20 10C20 4.48566 15.5143 0 10 0ZM10 18.4508C5.34082 18.4508 1.54918 14.6592 1.54918 10C1.54918 5.34082 5.34082 1.54918 10 1.54918C14.66 1.54918 18.4508 5.34082 18.4508 10C18.4508 14.6592 14.6592 18.4508 10 18.4508Z" fill="white"/>
</svg>
