<svg width="29" height="32" viewBox="0 0 29 32" fill="none" xmlns="http://www.w3.org/2000/svg">
<path d="M14.4405 17.9606C5.12846 17.9606 0 22.3659 0 30.3651C0 30.9899 0.506351 31.4962 1.1311 31.4962H27.7499C28.3747 31.4962 28.881 30.9899 28.881 30.3651C28.8811 22.3663 23.7526 17.9606 14.4405 17.9606ZM2.30337 29.234C2.74828 23.2531 6.8259 20.2228 14.4405 20.2228C22.0552 20.2228 26.1329 23.2531 26.5781 29.234H2.30337Z" fill="#303236"/>
<path d="M14.4405 0.503784C10.163 0.503784 6.9375 3.79419 6.9375 8.15728C6.9375 12.6482 10.3033 16.3013 14.4405 16.3013C18.5777 16.3013 21.9435 12.6482 21.9435 8.15764C21.9435 3.79419 18.718 0.503784 14.4405 0.503784ZM14.4405 14.0394C11.5505 14.0394 9.19971 11.4009 9.19971 8.15764C9.19971 5.03352 11.4039 2.76599 14.4405 2.76599C17.4286 2.76599 19.6813 5.08364 19.6813 8.15764C19.6813 11.4009 17.3305 14.0394 14.4405 14.0394Z" fill="#303236"/>
</svg>
