<svg width="280" height="340" viewBox="0 0 280 340" fill="none" xmlns="http://www.w3.org/2000/svg">
<mask id="mask0" mask-type="alpha" maskUnits="userSpaceOnUse" x="0" y="0" width="280" height="340">
<circle cx="5" cy="5" r="5" fill="black"/>
<circle cx="35" cy="5" r="5" fill="black"/>
<circle cx="65" cy="5" r="5" fill="black"/>
<circle cx="95" cy="5" r="5" fill="black"/>
<circle cx="125" cy="5" r="5" fill="black"/>
<circle cx="155" cy="5" r="5" fill="black"/>
<circle cx="185" cy="5" r="5" fill="black"/>
<circle cx="215" cy="5" r="5" fill="black"/>
<circle cx="245" cy="5" r="5" fill="black"/>
<circle cx="275" cy="5" r="5" fill="black"/>
<circle cx="5" cy="35" r="5" fill="black"/>
<circle cx="35" cy="35" r="5" fill="black"/>
<circle cx="65" cy="35" r="5" fill="black"/>
<circle cx="95" cy="35" r="5" fill="black"/>
<circle cx="125" cy="35" r="5" fill="black"/>
<circle cx="155" cy="35" r="5" fill="black"/>
<circle cx="185" cy="35" r="5" fill="black"/>
<circle cx="215" cy="35" r="5" fill="black"/>
<circle cx="245" cy="35" r="5" fill="black"/>
<circle cx="275" cy="35" r="5" fill="black"/>
<circle cx="5" cy="65" r="5" fill="black"/>
<circle cx="35" cy="65" r="5" fill="black"/>
<circle cx="65" cy="65" r="5" fill="black"/>
<circle cx="95" cy="65" r="5" fill="black"/>
<circle cx="125" cy="65" r="5" fill="black"/>
<circle cx="155" cy="65" r="5" fill="black"/>
<circle cx="185" cy="65" r="5" fill="black"/>
<circle cx="215" cy="65" r="5" fill="black"/>
<circle cx="245" cy="65" r="5" fill="black"/>
<circle cx="275" cy="65" r="5" fill="black"/>
<circle cx="5" cy="95" r="5" fill="black"/>
<circle cx="35" cy="95" r="5" fill="black"/>
<circle cx="65" cy="95" r="5" fill="black"/>
<circle cx="95" cy="95" r="5" fill="black"/>
<circle cx="125" cy="95" r="5" fill="black"/>
<circle cx="155" cy="95" r="5" fill="black"/>
<circle cx="185" cy="95" r="5" fill="black"/>
<circle cx="215" cy="95" r="5" fill="black"/>
<circle cx="245" cy="95" r="5" fill="black"/>
<circle cx="275" cy="95" r="5" fill="black"/>
<circle cx="5" cy="125" r="5" fill="black"/>
<circle cx="35" cy="125" r="5" fill="black"/>
<circle cx="65" cy="125" r="5" fill="black"/>
<circle cx="95" cy="125" r="5" fill="black"/>
<circle cx="125" cy="125" r="5" fill="black"/>
<circle cx="155" cy="125" r="5" fill="black"/>
<circle cx="185" cy="125" r="5" fill="black"/>
<circle cx="215" cy="125" r="5" fill="black"/>
<circle cx="245" cy="125" r="5" fill="black"/>
<circle cx="275" cy="125" r="5" fill="black"/>
<circle cx="5" cy="155" r="5" fill="black"/>
<circle cx="35" cy="155" r="5" fill="black"/>
<circle cx="65" cy="155" r="5" fill="black"/>
<circle cx="95" cy="155" r="5" fill="black"/>
<circle cx="125" cy="155" r="5" fill="black"/>
<circle cx="155" cy="155" r="5" fill="black"/>
<circle cx="185" cy="155" r="5" fill="black"/>
<circle cx="215" cy="155" r="5" fill="black"/>
<circle cx="245" cy="155" r="5" fill="black"/>
<circle cx="275" cy="155" r="5" fill="black"/>
<circle cx="5" cy="185" r="5" fill="black"/>
<circle cx="35" cy="185" r="5" fill="black"/>
<circle cx="65" cy="185" r="5" fill="black"/>
<circle cx="95" cy="185" r="5" fill="black"/>
<circle cx="125" cy="185" r="5" fill="black"/>
<circle cx="155" cy="185" r="5" fill="black"/>
<circle cx="185" cy="185" r="5" fill="black"/>
<circle cx="215" cy="185" r="5" fill="black"/>
<circle cx="245" cy="185" r="5" fill="black"/>
<circle cx="275" cy="185" r="5" fill="black"/>
<circle cx="5" cy="215" r="5" fill="black"/>
<circle cx="35" cy="215" r="5" fill="black"/>
<circle cx="65" cy="215" r="5" fill="black"/>
<circle cx="95" cy="215" r="5" fill="black"/>
<circle cx="125" cy="215" r="5" fill="black"/>
<circle cx="155" cy="215" r="5" fill="black"/>
<circle cx="185" cy="215" r="5" fill="black"/>
<circle cx="215" cy="215" r="5" fill="black"/>
<circle cx="245" cy="215" r="5" fill="black"/>
<circle cx="275" cy="215" r="5" fill="black"/>
<circle cx="5" cy="245" r="5" fill="black"/>
<circle cx="35" cy="245" r="5" fill="black"/>
<circle cx="65" cy="245" r="5" fill="black"/>
<circle cx="95" cy="245" r="5" fill="black"/>
<circle cx="125" cy="245" r="5" fill="black"/>
<circle cx="155" cy="245" r="5" fill="black"/>
<circle cx="185" cy="245" r="5" fill="black"/>
<circle cx="215" cy="245" r="5" fill="black"/>
<circle cx="245" cy="245" r="5" fill="black"/>
<circle cx="275" cy="245" r="5" fill="black"/>
<circle cx="5" cy="275" r="5" fill="black"/>
<circle cx="35" cy="275" r="5" fill="black"/>
<circle cx="65" cy="275" r="5" fill="black"/>
<circle cx="95" cy="275" r="5" fill="black"/>
<circle cx="125" cy="275" r="5" fill="black"/>
<circle cx="155" cy="275" r="5" fill="black"/>
<circle cx="185" cy="275" r="5" fill="black"/>
<circle cx="215" cy="275" r="5" fill="black"/>
<circle cx="245" cy="275" r="5" fill="black"/>
<circle cx="275" cy="275" r="5" fill="black"/>
<circle cx="5" cy="305" r="5" fill="black"/>
<circle cx="35" cy="305" r="5" fill="black"/>
<circle cx="65" cy="305" r="5" fill="black"/>
<circle cx="95" cy="305" r="5" fill="black"/>
<circle cx="125" cy="305" r="5" fill="black"/>
<circle cx="155" cy="305" r="5" fill="black"/>
<circle cx="185" cy="305" r="5" fill="black"/>
<circle cx="215" cy="305" r="5" fill="black"/>
<circle cx="245" cy="305" r="5" fill="black"/>
<circle cx="275" cy="305" r="5" fill="black"/>
<circle cx="5" cy="335" r="5" fill="black"/>
<circle cx="35" cy="335" r="5" fill="black"/>
<circle cx="65" cy="335" r="5" fill="black"/>
<circle cx="95" cy="335" r="5" fill="black"/>
<circle cx="125" cy="335" r="5" fill="black"/>
<circle cx="155" cy="335" r="5" fill="black"/>
<circle cx="185" cy="335" r="5" fill="black"/>
<circle cx="215" cy="335" r="5" fill="black"/>
<circle cx="245" cy="335" r="5" fill="black"/>
<circle cx="275" cy="335" r="5" fill="black"/>
</mask>
<g mask="url(#mask0)">
<rect y="-35" width="321" height="397" fill="url(#paint0_linear)"/>
</g>
<defs>
<linearGradient id="paint0_linear" x1="160.5" y1="-35" x2="160" y2="471.5" gradientUnits="userSpaceOnUse">
<stop stop-color="#FF01E6"/>
<stop offset="1" stop-color="#01C2FF"/>
</linearGradient>
</defs>
</svg>
