<svg width="220" height="280" viewBox="0 0 220 280" fill="none" xmlns="http://www.w3.org/2000/svg">
<mask id="mask0" mask-type="alpha" maskUnits="userSpaceOnUse" x="0" y="0" width="220" height="280">
<circle cx="215" cy="5" r="5" transform="rotate(90 215 5)" fill="black"/>
<circle cx="215" cy="35" r="5" transform="rotate(90 215 35)" fill="black"/>
<circle cx="215" cy="65" r="5" transform="rotate(90 215 65)" fill="black"/>
<circle cx="215" cy="95" r="5" transform="rotate(90 215 95)" fill="black"/>
<circle cx="215" cy="125" r="5" transform="rotate(90 215 125)" fill="black"/>
<circle cx="215" cy="155" r="5" transform="rotate(90 215 155)" fill="black"/>
<circle cx="215" cy="185" r="5" transform="rotate(90 215 185)" fill="black"/>
<circle cx="215" cy="215" r="5" transform="rotate(90 215 215)" fill="black"/>
<circle cx="215" cy="245" r="5" transform="rotate(90 215 245)" fill="black"/>
<circle cx="215" cy="275" r="5" transform="rotate(90 215 275)" fill="black"/>
<circle cx="185" cy="5" r="5" transform="rotate(90 185 5)" fill="black"/>
<circle cx="185" cy="35" r="5" transform="rotate(90 185 35)" fill="black"/>
<circle cx="185" cy="65" r="5" transform="rotate(90 185 65)" fill="black"/>
<circle cx="185" cy="95" r="5" transform="rotate(90 185 95)" fill="black"/>
<circle cx="185" cy="125" r="5" transform="rotate(90 185 125)" fill="black"/>
<circle cx="185" cy="155" r="5" transform="rotate(90 185 155)" fill="black"/>
<circle cx="185" cy="185" r="5" transform="rotate(90 185 185)" fill="black"/>
<circle cx="185" cy="215" r="5" transform="rotate(90 185 215)" fill="black"/>
<circle cx="185" cy="245" r="5" transform="rotate(90 185 245)" fill="black"/>
<circle cx="185" cy="275" r="5" transform="rotate(90 185 275)" fill="black"/>
<circle cx="155" cy="5" r="5" transform="rotate(90 155 5)" fill="black"/>
<circle cx="155" cy="35" r="5" transform="rotate(90 155 35)" fill="black"/>
<circle cx="155" cy="65" r="5" transform="rotate(90 155 65)" fill="black"/>
<circle cx="155" cy="95" r="5" transform="rotate(90 155 95)" fill="black"/>
<circle cx="155" cy="125" r="5" transform="rotate(90 155 125)" fill="black"/>
<circle cx="155" cy="155" r="5" transform="rotate(90 155 155)" fill="black"/>
<circle cx="155" cy="185" r="5" transform="rotate(90 155 185)" fill="black"/>
<circle cx="155" cy="215" r="5" transform="rotate(90 155 215)" fill="black"/>
<circle cx="155" cy="245" r="5" transform="rotate(90 155 245)" fill="black"/>
<circle cx="155" cy="275" r="5" transform="rotate(90 155 275)" fill="black"/>
<circle cx="125" cy="5" r="5" transform="rotate(90 125 5)" fill="black"/>
<circle cx="125" cy="35" r="5" transform="rotate(90 125 35)" fill="black"/>
<circle cx="125" cy="65" r="5" transform="rotate(90 125 65)" fill="black"/>
<circle cx="125" cy="95" r="5" transform="rotate(90 125 95)" fill="black"/>
<circle cx="125" cy="125" r="5" transform="rotate(90 125 125)" fill="black"/>
<circle cx="125" cy="155" r="5" transform="rotate(90 125 155)" fill="black"/>
<circle cx="125" cy="185" r="5" transform="rotate(90 125 185)" fill="black"/>
<circle cx="125" cy="215" r="5" transform="rotate(90 125 215)" fill="black"/>
<circle cx="125" cy="245" r="5" transform="rotate(90 125 245)" fill="black"/>
<circle cx="125" cy="275" r="5" transform="rotate(90 125 275)" fill="black"/>
<circle cx="95" cy="5" r="5" transform="rotate(90 95 5)" fill="black"/>
<circle cx="95" cy="35" r="5" transform="rotate(90 95 35)" fill="black"/>
<circle cx="95" cy="65" r="5" transform="rotate(90 95 65)" fill="black"/>
<circle cx="95" cy="95" r="5" transform="rotate(90 95 95)" fill="black"/>
<circle cx="95" cy="125" r="5" transform="rotate(90 95 125)" fill="black"/>
<circle cx="95" cy="155" r="5" transform="rotate(90 95 155)" fill="black"/>
<circle cx="95" cy="185" r="5" transform="rotate(90 95 185)" fill="black"/>
<circle cx="95" cy="215" r="5" transform="rotate(90 95 215)" fill="black"/>
<circle cx="95" cy="245" r="5" transform="rotate(90 95 245)" fill="black"/>
<circle cx="95" cy="275" r="5" transform="rotate(90 95 275)" fill="black"/>
<circle cx="65" cy="5" r="5" transform="rotate(90 65 5)" fill="black"/>
<circle cx="65" cy="35" r="5" transform="rotate(90 65 35)" fill="black"/>
<circle cx="65" cy="65" r="5" transform="rotate(90 65 65)" fill="black"/>
<circle cx="65" cy="95" r="5" transform="rotate(90 65 95)" fill="black"/>
<circle cx="65" cy="125" r="5" transform="rotate(90 65 125)" fill="black"/>
<circle cx="65" cy="155" r="5" transform="rotate(90 65 155)" fill="black"/>
<circle cx="65" cy="185" r="5" transform="rotate(90 65 185)" fill="black"/>
<circle cx="65" cy="215" r="5" transform="rotate(90 65 215)" fill="black"/>
<circle cx="65" cy="245" r="5" transform="rotate(90 65 245)" fill="black"/>
<circle cx="65" cy="275" r="5" transform="rotate(90 65 275)" fill="black"/>
<circle cx="35" cy="5" r="5" transform="rotate(90 35 5)" fill="black"/>
<circle cx="35" cy="35" r="5" transform="rotate(90 35 35)" fill="black"/>
<circle cx="35" cy="65" r="5" transform="rotate(90 35 65)" fill="black"/>
<circle cx="35" cy="95" r="5" transform="rotate(90 35 95)" fill="black"/>
<circle cx="35" cy="125" r="5" transform="rotate(90 35 125)" fill="black"/>
<circle cx="35" cy="155" r="5" transform="rotate(90 35 155)" fill="black"/>
<circle cx="35" cy="185" r="5" transform="rotate(90 35 185)" fill="black"/>
<circle cx="35" cy="215" r="5" transform="rotate(90 35 215)" fill="black"/>
<circle cx="35" cy="245" r="5" transform="rotate(90 35 245)" fill="black"/>
<circle cx="35" cy="275" r="5" transform="rotate(90 35 275)" fill="black"/>
<circle cx="5" cy="5" r="5" transform="rotate(90 5 5)" fill="black"/>
<circle cx="5" cy="35" r="5" transform="rotate(90 5 35)" fill="black"/>
<circle cx="5" cy="65" r="5" transform="rotate(90 5 65)" fill="black"/>
<circle cx="5" cy="95" r="5" transform="rotate(90 5 95)" fill="black"/>
<circle cx="5" cy="125" r="5" transform="rotate(90 5 125)" fill="black"/>
<circle cx="5" cy="155" r="5" transform="rotate(90 5 155)" fill="black"/>
<circle cx="5" cy="185" r="5" transform="rotate(90 5 185)" fill="black"/>
<circle cx="5" cy="215" r="5" transform="rotate(90 5 215)" fill="black"/>
<circle cx="5" cy="245" r="5" transform="rotate(90 5 245)" fill="black"/>
<circle cx="5" cy="275" r="5" transform="rotate(90 5 275)" fill="black"/>
</mask>
<g mask="url(#mask0)">
<rect x="255" width="321" height="397" transform="rotate(90 255 0)" fill="url(#paint0_linear)"/>
</g>
<defs>
<linearGradient id="paint0_linear" x1="415.5" y1="0" x2="415.5" y2="397" gradientUnits="userSpaceOnUse">
<stop stop-color="#FF01E6"/>
<stop offset="1" stop-color="#01C2FF"/>
</linearGradient>
</defs>
</svg>
