<svg width="981" height="300" viewBox="0 0 981 300" fill="none" xmlns="http://www.w3.org/2000/svg">
<g opacity="0.1">
<mask id="mask0" mask-type="alpha" maskUnits="userSpaceOnUse" x="701" y="210" width="280" height="340">
<circle cx="976" cy="275" r="5" transform="rotate(-180 976 275)" fill="black"/>
<circle cx="946" cy="275" r="5" transform="rotate(-180 946 275)" fill="black"/>
<circle cx="916" cy="275" r="5" transform="rotate(-180 916 275)" fill="black"/>
<circle cx="886" cy="275" r="5" transform="rotate(-180 886 275)" fill="black"/>
<circle cx="856" cy="275" r="5" transform="rotate(-180 856 275)" fill="black"/>
<circle cx="826" cy="275" r="5" transform="rotate(-180 826 275)" fill="black"/>
<circle cx="796" cy="275" r="5" transform="rotate(-180 796 275)" fill="black"/>
<circle cx="766" cy="275" r="5" transform="rotate(-180 766 275)" fill="black"/>
<circle cx="736" cy="275" r="5" transform="rotate(-180 736 275)" fill="black"/>
<circle cx="706" cy="275" r="5" transform="rotate(-180 706 275)" fill="black"/>
<circle cx="976" cy="245" r="5" transform="rotate(-180 976 245)" fill="black"/>
<circle cx="946" cy="245" r="5" transform="rotate(-180 946 245)" fill="black"/>
<circle cx="916" cy="245" r="5" transform="rotate(-180 916 245)" fill="black"/>
<circle cx="886" cy="245" r="5" transform="rotate(-180 886 245)" fill="black"/>
<circle cx="856" cy="245" r="5" transform="rotate(-180 856 245)" fill="black"/>
<circle cx="826" cy="245" r="5" transform="rotate(-180 826 245)" fill="black"/>
<circle cx="796" cy="245" r="5" transform="rotate(-180 796 245)" fill="black"/>
<circle cx="766" cy="245" r="5" transform="rotate(-180 766 245)" fill="black"/>
<circle cx="736" cy="245" r="5" transform="rotate(-180 736 245)" fill="black"/>
<circle cx="706" cy="245" r="5" transform="rotate(-180 706 245)" fill="black"/>
<circle cx="976" cy="215" r="5" transform="rotate(-180 976 215)" fill="black"/>
<circle cx="946" cy="215" r="5" transform="rotate(-180 946 215)" fill="black"/>
<circle cx="916" cy="215" r="5" transform="rotate(-180 916 215)" fill="black"/>
<circle cx="886" cy="215" r="5" transform="rotate(-180 886 215)" fill="black"/>
<circle cx="856" cy="215" r="5" transform="rotate(-180 856 215)" fill="black"/>
<circle cx="826" cy="215" r="5" transform="rotate(-180 826 215)" fill="black"/>
<circle cx="796" cy="215" r="5" transform="rotate(-180 796 215)" fill="black"/>
<circle cx="766" cy="215" r="5" transform="rotate(-180 766 215)" fill="black"/>
<circle cx="736" cy="215" r="5" transform="rotate(-180 736 215)" fill="black"/>
<circle cx="706" cy="215" r="5" transform="rotate(-180 706 215)" fill="black"/>
</mask>
<g mask="url(#mask0)">
<rect x="981" y="585" width="321" height="397" transform="rotate(-180 981 585)" fill="white"/>
</g>
</g>
<g opacity="0.1">
<mask id="mask1" mask-type="alpha" maskUnits="userSpaceOnUse" x="0" y="0" width="280" height="130">
<circle cx="275" cy="125" r="5" transform="rotate(-180 275 125)" fill="black"/>
<circle cx="245" cy="125" r="5" transform="rotate(-180 245 125)" fill="black"/>
<circle cx="215" cy="125" r="5" transform="rotate(-180 215 125)" fill="black"/>
<circle cx="185" cy="125" r="5" transform="rotate(-180 185 125)" fill="black"/>
<circle cx="155" cy="125" r="5" transform="rotate(-180 155 125)" fill="black"/>
<circle cx="125" cy="125" r="5" transform="rotate(-180 125 125)" fill="black"/>
<circle cx="95" cy="125" r="5" transform="rotate(-180 95 125)" fill="black"/>
<circle cx="65" cy="125" r="5" transform="rotate(-180 65 125)" fill="black"/>
<circle cx="35" cy="125" r="5" transform="rotate(-180 35 125)" fill="black"/>
<circle cx="5" cy="125" r="5" transform="rotate(-180 5 125)" fill="black"/>
<circle cx="275" cy="95" r="5" transform="rotate(-180 275 95)" fill="black"/>
<circle cx="245" cy="95" r="5" transform="rotate(-180 245 95)" fill="black"/>
<circle cx="215" cy="95" r="5" transform="rotate(-180 215 95)" fill="black"/>
<circle cx="185" cy="95" r="5" transform="rotate(-180 185 95)" fill="black"/>
<circle cx="155" cy="95" r="5" transform="rotate(-180 155 95)" fill="black"/>
<circle cx="125" cy="95" r="5" transform="rotate(-180 125 95)" fill="black"/>
<circle cx="95" cy="95" r="5" transform="rotate(-180 95 95)" fill="black"/>
<circle cx="65" cy="95" r="5" transform="rotate(-180 65 95)" fill="black"/>
<circle cx="35" cy="95" r="5" transform="rotate(-180 35 95)" fill="black"/>
<circle cx="5" cy="95" r="5" transform="rotate(-180 5 95)" fill="black"/>
<circle cx="275" cy="65" r="5" transform="rotate(-180 275 65)" fill="black"/>
<circle cx="245" cy="65" r="5" transform="rotate(-180 245 65)" fill="black"/>
<circle cx="215" cy="65" r="5" transform="rotate(-180 215 65)" fill="black"/>
<circle cx="185" cy="65" r="5" transform="rotate(-180 185 65)" fill="black"/>
<circle cx="155" cy="65" r="5" transform="rotate(-180 155 65)" fill="black"/>
<circle cx="125" cy="65" r="5" transform="rotate(-180 125 65)" fill="black"/>
<circle cx="95" cy="65" r="5" transform="rotate(-180 95 65)" fill="black"/>
<circle cx="65" cy="65" r="5" transform="rotate(-180 65 65)" fill="black"/>
<circle cx="35" cy="65" r="5" transform="rotate(-180 35 65)" fill="black"/>
<circle cx="5" cy="65" r="5" transform="rotate(-180 5 65)" fill="black"/>
<circle cx="275" cy="35" r="5" transform="rotate(-180 275 35)" fill="black"/>
<circle cx="245" cy="35" r="5" transform="rotate(-180 245 35)" fill="black"/>
<circle cx="215" cy="35" r="5" transform="rotate(-180 215 35)" fill="black"/>
<circle cx="185" cy="35" r="5" transform="rotate(-180 185 35)" fill="black"/>
<circle cx="155" cy="35" r="5" transform="rotate(-180 155 35)" fill="black"/>
<circle cx="125" cy="35" r="5" transform="rotate(-180 125 35)" fill="black"/>
<circle cx="95" cy="35" r="5" transform="rotate(-180 95 35)" fill="black"/>
<circle cx="65" cy="35" r="5" transform="rotate(-180 65 35)" fill="black"/>
<circle cx="35" cy="35" r="5" transform="rotate(-180 35 35)" fill="black"/>
<circle cx="5" cy="35" r="5" transform="rotate(-180 5 35)" fill="black"/>
<circle cx="275" cy="5" r="5" transform="rotate(-180 275 5)" fill="black"/>
<circle cx="245" cy="5" r="5" transform="rotate(-180 245 5)" fill="black"/>
<circle cx="215" cy="5" r="5" transform="rotate(-180 215 5)" fill="black"/>
<circle cx="185" cy="5" r="5" transform="rotate(-180 185 5)" fill="black"/>
<circle cx="155" cy="5" r="5" transform="rotate(-180 155 5)" fill="black"/>
<circle cx="125" cy="5" r="5" transform="rotate(-180 125 5)" fill="black"/>
<circle cx="95" cy="5" r="5" transform="rotate(-180 95 5)" fill="black"/>
<circle cx="65" cy="5" r="5" transform="rotate(-180 65 5)" fill="black"/>
<circle cx="35" cy="5" r="5" transform="rotate(-180 35 5)" fill="black"/>
<circle cx="5" cy="5" r="5" transform="rotate(-180 5 5)" fill="black"/>
</mask>
<g mask="url(#mask1)">
<rect x="280" y="165" width="321" height="397" transform="rotate(-180 280 165)" fill="white"/>
</g>
</g>
</svg>
