<svg width="50" height="50" viewBox="0 0 50 50" fill="none" xmlns="http://www.w3.org/2000/svg">
<mask id="mask0" mask-type="alpha" maskUnits="userSpaceOnUse" x="10" y="10" width="30" height="30">
<g clip-path="url(#clip0)">
<path d="M19.7 18.3125L23.1763 14.835L23.2025 31.875C23.2025 32.3723 23.4001 32.8492 23.7517 33.2008C24.1034 33.5524 24.5803 33.75 25.0775 33.75C25.5748 33.75 26.0517 33.5524 26.4034 33.2008C26.755 32.8492 26.9525 32.3723 26.9525 31.875L26.9263 14.8562L30.3825 18.3125C30.5555 18.4916 30.7624 18.6344 30.9912 18.7327C31.2199 18.8309 31.466 18.8827 31.7149 18.8848C31.9639 18.887 32.2108 18.8396 32.4412 18.7453C32.6716 18.651 32.881 18.5118 33.057 18.3357C33.2331 18.1597 33.3723 17.9503 33.4666 17.7199C33.5609 17.4895 33.6083 17.2426 33.6061 16.9936C33.604 16.7446 33.5523 16.4986 33.454 16.2699C33.3557 16.0411 33.2129 15.8342 33.0338 15.6612L29.0188 11.6462C28.4965 11.1239 27.8764 10.7096 27.1939 10.4269C26.5114 10.1442 25.78 9.99869 25.0413 9.99869C24.3026 9.99869 23.5711 10.1442 22.8887 10.4269C22.2062 10.7096 21.5861 11.1239 21.0638 11.6462L17.0488 15.6612C16.7072 16.0149 16.5183 16.4885 16.5225 16.9801C16.5268 17.4717 16.724 17.942 17.0716 18.2896C17.4193 18.6373 17.8895 18.8345 18.3812 18.8388C18.8728 18.843 19.3464 18.654 19.7 18.3125Z" fill="#374957"/>
<path d="M38.125 28.125C37.6277 28.125 37.1508 28.3225 36.7992 28.6742C36.4475 29.0258 36.25 29.5027 36.25 30V35.7387C36.2497 35.8742 36.1957 36.0041 36.0999 36.0999C36.0041 36.1957 35.8742 36.2497 35.7388 36.25H14.2613C14.1258 36.2497 13.9959 36.1957 13.9001 36.0999C13.8043 36.0041 13.7503 35.8742 13.75 35.7387V30C13.75 29.5027 13.5525 29.0258 13.2008 28.6742C12.8492 28.3225 12.3723 28.125 11.875 28.125C11.3777 28.125 10.9008 28.3225 10.5492 28.6742C10.1975 29.0258 10 29.5027 10 30V35.7387C10.0013 36.8685 10.4507 37.9516 11.2496 38.7504C12.0484 39.5493 13.1315 39.9987 14.2613 40H35.7388C36.8685 39.9987 37.9516 39.5493 38.7504 38.7504C39.5493 37.9516 39.9987 36.8685 40 35.7387V30C40 29.5027 39.8025 29.0258 39.4508 28.6742C39.0992 28.3225 38.6223 28.125 38.125 28.125Z" fill="#374957"/>
</g>
</mask>
<g mask="url(#mask0)">
<rect width="50" height="50" rx="2" fill="url(#paint0_linear)"/>
</g>
<defs>
<linearGradient id="paint0_linear" x1="0" y1="0" x2="74.9269" y2="7.49149" gradientUnits="userSpaceOnUse">
<stop stop-color="#FD5A16"/>
<stop offset="1" stop-color="#CC32CD"/>
</linearGradient>
<clipPath id="clip0">
<rect width="30" height="30" fill="white" transform="translate(10 10)"/>
</clipPath>
</defs>
</svg>
