<svg width="50" height="50" viewBox="0 0 50 50" fill="none" xmlns="http://www.w3.org/2000/svg">
<mask id="mask0" mask-type="alpha" maskUnits="userSpaceOnUse" x="10" y="10" width="30" height="30">
<g clip-path="url(#clip0)">
<path d="M11.875 17.5H38.125C38.6223 17.5 39.0992 17.3025 39.4508 16.9508C39.8025 16.5992 40 16.1223 40 15.625C40 15.1277 39.8025 14.6508 39.4508 14.2992C39.0992 13.9475 38.6223 13.75 38.125 13.75H11.875C11.3777 13.75 10.9008 13.9475 10.5492 14.2992C10.1975 14.6508 10 15.1277 10 15.625C10 16.1223 10.1975 16.5992 10.5492 16.9508C10.9008 17.3025 11.3777 17.5 11.875 17.5Z" fill="#374957"/>
<path d="M16.875 20C16.3777 20 15.9008 20.1975 15.5492 20.5492C15.1975 20.9008 15 21.3777 15 21.875C15 22.3723 15.1975 22.8492 15.5492 23.2008C15.9008 23.5525 16.3777 23.75 16.875 23.75H33.125C33.6223 23.75 34.0992 23.5525 34.4508 23.2008C34.8025 22.8492 35 22.3723 35 21.875C35 21.3777 34.8025 20.9008 34.4508 20.5492C34.0992 20.1975 33.6223 20 33.125 20H16.875Z" fill="#374957"/>
<path d="M33.125 32.5H16.875C16.3777 32.5 15.9008 32.6975 15.5492 33.0492C15.1975 33.4008 15 33.8777 15 34.375C15 34.8723 15.1975 35.3492 15.5492 35.7008C15.9008 36.0525 16.3777 36.25 16.875 36.25H33.125C33.6223 36.25 34.0992 36.0525 34.4508 35.7008C34.8025 35.3492 35 34.8723 35 34.375C35 33.8777 34.8025 33.4008 34.4508 33.0492C34.0992 32.6975 33.6223 32.5 33.125 32.5Z" fill="#374957"/>
<path d="M38.125 26.25H11.875C11.3777 26.25 10.9008 26.4475 10.5492 26.7992C10.1975 27.1508 10 27.6277 10 28.125C10 28.6223 10.1975 29.0992 10.5492 29.4508C10.9008 29.8025 11.3777 30 11.875 30H38.125C38.6223 30 39.0992 29.8025 39.4508 29.4508C39.8025 29.0992 40 28.6223 40 28.125C40 27.6277 39.8025 27.1508 39.4508 26.7992C39.0992 26.4475 38.6223 26.25 38.125 26.25Z" fill="#374957"/>
</g>
</mask>
<g mask="url(#mask0)">
<rect width="50" height="50" rx="2" fill="url(#paint0_linear)"/>
</g>
<defs>
<linearGradient id="paint0_linear" x1="0" y1="0" x2="74.9269" y2="7.49149" gradientUnits="userSpaceOnUse">
<stop stop-color="#FD5A16"/>
<stop offset="1" stop-color="#CC32CD"/>
</linearGradient>
<clipPath id="clip0">
<rect width="30" height="30" fill="white" transform="translate(10 10)"/>
</clipPath>
</defs>
</svg>
