<svg width="50" height="50" viewBox="0 0 50 50" fill="none" xmlns="http://www.w3.org/2000/svg">
<mask id="mask0" mask-type="alpha" maskUnits="userSpaceOnUse" x="10" y="10" width="30" height="30">
<g clip-path="url(#clip0)">
<path d="M33.125 40H16.875C15.0522 39.998 13.3047 39.273 12.0158 37.9842C10.727 36.6953 10.002 34.9478 10 33.125V16.875C10.002 15.0522 10.727 13.3047 12.0158 12.0158C13.3047 10.727 15.0522 10.002 16.875 10L33.125 10C34.9478 10.002 36.6953 10.727 37.9842 12.0158C39.273 13.3047 39.998 15.0522 40 16.875V33.125C39.998 34.9478 39.273 36.6953 37.9842 37.9842C36.6953 39.273 34.9478 39.998 33.125 40ZM16.875 13.75C16.0462 13.75 15.2513 14.0792 14.6653 14.6653C14.0792 15.2513 13.75 16.0462 13.75 16.875V33.125C13.75 33.9538 14.0792 34.7487 14.6653 35.3347C15.2513 35.9208 16.0462 36.25 16.875 36.25H33.125C33.9538 36.25 34.7487 35.9208 35.3347 35.3347C35.9208 34.7487 36.25 33.9538 36.25 33.125V16.875C36.25 16.0462 35.9208 15.2513 35.3347 14.6653C34.7487 14.0792 33.9538 13.75 33.125 13.75H16.875Z" fill="#374957"/>
<path d="M22.0835 32.2338C21.693 32.234 21.3064 32.1568 20.9459 32.0066C20.5854 31.8564 20.2583 31.6362 19.9835 31.3588L16.2498 27.6313C16.0756 27.4571 15.9373 27.2504 15.843 27.0228C15.7487 26.7952 15.7002 26.5513 15.7002 26.305C15.7002 26.0587 15.7487 25.8148 15.843 25.5872C15.9373 25.3596 16.0756 25.1529 16.2498 24.9788C16.6014 24.6272 17.0782 24.4298 17.5754 24.4298C18.0726 24.4298 18.5494 24.6272 18.901 24.9788L22.0835 28.16L31.0985 19.145C31.4502 18.7935 31.927 18.596 32.4242 18.596C32.9214 18.596 33.3982 18.7935 33.7498 19.145C33.924 19.3191 34.0623 19.5259 34.1566 19.7534C34.2509 19.981 34.2994 20.2249 34.2994 20.4713C34.2994 20.7176 34.2509 20.9615 34.1566 21.1891C34.0623 21.4166 33.924 21.6234 33.7498 21.7975L24.1823 31.365C23.9072 31.6413 23.5801 31.8604 23.2199 32.0095C22.8596 32.1586 22.4734 32.2348 22.0835 32.2338Z" fill="#374957"/>
</g>
</mask>
<g mask="url(#mask0)">
<rect width="50" height="50" rx="2" fill="url(#paint0_linear)"/>
</g>
<defs>
<linearGradient id="paint0_linear" x1="0" y1="0" x2="74.9269" y2="7.49149" gradientUnits="userSpaceOnUse">
<stop stop-color="#FD5A16"/>
<stop offset="1" stop-color="#CC32CD"/>
</linearGradient>
<clipPath id="clip0">
<rect width="30" height="30" fill="white" transform="translate(10 10)"/>
</clipPath>
</defs>
</svg>
