<svg width="50" height="50" viewBox="0 0 50 50" fill="none" xmlns="http://www.w3.org/2000/svg">
<mask id="mask0" mask-type="alpha" maskUnits="userSpaceOnUse" x="10" y="10" width="30" height="30">
<path d="M33.0177 19.875V21.9825C33.0177 22.2297 33.0911 22.4713 33.2284 22.6768C33.3658 22.8823 33.561 23.0425 33.7893 23.1371C34.0177 23.2317 34.269 23.2564 34.5115 23.2082C34.7539 23.16 34.9766 23.041 35.1514 22.8662L39.6339 18.3837C39.8683 18.1493 39.9999 17.8314 39.9999 17.5C39.9999 17.1685 39.8683 16.8507 39.6339 16.6162L35.1514 12.1337C34.9766 11.959 34.7539 11.84 34.5115 11.7918C34.269 11.7436 34.0177 11.7683 33.7893 11.8629C33.561 11.9575 33.3658 12.1177 33.2284 12.3232C33.0911 12.5287 33.0177 12.7703 33.0177 13.0175V16.0175C28.8302 16.9325 26.0177 19.4937 23.6302 22.1562C20.8977 19.145 17.6002 16.2762 12.2877 15.7325C12.2302 15.72 11.8989 15.6837 11.8752 15.6837C11.3927 15.6847 10.9292 15.8716 10.581 16.2055C10.2328 16.5395 10.0268 16.9948 10.0057 17.4768C9.98461 17.9588 10.1501 18.4303 10.4678 18.7934C10.7855 19.1565 11.2309 19.3831 11.7114 19.4262C16.0414 19.8012 18.5864 22.125 21.1477 24.9987C18.5902 27.8737 16.0389 30.2062 11.7077 30.5762C11.2316 30.6252 10.7923 30.8543 10.4798 31.2167C10.1672 31.5791 10.005 32.0472 10.0264 32.5253C10.0478 33.0034 10.2512 33.4552 10.5949 33.7881C10.9386 34.1211 11.3967 34.31 11.8752 34.3162C11.9227 34.3162 11.9664 34.3162 12.0139 34.3062C18.5502 33.75 22.0614 29.6912 25.1852 26.075C27.5739 23.3125 29.7402 20.875 33.0177 19.875Z" fill="#374957"/>
<path d="M35.1514 27.1337C34.9766 26.959 34.7539 26.84 34.5115 26.7918C34.269 26.7436 34.0177 26.7683 33.7894 26.8629C33.561 26.9575 33.3658 27.1177 33.2284 27.3232C33.0911 27.5287 33.0177 27.7703 33.0177 28.0175V30.1425C31.4136 29.6353 29.9405 28.7819 28.7027 27.6425C28.3343 27.3279 27.8564 27.1719 27.3734 27.2087C26.8904 27.2455 26.4416 27.472 26.1252 27.8387L26.0939 27.8737C25.9331 28.06 25.8107 28.2763 25.734 28.5102C25.6572 28.744 25.6276 28.9908 25.6468 29.2361C25.666 29.4815 25.7336 29.7206 25.8457 29.9397C25.9579 30.1588 26.1123 30.3535 26.3002 30.5125C28.2037 32.2312 30.5168 33.432 33.0177 34V36.9887C33.0177 37.2359 33.0911 37.4776 33.2284 37.6831C33.3658 37.8886 33.561 38.0488 33.7894 38.1433C34.0177 38.2379 34.269 38.2627 34.5115 38.2145C34.7539 38.1663 34.9766 38.0473 35.1514 37.8725L39.6339 33.39C39.8683 33.1556 39.9999 32.8377 39.9999 32.5062C39.9999 32.1748 39.8683 31.8569 39.6339 31.6225L35.1514 27.1337Z" fill="#374957"/>
</mask>
<g mask="url(#mask0)">
<rect width="50" height="50" rx="2" fill="url(#paint0_linear)"/>
</g>
<defs>
<linearGradient id="paint0_linear" x1="0" y1="0" x2="74.9269" y2="7.49149" gradientUnits="userSpaceOnUse">
<stop stop-color="#FD5A16"/>
<stop offset="1" stop-color="#CC32CD"/>
</linearGradient>
</defs>
</svg>
