<svg width="50" height="50" viewBox="0 0 50 50" fill="none" xmlns="http://www.w3.org/2000/svg">
<mask id="mask0" mask-type="alpha" maskUnits="userSpaceOnUse" x="10" y="10" width="30" height="30">
<g clip-path="url(#clip0)">
<path d="M25 10C22.0333 10 19.1332 10.8797 16.6665 12.528C14.1997 14.1762 12.2771 16.5189 11.1418 19.2597C10.0065 22.0006 9.70945 25.0166 10.2882 27.9264C10.867 30.8361 12.2956 33.5088 14.3934 35.6066C16.4912 37.7044 19.1639 39.133 22.0737 39.7118C24.9834 40.2906 27.9994 39.9935 30.7403 38.8582C33.4811 37.7229 35.8238 35.8003 37.472 33.3336C39.1203 30.8668 40 27.9667 40 25C39.9957 21.0231 38.414 17.2103 35.6019 14.3981C32.7897 11.586 28.9769 10.0043 25 10V10ZM25 36.25C22.775 36.25 20.5999 35.5902 18.7498 34.354C16.8998 33.1179 15.4578 31.3609 14.6064 29.3052C13.7549 27.2495 13.5321 24.9875 13.9662 22.8052C14.4003 20.6229 15.4717 18.6184 17.0451 17.045C18.6184 15.4717 20.623 14.4002 22.8052 13.9662C24.9875 13.5321 27.2495 13.7549 29.3052 14.6064C31.3609 15.4578 33.1179 16.8998 34.354 18.7498C35.5902 20.5999 36.25 22.775 36.25 25C36.2464 27.9826 35.0599 30.8419 32.9509 32.9509C30.8419 35.0599 27.9826 36.2464 25 36.25Z" fill="#374957"/>
<path d="M24.4313 21.9313H24.0563C23.5651 21.9192 23.087 22.0911 22.7159 22.4132C22.3447 22.7353 22.1073 23.1844 22.0501 23.6725C22.0174 24.1608 22.1769 24.6425 22.4945 25.0148C22.8122 25.3871 23.2628 25.6204 23.7501 25.665V31.4775C23.7501 31.9748 23.9476 32.4517 24.2993 32.8033C24.6509 33.155 25.1278 33.3525 25.6251 33.3525C26.1224 33.3525 26.5993 33.155 26.9509 32.8033C27.3025 32.4517 27.5001 31.9748 27.5001 31.4775V25C27.5001 24.1861 27.1768 23.4056 26.6013 22.8301C26.0258 22.2546 25.2452 21.9313 24.4313 21.9313Z" fill="#374957"/>
<path d="M24.7876 20.5825C25.2118 20.5825 25.6265 20.4567 25.9793 20.221C26.332 19.9853 26.607 19.6503 26.7693 19.2584C26.9317 18.8664 26.9741 18.4351 26.8914 18.019C26.8086 17.603 26.6043 17.2208 26.3043 16.9208C26.0043 16.6208 25.6221 16.4165 25.206 16.3337C24.79 16.251 24.3587 16.2934 23.9667 16.4558C23.5748 16.6181 23.2398 16.8931 23.0041 17.2458C22.7684 17.5986 22.6426 18.0133 22.6426 18.4375C22.6424 18.7192 22.6978 18.9982 22.8055 19.2586C22.9133 19.5189 23.0713 19.7554 23.2705 19.9546C23.4697 20.1538 23.7062 20.3118 23.9665 20.4196C24.2268 20.5273 24.5058 20.5827 24.7876 20.5825Z" fill="#374957"/>
</g>
</mask>
<g mask="url(#mask0)">
<rect width="50" height="50" rx="2" fill="url(#paint0_linear)"/>
</g>
<defs>
<linearGradient id="paint0_linear" x1="0" y1="0" x2="74.9269" y2="7.49149" gradientUnits="userSpaceOnUse">
<stop stop-color="#FD5A16"/>
<stop offset="1" stop-color="#CC32CD"/>
</linearGradient>
<clipPath id="clip0">
<rect width="30" height="30" fill="white" transform="translate(10 10)"/>
</clipPath>
</defs>
</svg>
