<svg width="50" height="50" viewBox="0 0 50 50" fill="none" xmlns="http://www.w3.org/2000/svg">
<mask id="mask0" mask-type="alpha" maskUnits="userSpaceOnUse" x="10" y="10" width="30" height="30">
<g clip-path="url(#clip0)">
<path d="M23.1802 18.75H38.1802C38.6775 18.75 39.1544 18.5525 39.506 18.2008C39.8576 17.8492 40.0552 17.3723 40.0552 16.875C40.0552 16.3777 39.8576 15.9008 39.506 15.5492C39.1544 15.1975 38.6775 15 38.1802 15H23.1802C22.6829 15 22.206 15.1975 21.8544 15.5492C21.5027 15.9008 21.3052 16.3777 21.3052 16.875C21.3052 17.3723 21.5027 17.8492 21.8544 18.2008C22.206 18.5525 22.6829 18.75 23.1802 18.75Z" fill="#374957"/>
<path d="M38.1802 23.75H23.1802C22.6829 23.75 22.206 23.9475 21.8544 24.2992C21.5027 24.6508 21.3052 25.1277 21.3052 25.625C21.3052 26.1223 21.5027 26.5992 21.8544 26.9508C22.206 27.3025 22.6829 27.5 23.1802 27.5H38.1802C38.6775 27.5 39.1544 27.3025 39.506 26.9508C39.8576 26.5992 40.0552 26.1223 40.0552 25.625C40.0552 25.1277 39.8576 24.6508 39.506 24.2992C39.1544 23.9475 38.6775 23.75 38.1802 23.75Z" fill="#374957"/>
<path d="M38.1802 32.5H23.1802C22.6829 32.5 22.206 32.6975 21.8544 33.0492C21.5027 33.4008 21.3052 33.8777 21.3052 34.375C21.3052 34.8723 21.5027 35.3492 21.8544 35.7008C22.206 36.0525 22.6829 36.25 23.1802 36.25H38.1802C38.6775 36.25 39.1544 36.0525 39.506 35.7008C39.8576 35.3492 40.0552 34.8723 40.0552 34.375C40.0552 33.8777 39.8576 33.4008 39.506 33.0492C39.1544 32.6975 38.6775 32.5 38.1802 32.5Z" fill="#374957"/>
<path d="M16.4125 18.75C16.6597 18.7499 16.9013 18.6766 17.1068 18.5392C17.3123 18.4019 17.4725 18.2067 17.5671 17.9783C17.6617 17.7499 17.6864 17.4986 17.6382 17.2562C17.59 17.0138 17.471 16.7911 17.2962 16.6162L14.6887 14.0087C14.4543 13.7744 14.1364 13.6428 13.805 13.6428C13.4735 13.6428 13.1556 13.7744 12.9212 14.0087L10.3137 16.6162C10.139 16.7911 10.02 17.0138 9.97176 17.2562C9.92355 17.4986 9.9483 17.7499 10.0429 17.9783C10.1375 18.2067 10.2977 18.4019 10.5032 18.5392C10.7087 18.6766 10.9503 18.7499 11.1975 18.75H11.93V32.5H11.1975C10.9503 32.5 10.7087 32.5734 10.5032 32.7107C10.2977 32.8481 10.1375 33.0433 10.0429 33.2717C9.9483 33.5 9.92355 33.7513 9.97176 33.9938C10.02 34.2362 10.139 34.4589 10.3137 34.6337L12.875 37.1937C13.1094 37.4281 13.4273 37.5597 13.7587 37.5597C14.0902 37.5597 14.4081 37.4281 14.6425 37.1937L17.2025 34.6337C17.3773 34.4589 17.4964 34.236 17.5445 33.9935C17.5927 33.7509 17.5678 33.4995 17.4731 33.2711C17.3784 33.0427 17.218 32.8475 17.0123 32.7102C16.8066 32.573 16.5648 32.4998 16.3175 32.5H15.68V18.75H16.4125Z" fill="#374957"/>
</g>
</mask>
<g mask="url(#mask0)">
<rect width="50" height="50" rx="2" fill="url(#paint0_linear)"/>
</g>
<defs>
<linearGradient id="paint0_linear" x1="0" y1="0" x2="74.9269" y2="7.49149" gradientUnits="userSpaceOnUse">
<stop stop-color="#FD5A16"/>
<stop offset="1" stop-color="#CC32CD"/>
</linearGradient>
<clipPath id="clip0">
<rect width="30" height="30" fill="white" transform="translate(10 10)"/>
</clipPath>
</defs>
</svg>
