<svg width="30" height="30" viewBox="0 0 30 30" fill="none" xmlns="http://www.w3.org/2000/svg">
<path fill-rule="evenodd" clip-rule="evenodd" d="M24.5865 9.3999L28.575 14.1861L24.5865 18.9723L23.1461 17.772L25.3531 15.1236H13.75V13.2486H25.3531L23.1461 10.6002L24.5865 9.3999Z" fill="white"/>
<mask id="path-2-inside-1" fill="white">
<path fill-rule="evenodd" clip-rule="evenodd" d="M18.9535 5H5V24.5349H18.9535V5ZM17.5 6.24998H12.5V23.75H17.5V6.24998Z"/>
</mask>
<path fill-rule="evenodd" clip-rule="evenodd" d="M18.9535 5H5V24.5349H18.9535V5ZM17.5 6.24998H12.5V23.75H17.5V6.24998Z" fill="white"/>
<path d="M5 5V3H3V5H5ZM18.9535 5H20.9535V3H18.9535V5ZM5 24.5349H3V26.5349H5V24.5349ZM18.9535 24.5349V26.5349H20.9535V24.5349H18.9535ZM12.5 6.24998V4.24998H10.5V6.24998H12.5ZM17.5 6.24998H19.5V4.24998H17.5V6.24998ZM12.5 23.75H10.5V25.75H12.5V23.75ZM17.5 23.75V25.75H19.5V23.75H17.5ZM5 7H18.9535V3H5V7ZM7 24.5349V5H3V24.5349H7ZM18.9535 22.5349H5V26.5349H18.9535V22.5349ZM16.9535 5V24.5349H20.9535V5H16.9535ZM12.5 8.24998H17.5V4.24998H12.5V8.24998ZM14.5 23.75V6.24998H10.5V23.75H14.5ZM17.5 21.75H12.5V25.75H17.5V21.75ZM15.5 6.24998V23.75H19.5V6.24998H15.5Z" fill="white" mask="url(#path-2-inside-1)"/>
</svg>
