<svg width="28" height="29" viewBox="0 0 28 29" fill="none" xmlns="http://www.w3.org/2000/svg">
<path d="M5.53617 0.713867C2.83886 0.713867 0.666992 2.94779 0.666992 5.72216V23.1342C0.666992 25.9085 2.83886 28.1425 5.53617 28.1425H14.7112V17.4196H11.9545V13.559H14.7112V10.2607C14.7112 7.66942 16.34 5.29016 20.092 5.29016C21.6112 5.29016 22.7345 5.44017 22.7345 5.44017L22.6462 9.04532C22.6462 9.04532 21.5005 9.03419 20.2503 9.03419C18.8973 9.03419 18.6803 9.67541 18.6803 10.7399V13.5591H22.7537L22.5762 17.4196H18.6803V28.1425H22.4645C25.1618 28.1425 27.3337 25.9086 27.3337 23.1342V5.72219C27.3337 2.94781 25.1618 0.713895 22.4645 0.713895H5.53614L5.53617 0.713867Z" fill="#12AF65"/>
</svg>
