<svg width="28" height="29" viewBox="0 0 28 29" fill="none" xmlns="http://www.w3.org/2000/svg">
<path d="M13.9963 9.99767C11.548 9.99767 9.55 12.0527 9.55 14.571C9.55 17.0892 11.548 19.1443 13.9963 19.1443C16.4445 19.1443 18.4425 17.0892 18.4425 14.571C18.4425 12.0527 16.4445 9.99767 13.9963 9.99767ZM27.3317 14.571C27.3317 12.6771 27.3484 10.8005 27.245 8.9101C27.1416 6.71437 26.6546 4.76566 25.0935 3.16004C23.5292 1.55098 21.6379 1.05351 19.5032 0.947155C17.662 0.8408 15.8375 0.857954 13.9996 0.857954C12.1584 0.857954 10.3338 0.8408 8.49597 0.947155C6.36124 1.05351 4.46666 1.55441 2.90563 3.16004C1.34127 4.76909 0.857621 6.71437 0.75422 8.9101C0.650818 10.8039 0.667496 12.6806 0.667496 14.571C0.667496 16.4613 0.650818 18.3414 0.75422 20.2318C0.857621 22.4276 1.34461 24.3763 2.90563 25.9819C4.46999 27.5909 6.36124 28.0884 8.49597 28.1948C10.3372 28.3011 12.1617 28.284 13.9996 28.284C15.8408 28.284 17.6653 28.3011 19.5032 28.1948C21.6379 28.0884 23.5325 27.5875 25.0935 25.9819C26.6579 24.3728 27.1416 22.4276 27.245 20.2318C27.3517 18.3414 27.3317 16.4648 27.3317 14.571ZM13.9963 21.6076C10.2104 21.6076 7.15509 18.465 7.15509 14.571C7.15509 10.677 10.2104 7.53434 13.9963 7.53434C17.7821 7.53434 20.8374 10.677 20.8374 14.571C20.8374 18.465 17.7821 21.6076 13.9963 21.6076ZM21.1176 8.88952C20.2337 8.88952 19.5199 8.15532 19.5199 7.24615C19.5199 6.33698 20.2337 5.60279 21.1176 5.60279C22.0015 5.60279 22.7153 6.33698 22.7153 7.24615C22.7156 7.46204 22.6744 7.67586 22.5942 7.87536C22.514 8.07486 22.3964 8.25614 22.2479 8.40879C22.0995 8.56144 21.9233 8.68248 21.7293 8.76497C21.5354 8.84747 21.3275 8.88979 21.1176 8.88952Z" fill="#12AF65"/>
</svg>
