<svg width="99" height="37" viewBox="0 0 99 37" fill="none" xmlns="http://www.w3.org/2000/svg">
<path d="M36.3 18.15C36.3 28.174 28.174 36.3 18.15 36.3C8.12603 36.3 0 28.174 0 18.15C0 8.12603 8.12603 0 18.15 0C28.174 0 36.3 8.12603 36.3 18.15Z" fill="white"/>
<path d="M13.0901 23.7595C12.1092 23.7595 11.2227 23.54 10.4308 23.1012C9.64782 22.6624 9.03136 22.0602 8.58138 21.2945C8.14041 20.5196 7.91992 19.6512 7.91992 18.6895C7.91992 17.7278 8.14041 16.8642 8.58138 16.0986C9.03136 15.3236 9.64782 14.7167 10.4308 14.2779C11.2227 13.839 12.1092 13.6196 13.0901 13.6196C14.0711 13.6196 14.953 13.839 15.736 14.2779C16.5189 14.7167 17.1354 15.3236 17.5854 16.0986C18.0353 16.8642 18.2603 17.7278 18.2603 18.6895C18.2603 19.6512 18.0353 20.5196 17.5854 21.2945C17.1354 22.0602 16.5189 22.6624 15.736 23.1012C14.953 23.54 14.0711 23.7595 13.0901 23.7595ZM13.0901 21.8267C13.6481 21.8267 14.1521 21.696 14.602 21.4346C15.052 21.1638 15.403 20.7903 15.655 20.3142C15.916 19.838 16.0465 19.2964 16.0465 18.6895C16.0465 18.0826 15.916 17.5411 15.655 17.0649C15.403 16.5887 15.052 16.2199 14.602 15.9585C14.1521 15.6877 13.6481 15.5524 13.0901 15.5524C12.5322 15.5524 12.0282 15.6877 11.5782 15.9585C11.1282 16.2199 10.7728 16.5887 10.5118 17.0649C10.2598 17.5411 10.1338 18.0826 10.1338 18.6895C10.1338 19.2964 10.2598 19.838 10.5118 20.3142C10.7728 20.7903 11.1282 21.1638 11.5782 21.4346C12.0282 21.696 12.5322 21.8267 13.0901 21.8267Z" fill="#12AF65"/>
<path d="M22.8737 20.6363L21.8613 21.6727V23.5914H19.7554V13.1995H21.8613V19.0817L24.9391 16.0565H27.4499L24.4261 19.2498L27.7199 23.5914H25.1686L22.8737 20.6363Z" fill="#12AF65"/>
<path d="M55.8917 13.1995V23.6468H53.7631V22.7739C53.2107 23.4309 52.4107 23.7595 51.363 23.7595C50.6392 23.7595 49.982 23.5999 49.3915 23.2807C48.8105 22.9616 48.3534 22.5063 48.02 21.915C47.6867 21.3236 47.52 20.6384 47.52 19.8593C47.52 19.0802 47.6867 18.395 48.02 17.8036C48.3534 17.2123 48.8105 16.757 49.3915 16.4379C49.982 16.1187 50.6392 15.9591 51.363 15.9591C52.344 15.9591 53.1107 16.2642 53.6631 16.8743V13.1995H55.8917ZM51.7487 21.9572C52.3106 21.9572 52.7773 21.7695 53.1488 21.394C53.5202 21.0092 53.7059 20.4976 53.7059 19.8593C53.7059 19.221 53.5202 18.7141 53.1488 18.3387C52.7773 17.9538 52.3106 17.7614 51.7487 17.7614C51.1773 17.7614 50.7058 17.9538 50.3344 18.3387C49.963 18.7141 49.7772 19.221 49.7772 19.8593C49.7772 20.4976 49.963 21.0092 50.3344 21.394C50.7058 21.7695 51.1773 21.9572 51.7487 21.9572Z" fill="white"/>
<path d="M60.083 17.0715C60.3497 16.7054 60.7069 16.4285 61.1545 16.2407C61.6117 16.053 62.1355 15.9591 62.726 15.9591V17.9867C62.4783 17.9679 62.3117 17.9585 62.226 17.9585C61.5878 17.9585 61.0878 18.1368 60.7259 18.4935C60.364 18.8408 60.183 19.3665 60.183 20.0705V23.6468H57.9544V16.0718H60.083V17.0715Z" fill="white"/>
<path d="M71.5102 19.8875C71.5102 19.9156 71.4959 20.1127 71.4673 20.4788H65.6529C65.7576 20.9482 66.0052 21.3189 66.3957 21.5911C66.7862 21.8634 67.272 21.9995 67.8529 21.9995C68.2529 21.9995 68.6053 21.9431 68.9101 21.8305C69.2244 21.7085 69.5149 21.5207 69.7816 21.2673L70.9673 22.5345C70.2435 23.3511 69.1863 23.7595 67.7958 23.7595C66.9291 23.7595 66.1624 23.5952 65.4957 23.2667C64.829 22.9287 64.3147 22.4641 63.9528 21.8727C63.5909 21.2814 63.4099 20.6102 63.4099 19.8593C63.4099 19.1178 63.5861 18.4513 63.9385 17.8599C64.3004 17.2592 64.7909 16.7946 65.41 16.466C66.0386 16.1281 66.7386 15.9591 67.5101 15.9591C68.2625 15.9591 68.9434 16.1187 69.553 16.4379C70.1625 16.757 70.6387 17.217 70.9816 17.8177C71.334 18.4091 71.5102 19.099 71.5102 19.8875ZM67.5243 17.6206C67.0196 17.6206 66.5957 17.7614 66.2529 18.043C65.91 18.3246 65.7005 18.7094 65.6243 19.1975H69.4101C69.3339 18.7188 69.1244 18.3387 68.7815 18.0571C68.4387 17.7661 68.0196 17.6206 67.5243 17.6206Z" fill="white"/>
<path d="M75.8848 15.9591C77.0753 15.9591 77.9896 16.2407 78.6277 16.8039C79.2658 17.3578 79.5849 18.1979 79.5849 19.3243V23.6468H77.4991V22.7035C77.08 23.4075 76.2991 23.7595 75.1562 23.7595C74.5657 23.7595 74.0514 23.6609 73.6133 23.4638C73.1847 23.2667 72.8561 22.9945 72.6275 22.6471C72.3989 22.2998 72.2847 21.9056 72.2847 21.4644C72.2847 20.7604 72.5513 20.2066 73.0847 19.803C73.6276 19.3994 74.4609 19.1975 75.5848 19.1975H77.3562C77.3562 18.7188 77.2086 18.3527 76.9134 18.0993C76.6181 17.8365 76.1753 17.7051 75.5848 17.7051C75.1752 17.7051 74.7705 17.7708 74.3704 17.9022C73.9799 18.0242 73.6466 18.1932 73.3704 18.4091L72.5704 16.8743C72.9894 16.5834 73.4895 16.3581 74.0704 16.1985C74.6609 16.0389 75.2657 15.9591 75.8848 15.9591ZM75.7133 22.2811C76.0943 22.2811 76.4324 22.1966 76.7277 22.0276C77.0229 21.8493 77.2324 21.5911 77.3562 21.2532V20.4788H75.8276C74.9133 20.4788 74.4562 20.7745 74.4562 21.3659C74.4562 21.6475 74.5657 21.8727 74.7847 22.0417C75.0133 22.2013 75.3228 22.2811 75.7133 22.2811Z" fill="white"/>
<path d="M91.4451 15.9591C92.407 15.9591 93.169 16.2407 93.7309 16.8039C94.3023 17.3578 94.588 18.1932 94.588 19.3102V23.6468H92.3594V19.6481C92.3594 19.0474 92.2308 18.6015 91.9737 18.3105C91.7261 18.0101 91.3689 17.8599 90.9022 17.8599C90.3784 17.8599 89.9641 18.0289 89.6593 18.3668C89.3545 18.6954 89.2022 19.1882 89.2022 19.8452V23.6468H86.9735V19.6481C86.9735 18.456 86.4878 17.8599 85.5163 17.8599C85.002 17.8599 84.5925 18.0289 84.2877 18.3668C83.9829 18.6954 83.8306 19.1882 83.8306 19.8452V23.6468H81.6019V16.0718H83.7306V16.9447C84.0163 16.6256 84.3639 16.3815 84.7734 16.2126C85.1925 16.0436 85.6497 15.9591 86.1449 15.9591C86.6878 15.9591 87.1783 16.0671 87.6164 16.283C88.0545 16.4895 88.4069 16.7946 88.6736 17.1982C88.9879 16.8039 89.3831 16.4989 89.8593 16.283C90.3451 16.0671 90.8736 15.9591 91.4451 15.9591Z" fill="white"/>
<path d="M96.2999 13.7908H98.9572L98.5143 20.2254H96.7428L96.2999 13.7908ZM97.6286 23.7595C97.2381 23.7595 96.9095 23.6374 96.6428 23.3934C96.3856 23.1399 96.2571 22.8349 96.2571 22.4782C96.2571 22.1215 96.3856 21.8258 96.6428 21.5911C96.9 21.3471 97.2285 21.2251 97.6286 21.2251C98.0286 21.2251 98.3571 21.3471 98.6143 21.5911C98.8714 21.8258 99 22.1215 99 22.4782C99 22.8349 98.8667 23.1399 98.6 23.3934C98.3429 23.6374 98.019 23.7595 97.6286 23.7595Z" fill="white"/>
</svg>
