<svg width="40" height="40" viewBox="0 0 40 40" fill="none" xmlns="http://www.w3.org/2000/svg">
<path d="M3.75 32.5H36.25V35.625H3.75V32.5Z" fill="white"/>
<path d="M7.5 27.5C7.5 27.1685 7.3683 26.8505 7.13388 26.6161C6.89946 26.3817 6.58152 26.25 6.25 26.25H5C4.66848 26.25 4.35054 26.3817 4.11612 26.6161C3.8817 26.8505 3.75 27.1685 3.75 27.5V28.0469H7.5V27.5Z" fill="white"/>
<path d="M1.875 29.375H38.125V31.25H1.875V29.375Z" fill="white"/>
<path d="M33.125 28.125H35C35.3315 28.125 35.6495 27.9933 35.8839 27.7589C36.1183 27.5245 36.25 27.2065 36.25 26.875V23.75H31.875V26.875C31.875 27.2065 32.0067 27.5245 32.2411 27.7589C32.4755 27.9933 32.7935 28.125 33.125 28.125Z" fill="white"/>
<path d="M32.1001 22.5H33.3501C33.3501 22.348 33.3871 22.2962 33.576 22.0995C33.8045 21.8612 34.1501 21.5014 34.1501 20.8333C34.1501 20.1652 33.8046 19.8053 33.576 19.5671C33.3871 19.3703 33.3501 19.3185 33.3501 19.1665C33.3501 19.0145 33.3871 18.9628 33.576 18.7662C33.8045 18.528 34.1501 18.1681 34.1501 17.5H32.9001C32.9001 17.652 32.8631 17.7037 32.6742 17.9005C32.4456 18.1386 32.1001 18.4984 32.1001 19.1661C32.1001 19.8338 32.4456 20.1941 32.6742 20.4323C32.8631 20.6291 32.9001 20.6809 32.9001 20.8329C32.9001 20.9848 32.8631 21.0366 32.6742 21.2334C32.4454 21.472 32.1001 21.8319 32.1001 22.5Z" fill="white"/>
<path d="M34.6001 22.5H35.8501C35.8501 22.348 35.8871 22.2962 36.076 22.0995C36.3045 21.8612 36.6501 21.5014 36.6501 20.8333C36.6501 20.1652 36.3046 19.8053 36.076 19.5671C35.8871 19.3703 35.8501 19.3185 35.8501 19.1665C35.8501 19.0145 35.8871 18.9628 36.076 18.7662C36.3045 18.528 36.6501 18.1681 36.6501 17.5H35.4001C35.4001 17.652 35.3631 17.7037 35.1742 17.9005C34.9456 18.1386 34.6001 18.4984 34.6001 19.1661C34.6001 19.8338 34.9456 20.1941 35.1742 20.4323C35.3631 20.6291 35.4001 20.6809 35.4001 20.8329C35.4001 20.9848 35.3631 21.0366 35.1742 21.2334C34.9454 21.472 34.6001 21.8319 34.6001 22.5Z" fill="white"/>
<path d="M20 11.875C22.0711 11.875 23.75 10.1961 23.75 8.125C23.75 6.05393 22.0711 4.375 20 4.375C17.9289 4.375 16.25 6.05393 16.25 8.125C16.25 10.1961 17.9289 11.875 20 11.875Z" fill="white"/>
<path d="M28.75 28.125L30 15.625H10L11.25 28.125H28.75ZM20 20C20.3708 20 20.7334 20.11 21.0417 20.316C21.35 20.522 21.5904 20.8149 21.7323 21.1575C21.8742 21.5001 21.9113 21.8771 21.839 22.2408C21.7666 22.6045 21.588 22.9386 21.3258 23.2008C21.0636 23.463 20.7295 23.6416 20.3658 23.714C20.0021 23.7863 19.6251 23.7492 19.2825 23.6073C18.9399 23.4654 18.647 23.225 18.441 22.9167C18.235 22.6084 18.125 22.2458 18.125 21.875C18.125 21.3777 18.3225 20.9008 18.6742 20.5492C19.0258 20.1975 19.5027 20 20 20Z" fill="white"/>
<path d="M24.375 11.875H15.625C14.962 11.875 14.3261 12.1384 13.8572 12.6072C13.3884 13.0761 13.125 13.712 13.125 14.375H26.875C26.875 13.712 26.6116 13.0761 26.1428 12.6072C25.6739 12.1384 25.038 11.875 24.375 11.875Z" fill="white"/>
</svg>
