<svg width="30" height="30" viewBox="0 0 30 30" fill="none" xmlns="http://www.w3.org/2000/svg">
<path d="M15 11.8342C16.3135 11.8342 17.4934 11.2542 18.2994 10.3378C18.2313 10.2186 18.1638 10.1031 18.097 9.99206C16.8718 7.95534 15.6407 6.83385 15.5888 6.7871C15.2543 6.48534 14.7458 6.48546 14.4113 6.7871C14.3595 6.83385 13.1283 7.95534 11.9031 9.992C11.8363 10.1031 11.7687 10.2186 11.7007 10.3378C12.5067 11.2542 13.6866 11.8342 15 11.8342Z" fill="white"/>
<path d="M24.0663 22.5881C23.5295 21.966 22.8955 21.4433 22.1956 21.0364C21.9275 23.455 21.2721 25.7844 20.5498 27.7628C21.9779 28.0136 23.2929 28.6942 24.3396 29.7408C24.8932 30.2944 25.8399 29.9023 25.8399 29.1193V27.3615C25.8399 25.6087 25.2101 23.9135 24.0663 22.5881Z" fill="white"/>
<path d="M5.93379 22.5881C4.79004 23.9134 4.16016 25.6087 4.16016 27.3615V29.1193C4.16016 29.9023 5.10686 30.2945 5.66051 29.7408C6.70717 28.6942 8.02213 28.0135 9.45023 27.7628C8.72795 25.7844 8.07252 23.455 7.80445 21.0364C7.10449 21.4433 6.47057 21.966 5.93379 22.5881Z" fill="white"/>
<path d="M13.954 17.949C13.9011 18.2303 13.9706 18.4935 14.1311 18.6194C14.2021 18.6751 14.2829 18.7294 14.3705 18.7825V17.3145C14.1267 17.4649 13.996 17.7261 13.954 17.949Z" fill="white"/>
<path d="M15.543 20.5621V22.7102C15.9456 22.5093 16.1849 22.1181 16.2473 21.7469C16.2817 21.5421 16.3303 20.8584 15.543 20.5621Z" fill="white"/>
<path d="M19.1308 11.9951C18.0381 12.9869 16.5884 13.592 15 13.592C13.4116 13.592 11.9619 12.9869 10.8691 11.9951C10.0896 13.777 9.43359 16.0819 9.43359 18.7957C9.43359 22.7849 10.8508 26.806 12.0397 29.4768C12.1808 29.7939 12.4955 29.9982 12.8426 29.9982H17.1574C17.5046 29.9982 17.8192 29.7939 17.9604 29.4768C19.1492 26.806 20.5664 22.7849 20.5664 18.7957C20.5664 16.0819 19.9104 13.777 19.1308 11.9951ZM17.4026 21.9411C17.2559 22.8138 16.5863 23.6987 15.5426 23.949V24.4318C15.5426 24.7554 15.2803 25.0178 14.9566 25.0178C14.633 25.0178 14.3707 24.7554 14.3707 24.4318V24.0034C13.853 23.9634 13.4316 23.8313 12.829 23.4371C12.5582 23.26 12.4823 22.8968 12.6595 22.626C12.8366 22.3552 13.1998 22.2793 13.4706 22.4564C13.8315 22.6925 14.0579 22.7886 14.3707 22.8257V20.1011C13.9606 19.9148 13.6563 19.7363 13.4081 19.5416C12.8995 19.1426 12.6674 18.4492 12.8026 17.7321C12.9502 16.949 13.4947 16.3262 14.2239 16.1066C14.2735 16.0916 14.3223 16.0784 14.3708 16.0661V15.6428C14.3708 15.3192 14.6331 15.0568 14.9567 15.0568C15.2803 15.0568 15.5426 15.3192 15.5426 15.6428V15.9997C16.1592 16.0975 16.5936 16.3982 16.8019 16.6373C17.0145 16.8813 16.989 17.2514 16.7449 17.4639C16.5019 17.6756 16.1338 17.6511 15.9209 17.41C15.906 17.3947 15.7829 17.2739 15.5426 17.1986V19.315C15.6634 19.3601 15.7842 19.4036 15.9026 19.4455C17.0033 19.8346 17.5921 20.8142 17.4026 21.9411Z" fill="white"/>
<path d="M28.5693 8.94363C28.7023 8.41084 28.7695 7.8682 28.7695 7.32422C28.7695 3.60873 25.7467 0.585938 22.0312 0.585938C21.0182 0.585938 20.0196 0.817031 19.1074 1.25883C18.116 0.442734 16.8882 0 15.5859 0C14.3058 0 13.056 0.445547 12.0667 1.25467C11.3185 1.8665 10.7428 2.66508 10.3963 3.55746C10.1728 3.52963 9.9491 3.51562 9.72656 3.51562C7.37871 3.51562 5.3127 4.98094 4.51242 7.14463C3.36691 7.37719 2.32096 7.96605 1.5208 8.83852C0.577852 9.86666 0.0585938 11.2017 0.0585938 12.5977C0.0585938 15.667 2.55568 18.1641 5.625 18.1641H7.6875C7.82326 14.179 9.21721 11.0469 10.3968 9.08584C11.7321 6.86613 13.0839 5.61703 13.2337 5.48191C13.7194 5.04393 14.3466 4.80287 15.0001 4.80287C15.6537 4.80287 16.281 5.04404 16.7663 5.48191C16.9161 5.61703 18.2678 6.86602 19.6032 9.0859C20.7828 11.0469 22.1767 14.179 22.3125 18.1641H24.375C27.4443 18.1641 29.9414 15.667 29.9414 12.5977C29.9414 11.2353 29.4578 9.95689 28.5693 8.94363Z" fill="white"/>
</svg>
