<svg width="30" height="30" viewBox="0 0 30 30" fill="none" xmlns="http://www.w3.org/2000/svg">
<path d="M15.0002 14.7211C17.8354 14.7211 20.1341 11.9293 20.1341 8.48549C20.1341 5.0416 19.3793 2.24976 15.0002 2.24976C10.6209 2.24976 9.86621 5.0416 9.86621 8.48549C9.86629 11.9293 12.1649 14.7211 15.0002 14.7211Z" fill="white"/>
<path d="M24.686 23.9905C24.591 17.9912 23.8074 16.2817 17.8117 15.1996C17.8117 15.1996 16.9676 16.275 15.0004 16.275C13.0332 16.275 12.1892 15.1996 12.1892 15.1996C6.2589 16.2698 5.42758 17.954 5.31832 23.7956C5.30943 24.2726 5.30533 24.2976 5.30371 24.2422C5.30402 24.346 5.30448 24.5379 5.30448 24.8725C5.30448 24.8725 6.73197 27.7502 15.0005 27.7502C23.269 27.7502 24.6966 24.8725 24.6966 24.8725C24.6966 24.6576 24.6968 24.508 24.6969 24.4063C24.6953 24.4406 24.692 24.3742 24.686 23.9905Z" fill="white"/>
<path d="M22.1246 13.6078C24.4274 13.6078 26.2942 11.3403 26.2942 8.54329C26.2942 5.74619 25.6813 3.47873 22.1246 3.47873C21.5263 3.47873 21.0115 3.5431 20.5687 3.66326C21.3902 5.17768 21.5028 7.01712 21.5028 8.48541C21.5028 10.1479 21.0521 11.7351 20.2222 13.0493C20.7926 13.4056 21.439 13.6078 22.1246 13.6078Z" fill="white"/>
<path d="M29.9908 21.1362C29.9135 16.2636 29.2772 14.8753 24.4076 13.9963C24.4076 13.9963 23.7221 14.8698 22.1243 14.8698C22.0583 14.8698 21.9942 14.8678 21.9312 14.865C22.9463 15.3227 23.8698 15.96 24.5499 16.8925C25.7256 18.5047 25.9959 20.6704 26.0517 23.852C29.3279 23.2046 29.9994 21.8527 29.9994 21.8527C29.9994 21.6765 29.9994 21.5556 29.9997 21.473C29.9984 21.5021 29.9957 21.45 29.9908 21.1362Z" fill="white"/>
<path d="M7.87506 13.6078C8.56072 13.6078 9.20696 13.4055 9.77763 13.0494C8.94771 11.7352 8.49704 10.148 8.49704 8.48548C8.49704 7.01711 8.60963 5.17767 9.43098 3.66332C8.9882 3.54316 8.47347 3.47879 7.87506 3.47879C4.31835 3.47879 3.70557 5.74625 3.70557 8.54335C3.70557 11.3403 5.57236 13.6078 7.87506 13.6078Z" fill="white"/>
<path d="M8.06837 14.8649C8.00547 14.8677 7.94141 14.8697 7.87519 14.8697C6.27746 14.8697 5.59196 13.9962 5.59196 13.9962C0.722438 14.8751 0.0860064 16.2634 0.00888655 21.1361C0.00386372 21.4499 0.00131366 21.502 0 21.4728C0.000154549 21.5554 0.000309098 21.6763 0.000309098 21.8525C0.000309098 21.8525 0.671824 23.2044 3.94779 23.8518C4.00382 20.6703 4.27397 18.5046 5.44985 16.8923C6.12987 15.9599 7.05322 15.3226 8.06837 14.8649Z" fill="white"/>
</svg>
