<svg width="30" height="30" viewBox="0 0 30 30" fill="none" xmlns="http://www.w3.org/2000/svg">
<path d="M29.8284 7.50562L24.5549 0.357188C24.3892 0.132539 24.1268 0 23.8476 0C23.5685 0 23.3061 0.132539 23.1404 0.357188L17.8669 7.50562C17.6398 7.81353 17.6349 8.23881 17.8715 8.55539C18.0412 8.78256 18.3164 8.90625 18.6 8.90625H20.918V30H25.8984C26.3838 30 26.7773 29.6065 26.7773 29.1211V8.90625H29.0954C29.3789 8.90625 29.6541 8.7825 29.8239 8.55539C30.0604 8.23881 30.0555 7.81353 29.8284 7.50562Z" fill="white"/>
<path d="M16.0107 12.7148V30H19.1602V11.8359H16.8896C16.4043 11.8359 16.0107 12.2295 16.0107 12.7148Z" fill="white"/>
<path d="M11.1035 16.2305V30H14.2529V15.3516H11.9824C11.497 15.3516 11.1035 15.7451 11.1035 16.2305Z" fill="white"/>
<path d="M6.19629 19.7461V30H9.3457V18.8672H7.0752C6.5898 18.8672 6.19629 19.2607 6.19629 19.7461Z" fill="white"/>
<path d="M1.28906 23.2617V29.1211C1.28906 29.6065 1.68258 30 2.16797 30H4.43848V22.3828H2.16797C1.68258 22.3828 1.28906 22.7763 1.28906 23.2617Z" fill="white"/>
<path d="M7.86963 7.87143V9.75352C8.19922 9.56473 8.39603 9.23092 8.44941 8.91334C8.4879 8.68424 8.50366 8.13844 7.86963 7.87143Z" fill="white"/>
<path d="M6.3864 5.38242C6.33958 5.6308 6.39888 5.86154 6.53745 5.97018C6.58626 6.00844 6.64005 6.04606 6.6977 6.08303V4.85772C6.51888 4.99482 6.42032 5.20242 6.3864 5.38242Z" fill="white"/>
<path d="M7.32422 0C3.28564 0 0 3.28564 0 7.32422C0 11.3628 3.28564 14.6484 7.32422 14.6484C11.3628 14.6484 14.6484 11.3628 14.6484 7.32422C14.6484 3.28564 11.3628 0 7.32422 0ZM9.60516 9.10758C9.46729 9.9276 8.84326 10.7592 7.86967 11.0062V11.4258C7.86967 11.7493 7.60734 12.0117 7.28373 12.0117C6.96012 12.0117 6.69779 11.7493 6.69779 11.4258V11.0624C6.22471 11.0215 5.83254 10.8937 5.27666 10.53C5.00584 10.3529 4.9299 9.98971 5.10703 9.71889C5.28422 9.44812 5.64738 9.37219 5.91814 9.54932C6.23467 9.75633 6.43295 9.84639 6.69779 9.88365V7.40883C6.3235 7.23727 6.04377 7.07227 5.81426 6.89221C5.32805 6.51088 5.10604 5.84918 5.23488 5.16533C5.37527 4.42014 5.894 3.82729 6.58852 3.61805C6.62531 3.60697 6.6617 3.59684 6.69779 3.58729V3.22266C6.69779 2.8991 6.96012 2.63672 7.28373 2.63672C7.60734 2.63672 7.86967 2.8991 7.86967 3.22266V3.52312C8.43855 3.62162 8.84068 3.90164 9.03539 4.12518C9.24791 4.36916 9.22242 4.7393 8.97844 4.95182C8.73562 5.16328 8.36818 5.13914 8.15514 4.89879C8.14178 4.88525 8.04861 4.79561 7.86967 4.72957V6.62285C7.97367 6.66146 8.07756 6.69891 8.17957 6.73494C9.20965 7.0991 9.78252 8.0526 9.60516 9.10758Z" fill="white"/>
</svg>
