<svg width="35" height="35" viewBox="0 0 35 35" fill="none" xmlns="http://www.w3.org/2000/svg">
<path d="M17.5 26.25C18.4061 26.25 19.1406 25.5155 19.1406 24.6094C19.1406 23.7033 18.4061 22.9688 17.5 22.9688C16.5939 22.9688 15.8594 23.7033 15.8594 24.6094C15.8594 25.5155 16.5939 26.25 17.5 26.25Z" fill="white"/>
<path d="M17.5 5.52499L4.92188 14.9586V33.3594H30.0781V14.9586L17.5 5.52499ZM12.0312 18.0469C12.0312 17.6117 12.2041 17.1944 12.5118 16.8868C12.8195 16.5791 13.2368 16.4062 13.6719 16.4062H17.5C16.9592 16.4062 16.4305 16.2459 15.9809 15.9454C15.5312 15.645 15.1807 15.2179 14.9738 14.7183C14.7668 14.2186 14.7127 13.6688 14.8182 13.1384C14.9237 12.608 15.1841 12.1208 15.5665 11.7384C15.9489 11.356 16.4361 11.0955 16.9665 10.99C17.497 10.8845 18.0468 10.9387 18.5464 11.1456C19.046 11.3526 19.4731 11.7031 19.7736 12.1527C20.074 12.6024 20.2344 13.1311 20.2344 13.6719C20.2336 14.3968 19.9452 15.0918 19.4326 15.6045C18.92 16.1171 18.225 16.4054 17.5 16.4062H21.3281C21.7632 16.4062 22.1805 16.5791 22.4882 16.8868C22.7959 17.1944 22.9688 17.6117 22.9688 18.0469V19.1406H12.0312V18.0469ZM26.25 20.2344L25.1562 28.9844H9.84375L8.75 20.2344H26.25ZM26.7969 31.1719H8.20312V30.0781H26.7969V31.1719Z" fill="white"/>
<path d="M18.1712 1.86437C17.9776 1.71913 17.7421 1.64062 17.5 1.64062C17.2579 1.64062 17.0224 1.71913 16.8288 1.86437L1.64062 13.2554L2.98313 15.0455L17.5 4.15782L32.0169 15.0455L33.3594 13.2554L18.1712 1.86437Z" fill="white"/>
</svg>
