<svg width="30" height="30" viewBox="0 0 30 30" fill="none" xmlns="http://www.w3.org/2000/svg">
<path d="M22.8099 27.6402C27.1185 25.0339 30 20.3048 30 14.9018C30 6.68579 23.3395 0.0257874 15.124 0.0257874C6.90793 0.0257874 0.247934 6.68579 0.247934 14.9018C0.247934 16.5759 0.528595 18.183 1.03835 19.685H0V29.9742H22.8099V27.6402ZM10.0408 10.0329C10.1579 9.96496 10.2858 9.93273 10.4122 9.93273C10.6691 9.93273 10.9195 10.0661 11.0574 10.3041L15.3347 14.2284L23.0385 6.52463C23.1838 6.37934 23.3747 6.30694 23.5646 6.30694C23.7555 6.30694 23.9459 6.37934 24.0912 6.52463C24.3818 6.81471 24.3818 7.28628 24.0912 7.57637L15.7017 15.965C15.6987 15.9679 15.6942 15.9689 15.6912 15.9709C15.6486 16.0126 15.6015 16.0512 15.5479 16.0825C15.5276 16.0939 15.5053 16.0993 15.484 16.1088C15.4626 16.1187 15.4433 16.1271 15.422 16.135C15.3412 16.1638 15.2583 16.1831 15.1755 16.1831C15.0898 16.1831 15.0069 16.1633 14.9271 16.1341C14.9073 16.1271 14.8889 16.1202 14.8696 16.1107C14.7898 16.075 14.7149 16.0294 14.6509 15.9655C14.6504 15.9655 14.6499 15.9655 14.6494 15.9645C14.6474 15.9625 14.6469 15.9595 14.645 15.9575C14.6023 15.9139 14.5631 15.8653 14.5314 15.8107L9.76909 11.0484C9.5638 10.6934 9.68529 10.2387 10.0408 10.0329ZM21.8182 28.1856V28.9825H19.922H10.3259H0.991736V20.6767H1.41074H21.8182V28.1856ZM2.54529 28.2903H6.97041C7.29967 28.2903 7.57686 28.0731 7.67405 27.776C7.69785 27.7036 7.71421 27.6268 7.71421 27.5464V27.4403C7.71421 27.0303 7.3805 26.6965 6.97041 26.6965H6.06248H4.68099C4.80893 26.6167 5.00331 26.5012 5.29884 26.3341L5.4843 26.2279L5.92264 25.979C6.47157 25.6676 6.86083 25.3879 7.10975 25.1256C7.50397 24.7155 7.7038 24.237 7.7038 23.703C7.7038 23.0107 7.42066 22.4484 6.86231 22.0284C6.32578 21.6258 5.60331 21.4205 4.71471 21.4205C3.58413 21.4205 2.77686 21.7711 2.31223 22.4598C2.30678 22.4678 2.30033 22.4742 2.29537 22.4822C2.12975 22.7336 2.01322 23.039 1.94876 23.3886C1.91306 23.58 1.96264 23.7749 2.08612 23.9231C2.21851 24.0828 2.41785 24.1741 2.63306 24.1741H3.15223C3.25736 24.1741 3.35653 24.1507 3.45025 24.116C3.69719 24.0228 3.88959 23.8215 3.9362 23.5726C3.9605 23.4456 3.99421 23.343 4.03488 23.275C4.15884 23.0698 4.40529 22.9711 4.78859 22.9711C5.06678 22.9711 5.27653 23.037 5.41388 23.1684C5.54926 23.2984 5.61521 23.4585 5.61521 23.6588C5.61521 23.9152 5.48479 24.1503 5.21802 24.3788C5.05686 24.5142 4.71868 24.7339 4.22777 25.024C4.11223 25.0919 3.99669 25.1603 3.8638 25.2372C2.9886 25.738 2.44314 26.2096 2.20364 26.6658C2.04694 26.9241 1.93388 27.2033 1.86843 27.4969C1.82678 27.6858 1.8719 27.8807 1.9924 28.0314C2.12182 28.1931 2.32859 28.2903 2.54529 28.2903ZM8.70397 26.9251H10.8436C10.98 26.9251 11.0916 27.0362 11.0916 27.1731V27.546C11.0916 27.956 11.4253 28.2898 11.8354 28.2898H12.3655C12.7755 28.2898 13.1093 27.956 13.1093 27.546V27.1731C13.1093 27.0387 13.2005 26.9251 13.3081 26.9251C13.6914 26.9251 14.0033 26.5949 14.0033 26.1898C14.0033 25.7851 13.6914 25.4549 13.3081 25.4549C13.2 25.4549 13.1093 25.3413 13.1093 25.2069V22.2357C13.1093 21.8256 12.7755 21.4919 12.3655 21.4919H11.6112C11.2577 21.4919 10.8307 21.7051 10.6185 21.9863L8.30826 25.0443C8.10992 25.3076 7.95967 25.7554 7.95967 26.0856V26.1818C7.96017 26.5914 8.29388 26.9251 8.70397 26.9251ZM9.85587 25.4455L11.0916 23.7362V25.2065C11.0916 25.3428 10.98 25.4544 10.8436 25.4544H9.86083C9.85686 25.4544 9.85339 25.4544 9.85041 25.4544C9.8514 25.4504 9.85339 25.4484 9.85587 25.4455ZM15.3595 28.2903H15.9228C16.3324 28.2903 16.6666 27.9565 16.6666 27.5464V25.4588C16.6666 25.1182 16.7499 24.8584 16.9136 24.6863C17.0782 24.5157 17.3231 24.4324 17.6643 24.4324C18.118 24.4324 18.2217 24.5955 18.2608 24.657C18.3392 24.7721 18.3798 24.9342 18.3798 25.1385V27.546C18.3798 27.956 18.7131 28.2898 19.1236 28.2898H19.7192C20.1298 28.2898 20.463 27.956 20.463 27.546V25.2402C20.463 25.0622 20.46 24.904 20.4531 24.7656C20.4441 24.5663 20.3931 24.1284 20.2651 23.9008C20.2071 23.7992 20.1322 23.6975 20.045 23.6013C19.8268 23.3613 19.5431 23.1808 19.2059 23.0648C18.5916 22.8545 17.7907 22.8273 17.1104 23.0772C16.9542 23.1362 16.804 23.2155 16.6661 23.3142V22.1112C16.6661 21.7012 16.3319 21.3674 15.9223 21.3674H15.359C14.9489 21.3674 14.6152 21.7012 14.6152 22.1112V27.5455C14.6157 27.9565 14.9489 28.2903 15.3595 28.2903Z" fill="white"/>
</svg>
