<svg width="30" height="30" viewBox="0 0 30 30" fill="none" xmlns="http://www.w3.org/2000/svg">
<path fill-rule="evenodd" clip-rule="evenodd" d="M15.2623 9.3999L19.2508 14.1861L15.2623 18.9723L13.8219 17.772L16.0288 15.1236H4.42578V13.2486H16.0288L13.8219 10.6002L15.2623 9.3999Z" fill="white"/>
<mask id="path-2-inside-1" fill="white">
<path fill-rule="evenodd" clip-rule="evenodd" d="M11 5H27V24H11V5ZM12 6H20V23H12V6Z"/>
</mask>
<path fill-rule="evenodd" clip-rule="evenodd" d="M11 5H27V24H11V5ZM12 6H20V23H12V6Z" fill="white"/>
<path d="M27 5V3H29V5H27ZM11 5H9V3H11V5ZM27 24H29V26H27V24ZM11 24V26H9V24H11ZM20 6V4H22V6H20ZM12 6H10V4H12V6ZM20 23H22V25H20V23ZM12 23V25H10V23H12ZM27 7H11V3H27V7ZM25 24V5H29V24H25ZM11 22H27V26H11V22ZM13 5V24H9V5H13ZM20 8H12V4H20V8ZM18 23V6H22V23H18ZM12 21H20V25H12V21ZM14 6V23H10V6H14Z" fill="white" mask="url(#path-2-inside-1)"/>
</svg>
