<svg width="27" height="27" viewBox="0 0 27 27" fill="none" xmlns="http://www.w3.org/2000/svg">
<rect width="27" height="27" rx="4" fill="#12AF65"/>
<path d="M18.6634 12.1592C18.6804 10.1107 16.9358 8.23288 14.7747 7.97293C14.728 7.9671 14.6815 7.96002 14.6351 7.95168C14.5265 7.93088 14.4163 7.91903 14.3058 7.91626C13.8623 7.91626 13.7441 8.22793 13.7129 8.4128C13.6824 8.59343 13.7115 8.74572 13.7986 8.86401C13.9452 9.06305 14.2038 9.09847 14.4113 9.1268C14.4715 9.1353 14.5289 9.14309 14.5771 9.15372C16.5193 9.58793 17.1731 10.2701 17.4926 12.196C17.5003 12.2428 17.5039 12.3008 17.5081 12.3625C17.5223 12.5927 17.5506 13.0715 18.0656 13.0715C18.1081 13.0715 18.1548 13.068 18.203 13.0609C18.6818 12.9879 18.667 12.5502 18.6599 12.3398C18.6578 12.2803 18.6556 12.2243 18.6613 12.1868C18.6624 12.1774 18.6629 12.1679 18.6627 12.1585L18.6634 12.1592Z" fill="white"/>
<path d="M14.1799 7.22133C14.238 7.22558 14.2918 7.22983 14.3372 7.23621C17.5268 7.72708 18.9938 9.23796 19.3996 12.4524C19.4067 12.5069 19.4081 12.5735 19.4088 12.6436C19.4131 12.8951 19.4216 13.4178 19.9826 13.4285H19.9996C20.176 13.4285 20.3155 13.3753 20.4161 13.2705C20.5903 13.0885 20.579 12.8172 20.5684 12.599C20.5663 12.5452 20.5641 12.4949 20.5641 12.4502C20.6052 9.16358 17.7591 6.18221 14.4753 6.07171C14.4611 6.07171 14.4484 6.07171 14.4356 6.07383C14.4227 6.07546 14.4097 6.07617 14.3967 6.07596C14.3634 6.07596 14.3237 6.07313 14.2805 6.07029C14.2295 6.06675 14.1707 6.0625 14.1105 6.0625C13.5878 6.0625 13.4886 6.43438 13.4758 6.65608C13.4468 7.16821 13.9419 7.20433 14.1799 7.22133ZM19.2459 16.6067C19.1775 16.5547 19.1097 16.5018 19.0426 16.4481C18.6941 16.1676 18.3237 15.9097 17.966 15.6597L17.7428 15.5039C17.2838 15.1816 16.8716 15.025 16.482 15.025C15.9564 15.025 15.4988 15.3155 15.1206 15.8871C14.9534 16.1407 14.7501 16.2639 14.5001 16.2639C14.3264 16.2578 14.156 16.2151 14 16.1385C12.5196 15.467 11.4613 14.4371 10.8564 13.0778C10.5639 12.4205 10.6588 11.9913 11.1731 11.6413C11.4656 11.443 12.0089 11.074 11.9713 10.3663C11.9274 9.56379 10.1559 7.14767 9.4093 6.87354C9.09014 6.75712 8.74029 6.75612 8.42047 6.87071C7.56268 7.159 6.94784 7.66617 6.63972 8.33554C6.34222 8.98296 6.35638 9.743 6.67797 10.5335C7.60943 12.8193 8.91843 14.8125 10.5696 16.4573C12.1853 18.0673 14.1714 19.3855 16.4721 20.3765C16.6796 20.4657 16.8971 20.5146 17.0565 20.55C17.1103 20.5621 17.1571 20.5727 17.1911 20.5819C17.2098 20.587 17.229 20.5896 17.2484 20.5897H17.2668C18.3492 20.5897 19.649 19.6009 20.0478 18.4739C20.3977 17.4865 19.7588 16.9985 19.2459 16.6067ZM14.6588 9.83296C14.4739 9.83721 14.0878 9.84712 13.9526 10.2395C13.8888 10.4237 13.8966 10.5824 13.9752 10.7134C14.09 10.9047 14.3103 10.9642 14.51 10.9967C15.2361 11.1129 15.6093 11.5138 15.6837 12.2597C15.7184 12.6068 15.9529 12.8497 16.2525 12.8497C16.2752 12.8497 16.2979 12.8483 16.3205 12.8455C16.6818 12.803 16.8567 12.5374 16.8411 12.0564C16.8468 11.5549 16.5847 10.9854 16.1378 10.5321C15.6901 10.0773 15.1503 9.82092 14.6588 9.83296Z" fill="white"/>
</svg>
