<svg width="25" height="24" viewBox="0 0 25 24" fill="none" xmlns="http://www.w3.org/2000/svg">
<mask id="mask0" mask-type="alpha" maskUnits="userSpaceOnUse" x="0" y="0" width="25" height="24">
<rect x="0.195801" width="24.1206" height="24" fill="#C4C4C4"/>
</mask>
<g mask="url(#mask0)">
<path d="M13.0526 3.00262C11.6152 3.02006 8.52484 3.25746 6.79637 4.85122C5.51064 6.13163 5.06173 8.02468 5.00912 10.3655C4.96546 12.6979 4.91284 17.0781 9.11369 18.2708V20.0873C9.11369 20.0873 9.08738 20.8141 9.5654 20.9632C10.1542 21.1505 10.4895 20.5914 11.0493 19.9905L12.0932 18.8041C14.9674 19.0443 17.1689 18.4907 17.4225 18.4086C18.0057 18.2212 21.2908 17.7993 21.8276 13.4186C22.3784 8.89441 21.5595 6.04387 20.0812 4.75446H20.0723C19.6262 4.34153 17.8333 3.0285 13.8278 3.01387C13.8278 3.01387 13.5306 2.99362 13.0526 3.00206V3.00262ZM13.1018 4.27459C13.5099 4.27178 13.7578 4.28922 13.7578 4.28922C17.1482 4.29822 18.7664 5.32378 19.1481 5.6692C20.393 6.74146 21.0345 9.31127 20.5648 13.0884C20.1187 16.7507 17.4544 16.9825 16.9612 17.1406C16.7513 17.2081 14.8124 17.6885 12.3697 17.5304C12.3697 17.5304 10.5505 19.7368 9.98184 20.305C9.89173 20.4046 9.78649 20.4338 9.71933 20.4192C9.62305 20.3956 9.59394 20.2757 9.59954 20.1115L9.61689 17.0967C6.05415 16.1065 6.26405 12.3705 6.30212 10.419C6.34578 8.46742 6.71017 6.87085 7.79494 5.78959C9.2553 4.46249 11.8794 4.28359 13.1007 4.27459H13.1018ZM13.3705 6.22558C13.3412 6.22528 13.3121 6.23082 13.2849 6.24188C13.2577 6.25293 13.233 6.26929 13.2121 6.29C13.1913 6.3107 13.1747 6.33536 13.1633 6.36254C13.152 6.38972 13.1461 6.41888 13.1461 6.44836C13.1461 6.57437 13.2479 6.67395 13.3705 6.67395C13.9255 6.66334 14.4771 6.76326 14.9934 6.96796C15.5098 7.17266 15.9808 7.47807 16.3791 7.86659C17.1924 8.66038 17.5887 9.72701 17.6038 11.1216C17.6038 11.2448 17.7029 11.3472 17.8283 11.3472V11.3382C17.8874 11.3384 17.9441 11.315 17.9862 11.2733C18.0282 11.2316 18.0521 11.1748 18.0527 11.1154C18.0799 10.459 17.974 9.80386 17.7414 9.18985C17.5088 8.57584 17.1545 8.01577 16.6998 7.54368C15.8138 6.67338 14.6909 6.22502 13.3705 6.22502V6.22558ZM10.4201 6.74146C10.2617 6.71819 10.1001 6.75015 9.96225 6.83203H9.9505C9.63047 7.02057 9.34218 7.25886 9.09634 7.53805C8.89203 7.77546 8.7812 8.01568 8.7521 8.24689C8.73474 8.38472 8.7465 8.52255 8.78736 8.65419L8.80191 8.66319C9.03197 9.34278 9.33255 9.99648 9.69973 10.6119C10.1727 11.4766 10.7548 12.2762 11.4316 12.991L11.4517 13.0203L11.4836 13.0439L11.5038 13.0675L11.5273 13.0878C12.2411 13.77 13.0386 14.3577 13.9006 14.8368C14.8857 15.3758 15.4835 15.6306 15.8423 15.7364V15.742C15.9475 15.7741 16.0433 15.7887 16.1395 15.7887C16.4453 15.7662 16.7348 15.6414 16.9618 15.4343C17.2383 15.1871 17.4728 14.8962 17.6559 14.573V14.5674C17.8277 14.2422 17.7695 13.9345 17.5215 13.7263C17.0249 13.29 16.4879 12.9025 15.9179 12.5691C15.5361 12.361 15.1482 12.487 14.991 12.6979L14.6557 13.1227C14.4838 13.3336 14.1715 13.3044 14.1715 13.3044L14.1625 13.31C11.8335 12.712 11.2122 10.3419 11.2122 10.3419C11.2122 10.3419 11.183 10.0195 11.3985 9.85528L11.8183 9.51549C12.0193 9.35121 12.1592 8.96192 11.9437 8.57768C11.6143 8.00395 11.2296 7.4641 10.7951 6.96592C10.7002 6.84847 10.5669 6.76857 10.419 6.74033L10.4201 6.74146ZM13.7578 7.40979C13.4606 7.40979 13.4606 7.86097 13.7606 7.86097C14.1302 7.86699 14.495 7.94616 14.8341 8.09395C15.1733 8.24173 15.4801 8.45524 15.7371 8.72226C15.9715 8.98217 16.1517 9.28673 16.2668 9.6179C16.382 9.94906 16.4299 10.3001 16.4077 10.6502C16.4087 10.7094 16.4327 10.7659 16.4747 10.8076C16.5166 10.8492 16.5731 10.8727 16.6321 10.873L16.6411 10.8848C16.7005 10.8843 16.7573 10.8604 16.7993 10.8182C16.8413 10.776 16.8651 10.7189 16.8655 10.6592C16.8857 9.76527 16.6092 9.01536 16.0668 8.41454C15.5216 7.81371 14.7609 7.47673 13.7898 7.40979H13.7578ZM14.1256 8.62269C13.8194 8.61369 13.8077 9.07387 14.111 9.08287C14.8488 9.12112 15.207 9.4958 15.254 10.2665C15.2551 10.325 15.2788 10.3808 15.3202 10.4219C15.3617 10.463 15.4175 10.4862 15.4757 10.4865H15.4846C15.5146 10.4852 15.5439 10.4779 15.5711 10.4651C15.5982 10.4523 15.6224 10.4342 15.6425 10.4118C15.6626 10.3894 15.678 10.3633 15.6879 10.3349C15.6978 10.3064 15.702 10.2763 15.7001 10.2463C15.6475 9.24151 15.1023 8.67557 14.1346 8.62325H14.1256V8.62269Z" fill="#12AF65"/>
</g>
</svg>
