<?xml version="1.0" encoding="utf-8"?>
<!-- Generator: Adobe Illustrator 16.2.0, SVG Export Plug-In . SVG Version: 6.00 Build 0)  -->
<!DOCTYPE svg PUBLIC "-//W3C//DTD SVG 1.1//EN" "http://www.w3.org/Graphics/SVG/1.1/DTD/svg11.dtd">
<svg version="1.1" id="Слой_1" xmlns="http://www.w3.org/2000/svg" xmlns:xlink="http://www.w3.org/1999/xlink" x="0px" y="0px"
	 width="1148.311px" height="452.13px" viewBox="0 0 1148.311 452.13" style="enable-background:new 0 0 1148.311 452.13;"
	 xml:space="preserve">
<style type="text/css">
<![CDATA[
	.st0{fill:#040D0B;  stroke: #ffffff; stroke-style: solid; stroke-width: 5px;}
	.st1{fill:#4599D8; stroke: #ffffff; stroke-style: solid; stroke-width: 2px;}
]]>
</style>
<g>
	<g>
		<path class="st1" d="M109.648,416.864c0,11.818-2.295,19.697-6.123,25.212c-4.589,4.729-12.241,7.88-22.952,7.88
			c-10.712,0-18.363-3.151-22.954-8.667c-3.824-4.728-5.355-12.606-5.355-24.425v-34.666c0-11.032,1.531-19.698,5.355-24.427
			c4.591-5.516,12.241-7.879,22.954-7.879c13.008,0,21.424,3.939,24.485,11.031c3.06,4.728,4.59,14.181,4.59,28.365H88.224v-11.821
			c0-3.149,0-5.515-0.764-7.09c-1.531-1.576-3.826-2.363-6.886-2.363c-3.06,0-5.357,0.787-6.121,2.363
			c-1.531,0.788-2.295,3.152-2.295,6.304v46.486c0,3.151,0.765,4.728,2.295,6.304c0.764,1.574,3.061,1.574,6.121,1.574
			c3.061,0,5.355-0.787,6.886-2.363c0.764-0.787,0.764-3.151,0.764-7.09v-16.547h21.424V416.864z M176.212,448.38h-20.658v-79.578
			h-16.067v79.578h-19.893v-97.699h56.618V448.38z M244.308,416.864c0,11.818-1.531,19.697-5.356,25.212
			c-4.591,4.729-12.242,7.88-22.954,7.88s-18.363-3.151-22.953-8.667c-3.826-4.728-6.121-12.606-6.121-24.425v-34.666
			c0-11.032,2.295-19.698,6.121-24.427c4.59-5.516,12.241-7.879,22.953-7.879s18.362,2.363,22.954,7.879
			c3.825,4.729,5.356,13.395,5.356,24.427V416.864z M223.65,421.593v-44.125c0-3.149,0-5.515-0.767-7.09
			c-1.529-1.576-3.825-2.363-6.885-2.363c-3.061,0-5.356,0.787-6.121,2.363c-1.53,0.788-2.295,3.152-2.295,6.304v46.486
			c0,3.151,0.766,4.728,2.295,6.304c0.765,1.574,3.06,1.574,6.121,1.574c3.06,0,5.356-0.787,6.885-2.363
			C223.65,427.896,223.65,425.531,223.65,421.593L223.65,421.593z M313.167,386.136c0,23.637-8.417,36.242-26.778,36.242
			c-3.826,0-6.886-0.785-10.712-0.785v26.787h-19.893v-97.699h26.779c11.477,0,19.893,3.151,24.484,9.455
			C311.638,365.651,313.167,374.318,313.167,386.136L313.167,386.136z M293.275,386.136c0-5.515-0.766-9.454-1.531-11.817
			c-2.295-3.152-5.355-4.728-10.711-4.728h-5.356v34.667c3.061,0,5.356,0,8.417,0c3.826,0,6.887-1.575,8.416-6.303
			C293.275,396.377,293.275,392.439,293.275,386.136L293.275,386.136z M366.726,368.802h-14.537v79.578h-19.893v-79.578h-14.537
			v-18.121h48.967V368.802z M430.995,353.832c0,14.97-5.355,27.577-16.066,39.394c6.886,7.093,11.476,15.759,13.771,26.002
			c1.531,7.092,2.295,16.546,2.295,29.152h-19.893c0-10.243-0.766-18.121-1.529-22.849c-0.767-8.667-3.828-16.547-7.652-22.061
			c-3.06,2.363-5.355,3.939-7.65,4.729v40.181h-19.895v-97.699h19.895v41.759c11.475-8.666,16.832-22.849,16.832-41.759h19.893
			c0,0.787,0,0.787,0,1.575S430.995,353.832,430.995,353.832L430.995,353.832z M497.56,416.864c0,11.818-1.53,19.697-5.356,25.212
			c-4.59,4.729-12.241,7.88-22.954,7.88c-10.711,0-18.363-3.151-22.953-8.667c-3.825-4.728-6.12-12.606-6.12-24.425v-34.666
			c0-11.032,2.295-19.698,6.12-24.427c4.589-5.516,12.241-7.879,22.953-7.879c10.712,0,18.363,2.363,22.954,7.879
			c3.826,4.729,5.356,13.395,5.356,24.427V416.864z M476.901,421.593v-44.125c0-3.149,0-5.515-0.763-7.09
			c-1.531-1.576-3.827-2.363-6.888-2.363c-3.061,0-5.355,0.787-6.12,2.363c-1.531,0.788-2.295,3.152-2.295,6.304v46.486
			c0,3.151,0.765,4.728,2.295,6.304c0.764,1.574,3.059,1.574,6.12,1.574c3.061,0,5.357-0.787,6.888-2.363
			C476.901,427.896,476.901,425.531,476.901,421.593L476.901,421.593z M601.614,448.38h-19.894v-79.578
			c-6.884,7.092-11.475,14.184-13.77,22.062c-1.531,6.304-3.061,14.971-3.061,26.001v31.516h-19.129v-31.516
			c0-11.03-0.763-19.697-3.059-26.001c-2.297-7.878-6.887-14.97-13.007-22.062v79.578h-20.658v-97.699h28.309
			c8.415,8.667,14.537,17.334,18.362,26.787c3.06-9.453,9.182-18.12,17.599-26.787h28.307V448.38z M669.712,448.38h-19.894v-79.578
			c-3.062,2.364-5.356,5.517-7.65,8.666c-4.593,6.306-6.889,18.124-8.416,34.668c0,5.516,0,17.336,0,36.244h-20.66v-15.757
			c0-14.972,0.766-27.577,2.297-36.246c2.296-14.179,6.12-25.211,13.005-33.089c3.063-4.729,7.653-8.668,13.774-12.607h27.544
			V448.38z M727.86,448.38h-45.142v-97.699h43.61v18.91h-23.72v16.545h25.251v18.122h-25.251v26.001h25.251V448.38z
			 M793.658,353.832c0,14.97-5.354,27.577-16.067,39.394c6.887,7.093,11.479,15.759,13.773,26.002
			c1.529,7.092,2.294,16.546,2.294,29.152h-19.894c0-10.243,0-18.121-0.764-22.849c-1.529-8.667-3.827-16.547-7.651-22.061
			c-3.061,2.363-6.121,3.939-8.416,4.729v40.181h-19.893v-97.699h19.893v41.759c11.476-8.666,16.831-22.849,16.831-41.759h19.894
			c0,0.787,0,0.787,0,1.575S793.658,353.832,793.658,353.832L793.658,353.832z M860.99,416.864c0,11.818-2.297,19.697-6.122,25.212
			c-3.826,4.729-11.477,7.88-22.954,7.88c-10.71,0-18.361-3.151-22.954-8.667c-3.825-4.728-5.354-12.606-5.354-24.425v-34.666
			c0-11.032,1.528-19.698,5.354-24.427c4.593-5.516,12.244-7.879,22.954-7.879c13.009,0,21.424,3.939,25.249,11.031
			c2.296,4.728,3.827,14.181,3.827,28.365h-20.658v-11.821c0-3.149-0.767-5.515-1.532-7.09c-1.529-1.576-3.825-2.363-6.886-2.363
			c-3.059,0-5.354,0.787-6.122,2.363c-1.529,0.788-1.529,3.152-1.529,6.304v46.486c0,3.151,0,4.728,1.529,6.304
			c0.768,1.574,3.063,1.574,6.122,1.574c3.824,0,6.123-0.787,6.886-2.363c0.766-0.787,1.532-3.151,1.532-7.09v-16.547h20.658
			V416.864z"/>
		<path class="st1" d="M980.708,145.04l4.716-10.243c5.506,1.575,11.008,2.363,15.724,1.575c11.795,0,23.587-3.938,36.952-11.818
			v0.787v-0.787l0,0l0,0c11.007-6.303,21.226-9.455,29.876-10.244c7.86-0.787,14.937,0,22.799,3.152l-4.718,11.031
			c-7.862-2.363-15.724-2.363-23.584-1.576c-8.649,1.576-17.296,5.516-28.304,11.03l0,0c-11.795,7.093-22.8,11.032-33.021,11.032
			C994.86,148.979,987.783,148.19,980.708,145.04L980.708,145.04z M1062.473,77.28c3.145,3.15,8.647,8.666,10.219,11.031
			c-1.571,0-2.358,0-3.145,0.787c-1.571,0-2.358,0-3.146,0l-8.646-3.152c-5.504,1.577-14.938,3.152-25.158,3.94
			c1.572-0.788,3.144-1.575,5.503-2.363l0,0l0,0l0,0v-0.788C1046.749,82.006,1054.609,78.855,1062.473,77.28L1062.473,77.28z
			 M971.273,91.462c-5.503,0-10.22,0-13.364-0.788l-10.22-10.244c3.143,0.789,5.502,2.363,9.433,3.94
			c1.571,0.788,3.145,1.576,4.717,2.364l1.572-7.091l-1.572,7.091l0,0c1.572,0.788,2.358,1.576,3.932,2.363
			C967.342,89.886,968.916,90.674,971.273,91.462L971.273,91.462z M952.406,65.461l52.674-13.395l-7.861-7.878
			c0,0-0.787-0.788-1.573-2.364l-5.503-5.515c-8.647-8.667-6.291-7.091-18.083-7.091h-37.737c-1.572,0-7.861,0-10.22-0.788
			c-4.716-0.788-8.647-5.515-8.647-11.819c0-11.03,10.22-11.818,18.867-11.818h39.311c27.515,0,22.799-3.939,43.239,16.546
			c3.146,3.151,24.372,25.212,39.309,40.971c-6.288,2.364-13.364,5.515-21.227,9.455c0,0,0,0-0.785,0.788l0,0l0,0l0,0l0,0l0,0
			c-11.795,6.303-22.8,10.241-33.021,10.241c-10.218,0.789-20.439-2.363-32.231-8.666c-0.787-0.788-2.359-1.576-3.146-2.364
			c-0.787,0-0.787,0-0.787,0l0,0c-1.572-0.788-3.93-1.575-5.503-3.152C957.122,67.825,954.765,66.249,952.406,65.461L952.406,65.461
			z M1068.762,76.49c2.358,2.365,3.143,3.94,3.143,4.729c0,0-3.929-0.789-7.861-3.939C1065.617,76.49,1067.188,76.49,1068.762,76.49
			L1068.762,76.49z M1070.333,9.521c-13.364,0-24.371,11.03-24.371,25.212c0,13.394,11.007,24.424,24.371,24.424
			c14.152,0,25.158-11.03,25.158-24.424C1095.491,20.551,1084.485,9.521,1070.333,9.521L1070.333,9.521z M967.342,81.219
			c25.158,13.394,43.242,13.394,68.398-1.576h0.787c24.372-14.182,42.455-14.97,66.039-3.153c3.146,1.577,5.505,3.153,8.647,4.729
			l-9.433,23.636c-23.587-11.818-40.882-11.03-65.254,3.152h-0.787c-25.156,14.183-43.24,14.971-68.398,1.576
			c-3.145-1.576-6.288-3.151-9.433-4.728c-19.656-10.242-35.379-11.03-53.463-3.152l-9.434-23.637
			c23.586-12.605,40.096-12.605,62.896-1.577C961.054,78.067,964.197,79.643,967.342,81.219L967.342,81.219z M967.342,119.038
			c25.158,13.395,43.242,12.607,68.398-1.576h0.787c22.798-13.395,40.097-14.97,62.108-4.727l-10.221,24.424
			c-17.295-5.514-32.234-2.363-51.888,8.667h-0.787c-25.156,14.182-43.24,14.97-68.398,1.575c-3.145-1.575-6.288-3.938-9.433-5.515
			c-14.939-7.091-27.518-9.454-40.882-6.303l-10.222-26.001c18.082-6.303,33.02-4.728,51.104,4.727
			C961.054,115.887,964.197,117.462,967.342,119.038L967.342,119.038z"/>
		<path class="st0" d="M45.188,316.014h239c23.586,0,42.455-8.667,57.393-26.002c14.937-16.545,22.013-37.031,22.013-61.456H45.188
			V316.014z"/>
		<path class="st0" d="M125.379,201.767h238.215c0-22.849-7.077-43.334-22.013-59.092c-14.938-16.545-33.807-25.213-57.393-25.213
			h-239c0,23.637,7.862,44.123,22.013,60.668C82.139,193.89,101.008,201.767,125.379,201.767L125.379,201.767z"/>
		<path class="st0" d="M125.379,4.004c-23.585,0-43.24,8.668-57.393,26.001C53.05,46.551,45.188,67.037,45.188,91.462h309.758V4.004
			H125.379z"/>
		<path class="st0" d="M859.636,4.004c28.301,75.639,55.819,148.915,84.121,224.551l30.662-69.334
			c9.433,3.939,18.081,6.303,27.516,5.516c11.008,0,22.8-3.94,36.165-11.818l0,0c9.435-5.517,18.081-8.668,25.943-10.244
			c7.077-0.788,14.939-0.788,22.802,1.575L968.129,447.593h-49.53L752.714,4.004H859.636z"/>
	</g>
	<g>
		<path class="st0" d="M726.755,4.936l-104.157,98.193L776.238,315.92H641.534l-97.744-136.24l-17.412,14.582V315.92H405.421V4.936h120.958
			v138.519L669.941,4.936H726.755z"/>
	</g>
</g>
</svg>
