<svg width="85" height="85" viewBox="0 0 85 85" fill="none" xmlns="http://www.w3.org/2000/svg">
<g clip-path="url(#clip0)">
<path d="M2.98133 38.4676V46.167C2.98133 46.9398 2.35461 47.5665 1.58188 47.5665C0.809146 47.5665 0.180786 46.9414 0.180786 46.1687V38.4692C0.180786 37.6965 0.807505 37.0698 1.58024 37.0698C2.35297 37.0698 2.98133 37.6948 2.98133 38.4676Z" fill="#01E2FF"/>
<path d="M82.7814 37.0681C82.0087 37.0681 81.382 37.6948 81.382 38.4676V46.167C81.382 46.9398 82.0087 47.5665 82.7814 47.5665C83.5541 47.5665 84.1809 46.9398 84.1809 46.167V38.4676C84.1809 37.6948 83.5541 37.0681 82.7814 37.0681Z" fill="#01E2FF"/>
<path d="M46.0313 81.5176H38.3318C37.5591 81.5176 36.9324 82.1443 36.9324 82.917C36.9324 83.6898 37.5591 84.3165 38.3318 84.3165H46.0313C46.804 84.3165 47.4307 83.6898 47.4307 82.917C47.4307 82.1443 46.804 81.5176 46.0313 81.5176Z" fill="#01E2FF"/>
<path d="M38.3302 3.11866H46.0297C46.8024 3.11866 47.4291 2.49194 47.4291 1.71921C47.4291 0.946475 46.8041 0.318115 46.0313 0.318115H38.3319C37.5575 0.318115 36.9308 0.944834 36.9308 1.71757C36.9308 2.4903 37.5575 3.11866 38.3302 3.11866Z" fill="#01E2FF"/>
<path d="M30.2272 25.9234C30.9999 25.9234 31.6266 25.2966 31.6266 24.5239C31.6266 23.7512 30.9999 23.1245 30.2272 23.1245C24.9017 23.1245 20.5704 27.4557 20.5704 32.7812C20.5704 38.1066 24.9017 42.4379 30.2272 42.4379C38.4549 42.4379 42.8682 32.7762 37.605 26.5501C37.1063 25.9594 36.222 25.8856 35.6314 26.3844C35.0407 26.8831 34.9669 27.7674 35.4657 28.3564C39.1965 32.7697 36.0743 39.6373 30.2272 39.6373C26.4455 39.6373 23.371 36.5612 23.371 32.7812C23.371 29.0012 26.4455 25.9234 30.2272 25.9234Z" fill="#01E2FF"/>
<path d="M53.675 26.8815C55.5814 26.8815 57.1318 28.4319 57.1318 30.3383C57.1318 31.111 57.7585 31.7377 58.5312 31.7377C59.304 31.7377 59.9307 31.111 59.9307 30.3383C59.9307 26.888 57.1236 24.0809 53.6734 24.0809C50.2231 24.0809 47.416 26.888 47.416 30.3383C47.416 33.7885 50.2231 36.5956 53.6734 36.5956C54.4461 36.5956 55.0728 35.9689 55.0728 35.1962C55.0728 34.4234 54.4461 33.7967 53.6734 33.7967C51.767 33.7967 50.2166 32.2463 50.2166 30.3399C50.2182 28.4319 51.7686 26.8815 53.675 26.8815Z" fill="#01E2FF"/>
<path d="M31.8187 50.308C29.0821 50.308 26.8574 52.5343 26.8574 55.2692C26.8574 58.0042 29.0837 60.2305 31.8187 60.2305C34.5536 60.2305 36.7799 58.0042 36.7799 55.2692C36.7799 52.5343 34.5552 50.308 31.8187 50.308ZM31.8187 57.4316C30.6259 57.4316 29.6563 56.462 29.6563 55.2692C29.6563 54.0765 30.6259 53.1069 31.8187 53.1069C33.0114 53.1069 33.981 54.0765 33.981 55.2692C33.981 56.462 33.0114 57.4316 31.8187 57.4316Z" fill="#01E2FF"/>
<path d="M43.3719 53.0035C43.3719 58.329 47.7032 62.6603 53.0287 62.6603C58.3541 62.6603 62.6854 58.329 62.6854 53.0035C62.6854 52.2308 62.0587 51.6041 61.2859 51.6041C60.5132 51.6041 59.8865 52.2308 59.8865 53.0035C59.8865 56.7835 56.8103 59.8597 53.0303 59.8597C49.2503 59.8597 46.1741 56.7835 46.1741 53.0035C46.1741 47.2302 52.8974 44.0671 57.3468 47.6748C57.9473 48.1621 58.8283 48.0702 59.3155 47.4697C59.8028 46.8692 59.7109 45.9882 59.1105 45.501C52.8433 40.4199 43.3719 44.871 43.3719 53.0035Z" fill="#01E2FF"/>
<path d="M77.3558 40.9187H73.8235C73.4872 33.2389 70.4061 26.2613 65.5351 20.944L68.0436 18.4355C68.5899 17.8892 68.5899 17.0033 68.0436 16.4553C67.4972 15.909 66.6113 15.909 66.0633 16.4553L63.5548 18.9638C58.2376 14.0944 51.26 11.0117 43.5802 10.6754V7.14311C43.5802 6.37037 42.9535 5.74365 42.1808 5.74365C41.408 5.74365 40.7813 6.37037 40.7813 7.14311V10.6787C35.9874 10.8919 31.2788 12.188 27.0821 14.4685C26.4029 14.8376 26.1519 15.6875 26.5194 16.3667C26.8885 17.0459 27.7383 17.2969 28.4176 16.9278C32.6143 14.6473 37.3737 13.4431 42.1808 13.4431C58.103 13.4431 71.0558 26.3958 71.0558 42.3181C71.0558 43.0908 71.6825 43.7176 72.4552 43.7176H77.3558C78.1285 43.7176 78.7552 43.0908 78.7552 42.3181C78.7552 41.5454 78.1285 40.9187 77.3558 40.9187Z" fill="#01E2FF"/>
<path d="M11.7407 17.3215L17.1859 11.8763C17.7323 11.33 17.7323 10.4424 17.1859 9.89607C16.6396 9.34975 15.7537 9.34975 15.2057 9.89607L9.76045 15.3413C9.21413 15.8876 9.21413 16.7752 9.76045 17.3215C10.3068 17.8679 11.1927 17.8679 11.7407 17.3215Z" fill="#01E2FF"/>
<path d="M72.6209 67.3147L67.1757 72.7599C66.2914 73.6442 66.9296 75.1503 68.165 75.1503C68.5227 75.1503 68.882 75.0141 69.1543 74.7401L74.5995 69.2949C75.1459 68.7486 75.1459 67.861 74.5995 67.3147C74.0549 66.7683 73.1689 66.7683 72.6209 67.3147Z" fill="#01E2FF"/>
<path d="M11.7407 67.3147C11.1944 66.7683 10.3084 66.7683 9.76045 67.3147C9.21413 67.861 9.21413 68.7469 9.76045 69.2949L15.2057 74.7401C15.752 75.2865 16.638 75.2865 17.1859 74.7401C17.7323 74.1938 17.7323 73.3079 17.1859 72.7599L11.7407 67.3147Z" fill="#01E2FF"/>
<path d="M72.6209 17.3215C72.8949 17.5955 73.2526 17.7317 73.6102 17.7317C74.8456 17.7317 75.4854 16.2272 74.5995 15.3413L69.1543 9.89607C68.6079 9.34975 67.722 9.34975 67.174 9.89607C66.6277 10.4424 66.6277 11.3283 67.174 11.8763L72.6209 17.3215Z" fill="#01E2FF"/>
<path d="M68.0436 68.1809C68.5899 67.6346 68.5899 66.7486 68.0436 66.2007L65.5515 63.7086C68.5916 60.3978 70.8884 56.4783 72.301 52.1422C72.5405 51.4072 72.1386 50.6164 71.4036 50.3768C70.6686 50.1373 69.8778 50.5393 69.6383 51.2743C65.8468 62.9129 54.9612 71.1931 42.1808 71.1931C26.2585 71.1931 13.3058 58.2404 13.3058 42.3181C13.3058 34.6055 16.3098 27.354 21.7632 21.9005C22.3095 21.3542 22.3095 20.4682 21.7632 19.9203C21.7616 19.9186 18.2998 16.4569 18.2982 16.4553C17.7519 15.909 16.8659 15.909 16.318 16.4553C15.7716 17.0016 15.7716 17.8875 16.318 18.4355L18.815 20.9325C13.7602 26.4434 10.8596 33.4472 10.5364 40.917H7.00578C6.23304 40.917 5.60632 41.5437 5.60632 42.3165C5.60632 43.0892 6.23304 43.7159 7.00578 43.7159H10.538C10.8744 51.3957 13.9555 58.3732 18.8265 63.6905L16.318 66.199C15.4337 67.0833 16.0719 68.5894 17.3073 68.5894C17.6649 68.5894 18.0242 68.4533 18.2966 68.1793L20.8051 65.6707C26.1223 70.5401 33.0999 73.6229 40.7797 73.9592V77.4915C40.7797 78.2642 41.4064 78.8909 42.1791 78.8909C42.9519 78.8909 43.5786 78.2642 43.5786 77.4915V73.9608C51.2452 73.6311 58.1801 70.6008 63.5663 65.6839L66.0617 68.1793C66.6097 68.7272 67.4956 68.7272 68.0436 68.1809Z" fill="#01E2FF"/>
</g>
<defs>
<clipPath id="clip0">
<rect width="84" height="84" fill="white" transform="translate(0.180786 0.318115)"/>
</clipPath>
</defs>
</svg>
