<svg width="85" height="85" viewBox="0 0 85 85" fill="none" xmlns="http://www.w3.org/2000/svg">
<g clip-path="url(#clip0)">
<path d="M71.9478 62.489H54.1104C53.3151 62.489 52.6697 61.8435 52.6697 61.0483C52.6697 60.253 53.3151 59.6075 54.1104 59.6075H71.9478C74.3308 59.6075 76.27 57.6682 76.27 55.2852V52.4037C76.27 51.6084 76.9155 50.963 77.7108 50.963H80.5664C81.3617 50.963 82.0071 50.3175 82.0071 49.5222V32.2332C82.0071 31.4379 81.3617 30.7924 80.5664 30.7924H77.7108C76.9155 30.7924 76.27 30.1469 76.27 29.3516V26.4701C76.27 24.0871 74.3308 22.1479 71.9478 22.1479H59.8735C59.0782 22.1479 58.4327 21.5024 58.4327 20.7071C58.4327 19.9118 59.0782 19.2664 59.8735 19.2664L71.9478 19.2664C75.9185 19.2664 79.1515 22.4994 79.1515 26.4701V27.9109H80.5664C82.9494 27.9109 84.8886 29.8501 84.8886 32.2332V49.5222C84.8886 51.9052 82.9494 53.8445 80.5664 53.8445H79.1515V55.2852C79.1515 59.256 75.9185 62.489 71.9478 62.489Z" fill="#01E2FF"/>
<path d="M25.2007 62.489H8.09245C4.12173 62.489 0.888672 59.256 0.888672 55.2852V26.4701C0.888672 22.4994 4.12173 19.2664 8.09245 19.2664H33.8452C34.6405 19.2664 35.286 19.9118 35.286 20.7071C35.286 21.5024 34.6405 22.1479 33.8452 22.1479H8.09245C5.70944 22.1479 3.77018 24.0871 3.77018 26.4701V55.2852C3.77018 57.6682 5.70944 59.6075 8.09245 59.6075H25.2007C25.996 59.6075 26.6415 60.253 26.6415 61.0483C26.6415 61.8435 25.996 62.489 25.2007 62.489Z" fill="#01E2FF"/>
<path d="M35.3496 71.1783C35.0962 71.1783 34.8365 71.1174 34.5992 70.9923C33.9098 70.6267 33.5827 69.8154 33.8296 69.0715L40.5444 48.7316H27.9646C27.3682 48.7316 26.823 48.4013 26.5441 47.8722C26.2683 47.3431 26.3068 46.705 26.6467 46.2144L48.856 14.1477C49.2921 13.5192 50.1227 13.2947 50.8153 13.5897C51.5176 13.8976 51.9056 14.6576 51.742 15.4047L47.2271 35.9049H60.0313C60.6405 35.9049 61.1985 36.2513 61.4711 36.7996C61.7404 37.3479 61.6731 38.0021 61.3011 38.4863L36.6194 70.553C36.3084 70.9602 35.8338 71.1783 35.3496 71.1783ZM31.027 45.5249H42.7634C43.2796 45.5249 43.7606 45.7719 44.0621 46.1887C44.3635 46.6056 44.4469 47.1411 44.2833 47.6317L39.8261 61.1286L56.7733 39.1116H45.2325C44.7483 39.1116 44.2865 38.8903 43.9819 38.512C43.6773 38.1336 43.5618 37.6365 43.6644 37.1619L46.8583 22.6646L31.027 45.5249Z" fill="#01E2FF"/>
</g>
<defs>
<clipPath id="clip0">
<rect width="84" height="84" fill="white" transform="translate(0.888672 0.318115)"/>
</clipPath>
</defs>
</svg>
