<svg width="30" height="35" viewBox="0 0 30 35" fill="none" xmlns="http://www.w3.org/2000/svg">
<path d="M8 11.9999C8 12.5522 8.44772 12.9999 9 12.9999C9.55229 12.9999 10 12.5522 10 11.9999H8ZM20 11.9999C20 12.5522 20.4477 12.9999 21 12.9999C21.5523 12.9999 22 12.5522 22 11.9999H20ZM19.0295 3.00142L19.7341 2.29185V2.29185L19.0295 3.00142ZM10.9705 3.00142L10.2659 2.29185V2.29185L10.9705 3.00142ZM4 9.99993H26V7.99993H4V9.99993ZM28 11.9999V30.9999H30V11.9999H28ZM26 32.9999H4V34.9999H26V32.9999ZM2 30.9999V11.9999H0V30.9999H2ZM4 32.9999C2.89543 32.9999 2 32.1045 2 30.9999H0C0 33.2091 1.79086 34.9999 4 34.9999V32.9999ZM28 30.9999C28 32.1045 27.1046 32.9999 26 32.9999V34.9999C28.2091 34.9999 30 33.2091 30 30.9999H28ZM26 9.99993C27.1046 9.99993 28 10.8954 28 11.9999H30C30 9.79079 28.2091 7.99993 26 7.99993V9.99993ZM4 7.99993C1.79086 7.99993 0 9.79079 0 11.9999H2C2 10.8954 2.89543 9.99993 4 9.99993V7.99993ZM10 11.9999V7.73535H8V11.9999H10ZM20 7.73535V11.9999H22V7.73535H20ZM18.3248 3.71099C19.397 4.77573 20 6.2243 20 7.73535H22C22 5.69146 21.1844 3.73206 19.7341 2.29185L18.3248 3.71099ZM11.6752 3.71099C13.5152 1.88377 16.4848 1.88377 18.3248 3.71099L19.7341 2.29185C17.1142 -0.30985 12.8858 -0.30985 10.2659 2.29185L11.6752 3.71099ZM10 7.73535C10 6.2243 10.603 4.77573 11.6752 3.71099L10.2659 2.29185C8.81561 3.73206 8 5.69145 8 7.73535H10Z" fill="white"/>
</svg>
