<svg width="41" height="41" viewBox="0 0 41 41" fill="none" xmlns="http://www.w3.org/2000/svg">
<g clip-path="url(#clip0)">
<path d="M30.971 24.093C28.1908 24.093 25.929 26.3548 25.929 29.135C25.929 31.9153 28.1908 34.1771 30.971 34.1771C33.7517 34.1771 36.013 31.9153 36.013 29.135C36.013 26.3548 33.7512 24.093 30.971 24.093ZM30.971 31.6561C29.5807 31.6561 28.45 30.5254 28.45 29.135C28.45 27.7447 29.5807 26.614 30.971 26.614C32.3613 26.614 33.492 27.7447 33.492 29.135C33.492 30.5254 32.3613 31.6561 30.971 31.6561Z" fill="#01E2FF"/>
<path d="M13.7439 24.093C10.9637 24.093 8.7019 26.3548 8.7019 29.135C8.7019 31.9153 10.9637 34.1771 13.7439 34.1771C16.5242 34.1771 18.786 31.9153 18.786 29.135C18.786 26.3548 16.5242 24.093 13.7439 24.093ZM13.7439 31.6561C12.3536 31.6561 11.2229 30.5254 11.2229 29.135C11.2229 27.7447 12.3536 26.614 13.7439 26.614C15.1339 26.614 16.2649 27.7447 16.2649 29.135C16.2649 30.5254 15.1342 31.6561 13.7439 31.6561Z" fill="#01E2FF"/>
<path d="M34.3662 9.66106C34.1519 9.23543 33.7162 8.96692 33.2397 8.96692H26.6011V11.4879H32.4624L35.8947 18.3148L38.1477 17.182L34.3662 9.66106Z" fill="#01E2FF"/>
<path d="M27.1894 27.9166H17.6516V30.4376H27.1894V27.9166Z" fill="#01E2FF"/>
<path d="M9.96219 27.9166H5.5925C4.89625 27.9166 4.33203 28.4809 4.33203 29.1771C4.33203 29.8733 4.89633 30.4376 5.5925 30.4376H9.96227C10.6585 30.4376 11.2227 29.8733 11.2227 29.1771C11.2227 28.4808 10.6584 27.9166 9.96219 27.9166Z" fill="#01E2FF"/>
<path d="M40.4959 20.2106L38.0165 17.0173C37.7783 16.7098 37.4106 16.5299 37.0211 16.5299H27.8614V7.70639C27.8614 7.01014 27.2971 6.44592 26.6009 6.44592H5.5925C4.89625 6.44592 4.33203 7.01022 4.33203 7.70639C4.33203 8.40256 4.89633 8.96686 5.5925 8.96686H25.3404V17.7904C25.3404 18.4866 25.9047 19.0508 26.6009 19.0508H36.4038L38.2395 21.4155V27.9164H34.7521C34.0559 27.9164 33.4916 28.4807 33.4916 29.1769C33.4916 29.8731 34.0559 30.4373 34.7521 30.4373H39.5C40.1962 30.4373 40.7605 29.873 40.7605 29.1769V20.9837C40.7605 20.7039 40.6673 20.4316 40.4959 20.2106Z" fill="#01E2FF"/>
<path d="M9.87841 21.53H4.08005C3.3838 21.53 2.81958 22.0943 2.81958 22.7905C2.81958 23.4867 3.38388 24.051 4.08005 24.051H9.87833C10.5746 24.051 11.1388 23.4867 11.1388 22.7905C11.1389 22.0943 10.5746 21.53 9.87841 21.53Z" fill="#01E2FF"/>
<path d="M12.7775 16.572H2.02121C1.32504 16.572 0.760742 17.1363 0.760742 17.8326C0.760742 18.5288 1.32504 19.093 2.02121 19.093H12.7775C13.4738 19.093 14.038 18.5287 14.038 17.8326C14.038 17.1364 13.4738 16.572 12.7775 16.572Z" fill="#01E2FF"/>
<path d="M14.8364 11.614H4.08005C3.3838 11.614 2.81958 12.1783 2.81958 12.8745C2.81958 13.5707 3.38388 14.135 4.08005 14.135H14.8364C15.5326 14.135 16.0968 13.5707 16.0968 12.8745C16.0969 12.1783 15.5326 11.614 14.8364 11.614Z" fill="#01E2FF"/>
</g>
<defs>
<clipPath id="clip0">
<rect width="40" height="40" fill="white" transform="translate(0.760742 0.311523)"/>
</clipPath>
</defs>
</svg>
