<svg width="34" height="34" viewBox="0 0 34 34" fill="none" xmlns="http://www.w3.org/2000/svg">
<path d="M25.6783 20.2144C23.3151 20.2144 21.3926 22.1369 21.3926 24.5001C21.3926 26.8633 23.3151 28.7858 25.6783 28.7858C28.0419 28.7858 29.964 26.8633 29.964 24.5001C29.964 22.1369 28.0415 20.2144 25.6783 20.2144ZM25.6783 26.6429C24.4965 26.6429 23.5354 25.6818 23.5354 24.5001C23.5354 23.3183 24.4965 22.3572 25.6783 22.3572C26.8601 22.3572 27.8212 23.3183 27.8212 24.5001C27.8212 25.6819 26.8601 26.6429 25.6783 26.6429Z" fill="white"/>
<path d="M11.0357 20.2144C8.67253 20.2144 6.75 22.1369 6.75 24.5001C6.75 26.8633 8.67253 28.7858 11.0357 28.7858C13.3989 28.7858 15.3215 26.8633 15.3215 24.5001C15.3215 22.1369 13.3989 20.2144 11.0357 20.2144ZM11.0357 26.6429C9.85396 26.6429 8.89286 25.6818 8.89286 24.5001C8.89286 23.3183 9.85396 22.3572 11.0357 22.3572C12.2172 22.3572 13.1786 23.3183 13.1786 24.5001C13.1786 25.6819 12.2175 26.6429 11.0357 26.6429Z" fill="white"/>
<path d="M28.5643 7.9472C28.3821 7.58542 28.0118 7.35718 27.6067 7.35718H21.9639V9.50004H26.946L29.8635 15.3029L31.7785 14.34L28.5643 7.9472Z" fill="white"/>
<path d="M22.4646 23.4644H14.3574V25.6072H22.4646V23.4644Z" fill="white"/>
<path d="M7.82177 23.4644H4.10753C3.51572 23.4644 3.03613 23.944 3.03613 24.5358C3.03613 25.1276 3.51579 25.6072 4.10753 25.6072H7.82183C8.41364 25.6072 8.89323 25.1275 8.89323 24.5358C8.89323 23.9439 8.41358 23.4644 7.82177 23.4644Z" fill="white"/>
<path d="M33.7754 16.9143L31.6679 14.2001C31.4654 13.9386 31.1529 13.7857 30.8218 13.7857H23.0361V6.28575C23.0361 5.69394 22.5564 5.21436 21.9647 5.21436H4.10753C3.51572 5.21436 3.03613 5.69401 3.03613 6.28575C3.03613 6.8775 3.51578 7.35715 4.10753 7.35715H20.8932V14.8571C20.8932 15.449 21.3729 15.9285 21.9646 15.9285H30.2972L31.8575 17.9385V23.4643H28.8932C28.3014 23.4643 27.8218 23.9439 27.8218 24.5357C27.8218 25.1275 28.3014 25.6071 28.8932 25.6071H32.9289C33.5207 25.6071 34.0003 25.1274 34.0004 24.5357V17.5715C34.0004 17.3336 33.9211 17.1022 33.7754 16.9143Z" fill="white"/>
<path d="M7.75 18.0356H2.8214C2.22959 18.0356 1.75 18.5153 1.75 19.107C1.75 19.6989 2.22965 20.1784 2.8214 20.1784H7.74994C8.34175 20.1784 8.82134 19.6988 8.82134 19.107C8.8214 18.5153 8.34175 18.0356 7.75 18.0356Z" fill="white"/>
<path d="M10.2143 13.8213H1.0714C0.479652 13.8213 0 14.3009 0 14.8928C0 15.4846 0.479652 15.9642 1.0714 15.9642H10.2143C10.8061 15.9642 11.2857 15.4845 11.2857 14.8928C11.2857 14.301 10.8061 13.8213 10.2143 13.8213Z" fill="white"/>
<path d="M11.9643 9.60718H2.8214C2.22959 9.60718 1.75 10.0868 1.75 10.6786C1.75 11.2704 2.22965 11.75 2.8214 11.75H11.9643C12.5561 11.75 13.0357 11.2703 13.0357 10.6786C13.0357 10.0868 12.5561 9.60718 11.9643 9.60718Z" fill="white"/>
</svg>
