<svg width="85" height="85" viewBox="0 0 85 85" fill="none" xmlns="http://www.w3.org/2000/svg">
<g clip-path="url(#clip0)">
<path d="M75.7205 4.39911H21.4033C16.6893 4.39911 12.8541 8.19845 12.8541 12.8533L12.504 60.6825H1.90373C1.1525 60.6825 0.578613 61.3467 0.578613 62.098V68.6804C0.578613 74.8424 5.50979 79.8818 11.4612 80.1581V80.2372H57.2021V80.1482C57.5422 80.1621 57.7481 80.2372 57.9819 80.2372H58.0144C64.3617 80.2 69.4782 75.0264 69.445 68.6791V26.8445H83.2535C84.0047 26.8445 84.5786 26.1643 84.5786 25.4137V13.3362C84.5872 8.42761 80.6291 4.43431 75.7205 4.39911V4.39911ZM12.0563 77.5165H12.047C7.2082 77.5165 3.29926 73.5173 3.29926 68.6791V63.4032H46.4895V68.6565C46.4789 71.7185 47.6884 74.6584 49.8505 76.8264C50.0803 77.0575 50.3208 77.1764 50.5665 77.5165H12.0563ZM66.7243 68.6777C66.7243 73.5173 62.8533 77.5165 58.0124 77.5165H57.9845C53.1198 77.4813 49.1989 73.5219 49.2102 68.6572V62.098C49.2142 61.3361 48.6117 60.7091 47.8499 60.6825H15.2247L15.5747 12.8626C15.5747 9.69893 18.1891 7.11976 21.4033 7.11976H69.2982C67.7479 8.82016 66.7243 10.9716 66.7243 13.3727V68.6777ZM81.8579 13.3601V24.1238H69.445V13.3701C69.445 9.96528 72.2772 7.11976 75.6807 7.11976H75.7186C79.1306 7.15363 81.8739 9.93738 81.8579 13.3501V13.3601Z" fill="#01E2FF"/>
<path d="M32.5217 37.8824L39.5352 42.6774C39.9929 42.9929 40.598 42.9929 41.0556 42.6774L48.0479 37.8838C50.4769 36.2265 52.271 32.7619 52.271 29.8241V20.1225C52.2856 19.6097 52.0026 19.1341 51.5456 18.901L40.867 13.6483C40.4924 13.4624 40.0526 13.4624 39.678 13.6483L29.0193 18.8864C28.5623 19.1195 28.28 19.5951 28.2953 20.1079V29.8241C28.2953 32.7619 30.0933 36.2265 32.5217 37.8824ZM31.0159 20.9568L40.2831 16.3843L49.5503 20.9694V29.8241C49.5503 31.8732 48.2073 34.4796 46.5128 35.6347L40.2672 39.9063L34.0461 35.6354C32.3517 34.479 31.0159 31.8732 31.0159 29.8241V20.9568Z" fill="#01E2FF"/>
<path d="M37.9822 31.8779C38.236 32.137 38.5827 32.2838 38.9454 32.2858H38.9487C39.31 32.2844 39.6561 32.1396 39.9105 31.8832L45.3219 26.4698C45.8539 25.9385 45.8539 25.0763 45.3226 24.5449C44.7918 24.0129 43.9297 24.0129 43.3983 24.5443L38.9533 28.9886L37.1765 27.1945C36.6471 26.6605 35.7857 26.6565 35.2516 27.1859C34.7176 27.7153 34.7143 28.5767 35.243 29.1108L37.9822 31.8779Z" fill="#01E2FF"/>
<path d="M57.2021 46.5691H24.5543C23.8031 46.5691 23.194 47.1782 23.194 47.9294C23.194 48.6807 23.8031 49.2897 24.5543 49.2897H57.2021C57.9533 49.2897 58.5624 48.6807 58.5624 47.9294C58.5624 47.1782 57.9533 46.5691 57.2021 46.5691Z" fill="#01E2FF"/>
<path d="M57.2021 52.8606H24.5543C23.8031 52.8606 23.194 53.4697 23.194 54.2209C23.194 54.9722 23.8031 55.5812 24.5543 55.5812H57.2021C57.9533 55.5812 58.5624 54.9722 58.5624 54.2209C58.5624 53.4697 57.9533 52.8606 57.2021 52.8606Z" fill="#01E2FF"/>
</g>
<defs>
<clipPath id="clip0">
<rect width="84" height="84" fill="white" transform="translate(0.578613 0.318115)"/>
</clipPath>
</defs>
</svg>
