<svg width="16" height="16" viewBox="0 0 16 16" fill="none" xmlns="http://www.w3.org/2000/svg">
<path d="M15.3333 14.6668H6.66667C6.29867 14.6668 6 14.3682 6 14.0002C6 13.6322 6.29867 13.3335 6.66667 13.3335H15.3333C15.7013 13.3335 16 13.6322 16 14.0002C16 14.3682 15.7013 14.6668 15.3333 14.6668Z" fill="#5A5F6D"/>
<path d="M13.5123 2.76402L12.5697 1.82135C12.0657 1.31735 11.1877 1.31802 10.6843 1.82135L9.30566 3.20002L12.1337 6.02802L13.5123 4.64935C13.7643 4.39802 13.903 4.06335 13.903 3.70669C13.903 3.35069 13.7643 3.01602 13.5123 2.76402Z" fill="#5A5F6D"/>
<path d="M8.36193 4.14331L1.49126 11.014C1.44726 11.0573 1.4166 11.1126 1.4026 11.1733L0.67593 14.2566C0.649264 14.3686 0.683264 14.4873 0.764597 14.5686C0.827264 14.632 0.912597 14.6666 0.99993 14.6666C1.02526 14.6666 1.05126 14.664 1.0766 14.658L4.15993 13.9313C4.21993 13.9173 4.27526 13.8866 4.31926 13.8426L11.1899 6.97198L8.36193 4.14331Z" fill="#5A5F6D"/>
</svg>
