<svg width="85" height="63" viewBox="0 0 85 63" fill="none" xmlns="http://www.w3.org/2000/svg">
<g clip-path="url(#clip0)">
<path d="M62.3245 51.9879L59.538 51.8714C59.7482 46.7277 60.7221 20.1939 59.1626 2.85622L61.9405 2.60388C63.515 20.1184 62.5368 46.8161 62.3245 51.9879Z" fill="#01E2FF"/>
<path d="M50.5071 19.0983L47.7185 19.0443C47.8408 12.6584 48.1089 7.12645 48.5165 2.60602L51.2944 2.85835C50.8954 7.31408 50.6294 12.777 50.5071 19.0983Z" fill="#01E2FF"/>
<path d="M60.1365 4.07044C57.5517 3.26168 55.5846 3.10424 55.2285 3.08268C54.8789 3.10424 52.9097 3.26168 50.3206 4.07044L49.4926 1.39398C52.7145 0.386806 55.0762 0.281128 55.1749 0.276815L55.2285 0.274658L55.2843 0.276815C55.383 0.281128 57.7426 0.38465 60.9667 1.39398L60.1365 4.07044Z" fill="#01E2FF"/>
<path d="M61.2606 53.2927L60.602 50.5688C77.3102 46.4797 81.2229 23.1033 82.023 16.0358C82.0852 15.4901 81.7291 14.9941 81.195 14.8776C78.4686 14.291 73.1959 12.7037 68.5174 8.66636C66.1385 6.61103 63.3177 5.06468 60.1387 4.07044L60.9667 1.39398C64.5125 2.50252 67.6637 4.23435 70.3343 6.53986C74.543 10.1739 79.3116 11.6059 81.7785 12.1365C83.7219 12.5549 85.0197 14.3665 84.7945 16.3528C84.3354 20.4031 83.0634 28.3246 79.6934 35.8817C75.4097 45.4898 69.2082 51.3495 61.2606 53.2927Z" fill="#01E2FF"/>
<path d="M55.2286 53.9979C53.1392 53.9979 51.11 53.7607 49.1965 53.2927L49.8551 50.5688C51.5519 50.985 53.3602 51.1942 55.2264 51.1942C57.0926 51.1942 58.901 50.9829 60.5977 50.5688L61.2563 53.2927C59.3472 53.7607 57.3179 53.9979 55.2286 53.9979Z" fill="#01E2FF"/>
<path d="M36.3902 12.3586L35.1396 9.85254C36.9673 8.93163 38.6426 7.81662 40.1227 6.53986C42.7934 4.23435 45.9445 2.50468 49.4904 1.39398L50.3184 4.07044C47.1372 5.06683 44.3185 6.61318 41.9396 8.66636C40.2879 10.0941 38.4195 11.3363 36.3902 12.3586Z" fill="#01E2FF"/>
<path d="M49.9258 52.6176L47.7378 50.8815C47.9502 50.6119 48.1604 50.3337 48.3642 50.0555L50.6122 51.7161C50.387 52.0181 50.1575 52.3222 49.9258 52.6176Z" fill="#01E2FF"/>
<path d="M37.9497 43.0807L35.161 43.0462C35.2747 33.9579 35.2232 21.0652 34.3438 11.2479L37.1217 10.9955C38.0119 20.9314 38.0634 33.9277 37.9497 43.0807Z" fill="#01E2FF"/>
<path d="M37.5035 60.3516L34.717 60.2351C34.7943 58.3437 35.056 51.5113 35.1632 43.0441L37.9519 43.0786C37.8446 51.5846 37.5807 58.4493 37.5035 60.3516Z" fill="#01E2FF"/>
<path d="M23.3137 60.3515C23.1013 55.1776 22.1231 28.4842 23.6976 10.9675L26.4755 11.2199C24.916 28.5597 25.8899 55.0935 26.1001 60.2351L23.3137 60.3515Z" fill="#01E2FF"/>
<path d="M36.4396 61.6564L35.781 58.9325C40.408 57.8002 44.4301 55.0914 47.7378 50.8815L49.9258 52.6198C46.2234 57.3322 41.6843 60.3731 36.4396 61.6564Z" fill="#01E2FF"/>
<path d="M50.6101 51.714L48.3641 50.0534C54.7008 41.3878 56.6571 29.224 57.2041 24.3973C57.2663 23.8517 56.9102 23.3556 56.3761 23.2413C54.4712 22.8316 51.5518 21.9883 48.4542 20.3039L49.782 17.8388C52.5878 19.3657 55.2349 20.1292 56.9617 20.5002C58.9052 20.9186 60.203 22.7302 59.9777 24.7165C59.4007 29.7653 57.3414 42.5049 50.6101 51.714Z" fill="#01E2FF"/>
<path d="M48.4499 20.3039C46.7274 19.3679 45.1272 18.2637 43.6942 17.0279C41.3239 14.9812 38.5138 13.437 35.3477 12.4428L36.18 9.7663C39.7108 10.877 42.8491 12.6045 45.5111 14.9014C46.7939 16.0078 48.229 16.9955 49.7756 17.8388L48.4499 20.3039Z" fill="#01E2FF"/>
<path d="M30.4075 62.3616C28.3182 62.3616 26.2889 62.1244 24.3755 61.6564L25.034 58.9325C26.733 59.3466 28.5391 59.5579 30.4054 59.5579C32.2738 59.5579 34.0799 59.3466 35.7767 58.9325L36.4353 61.6564C34.5261 62.1244 32.4968 62.3616 30.4075 62.3616Z" fill="#01E2FF"/>
<path d="M24.3755 61.6564C16.4279 59.7111 10.2264 53.8535 5.94265 44.2432C2.57484 36.6883 1.30279 28.7646 0.843742 24.7144C0.618507 22.728 1.91415 20.9164 3.85975 20.498C6.32662 19.9675 11.0952 18.5333 15.3039 14.8992C17.9745 12.5937 21.1257 10.8619 24.6715 9.75336L25.4995 12.4298C22.3183 13.4284 19.4997 14.9747 17.1208 17.0279C12.4423 21.0652 7.16964 22.6526 4.44322 23.2392C3.90909 23.3535 3.553 23.8517 3.61521 24.3952C4.41533 31.4648 8.32585 54.8434 25.0362 58.9325L24.3755 61.6564Z" fill="#01E2FF"/>
<path d="M25.4995 12.432L24.6715 9.75549C27.8935 8.74616 30.2552 8.64264 30.3539 8.63833L30.4097 8.63617L30.4654 8.63833C30.5641 8.64264 32.9237 8.74616 36.1478 9.75549L35.3198 12.432C32.7349 11.6232 30.7679 11.4658 30.4118 11.4442C30.0557 11.4658 28.0865 11.6232 25.4995 12.432Z" fill="#01E2FF"/>
</g>
<defs>
<clipPath id="clip0">
<rect width="84" height="62.087" fill="white" transform="translate(0.817993 0.274658)"/>
</clipPath>
</defs>
</svg>
