<svg width="85" height="77" viewBox="0 0 85 77" fill="none" xmlns="http://www.w3.org/2000/svg">
<g clip-path="url(#clip0)">
<path d="M52.3637 74.0564L49.9981 73.8443C50.0174 73.4118 51.9667 30.3665 49.4708 3.89019L51.8201 3.46185C54.3471 30.2594 52.3844 73.6218 52.3637 74.0564Z" fill="#01E2FF"/>
<path d="M33.5708 74.0564C33.5501 73.6218 31.5874 30.2594 34.1129 3.46185L36.4622 3.89019C33.9663 30.3665 35.9156 73.4118 35.9349 73.8443L33.5708 74.0564Z" fill="#01E2FF"/>
<path d="M42.968 76.1181C35.2136 76.1181 28.2946 73.8542 22.4035 69.3902C17.5198 65.6897 13.307 60.4488 9.88528 53.8157C3.92316 42.2598 1.75902 29.3693 1.00061 22.7139C0.723607 20.2859 2.31894 18.0709 4.71268 17.5589C8.35957 16.7792 15.4134 14.6722 21.6466 9.32628C31.2719 1.06997 42.4496 0.538781 42.9206 0.519546L42.968 0.518066L43.0154 0.519546C43.4865 0.538781 54.6642 1.06849 64.291 9.32628C70.5242 14.6722 77.5765 16.7792 81.2264 17.5589C83.6186 18.0709 85.214 20.2873 84.9385 22.7139C84.1786 29.3693 82.0159 42.2598 76.0538 53.8157C72.6305 60.4488 68.4193 65.6897 63.5355 69.3902C57.6415 73.8542 50.7225 76.1181 42.968 76.1181ZM42.968 2.88843C42.1919 2.9343 31.8674 3.67855 23.1901 11.1225C16.5584 16.8102 9.07651 19.0474 5.20594 19.8745C4.01203 20.1305 3.21511 21.2358 3.35287 22.4461C4.72601 34.4814 11.6391 73.7507 42.9666 73.7507C74.294 73.7507 81.2071 34.4814 82.5803 22.4461C82.718 21.2343 81.9226 20.129 80.7272 19.8745C76.8566 19.0474 69.3747 16.8102 62.743 11.1225C54.0465 3.66079 43.7576 2.93282 42.968 2.88843Z" fill="#01E2FF"/>
</g>
<defs>
<clipPath id="clip0">
<rect width="84" height="75.6" fill="white" transform="translate(0.968018 0.518066)"/>
</clipPath>
</defs>
</svg>
