<svg width="18" height="22" viewBox="0 0 18 22" fill="none" xmlns="http://www.w3.org/2000/svg">
    <path d="M2.7 22V18.79H0.3V15.88H2.7V13.54H0.3V9.82H2.7V0.579999H9.54C12.3 0.579999 14.31 1.14 15.57 2.26C16.85 3.38 17.49 4.92 17.49 6.88C17.49 8.04 17.23 9.13 16.71 10.15C16.19 11.17 15.32 11.99 14.1 12.61C12.9 13.23 11.26 13.54 9.18 13.54H7.23V15.88H11.85V18.79H7.23V22H2.7ZM8.73 9.82C10.01 9.82 11.02 9.6 11.76 9.16C12.52 8.72 12.9 8.01 12.9 7.03C12.9 5.21 11.7 4.3 9.3 4.3H7.23V9.82H8.73Z"
          fill="#01E2FF"/>
</svg>
