<svg width="14" height="14" viewBox="0 0 14 14" fill="none" xmlns="http://www.w3.org/2000/svg">
<g opacity="0.5">
<path d="M12.8951 14H11.4765C11.4765 11.6068 9.46922 9.66053 7.00017 9.66053C4.53113 9.66053 2.52454 11.6075 2.52454 14H1.10596C1.10596 10.8238 3.75091 8.24194 7.00088 8.24194C10.2501 8.24194 12.8951 10.8238 12.8951 14Z" fill="white"/>
<path d="M7.00084 7.78093C4.85665 7.78093 3.11108 6.03465 3.11108 3.89047C3.11037 1.74557 4.85594 0 7.00084 0C9.14645 0 10.892 1.74486 10.892 3.89047C10.892 6.03607 9.14645 7.78093 7.00084 7.78093ZM7.00084 1.41858C5.63758 1.41858 4.52896 2.52721 4.52896 3.89047C4.52896 5.25372 5.63758 6.36235 7.00084 6.36235C8.36481 6.36235 9.47343 5.25372 9.47343 3.89047C9.47343 2.52721 8.36339 1.41858 7.00084 1.41858Z" fill="white"/>
</g>
</svg>
