<svg width="31" height="31" viewBox="0 0 31 31" fill="none" xmlns="http://www.w3.org/2000/svg">
<path d="M26.1562 2.05859H4.84375C2.17283 2.05859 0 4.23142 0 6.90234V20.8887C0 23.5596 2.17283 25.7324 4.84375 25.7324H13.5625C14.2314 25.7324 14.7734 25.1903 14.7734 24.5215C14.7734 23.8526 14.2314 23.3105 13.5625 23.3105H4.84375C3.50841 23.3105 2.42188 22.224 2.42188 20.8887V7.24363L12.9421 13.7853C13.7311 14.2758 14.6154 14.5211 15.5 14.5211C16.3846 14.5211 17.2689 14.2758 18.0579 13.7853L28.5781 7.24363V11.5039C28.5781 12.1728 29.1202 12.7148 29.7891 12.7148C30.4579 12.7148 31 12.1728 31 11.5039V6.90234C31 4.23142 28.8272 2.05859 26.1562 2.05859ZM16.7788 11.7286C15.9901 12.2191 15.0099 12.2191 14.2212 11.7286L3.37099 4.98164C3.77945 4.66779 4.29008 4.48047 4.84375 4.48047H26.1562C26.7099 4.48047 27.2208 4.66779 27.629 4.98164L16.7788 11.7286ZM24.7994 15.4733L18.1511 22.1067C18.0099 22.2477 17.9056 22.4213 17.8476 22.6121L16.3999 27.3785C16.2715 27.8012 16.3834 28.26 16.6918 28.5762C16.9229 28.813 17.2367 28.9414 17.5586 28.9414C17.6664 28.9414 17.775 28.927 17.8819 28.8974L22.7694 27.5436C22.9707 27.4878 23.154 27.3811 23.3016 27.2336L29.9359 20.6117C31.3524 19.1953 31.3524 16.8907 29.9359 15.4742C28.5195 14.0578 26.2149 14.0578 24.7994 15.4733ZM21.816 25.2946L19.357 25.9758L20.0767 23.6067L24.5626 19.1307L26.2755 20.8435L21.816 25.2946ZM28.2243 18.8984L27.9897 19.1326L26.2771 17.42L26.5108 17.1866C26.9829 16.7145 27.7513 16.7145 28.2234 17.1866C28.6957 17.6589 28.6957 18.4271 28.2243 18.8984Z" fill="black"/>
</svg>
