<svg width="104" height="84" viewBox="0 0 104 84" fill="none" xmlns="http://www.w3.org/2000/svg">
<path d="M79.1178 35.466L66.2113 47.9215L87.2479 54.5576L95.378 43.9398V41.1832L79.1178 35.466Z" fill="#FFCC02"/>
<path d="M66.1097 48.9424L53.9146 58.5393C57.1666 60.2068 65.4796 64.1545 72.7154 66.6047C79.9511 69.055 86.4349 68.7828 88.7723 68.3403L87.0446 55.9869L66.1097 48.9424Z" fill="#FFCC02"/>
<path d="M73.0204 52.1074L63.0611 61.9084L54.8293 58.0289L63.8741 47.9215L73.0204 52.1074Z" fill="#E4B600"/>
<path d="M97.2074 42.9188L87.0448 55.4764L91.0082 68.1361L103 53.4345L97.2074 42.9188Z" fill="#E4B600"/>
<path d="M65.5045 48.2278C70.7213 50.4738 82.4151 54.9456 87.4557 54.8639M87.4557 54.8639L97.2118 42.2042M87.4557 54.8639C88.2687 57.4503 89.9918 65.1346 89.9918 70.6885M97.2118 42.2042C94.7728 40.5367 87.6386 36.9361 78.6143 35.8744M97.2118 42.2042C99.9511 46.288 100.663 50.3717 101.374 54.8639C97.9186 61.1937 95.8861 65.0733 89.9918 70.6885M53.3048 58.9477C61.0623 62.3168 78.2032 69.9738 89.9918 70.6885" stroke="#434A54" stroke-width="4.10026" stroke-linejoin="round"/>
<path d="M26.1708 64.5627L28.9147 79.979L81.4553 33.9345L75.8659 26.4816L71.1911 24.8481L26.1708 64.5627Z" fill="#E4B600"/>
<path d="M25.3577 65.0732L9.70728 52.924L53.7113 15.6596L71.4959 23.9292L25.3577 65.0732Z" fill="#FFCC02"/>
<path d="M7.26831 65.1754L8.58945 54.4555L25.0529 64.0523L26.374 74.7722V79.5707L7.26831 65.1754Z" fill="#FFCC02"/>
<path d="M29.0208 80.9999L81.3582 33.3219C80.3419 30.9738 77.7967 27.8088 72.1102 24.1334M29.0208 80.9999C26.0736 75.8952 25.7687 65.6858 25.8704 65.2774M29.0208 80.9999C23.0045 78.223 12.4896 69.3612 7.98418 65.2774C7.25247 58.9884 8.62781 54.4214 9.40694 52.924M72.1102 24.1334C58.8311 35.3978 30.9923 59.3968 25.8704 65.2774M72.1102 24.1334C63.4923 17.4361 56.5953 15.4895 54.224 15.3533C46.3378 18.947 21.0601 41.8978 9.40694 52.924M25.8704 65.2774L9.40694 52.924" stroke="#434A54" stroke-width="4.10026" stroke-linecap="round" stroke-linejoin="round"/>
<path d="M3 33.4241L12.4512 35.8743M10.5203 18.5183L18.5488 24.8482M25.0528 9.94241L30.6423 18.5183M73.5285 12.9031L75.2561 3M85.4187 19.1309L90.1951 9.94241M92.939 28.3194L101.069 22.3979" stroke="#434A54" stroke-width="4.10026" stroke-linecap="round" stroke-linejoin="round"/>
</svg>
