<svg width="105" height="84" viewBox="0 0 105 84" fill="none" xmlns="http://www.w3.org/2000/svg">
<path d="M79.7772 35.5971L66.7589 48.1029L87.9777 54.7658L96.1783 44.1051V41.3375L79.7772 35.5971Z" fill="#777777"/>
<path d="M66.6565 49.1279L54.3557 58.7635C57.6359 60.4378 66.0209 64.4014 73.3194 66.8615C80.6179 69.3217 87.1578 69.0483 89.5154 68.6041L87.7728 56.2009L66.6565 49.1279Z" fill="#777777"/>
<path d="M73.627 52.3057L63.5813 62.1463L55.2783 58.251L64.4014 48.1029L73.627 52.3057Z" fill="#6B6B6B"/>
<path d="M98.0235 43.0801L87.7728 55.6884L91.7706 68.3992L103.866 53.6382L98.0235 43.0801Z" fill="#6B6B6B"/>
<path d="M66.046 48.4104C71.308 50.6655 83.103 55.1553 88.1874 55.0733M88.1874 55.0733L98.028 42.3625M88.1874 55.0733C89.0074 57.6701 90.7454 65.3854 90.7454 70.9618M98.028 42.3625C95.5678 40.6882 88.3719 37.0731 79.2693 36.0071M98.028 42.3625C100.791 46.4627 101.509 50.563 102.226 55.0733C98.7409 61.4287 96.6908 65.3239 90.7454 70.9618M53.7406 59.1735C61.5653 62.5562 78.8547 70.2442 90.7454 70.9618" stroke="#434A54" stroke-width="4.10026" stroke-linejoin="round"/>
<path d="M26.3715 64.8114L29.1391 80.2899L82.135 34.0595L76.4971 26.5765L71.7818 24.9364L26.3715 64.8114Z" fill="#6B6B6B"/>
<path d="M25.5514 65.3239L9.76538 53.1257L54.1507 15.7108L72.0893 24.0138L25.5514 65.3239Z" fill="#777777"/>
<path d="M7.3053 65.4264L8.63788 54.6633L25.2439 64.2989L26.5765 75.062V79.8799L7.3053 65.4264Z" fill="#777777"/>
<path d="M29.2462 81.315L82.037 33.4445C81.0119 31.0869 78.4447 27.9092 72.7089 24.2189M29.2462 81.315C26.2735 76.1897 25.966 65.939 26.0685 65.529M29.2462 81.315C23.1778 78.5268 12.5718 69.6293 8.02736 65.529C7.28931 59.2146 8.67657 54.6292 9.46245 53.1257M72.7089 24.2189C59.3148 35.5288 31.2348 59.6247 26.0685 65.529M72.7089 24.2189C64.0164 17.4945 57.0596 15.5401 54.6678 15.4034C46.7133 19.0116 21.2165 42.0551 9.46245 53.1257M26.0685 65.529L9.46245 53.1257" stroke="#434A54" stroke-width="4.10026" stroke-linecap="round" stroke-linejoin="round"/>
<path d="M3 33.5469L12.5331 36.0071M10.5855 18.581L18.6835 24.9364M25.2439 9.97044L30.8817 18.581M74.1395 12.9431L75.8821 3M86.1327 19.196L90.9505 9.97044M93.7182 28.4216L101.919 22.4762" stroke="#434A54" stroke-width="4.10026" stroke-linecap="round" stroke-linejoin="round"/>
</svg>
