<svg width="104" height="84" viewBox="0 0 104 84" fill="none" xmlns="http://www.w3.org/2000/svg">
<path d="M79.1178 35.466L66.2113 47.9215L87.2479 54.5576L95.378 43.9398V41.1832L79.1178 35.466Z" fill="#CFCFCF"/>
<path d="M66.1097 48.9425L53.9146 58.5393C57.1666 60.2069 65.4796 64.1545 72.7154 66.6048C79.9511 69.0551 86.4349 68.7828 88.7723 68.3404L87.0446 55.987L66.1097 48.9425Z" fill="#CFCFCF"/>
<path d="M73.0203 52.1073L63.0609 61.9083L54.8292 58.0287L63.8739 47.9214L73.0203 52.1073Z" fill="#B0B0B0"/>
<path d="M97.2073 42.9189L87.0447 55.4765L91.0081 68.1362L103 53.4346L97.2073 42.9189Z" fill="#B0B0B0"/>
<path d="M65.5046 48.2277C70.7214 50.4738 82.4152 54.9455 87.4558 54.8638M87.4558 54.8638L97.2119 42.2042M87.4558 54.8638C88.2688 57.4502 89.9919 65.1345 89.9919 70.6884M97.2119 42.2042C94.7729 40.5366 87.6388 36.9361 78.6144 35.8743M97.2119 42.2042C99.9513 46.2879 100.663 50.3717 101.374 54.8638C97.9187 61.1937 95.8862 65.0733 89.9919 70.6884M53.3049 58.9476C61.0624 62.3167 78.2033 69.9738 89.9919 70.6884" stroke="#434A54" stroke-width="4.10026" stroke-linejoin="round"/>
<path d="M26.1707 64.5629L28.9146 79.9791L81.4552 33.9346L75.8658 26.4817L71.191 24.8482L26.1707 64.5629Z" fill="#B0B0B0"/>
<path d="M25.3577 65.0733L9.70728 52.9241L53.7113 15.6597L71.4959 23.9294L25.3577 65.0733Z" fill="#CFCFCF"/>
<path d="M7.26831 65.1753L8.58945 54.4554L25.0529 64.0523L26.374 74.7722V79.5706L7.26831 65.1753Z" fill="#CFCFCF"/>
<path d="M29.0208 80.9999L81.3582 33.3219C80.3419 30.9738 77.7967 27.8088 72.1102 24.1334M29.0208 80.9999C26.0736 75.8952 25.7687 65.6858 25.8704 65.2774M29.0208 80.9999C23.0045 78.223 12.4896 69.3612 7.98418 65.2774C7.25247 58.9884 8.62781 54.4214 9.40694 52.924M72.1102 24.1334C58.8311 35.3978 30.9923 59.3968 25.8704 65.2774M72.1102 24.1334C63.4923 17.4361 56.5953 15.4895 54.224 15.3533C46.3378 18.9471 21.0601 41.8978 9.40694 52.924M25.8704 65.2774L9.40694 52.924" stroke="#434A54" stroke-width="4.10026" stroke-linecap="round" stroke-linejoin="round"/>
<path d="M3 33.4241L12.4512 35.8743M10.5203 18.5183L18.5488 24.8482M25.0528 9.94241L30.6423 18.5183M73.5285 12.9031L75.2561 3M85.4187 19.1309L90.1951 9.94241M92.939 28.3194L101.069 22.3979" stroke="#434A54" stroke-width="4.10026" stroke-linecap="round" stroke-linejoin="round"/>
</svg>
