<svg width="158" height="77" viewBox="0 0 158 77" fill="none" xmlns="http://www.w3.org/2000/svg">
<path d="M9.74409 33.7095L0 29.2201L10.5489 24.3484C10.8479 9.77417 24.9287 6.61477 30.7684 7.18034C36.6081 7.74656 53.5967 18.1661 46.7513 39.4491C44.4188 46.7021 44.9694 65.468 72.189 63.7349C70.1445 67.5879 60.548 83.5695 29.3135 73.4029C20.6538 70.5841 8.31456 56.6301 9.74409 33.7095Z" fill="#FFBD54"/>
<path d="M98.6133 29.1017C99.4681 18.7784 94.1167 9.42116 90.982 7.26549C88.0566 5.25479 88.0462 13.9353 85.4413 18.6965C81.574 17.085 77.2893 16.1801 72.7738 16.1801C68.2668 16.1801 63.9893 17.0811 60.1284 18.6874C57.5281 13.9236 57.5151 5.25479 54.5923 7.26419C51.4602 9.41076 46.1198 18.7622 46.9597 29.0653C43.7359 33.5873 41.8546 39.0025 41.8546 44.8279C41.8546 60.6502 55.6981 72.3848 72.7732 72.3848C89.8495 72.3848 103.692 60.6502 103.692 44.8279C103.692 39.0181 101.82 33.6166 98.6133 29.1017Z" fill="#78C0DE"/>
<path d="M97.1018 46.639C97.9008 32.475 103.31 30.517 104.021 21.8553C105.005 9.86126 113.267 1.14042 117.349 0.0664815C121.431 -1.00485 116.224 11.1673 119.883 15.2985C127.535 12.6456 132.395 14.9046 136.233 19.0567C140.074 23.21 135.061 27.1762 142.578 26.1127C145.67 25.6739 148.884 25.7772 151.574 26.4624C151.829 26.294 152.104 26.1504 152.402 26.047C154.519 25.3144 156.898 26.636 157.719 29.0029C158.029 29.8994 158.069 30.8167 157.887 31.6514C157.981 32.1084 158.02 32.5933 157.99 33.1088C157.576 40.3898 148.603 50.4179 143.029 51.1486C137.455 51.8806 131.536 50.9178 131.385 62.0706C131.184 76.925 98.3032 82.8037 90.2487 67.7231C96.143 63.4592 96.4921 57.4564 97.1018 46.639Z" fill="black"/>
<path d="M121.798 19.7017C125.647 20.0416 128.705 17.9971 131.681 15.7049C130.484 15.5574 129.162 15.5483 127.678 15.7173C125.448 11.6855 131.909 2.71046 128.385 2.84048C125.209 2.95359 117.081 7.30589 113.334 15.1946C116.054 17.022 118.218 19.8954 121.798 19.7017Z" fill="black"/>
<path d="M33.9411 30.6432C33.4815 30.5054 33.0076 30.4683 32.5363 30.5359C31.16 30.7322 29.997 31.8114 29.6492 33.2051L26.562 44.7395L20.4057 34.5079C19.6334 33.2767 18.2039 32.5791 16.8465 32.7728C16.3837 32.8391 15.9559 33.003 15.5743 33.2617C14.7104 33.7948 14.1149 34.5976 13.8958 35.5259C13.6852 36.4087 13.8438 37.3299 14.3268 38.0996L24.7405 55.5836C24.8152 55.7344 24.9316 55.9528 25.1344 56.1303C25.2053 56.2096 25.2872 56.2746 25.3795 56.3266C25.3795 56.3279 25.3795 56.3279 25.3802 56.3286L25.4725 56.4612L25.6005 56.558C25.6467 56.5931 25.6993 56.6302 25.7591 56.6633L25.7838 56.8363L26.2233 56.9832L26.3579 57.0833L27.3545 57.2985L27.6509 57.3544L27.7991 57.3329C28.0526 57.3459 28.2405 57.3193 28.3491 57.3043C28.4973 57.2835 28.691 57.2556 28.9309 57.1711L29.1552 57.1392L29.3385 57.0131L30.233 56.4384L30.4163 56.194C30.4696 56.1348 30.547 56.0497 30.6263 55.9275C30.6887 55.8546 30.742 55.774 30.7817 55.6863C30.8083 55.644 30.8356 55.6005 30.861 55.5556C30.8662 55.5472 30.8714 55.5394 30.8759 55.5309C30.9631 55.4373 31.0326 55.3287 31.082 55.2111C31.1704 55.0453 31.2419 54.8483 31.2822 54.6604L36.4862 34.963C36.741 34.0665 36.635 33.1375 36.1878 32.3483C35.7139 31.5104 34.9071 30.9019 33.9411 30.6432Z" fill="white"/>
<path d="M72.5944 30.5053C64.3026 30.6503 57.6269 37.716 57.714 46.2731C57.9273 54.8938 64.6972 61.5806 73.1268 61.4947H73.1359C77.5728 61.4167 81.1638 60.0165 84.1087 57.214C84.8257 56.5366 85.2171 55.6746 85.2392 54.7222C85.2691 53.4987 84.6807 52.4268 84.11 51.8202C83.4956 51.1162 82.4172 50.7092 81.2126 50.73C80.0028 50.7515 78.8859 51.2046 78.1286 51.9769C77.1567 52.7063 75.4658 53.1932 73.7893 53.2231C73.5526 53.227 73.3186 53.2212 73.0943 53.2069C71.3437 53.0879 69.3551 52.2109 68.3682 51.1214L68.2883 51.0408C67.8391 50.6306 67.4399 50.0488 67.1272 49.3597L83.6718 49.071C85.8268 49.0333 87.4884 47.6942 87.7615 45.7953C87.8258 45.5567 87.8375 45.296 87.8323 44.9957L87.8239 44.6388C87.1842 36.306 80.779 30.3623 72.5944 30.5053ZM79.393 41.8818L66.7775 42.1021C67.6408 40.3944 69.5507 38.5722 72.7114 38.3408C75.9508 38.569 78.2514 40.2494 79.393 41.8818Z" fill="white"/>
<path d="M122.868 44.211C125.124 44.4463 127.225 42.7652 127.457 40.54C127.693 38.2744 126.019 36.2384 123.725 35.9992L123.51 35.9764L124.209 29.2767C124.449 26.9741 122.834 24.9822 120.532 24.7417C118.199 24.4979 116.183 26.1114 115.943 28.4134L115.243 35.1124L114.811 35.0676C112.508 34.8277 110.516 36.4425 110.275 38.7458C110.039 41.0093 111.688 43.0434 113.953 43.2807L114.385 43.3256L112.929 57.2646C112.518 61.1963 115.383 64.7302 119.316 65.141C121.618 65.3816 123.61 63.7674 123.852 61.4635C124.054 59.5302 122.981 57.8159 121.298 57.1476L122.651 44.1876L122.868 44.211Z" fill="white"/>
</svg>
