<svg width="178" height="87" viewBox="0 0 178 87" fill="none" xmlns="http://www.w3.org/2000/svg">
<path d="M10.95 37.8814L0 32.8363L11.8544 27.3617C12.1905 10.9838 28.0139 7.43341 34.5763 8.06898C41.1387 8.70528 60.2298 20.4143 52.5373 44.3313C49.9161 52.4819 50.5349 73.5703 81.1231 71.6227C78.8256 75.9526 68.0414 93.9121 32.9413 82.4872C23.2099 79.3196 9.34357 63.6387 10.95 37.8814Z" fill="#FFBD54"/>
<path d="M110.817 32.7034C111.778 21.1025 105.764 10.5871 102.242 8.16466C98.9541 5.90511 98.9424 15.66 96.0152 21.0104C91.6692 19.1994 86.8543 18.1825 81.7799 18.1825C76.7151 18.1825 71.9082 19.195 67.5696 21.0002C64.6474 15.6468 64.6328 5.90511 61.3483 8.1632C57.8286 10.5754 51.8272 21.0842 52.7711 32.6625C49.1483 37.7441 47.0342 43.8294 47.0342 50.3758C47.0342 68.1563 62.591 81.3432 81.7792 81.3432C100.969 81.3432 116.524 68.1563 116.524 50.3758C116.524 43.847 114.421 37.7769 110.817 32.7034Z" fill="#78C0DE"/>
<path d="M109.119 52.411C110.017 36.4941 116.096 34.2937 116.894 24.5601C118 11.0817 127.285 1.28155 131.873 0.0747093C136.46 -1.12921 130.608 12.5493 134.719 17.1919C143.319 14.2106 148.78 16.7492 153.093 21.4151C157.409 26.0825 151.776 30.5395 160.223 29.3444C163.698 28.8513 167.31 28.9674 170.333 29.7374C170.619 29.5482 170.928 29.3867 171.264 29.2706C173.642 28.4473 176.316 29.9325 177.239 32.5923C177.587 33.5997 177.632 34.6305 177.427 35.5685C177.533 36.0821 177.576 36.6271 177.544 37.2064C177.077 45.3884 166.995 56.6577 160.73 57.4788C154.467 58.3014 147.815 57.2194 147.646 69.7525C147.42 86.4453 110.469 93.0515 101.418 76.1045C108.042 71.3129 108.434 64.5672 109.119 52.411Z" fill="black"/>
<path d="M136.873 22.1398C141.197 22.5219 144.634 20.2244 147.978 17.6485C146.633 17.4827 145.147 17.4724 143.48 17.6624C140.974 13.1316 148.234 3.0458 144.274 3.19191C140.706 3.31902 131.572 8.20997 127.36 17.075C130.417 19.1286 132.849 22.3575 136.873 22.1398Z" fill="black"/>
<path d="M38.1412 34.4355C37.6247 34.2806 37.0922 34.239 36.5626 34.3149C35.016 34.5356 33.7091 35.7482 33.3182 37.3145L29.8489 50.2764L22.9308 38.7785C22.0629 37.3949 20.4564 36.611 18.9311 36.8287C18.4109 36.9032 17.9302 37.0873 17.5014 37.3781C16.5305 37.9771 15.8613 38.8793 15.6152 39.9225C15.3785 40.9146 15.5567 41.9498 16.0995 42.8147L27.802 62.4625C27.886 62.632 28.0167 62.8774 28.2447 63.0769C28.3243 63.166 28.4163 63.239 28.5201 63.2975C28.5201 63.299 28.5201 63.299 28.5208 63.2997L28.6246 63.4487L28.7685 63.5576C28.8203 63.597 28.8795 63.6387 28.9467 63.6759L28.9745 63.8702L29.4683 64.0353L29.6195 64.1478L30.7395 64.3897L31.0726 64.4525L31.2391 64.4284C31.524 64.443 31.7352 64.413 31.8572 64.3962C32.0237 64.3728 32.2414 64.3414 32.511 64.2465L32.763 64.2107L32.969 64.0689L33.9743 63.4232L34.1803 63.1485C34.2402 63.082 34.3271 62.9863 34.4162 62.8489C34.4864 62.7671 34.5463 62.6765 34.5908 62.5779C34.6208 62.5304 34.6515 62.4815 34.68 62.4311C34.6858 62.4216 34.6916 62.4128 34.6968 62.4033C34.7947 62.2981 34.8728 62.1761 34.9284 62.0439C35.0277 61.8576 35.1081 61.6363 35.1533 61.4251L41.0013 39.2899C41.2877 38.2825 41.1686 37.2385 40.666 36.3517C40.1334 35.41 39.2268 34.7262 38.1412 34.4355Z" fill="white"/>
<path d="M81.5784 25.0028C72.2604 25.1657 64.7585 33.106 64.8564 42.722C65.096 52.4096 72.7038 59.9239 82.1767 59.8275H82.1869C87.1729 59.7398 91.2083 58.1663 94.5177 55.0169C95.3234 54.2557 95.7632 53.287 95.7881 52.2168C95.8217 50.8419 95.1605 49.6373 94.5191 48.9557C93.8288 48.1645 92.6168 47.7072 91.2631 47.7306C89.9036 47.7547 88.6485 48.2638 87.7975 49.1317C86.7053 49.9514 84.8052 50.4986 82.9211 50.5322C82.6552 50.5365 82.3922 50.53 82.1402 50.5139C80.1728 50.3802 77.9381 49.3947 76.8292 48.1703L76.7393 48.0798C76.2345 47.6188 75.786 46.965 75.4346 46.1906L94.0267 45.8662C96.4485 45.8239 98.3157 44.3189 98.6225 42.1851C98.6949 41.9169 98.708 41.624 98.7022 41.2865L98.6927 40.8854C97.9738 31.5214 90.7759 24.8421 81.5784 25.0028ZM89.2184 37.7872L75.0416 38.0349C76.0117 36.1158 78.158 34.0681 81.7099 33.808C85.3502 34.0644 87.9355 35.9528 89.2184 37.7872Z" fill="white"/>
<path d="M138.074 49.6825C140.609 49.9469 142.971 48.0578 143.232 45.5572C143.496 43.0112 141.616 40.7232 139.038 40.4544L138.796 40.4288L139.581 32.8999C139.851 30.3123 138.036 28.074 135.449 27.8037C132.827 27.5297 130.562 29.3429 130.292 31.9297L129.505 39.4579L129.02 39.4075C126.432 39.1379 124.193 40.9526 123.923 43.5409C123.658 46.0846 125.511 48.3704 128.056 48.6371L128.541 48.6875L126.906 64.3517C126.443 68.7699 129.663 72.7411 134.083 73.2028C136.67 73.4731 138.908 71.6592 139.18 69.0702C139.407 66.8976 138.201 64.9711 136.31 64.2202L137.83 49.6562L138.074 49.6825Z" fill="white"/>
<path d="M70.2649 71.2693C70.201 71.5419 70.0768 71.7353 69.8925 71.8495C69.7162 71.9588 69.5112 71.986 69.2776 71.9312C69.0374 71.8748 68.8627 71.7584 68.7535 71.5821C68.6442 71.4058 68.6223 71.1782 68.6878 70.8991L69.9607 65.4765C70.0247 65.2039 70.1448 65.0129 70.3211 64.9037C70.5054 64.7894 70.7144 64.7597 70.9481 64.8146C71.1882 64.871 71.3629 64.9873 71.4722 65.1636C71.5814 65.3399 71.6033 65.5676 71.5378 65.8467L71.0945 67.7353L74.0346 68.4255L74.4779 66.5368C74.5419 66.2642 74.662 66.0733 74.8383 65.964C75.0226 65.8498 75.2316 65.8201 75.4653 65.8749C75.7054 65.9313 75.8801 66.0476 75.9894 66.2239C76.0987 66.4002 76.1205 66.6279 76.055 66.907L74.7822 72.3296C74.7182 72.6022 74.594 72.7956 74.4097 72.9099C74.2334 73.0191 74.0284 73.0463 73.7948 72.9915C73.5546 72.9351 73.3799 72.8188 73.2707 72.6425C73.1614 72.4662 73.1395 72.2385 73.205 71.9594L73.6895 69.8955L70.7494 69.2054L70.2649 71.2693Z" fill="white"/>
<path d="M78.6865 67.0699C78.6977 66.8102 78.7828 66.6136 78.942 66.4803C79.1081 66.3406 79.3044 66.2757 79.5309 66.2854L82.0086 66.3916C82.2684 66.4028 82.4654 66.4779 82.5995 66.6171C82.7337 66.7564 82.7956 66.9459 82.7853 67.1856C82.7753 67.4187 82.6975 67.5989 82.552 67.7261C82.4064 67.8533 82.2037 67.9114 81.9439 67.9002L80.2755 67.8287L80.2193 69.1375L81.7479 69.203C82.001 69.2139 82.1947 69.2889 82.3288 69.4281C82.4696 69.5676 82.5351 69.7539 82.5251 69.9871C82.5034 70.4933 82.2227 70.7348 81.6832 70.7117L80.1546 70.6461L80.0972 71.9849L81.8256 72.059C82.0854 72.0701 82.2824 72.1453 82.4165 72.2845C82.5507 72.4237 82.6126 72.6132 82.6023 72.853C82.5923 73.0861 82.5111 73.2695 82.3586 73.4031C82.213 73.5303 82.0136 73.5884 81.7605 73.5776L79.2229 73.4688C79.0031 73.4593 78.8164 73.3779 78.6628 73.2246C78.5092 73.0712 78.4379 72.8679 78.4487 72.6148L78.6865 67.0699Z" fill="white"/>
<path d="M85.8171 67.1781C85.8006 66.8986 85.8613 66.6813 85.9991 66.5262C86.1431 66.3641 86.3349 66.276 86.5745 66.2619C86.8207 66.2474 87.0214 66.309 87.1764 66.4468C87.3315 66.5845 87.4174 66.7965 87.4343 67.0827L87.7205 71.9342L89.4575 71.8318C89.7171 71.8165 89.9207 71.8712 90.0683 71.9961C90.2159 72.1209 90.2967 72.3032 90.3109 72.5427C90.3246 72.7757 90.2624 72.9663 90.1242 73.1147C89.9923 73.2561 89.7999 73.3342 89.547 73.3491L87.0015 73.4993C86.7819 73.5123 86.5879 73.4503 86.4195 73.3133C86.2511 73.1763 86.1595 72.9813 86.1446 72.7284L85.8171 67.1781Z" fill="white"/>
<path d="M93.3284 68.9589L94.1754 68.76C94.4934 68.6854 94.7244 68.5319 94.8685 68.2995C95.0125 68.0671 95.054 67.8211 94.9931 67.5615C94.9215 67.2564 94.7718 67.0416 94.544 66.917C94.3161 66.7925 94.0432 66.7675 93.7252 66.8422L92.8782 67.041L93.3284 68.9589ZM91.1571 66.7979C91.0977 66.5447 91.1266 66.3325 91.2439 66.1612C91.3662 65.9818 91.5376 65.8663 91.7583 65.8145L93.6956 65.3597C94.3511 65.2058 94.946 65.275 95.4803 65.5674C96.0692 65.8879 96.4519 66.4247 96.6287 67.1775C96.7947 67.885 96.7251 68.5074 96.4198 69.0447C96.1195 69.574 95.5994 69.9255 94.8595 70.0991L93.662 70.3802L94.0048 71.8405C94.0688 72.1131 94.0437 72.3416 93.9294 72.5259C93.8202 72.7022 93.6487 72.8178 93.4151 72.8726C93.1749 72.929 92.9667 72.9025 92.7904 72.7933C92.6141 72.684 92.4932 72.4898 92.4277 72.2107L91.1571 66.7979Z" fill="white"/>
</svg>
