<svg width="30" height="30" viewBox="0 0 30 30" fill="none" xmlns="http://www.w3.org/2000/svg">
<path d="M15 1C7.272 1 1 7.272 1 15C1 22.728 7.272 29 15 29C22.728 29 29 22.728 29 15C29 7.272 22.728 1 15 1ZM15 5.2C17.324 5.2 19.2 7.076 19.2 9.4C19.2 11.724 17.324 13.6 15 13.6C12.676 13.6 10.8 11.724 10.8 9.4C10.8 7.076 12.676 5.2 15 5.2ZM15 25.08C13.3366 25.08 11.6991 24.6684 10.2334 23.8818C8.76772 23.0952 7.51949 21.9582 6.6 20.572C6.642 17.786 12.2 16.26 15 16.26C17.786 16.26 23.358 17.786 23.4 20.572C22.4805 21.9582 21.2323 23.0952 19.7666 23.8818C18.3009 24.6684 16.6634 25.08 15 25.08Z" fill="white"/>
</svg>
