<svg width="40" height="40" viewBox="0 0 40 40" fill="none" xmlns="http://www.w3.org/2000/svg">
<path d="M33.3335 6.66675H6.66683C5.78277 6.66675 4.93493 7.01794 4.30981 7.64306C3.68469 8.26818 3.3335 9.11603 3.3335 10.0001V30.0001C3.3335 30.8841 3.68469 31.732 4.30981 32.3571C4.93493 32.9822 5.78277 33.3334 6.66683 33.3334H33.3335C34.2176 33.3334 35.0654 32.9822 35.6905 32.3571C36.3156 31.732 36.6668 30.8841 36.6668 30.0001V10.0001C36.6668 9.11603 36.3156 8.26818 35.6905 7.64306C35.0654 7.01794 34.2176 6.66675 33.3335 6.66675ZM19.1668 18.3334H20.8335C21.9386 18.2229 23.0423 18.5559 23.9018 19.2592C24.7614 19.9624 25.3063 20.9783 25.4168 22.0834C25.5273 23.1885 25.1943 24.2922 24.4911 25.1517C23.7878 26.0113 22.7719 26.5562 21.6668 26.6667C21.6668 27.1088 21.4912 27.5327 21.1787 27.8453C20.8661 28.1578 20.4422 28.3334 20.0002 28.3334C19.5581 28.3334 19.1342 28.1578 18.8217 27.8453C18.5091 27.5327 18.3335 27.1088 18.3335 26.6667H16.6668C16.2248 26.6667 15.8009 26.4912 15.4883 26.1786C15.1758 25.866 15.0002 25.4421 15.0002 25.0001C15.0002 24.5581 15.1758 24.1341 15.4883 23.8216C15.8009 23.509 16.2248 23.3334 16.6668 23.3334H20.8335C21.0545 23.3334 21.2665 23.2456 21.4228 23.0893C21.579 22.9331 21.6668 22.7211 21.6668 22.5001C21.6668 22.2791 21.579 22.0671 21.4228 21.9108C21.2665 21.7545 21.0545 21.6667 20.8335 21.6667H19.1668C18.1335 21.6678 17.1367 21.2848 16.3699 20.5923C15.6031 19.8997 15.1209 18.9469 15.0171 17.9188C14.9132 16.8908 15.1951 15.8608 15.8079 15.0289C16.4208 14.1969 17.3209 13.6224 18.3335 13.4167V13.3334C18.3335 12.8914 18.5091 12.4675 18.8217 12.1549C19.1342 11.8423 19.5581 11.6667 20.0002 11.6667C20.4422 11.6667 20.8661 11.8423 21.1787 12.1549C21.4912 12.4675 21.6668 12.8914 21.6668 13.3334H23.3335C23.7755 13.3334 24.1994 13.509 24.512 13.8216C24.8246 14.1341 25.0002 14.5581 25.0002 15.0001C25.0002 15.4421 24.8246 15.866 24.512 16.1786C24.1994 16.4912 23.7755 16.6667 23.3335 16.6667H19.1668C18.9458 16.6667 18.7339 16.7545 18.5776 16.9108C18.4213 17.0671 18.3335 17.2791 18.3335 17.5001C18.3335 17.7211 18.4213 17.9331 18.5776 18.0893C18.7339 18.2456 18.9458 18.3334 19.1668 18.3334Z" fill="white"/>
</svg>
