<svg width="24" height="24" viewBox="0 0 24 24" fill="none" xmlns="http://www.w3.org/2000/svg">
<path d="M19.375 15.103C20.0239 13.5613 20.1733 11.855 19.8021 10.224C19.431 8.59303 18.558 7.11938 17.306 6.01024C16.0539 4.9011 14.4857 4.21225 12.8219 4.04055C11.158 3.86884 9.48222 4.22292 8.03004 5.05299L7.03804 3.31599C8.55567 2.4486 10.2742 1.99435 12.0222 1.99856C13.7703 2.00278 15.4866 2.4653 17 3.33999C21.49 5.93199 23.21 11.482 21.117 16.11L22.459 16.884L18.294 19.098L18.129 14.384L19.375 15.103ZM4.62504 8.89699C3.97618 10.4387 3.82682 12.145 4.19796 13.776C4.56909 15.4069 5.44205 16.8806 6.69411 17.9897C7.94617 19.0989 9.51436 19.7877 11.1782 19.9594C12.842 20.1311 14.5179 19.7771 15.97 18.947L16.962 20.684C15.4444 21.5514 13.7258 22.0056 11.9778 22.0014C10.2298 21.9972 8.51347 21.5347 7.00004 20.66C2.51004 18.068 0.790039 12.518 2.88304 7.88999L1.54004 7.11699L5.70504 4.90299L5.87004 9.61699L4.62404 8.89799L4.62504 8.89699ZM8.50004 14H14C14.1326 14 14.2598 13.9473 14.3536 13.8535C14.4474 13.7598 14.5 13.6326 14.5 13.5C14.5 13.3674 14.4474 13.2402 14.3536 13.1464C14.2598 13.0527 14.1326 13 14 13H10C9.337 13 8.70111 12.7366 8.23227 12.2678C7.76343 11.7989 7.50004 11.163 7.50004 10.5C7.50004 9.83694 7.76343 9.20106 8.23227 8.73222C8.70111 8.26338 9.337 7.99999 10 7.99999H11V6.99999H13V7.99999H15.5V9.99999H10C9.86743 9.99999 9.74025 10.0527 9.64649 10.1464C9.55272 10.2402 9.50004 10.3674 9.50004 10.5C9.50004 10.6326 9.55272 10.7598 9.64649 10.8535C9.74025 10.9473 9.86743 11 10 11H14C14.6631 11 15.299 11.2634 15.7678 11.7322C16.2366 12.2011 16.5 12.8369 16.5 13.5C16.5 14.163 16.2366 14.7989 15.7678 15.2678C15.299 15.7366 14.6631 16 14 16H13V17H11V16H8.50004V14Z" fill="white"/>
</svg>
