<svg width="10" height="16" viewBox="0 0 10 16" fill="none" xmlns="http://www.w3.org/2000/svg">
<path d="M9.28 10.944C9.28 11.7867 8.96 12.5013 8.32 13.088C7.69067 13.6747 6.77333 14.016 5.568 14.112V15.92H4.544V14.112C3.76533 14.0693 3.024 13.9253 2.32 13.68C1.62667 13.424 1.072 13.104 0.656 12.72L1.248 11.472C1.632 11.824 2.11733 12.1173 2.704 12.352C3.29067 12.576 3.904 12.7093 4.544 12.752V9.04C3.79733 8.85867 3.17333 8.66133 2.672 8.448C2.18133 8.23467 1.76533 7.92 1.424 7.504C1.09333 7.088 0.928 6.544 0.928 5.872C0.928 5.02933 1.232 4.31467 1.84 3.728C2.45867 3.14133 3.36 2.8 4.544 2.704V0.879999H5.568V2.688C6.176 2.70933 6.76267 2.80533 7.328 2.976C7.904 3.14667 8.4 3.376 8.816 3.664L8.288 4.944C7.424 4.4 6.51733 4.10133 5.568 4.048V7.776C6.34667 7.968 6.98667 8.17067 7.488 8.384C7.98933 8.58667 8.41067 8.896 8.752 9.312C9.104 9.71733 9.28 10.2613 9.28 10.944ZM2.496 5.808C2.496 6.26667 2.672 6.624 3.024 6.88C3.376 7.136 3.88267 7.34933 4.544 7.52V4.064C3.86133 4.14933 3.34933 4.352 3.008 4.672C2.66667 4.98133 2.496 5.36 2.496 5.808ZM5.568 12.736C6.28267 12.672 6.816 12.4907 7.168 12.192C7.53067 11.8827 7.712 11.4987 7.712 11.04C7.712 10.5707 7.52533 10.2133 7.152 9.968C6.78933 9.712 6.26133 9.488 5.568 9.296V12.736Z" fill="#273A31" style="mix-blend-mode:darken"/>
</svg>
