<svg width="24" height="24" viewBox="0 0 24 24" fill="none" xmlns="http://www.w3.org/2000/svg">
<path fill-rule="evenodd" clip-rule="evenodd" d="M19.6692 7.5199L22.86 11.3489L19.6692 15.1778L18.5169 14.2176L20.2824 12.0989H11V10.5989H20.2824L18.5169 8.48017L19.6692 7.5199Z" fill="#E06A6A"/>
<mask id="path-2-inside-1" fill="white">
<path fill-rule="evenodd" clip-rule="evenodd" d="M15.1628 4H4V19.6279H15.1628V4ZM14 5H10V19H14V5Z"/>
</mask>
<path fill-rule="evenodd" clip-rule="evenodd" d="M15.1628 4H4V19.6279H15.1628V4ZM14 5H10V19H14V5Z" fill="#E06A6A"/>
<path d="M4 4V2H2V4H4ZM15.1628 4H17.1628V2H15.1628V4ZM4 19.6279H2V21.6279H4V19.6279ZM15.1628 19.6279V21.6279H17.1628V19.6279H15.1628ZM10 5V3H8V5H10ZM14 5H16V3H14V5ZM10 19H8V21H10V19ZM14 19V21H16V19H14ZM4 6H15.1628V2H4V6ZM6 19.6279V4H2V19.6279H6ZM15.1628 17.6279H4V21.6279H15.1628V17.6279ZM13.1628 4V19.6279H17.1628V4H13.1628ZM10 7H14V3H10V7ZM12 19V5H8V19H12ZM14 17H10V21H14V17ZM12 5V19H16V5H12Z" fill="#E06A6A" mask="url(#path-2-inside-1)"/>
</svg>
