<svg width="40" height="40" viewBox="0 0 40 40" fill="none" xmlns="http://www.w3.org/2000/svg">
<mask id="mask0" mask-type="alpha" maskUnits="userSpaceOnUse" x="0" y="0" width="40" height="40">
<rect width="40" height="40" fill="#C4C4C4"/>
</mask>
<g mask="url(#mask0)">
</g>
<g clip-path="url(#clip0)">
<path d="M11.5362 5.71387C8.83886 5.71387 6.66699 7.94779 6.66699 10.7222V28.1342C6.66699 30.9085 8.83886 33.1425 11.5362 33.1425H20.7112V22.4196H17.9545V18.559H20.7112V15.2607C20.7112 12.6694 22.34 10.2902 26.092 10.2902C27.6112 10.2902 28.7345 10.4402 28.7345 10.4402L28.6462 14.0453C28.6462 14.0453 27.5005 14.0342 26.2503 14.0342C24.8973 14.0342 24.6803 14.6754 24.6803 15.7399V18.5591H28.7537L28.5762 22.4196H24.6803V33.1425H28.4645C31.1618 33.1425 33.3337 30.9086 33.3337 28.1342V10.7222C33.3337 7.94781 31.1618 5.71389 28.4645 5.71389H11.5361L11.5362 5.71387Z" fill="#12AF65"/>
</g>
<defs>
<clipPath id="clip0">
<rect width="26.6667" height="27.4286" fill="white" transform="translate(6.66699 5.71387)"/>
</clipPath>
</defs>
</svg>
