<svg width="30" height="30" viewBox="0 0 30 30" fill="none" xmlns="http://www.w3.org/2000/svg">
<path d="M25 5H5C4.33696 5 3.70107 5.26339 3.23223 5.73223C2.76339 6.20107 2.5 6.83696 2.5 7.5V22.5C2.5 23.163 2.76339 23.7989 3.23223 24.2678C3.70107 24.7366 4.33696 25 5 25H25C25.663 25 26.2989 24.7366 26.7678 24.2678C27.2366 23.7989 27.5 23.163 27.5 22.5V7.5C27.5 6.83696 27.2366 6.20107 26.7678 5.73223C26.2989 5.26339 25.663 5 25 5ZM14.375 13.75H15.625C16.4538 13.6671 17.2816 13.9169 17.9262 14.4443C18.5709 14.9718 18.9796 15.7337 19.0625 16.5625C19.1454 17.3913 18.8956 18.2191 18.3682 18.8637C17.8407 19.5084 17.0788 19.9171 16.25 20C16.25 20.3315 16.1183 20.6495 15.8839 20.8839C15.6495 21.1183 15.3315 21.25 15 21.25C14.6685 21.25 14.3505 21.1183 14.1161 20.8839C13.8817 20.6495 13.75 20.3315 13.75 20H12.5C12.1685 20 11.8505 19.8683 11.6161 19.6339C11.3817 19.3995 11.25 19.0815 11.25 18.75C11.25 18.4185 11.3817 18.1005 11.6161 17.8661C11.8505 17.6317 12.1685 17.5 12.5 17.5H15.625C15.7908 17.5 15.9497 17.4342 16.0669 17.3169C16.1842 17.1997 16.25 17.0408 16.25 16.875C16.25 16.7092 16.1842 16.5503 16.0669 16.4331C15.9497 16.3158 15.7908 16.25 15.625 16.25H14.375C13.6 16.2508 12.8524 15.9636 12.2773 15.4441C11.7022 14.9247 11.3406 14.2101 11.2627 13.4391C11.1848 12.668 11.3962 11.8955 11.8558 11.2716C12.3155 10.6476 12.9905 10.2167 13.75 10.0625V10C13.75 9.66848 13.8817 9.35054 14.1161 9.11612C14.3505 8.8817 14.6685 8.75 15 8.75C15.3315 8.75 15.6495 8.8817 15.8839 9.11612C16.1183 9.35054 16.25 9.66848 16.25 10H17.5C17.8315 10 18.1495 10.1317 18.3839 10.3661C18.6183 10.6005 18.75 10.9185 18.75 11.25C18.75 11.5815 18.6183 11.8995 18.3839 12.1339C18.1495 12.3683 17.8315 12.5 17.5 12.5H14.375C14.2092 12.5 14.0503 12.5658 13.9331 12.6831C13.8158 12.8003 13.75 12.9592 13.75 13.125C13.75 13.2908 13.8158 13.4497 13.9331 13.5669C14.0503 13.6842 14.2092 13.75 14.375 13.75Z" fill="black"/>
</svg>
