<svg width="30" height="30" viewBox="0 0 30 30" fill="none" xmlns="http://www.w3.org/2000/svg">
<path d="M27.1377 12.8624L15.8877 1.61242C15.7715 1.49526 15.6332 1.40227 15.4809 1.33881C15.3286 1.27535 15.1652 1.24268 15.0002 1.24268C14.8352 1.24268 14.6718 1.27535 14.5195 1.33881C14.3671 1.40227 14.2289 1.49526 14.1127 1.61242L2.86267 12.8624C2.68923 13.0382 2.57173 13.2614 2.52501 13.5039C2.4783 13.7464 2.50445 13.9973 2.60017 14.2249C2.69395 14.4532 2.8532 14.6486 3.05785 14.7865C3.2625 14.9244 3.50339 14.9987 3.75017 14.9999H5.00017V26.2499C5.00017 26.5814 5.13187 26.8994 5.36629 27.1338C5.60071 27.3682 5.91865 27.4999 6.25017 27.4999H10.0002C10.3317 27.4999 10.6496 27.3682 10.8841 27.1338C11.1185 26.8994 11.2502 26.5814 11.2502 26.2499V18.7499C11.2502 18.4184 11.3819 18.1005 11.6163 17.866C11.8507 17.6316 12.1687 17.4999 12.5002 17.4999H17.5002C17.8317 17.4999 18.1496 17.6316 18.3841 17.866C18.6185 18.1005 18.7502 18.4184 18.7502 18.7499V26.2499C18.7502 26.5814 18.8819 26.8994 19.1163 27.1338C19.3507 27.3682 19.6687 27.4999 20.0002 27.4999H23.7502C24.0817 27.4999 24.3996 27.3682 24.6341 27.1338C24.8685 26.8994 25.0002 26.5814 25.0002 26.2499V14.9999H26.2502C26.497 14.9987 26.7379 14.9244 26.9425 14.7865C27.1472 14.6486 27.3064 14.4532 27.4002 14.2249C27.4959 13.9973 27.5221 13.7464 27.4753 13.5039C27.4286 13.2614 27.3111 13.0382 27.1377 12.8624Z" fill="black"/>
</svg>
