<svg width="40" height="40" viewBox="0 0 40 40" fill="none" xmlns="http://www.w3.org/2000/svg">
<mask id="mask0" mask-type="alpha" maskUnits="userSpaceOnUse" x="0" y="0" width="40" height="40">
<rect width="40" height="40" fill="#2B223E"/>
</mask>
<g mask="url(#mask0)">
<path d="M19.9958 15.9982C17.5475 15.9982 15.5495 18.0532 15.5495 20.5715C15.5495 23.0897 17.5475 25.1447 19.9958 25.1447C22.444 25.1447 24.442 23.0897 24.442 20.5715C24.442 18.0532 22.444 15.9982 19.9958 15.9982ZM33.3312 20.5715C33.3312 18.6776 33.3479 16.801 33.2445 14.9106C33.1411 12.7149 32.6541 10.7662 31.0931 9.16053C29.5287 7.55147 27.6375 7.054 25.5027 6.94764C23.6615 6.84129 21.837 6.85844 19.9991 6.85844C18.1579 6.85844 16.3334 6.84129 14.4955 6.94764C12.3607 7.054 10.4662 7.5549 8.90514 9.16053C7.34078 10.7696 6.85713 12.7149 6.75373 14.9106C6.65033 16.8044 6.66701 18.6811 6.66701 20.5715C6.66701 22.4618 6.65033 24.3419 6.75373 26.2323C6.85713 28.428 7.34412 30.3767 8.90514 31.9824C10.4695 33.5914 12.3607 34.0889 14.4955 34.1953C16.3367 34.3016 18.1612 34.2845 19.9991 34.2845C21.8403 34.2845 23.6648 34.3016 25.5027 34.1953C27.6375 34.0889 29.532 33.588 31.0931 31.9824C32.6574 30.3733 33.1411 28.428 33.2445 26.2323C33.3512 24.3419 33.3312 22.4653 33.3312 20.5715ZM19.9958 27.6081C16.2099 27.6081 13.1546 24.4654 13.1546 20.5715C13.1546 16.6775 16.2099 13.5348 19.9958 13.5348C23.7816 13.5348 26.8369 16.6775 26.8369 20.5715C26.8369 24.4654 23.7816 27.6081 19.9958 27.6081ZM27.1171 14.89C26.2332 14.89 25.5194 14.1558 25.5194 13.2466C25.5194 12.3375 26.2332 11.6033 27.1171 11.6033C28.001 11.6033 28.7148 12.3375 28.7148 13.2466C28.7151 13.4625 28.6739 13.6763 28.5937 13.8758C28.5135 14.0754 28.3959 14.2566 28.2475 14.4093C28.099 14.5619 27.9228 14.683 27.7288 14.7655C27.5349 14.848 27.327 14.8903 27.1171 14.89Z" fill="#12AF65"/>
</g>
</svg>
