<svg width="15" height="14" viewBox="0 0 15 14" fill="none" xmlns="http://www.w3.org/2000/svg">
<path d="M2.84636 5.78795L1.11129 7.52302C0.399744 8.23456 0 9.19963 0 10.2059C0 11.2122 0.399744 12.1773 1.11129 12.8888C1.82284 13.6004 2.78791 14.0001 3.7942 14.0001C4.80048 14.0001 5.76555 13.6004 6.4771 12.8888L8.78883 10.5758C9.21791 10.1467 9.53779 9.62086 9.72161 9.04252C9.90543 8.46418 9.94783 7.85017 9.84525 7.25205C9.74267 6.65393 9.49811 6.08914 9.13209 5.60509C8.76607 5.12105 8.28927 4.73186 7.74172 4.47021L7.00065 5.21128C6.92541 5.28664 6.85997 5.3712 6.8059 5.46294C7.22895 5.58456 7.61294 5.81448 7.9199 6.12998C8.22686 6.44548 8.44617 6.83562 8.55614 7.26185C8.66611 7.68807 8.66295 8.13562 8.54695 8.56025C8.43095 8.98487 8.20614 9.37187 7.89474 9.68299L5.58427 11.9947C5.10968 12.4693 4.466 12.7359 3.79483 12.7359C3.12366 12.7359 2.47997 12.4693 2.00538 11.9947C1.53079 11.5201 1.26417 10.8765 1.26417 10.2053C1.26417 9.53411 1.53079 8.89043 2.00538 8.41584L3.00823 7.41426C2.86674 6.88404 2.81207 6.33439 2.84636 5.78669V5.78795Z" fill="#EFF9F4"/>
<path d="M4.10707 6.31616L4.31827 6.10497C4.63158 5.7905 5.02251 5.56449 5.45138 5.44989C5.56598 5.02103 5.79199 4.63011 6.10646 4.31679L6.31766 4.1056C5.6815 4.06983 5.04657 4.19465 4.47129 4.46855C4.19307 5.05027 4.07166 5.68638 4.10707 6.3149V6.31616Z" fill="#EFF9F4"/>
<path d="M5.21257 3.42303C4.78349 3.85217 4.46361 4.37798 4.2798 4.95632C4.09598 5.53467 4.05358 6.14867 4.15615 6.7468C4.25873 7.34492 4.50329 7.90971 4.86931 8.39375C5.23533 8.8778 5.71212 9.26698 6.25967 9.52863L7.23975 8.54729C6.81098 8.43227 6.42003 8.20644 6.10619 7.89247C5.79235 7.57849 5.56668 7.18745 5.45185 6.75863C5.33701 6.32981 5.33707 5.87831 5.45201 5.44952C5.56695 5.02073 5.79273 4.62974 6.10665 4.31585L8.4171 2.00412C8.89169 1.52953 9.53537 1.26291 10.2065 1.26291C10.8777 1.26291 11.5214 1.52953 11.996 2.00412C12.4706 2.47871 12.7372 3.12239 12.7372 3.79356C12.7372 4.46473 12.4706 5.10842 11.996 5.58301L10.9931 6.58459C11.1348 7.11573 11.1891 7.66584 11.155 8.21216L12.8901 6.47709C13.6016 5.76554 14.0013 4.80048 14.0013 3.79419C14.0013 2.78791 13.6016 1.82284 12.8901 1.11129C12.1785 0.399744 11.2134 0 10.2072 0C9.20089 0 8.23583 0.399744 7.52428 1.11129L5.21257 3.42303Z" fill="#EFF9F4"/>
<path d="M9.52994 9.52847C9.80501 8.95355 9.93029 8.31844 9.89415 7.68213L9.68296 7.89332C9.36965 8.20779 8.97873 8.43379 8.54986 8.54839C8.43526 8.97726 8.20926 9.36818 7.89479 9.68149L7.68359 9.89268C8.31974 9.92845 8.95467 9.80364 9.52994 9.52974V9.52847Z" fill="#EFF9F4"/>
</svg>
