<svg width="8" height="11" viewBox="0 0 8 11" fill="none" xmlns="http://www.w3.org/2000/svg">
<rect x="0.5" y="4" width="7" height="6" rx="0.5" fill="white" stroke="white"/>
<path fill-rule="evenodd" clip-rule="evenodd" d="M2.70687 1.64055C2.50911 2.08555 2.50003 2.71476 2.50003 3.5H1.50003C1.50003 3.47964 1.50002 3.45916 1.50002 3.43856C1.49976 2.7358 1.49945 1.89508 1.79304 1.23445C1.95379 0.872718 2.20629 0.550772 2.59176 0.325919C2.97075 0.104854 3.43982 0 4.00003 0C4.56019 0 5.02924 0.104858 5.4082 0.325924C5.79366 0.550774 6.04616 0.872711 6.20692 1.23443C6.5006 1.89521 6.50028 2.73612 6.50002 3.43901C6.50001 3.45946 6.5 3.4798 6.5 3.50001L5.5 3.49999C5.50002 2.71479 5.49089 2.08557 5.29311 1.64057C5.20387 1.43979 5.08137 1.29298 4.90433 1.1897C4.7208 1.08264 4.43986 1 4.00003 1C3.56014 1 3.27916 1.08265 3.09562 1.18971C2.91858 1.29298 2.79609 1.43978 2.70687 1.64055Z" fill="white"/>
</svg>
