<svg width="8" height="11" viewBox="0 0 8 11" fill="none" xmlns="http://www.w3.org/2000/svg">
<rect x="0.5" y="4" width="7" height="6" rx="0.5" stroke="#E06A6A"/>
<path fill-rule="evenodd" clip-rule="evenodd" d="M2.50003 3.5C2.50003 2.71476 2.50911 2.08555 2.70687 1.64055C2.79609 1.43978 2.91858 1.29298 3.09562 1.18971C3.27916 1.08265 3.56014 1 4.00003 1C4.43986 1 4.7208 1.08264 4.90433 1.1897C5.08036 1.29239 5.20247 1.43811 5.29158 1.63714L6.16967 1.15473C6.00802 0.825553 5.76511 0.534119 5.4082 0.325924C5.02924 0.104858 4.56019 0 4.00003 0C3.43982 0 2.97075 0.104854 2.59176 0.325919C2.20629 0.550772 1.95379 0.872718 1.79304 1.23445C1.49945 1.89508 1.49976 2.7358 1.50002 3.43856L1.50003 3.5H2.50003Z" fill="#E06A6A"/>
</svg>
