<svg width="40" height="40" viewBox="0 0 40 40" fill="none" xmlns="http://www.w3.org/2000/svg">
<g clip-path="url(#clip0)">
<path d="M29.3668 20.6667C32.0348 20.6667 34.1808 18.4267 34.1808 15.6667C34.1808 12.9067 32.0348 10.6667 29.3668 10.6667C28.085 10.6667 26.8556 11.1935 25.9491 12.1312C25.0427 13.0689 24.5335 14.3407 24.5335 15.6667C24.5335 16.9928 25.0427 18.2646 25.9491 19.2023C26.8556 20.14 28.085 20.6667 29.3668 20.6667ZM14.8668 18.6667C18.0762 18.6667 20.6475 15.9867 20.6475 12.6667C20.6475 9.34675 18.0762 6.66675 14.8668 6.66675C11.6575 6.66675 9.06683 9.34675 9.06683 12.6667C9.06683 15.9867 11.6575 18.6667 14.8668 18.6667ZM29.3668 24.6667C25.8288 24.6667 18.7335 26.5067 18.7335 30.1667V34.6667H40.0002V30.1667C40.0002 26.5067 32.9048 24.6667 29.3668 24.6667ZM14.8668 22.6667C10.3622 22.6667 1.3335 25.0067 1.3335 29.6667V34.6667H14.8668V30.1667C14.8668 28.4667 15.5048 25.4867 19.4488 23.2267C17.7668 22.8667 16.1428 22.6667 14.8668 22.6667Z" fill="white"/>
</g>
<defs>
<clipPath id="clip0">
<rect width="40" height="40" fill="white"/>
</clipPath>
</defs>
</svg>
