<svg width="16" height="16" viewBox="0 0 16 16" fill="none" xmlns="http://www.w3.org/2000/svg">
<path d="M8.00721 6.10308C7.54002 6.10308 7.10252 6.28433 6.77127 6.61558C6.44158 6.94683 6.25877 7.38433 6.25877 7.85151C6.25877 8.3187 6.44158 8.7562 6.77127 9.08745C7.10252 9.41714 7.54002 9.59995 8.00721 9.59995C8.4744 9.59995 8.9119 9.41714 9.24315 9.08745C9.57283 8.7562 9.75565 8.3187 9.75565 7.85151C9.75565 7.38433 9.57283 6.94683 9.24315 6.61558C9.08135 6.45254 8.88878 6.32328 8.67661 6.2353C8.46444 6.14732 8.2369 6.10237 8.00721 6.10308ZM14.4494 9.78276L13.4275 8.90933C13.476 8.61245 13.501 8.30933 13.501 8.00776C13.501 7.7062 13.476 7.40151 13.4275 7.1062L14.4494 6.23276C14.5266 6.16668 14.5818 6.07866 14.6078 5.98042C14.6338 5.88217 14.6292 5.77835 14.5947 5.68276L14.5806 5.64214C14.2994 4.85572 13.878 4.12676 13.3369 3.49058L13.3088 3.45776C13.2431 3.3805 13.1555 3.32496 13.0576 3.29846C12.9597 3.27196 12.856 3.27575 12.7603 3.30933L11.4916 3.76089C11.0228 3.37651 10.501 3.07339 9.93533 2.86245L9.69002 1.53589C9.67151 1.43595 9.62304 1.34402 9.55103 1.27229C9.47903 1.20057 9.3869 1.15245 9.2869 1.13433L9.24471 1.12651C8.43221 0.979639 7.57596 0.979639 6.76346 1.12651L6.72127 1.13433C6.62127 1.15245 6.52914 1.20057 6.45714 1.27229C6.38513 1.34402 6.33665 1.43595 6.31815 1.53589L6.07127 2.8687C5.511 3.08132 4.98908 3.38371 4.52596 3.76401L3.24783 3.30933C3.15216 3.27549 3.04844 3.27156 2.95048 3.29808C2.85252 3.32459 2.76495 3.38029 2.6994 3.45776L2.67127 3.49058C2.1311 4.12743 1.70982 4.85621 1.42752 5.64214L1.41346 5.68276C1.34315 5.87808 1.40096 6.09683 1.55877 6.23276L2.59315 7.11558C2.54471 7.40933 2.52127 7.70933 2.52127 8.0062C2.52127 8.3062 2.54471 8.6062 2.59315 8.89683L1.5619 9.77964C1.4847 9.84572 1.42945 9.93374 1.4035 10.032C1.37754 10.1302 1.3821 10.234 1.41658 10.3296L1.43065 10.3703C1.71346 11.1562 2.13065 11.8828 2.6744 12.5218L2.70252 12.5546C2.76823 12.6319 2.85581 12.6874 2.95371 12.7139C3.05162 12.7404 3.15525 12.7366 3.25096 12.7031L4.52908 12.2484C4.99471 12.6312 5.51346 12.9343 6.0744 13.1437L6.32127 14.4765C6.33978 14.5764 6.38826 14.6684 6.46026 14.7401C6.53227 14.8118 6.62439 14.86 6.7244 14.8781L6.76658 14.8859C7.58708 15.0336 8.42734 15.0336 9.24783 14.8859L9.29002 14.8781C9.39003 14.86 9.48215 14.8118 9.55416 14.7401C9.62616 14.6684 9.67464 14.5764 9.69315 14.4765L9.93846 13.1499C10.5041 12.9374 11.026 12.6359 11.4947 12.2515L12.7635 12.7031C12.8591 12.7369 12.9628 12.7408 13.0608 12.7143C13.1588 12.6878 13.2463 12.6321 13.3119 12.5546L13.34 12.5218C13.8838 11.8796 14.301 11.1562 14.5838 10.3703L14.5978 10.3296C14.665 10.1359 14.6072 9.9187 14.4494 9.78276ZM8.00721 10.5984C6.49002 10.5984 5.26033 9.3687 5.26033 7.85151C5.26033 6.33433 6.49002 5.10464 8.00721 5.10464C9.5244 5.10464 10.7541 6.33433 10.7541 7.85151C10.7541 9.3687 9.5244 10.5984 8.00721 10.5984Z" fill="#12AF65"/>
</svg>
