<svg width="30" height="30" viewBox="0 0 30 30" fill="none" xmlns="http://www.w3.org/2000/svg">
<path d="M22.025 15.5C24.026 15.5 25.6355 13.82 25.6355 11.75C25.6355 9.68 24.026 8 22.025 8C21.0636 8 20.1416 8.39509 19.4617 9.09835C18.7819 9.80161 18.4 10.7554 18.4 11.75C18.4 12.7446 18.7819 13.6984 19.4617 14.4017C20.1416 15.1049 21.0636 15.5 22.025 15.5ZM11.15 14C13.557 14 15.4855 11.99 15.4855 9.5C15.4855 7.01 13.557 5 11.15 5C8.743 5 6.8 7.01 6.8 9.5C6.8 11.99 8.743 14 11.15 14ZM22.025 18.5C19.3715 18.5 14.05 19.88 14.05 22.625V26H30V22.625C30 19.88 24.6785 18.5 22.025 18.5ZM11.15 17C7.7715 17 1 18.755 1 22.25V26H11.15V22.625C11.15 21.35 11.6285 19.115 14.5865 17.42C13.325 17.15 12.107 17 11.15 17Z" fill="black"/>
</svg>
