<svg width="30" height="30" viewBox="0 0 30 30" fill="none" xmlns="http://www.w3.org/2000/svg">
<path d="M15.5144 1C16.5743 1.01149 17.6284 1.13354 18.6609 1.36329C18.8809 1.41219 19.08 1.52829 19.2305 1.69537C19.381 1.86245 19.4753 2.07217 19.5002 2.29522L19.7454 4.48789C19.7799 4.79721 19.8869 5.09413 20.0578 5.35473C20.2287 5.61533 20.4586 5.83233 20.7291 5.98825C20.9996 6.14416 21.3031 6.23463 21.6151 6.25238C21.9272 6.27012 22.239 6.21464 22.5256 6.0904L24.5445 5.2073C24.7496 5.11733 24.9777 5.09306 25.1973 5.13782C25.4169 5.18258 25.6171 5.29416 25.7702 5.45715C27.2294 7.00956 28.3161 8.87127 28.9484 10.9022C29.0148 11.1157 29.0128 11.3443 28.9427 11.5566C28.8727 11.7688 28.7381 11.9542 28.5577 12.0869L26.7666 13.4022C26.5146 13.5863 26.3097 13.827 26.1684 14.1048C26.0272 14.3825 25.9537 14.6895 25.9539 15.0008C25.954 15.3121 26.0278 15.6189 26.1692 15.8965C26.3107 16.1741 26.5159 16.4147 26.7681 16.5986L28.5605 17.9125C28.7413 18.0453 28.8761 18.2308 28.9461 18.4434C29.0161 18.6559 29.018 18.8849 28.9513 19.0986C28.3192 21.1293 27.233 22.9909 25.7745 24.5436C25.6217 24.7066 25.4218 24.8182 25.2025 24.8632C24.9832 24.9082 24.7553 24.8844 24.5502 24.7949L22.5227 23.9089C22.2365 23.7837 21.9248 23.7274 21.6127 23.7446C21.3005 23.7617 20.9969 23.8518 20.7263 24.0076C20.4556 24.1634 20.2257 24.3805 20.055 24.6412C19.8843 24.902 19.7778 25.1991 19.7439 25.5086L19.5002 27.6998C19.4757 27.9203 19.3835 28.1278 19.2361 28.2941C19.0888 28.4604 18.8934 28.5773 18.6768 28.6289C16.5881 29.1237 14.4119 29.1237 12.3232 28.6289C12.1063 28.5775 11.9107 28.4607 11.763 28.2944C11.6154 28.1281 11.5229 27.9204 11.4983 27.6998L11.2532 25.5114C11.2177 25.2034 11.1102 24.9078 10.9393 24.6486C10.7685 24.3893 10.5389 24.1735 10.2692 24.0186C9.99941 23.8636 9.69693 23.7737 9.386 23.7562C9.07506 23.7387 8.76433 23.7939 8.47872 23.9176L6.44977 24.8021C6.24468 24.8916 6.01677 24.9154 5.79748 24.8704C5.57818 24.8254 5.37833 24.7137 5.22548 24.5508C3.76624 22.9964 2.68006 21.1328 2.04867 19.1C1.98204 18.8864 1.98386 18.6574 2.05389 18.4448C2.12393 18.2323 2.25869 18.0467 2.43947 17.9139L4.23336 16.5986C4.4855 16.4145 4.69054 16.1739 4.83188 15.8963C4.97322 15.6186 5.04687 15.3117 5.04687 15.0004C5.04687 14.6891 4.97322 14.3822 4.83188 14.1045C4.69054 13.8268 4.4855 13.5862 4.23336 13.4022L2.44091 12.0897C2.25987 11.9571 2.12483 11.7717 2.05453 11.5591C1.98424 11.3465 1.98219 11.1174 2.04867 10.9037C2.68146 8.87257 3.76863 7.01085 5.22837 5.45859C5.38138 5.2959 5.58132 5.1845 5.8006 5.13975C6.01989 5.095 6.24771 5.1191 6.45266 5.20873L8.47151 6.09183C8.7585 6.21571 9.07067 6.27084 9.38294 6.25278C9.69522 6.23473 9.99888 6.14399 10.2695 5.98786C10.5402 5.83174 10.7703 5.61458 10.9414 5.35382C11.1125 5.09307 11.2198 4.79599 11.2546 4.48646L11.4998 2.29522C11.5245 2.07172 11.6189 1.86154 11.7697 1.69415C11.9204 1.52677 12.1201 1.41057 12.3405 1.36186C13.3759 1.13354 14.4315 1.01292 15.5159 1H15.5144ZM17.7727 9.25664H13.0543L17.5318 15.0004L13.5331 20.0463C13.4826 20.1098 13.4512 20.1863 13.4424 20.2668C13.4336 20.3473 13.4478 20.4287 13.4833 20.5015C13.5189 20.5744 13.5743 20.6358 13.6433 20.6787C13.7123 20.7216 13.792 20.7443 13.8734 20.7441H17.7727C17.8386 20.7442 17.9037 20.7291 17.9629 20.7003C18.0221 20.6714 18.074 20.6294 18.1144 20.5776L22.1204 15.4412C22.2189 15.3152 22.2723 15.1601 22.2723 15.0004C22.2723 14.8407 22.2189 14.6856 22.1204 14.5596L18.1144 9.42321C18.0738 9.37115 18.0218 9.32906 17.9623 9.30018C17.9028 9.27131 17.8374 9.25641 17.7712 9.25664H17.7727ZM12.1516 10.4097L8.88682 14.5581C8.80215 14.6658 8.75012 14.7953 8.73683 14.9313C8.72355 15.0674 8.74957 15.2045 8.81183 15.3263L8.88682 15.4427L11.7738 19.1129L11.8459 19.1847C11.9223 19.2448 12.0168 19.2775 12.1141 19.2775C12.2114 19.2775 12.3059 19.2448 12.3823 19.1847L12.453 19.1143L14.3795 16.702C14.4276 16.642 14.4587 16.5703 14.4696 16.4943C14.4805 16.4183 14.4708 16.3408 14.4415 16.2698L14.381 16.1692L13.461 15.0004L14.5857 13.5702L12.1516 10.4097Z" fill="black"/>
</svg>
