<svg width="20" height="20" viewBox="0 0 20 20" fill="none" xmlns="http://www.w3.org/2000/svg">
<path d="M10.7143 7H4.28571C3.57664 7 3 7.57664 3 8.28571V14.7143C3 15.4234 3.57664 16 4.28571 16H10.7143C11.4234 16 12 15.4234 12 14.7143V8.28571C12 7.57664 11.4234 7 10.7143 7Z" fill="#6A7DE0" style="mix-blend-mode:darken"/>
<path d="M14.7143 3H8.28571C7.94472 3 7.6177 3.13546 7.37658 3.37658C7.13546 3.6177 7 3.94472 7 4.28571V5.57143H12.1429C12.4838 5.57143 12.8109 5.70689 13.052 5.94801C13.2931 6.18912 13.4286 6.51615 13.4286 6.85714V12H14.7143C15.0553 12 15.3823 11.8645 15.6234 11.6234C15.8645 11.3823 16 11.0553 16 10.7143V4.28571C16 3.94472 15.8645 3.6177 15.6234 3.37658C15.3823 3.13546 15.0553 3 14.7143 3Z" fill="#6A7DE0" style="mix-blend-mode:darken"/>
</svg>
