<svg width="20" height="20" viewBox="0 0 20 20" fill="none" xmlns="http://www.w3.org/2000/svg">
<path d="M10.0003 1.66675C5.40533 1.66675 1.66699 5.40508 1.66699 10.0001C1.66699 14.5951 5.40533 18.3334 10.0003 18.3334C14.5953 18.3334 18.3337 14.5951 18.3337 10.0001C18.3337 5.40508 14.5953 1.66675 10.0003 1.66675ZM10.8337 14.0959V15.0001H9.16699V14.1001C7.21783 13.7942 6.66699 12.4317 6.66699 11.6667H8.33366C8.34283 11.7859 8.46616 12.5001 10.0003 12.5001C11.1503 12.5001 11.667 12.0126 11.667 11.6667C11.667 11.3967 11.667 10.8334 10.0003 10.8334C7.10033 10.8334 6.66699 9.26675 6.66699 8.33342C6.66699 7.26008 7.52449 6.18008 9.16699 5.90425V5.01008H10.8337V5.93425C12.2787 6.27591 12.8337 7.47842 12.8337 8.33342H12.0003L11.167 8.34841C11.1553 8.03175 10.9878 7.50008 10.0003 7.50008C8.91783 7.50008 8.33366 7.93008 8.33366 8.33342C8.33366 8.64508 8.33366 9.16675 10.0003 9.16675C12.9003 9.16675 13.3337 10.7334 13.3337 11.6667C13.3337 12.7401 12.4762 13.8201 10.8337 14.0959Z" fill="#12AF65"/>
</svg>
