<svg width="26" height="26" viewBox="0 0 26 26" fill="none" xmlns="http://www.w3.org/2000/svg">
<path fill-rule="evenodd" clip-rule="evenodd" d="M7.58333 17.3333C7.58333 16.7375 8.07083 16.25 8.66667 16.25C9.2625 16.25 9.75 16.7375 9.75 17.3333C9.75 17.9291 9.2625 18.4166 8.66667 18.4166C8.07083 18.4166 7.58333 17.9291 7.58333 17.3333ZM13 16.25H17.3333C17.9292 16.25 18.4167 16.7375 18.4167 17.3333C18.4167 17.9291 17.9292 18.4166 17.3333 18.4166H13C12.4042 18.4166 11.9167 17.9291 11.9167 17.3333C11.9167 16.7375 12.4042 16.25 13 16.25ZM19.5 21.6666H6.5C5.90308 21.6666 5.41667 21.1802 5.41667 20.5833V14.0833H20.5833V20.5833C20.5833 21.1802 20.0969 21.6666 19.5 21.6666ZM6.5 6.49996H7.58333V7.58329C7.58333 8.17913 8.07083 8.66663 8.66667 8.66663C9.2625 8.66663 9.75 8.17913 9.75 7.58329V6.49996H16.25V7.58329C16.25 8.17913 16.7375 8.66663 17.3333 8.66663C17.9292 8.66663 18.4167 8.17913 18.4167 7.58329V6.49996H19.5C20.0969 6.49996 20.5833 6.98638 20.5833 7.58329V11.9166H5.41667V7.58329C5.41667 6.98638 5.90308 6.49996 6.5 6.49996ZM19.5 4.33329H18.4167V3.24996C18.4167 2.65413 17.9292 2.16663 17.3333 2.16663C16.7375 2.16663 16.25 2.65413 16.25 3.24996V4.33329H9.75V3.24996C9.75 2.65413 9.2625 2.16663 8.66667 2.16663C8.07083 2.16663 7.58333 2.65413 7.58333 3.24996V4.33329H6.5C4.70817 4.33329 3.25 5.79146 3.25 7.58329V20.5833C3.25 22.3751 4.70817 23.8333 6.5 23.8333H19.5C21.2918 23.8333 22.75 22.3751 22.75 20.5833V7.58329C22.75 5.79146 21.2918 4.33329 19.5 4.33329Z" fill="black"/>
</svg>
