<svg width="21" height="22" viewBox="0 0 21 22" fill="none" xmlns="http://www.w3.org/2000/svg">
<path d="M10.4309 9.5061C13.7646 9.5061 17.1386 8.30814 17.1386 6.0186C17.1386 3.72905 13.7646 2.5311 10.4309 2.5311C7.09713 2.5311 3.72314 3.72905 3.72314 6.0186C3.72314 8.30814 7.09713 9.5061 10.4309 9.5061Z" fill="#282B31"/>
<path d="M3.72314 9.5061C3.72314 11.7956 7.09713 12.9936 10.4309 12.9936C13.7646 12.9936 17.1386 11.7956 17.1386 9.5061V7.76235C17.1386 10.0519 13.7646 11.2498 10.4309 11.2498C7.09713 11.2498 3.72314 10.0519 3.72314 7.76235V9.5061Z" fill="#282B31"/>
<path d="M3.72314 12.9936C3.72314 15.2831 7.09713 16.4811 10.4309 16.4811C13.7646 16.4811 17.1386 15.2831 17.1386 12.9936V11.2499C17.1386 13.5394 13.7646 14.7374 10.4309 14.7374C7.09713 14.7374 3.72314 13.5394 3.72314 11.2499V12.9936Z" fill="#282B31"/>
<path d="M3.72314 16.4811C3.72314 18.7707 7.09713 19.9686 10.4309 19.9686C13.7646 19.9686 17.1386 18.7707 17.1386 16.4811V14.7374C17.1386 17.0269 13.7646 18.2249 10.4309 18.2249C7.09713 18.2249 3.72314 17.0269 3.72314 14.7374V16.4811Z" fill="#282B31"/>
</svg>
