<svg width="26" height="26" viewBox="0 0 26 26" fill="none" xmlns="http://www.w3.org/2000/svg">
<path fill-rule="evenodd" clip-rule="evenodd" d="M8.11963 10.3095C5.91829 12.6917 5.96488 16.4682 8.25938 18.8072C9.37954 19.9522 10.868 20.5838 12.454 20.5849H12.4595C14.0487 20.5849 15.5426 19.9533 16.6682 18.8072C19.0039 16.426 18.9995 12.5531 16.6585 10.1752L13.4236 6.86991C13.0965 9.55874 12.0879 11.9182 10.2917 11.9182C9.74138 11.9182 8.84438 11.6734 8.11963 10.3095ZM12.4595 22.7516H12.4519C10.2787 22.7494 8.23988 21.8882 6.71129 20.3227C3.55446 17.1052 3.55013 11.8695 6.70154 8.65741L7.76646 7.58057C8.04163 7.30541 8.44138 7.19924 8.81946 7.29782C9.19538 7.39966 9.48788 7.69541 9.58538 8.07241C9.83454 9.03549 10.1314 9.50891 10.295 9.68874C10.6795 9.28357 11.375 7.64666 11.375 4.87657C11.375 4.71732 11.375 4.56674 11.3664 4.41616C11.3458 4.09657 11.4682 3.78349 11.7 3.56249C12.1301 3.15407 12.8191 3.15407 13.2319 3.57874L18.2044 8.65849C21.3677 11.8695 21.3731 17.1052 18.2152 20.3238C16.678 21.8903 14.6348 22.7516 12.4595 22.7516Z" fill="black"/>
</svg>
