<svg width="23" height="29" viewBox="0 0 23 29" fill="none" xmlns="http://www.w3.org/2000/svg">
<path d="M11.0287 14.1829C14.253 14.1829 16.8671 11.008 16.8671 7.09149C16.8671 3.17492 16.0089 0 11.0287 0C6.0486 0 5.1902 3.17492 5.1902 7.09149C5.1902 11.008 7.80426 14.1829 11.0287 14.1829Z" fill="#4339F2"/>
<path d="M0.0011481 25.0107C0.000153817 24.7719 -0.000840469 24.9434 0.0011481 25.0107V25.0107Z" fill="#4339F2"/>
<path d="M22.0557 25.1971C22.0589 25.1318 22.0568 24.7436 22.0557 25.1971V25.1971Z" fill="#4339F2"/>
<path d="M22.0432 24.7243C21.9351 17.9017 21.0441 15.9576 14.2255 14.7271C14.2255 14.7271 13.2657 15.9501 11.0285 15.9501C8.7914 15.9501 7.83142 14.7271 7.83142 14.7271C1.08726 15.9442 0.14203 17.8595 0.0177442 24.5027C0.00755277 25.0452 0.00282994 25.0737 0.00100708 25.0107C0.00142137 25.1287 0.00191832 25.3469 0.00191832 25.7275C0.00191832 25.7275 1.62525 29 11.0285 29C20.4317 29 22.0552 25.7275 22.0552 25.7275C22.0552 25.483 22.0553 25.313 22.0556 25.1973C22.0538 25.2362 22.0501 25.1608 22.0432 24.7243Z" fill="#4339F2"/>
</svg>
