<svg width="13" height="9" viewBox="0 0 13 9" fill="none" xmlns="http://www.w3.org/2000/svg">
<path d="M12.2093 2.71875L6.82645 8.09431C6.73456 8.1862 6.62574 8.23214 6.5 8.23214C6.37426 8.23214 6.26544 8.1862 6.17355 8.09431L0.790737 2.71875C0.698847 2.62686 0.652902 2.51804 0.652902 2.3923C0.652902 2.26172 0.698847 2.15048 0.790737 2.05859L1.99498 0.861606C2.08687 0.769717 2.19568 0.723772 2.32143 0.723772C2.44717 0.723772 2.55599 0.769717 2.64788 0.861606L6.5 4.71373L10.3521 0.861606C10.444 0.769717 10.5528 0.723772 10.6786 0.723772C10.8043 0.723772 10.9131 0.769717 11.005 0.861606L12.2093 2.05859C12.3012 2.15048 12.3471 2.26172 12.3471 2.3923C12.3471 2.51804 12.3012 2.62686 12.2093 2.71875Z" fill="#1750FF"/>
</svg>
