<svg width="19" height="20" viewBox="0 0 19 20" fill="none" xmlns="http://www.w3.org/2000/svg">
<path fill-rule="evenodd" clip-rule="evenodd" d="M14.5755 9.47508H10.1037V4.82508C10.1037 4.3965 9.76979 4.05008 9.35839 4.05008C8.94698 4.05008 8.61309 4.3965 8.61309 4.82508V9.47508H4.1413C3.72989 9.47508 3.396 9.82151 3.396 10.2501C3.396 10.6787 3.72989 11.0251 4.1413 11.0251H8.61309V15.6751C8.61309 16.1037 8.94698 16.4501 9.35839 16.4501C9.76979 16.4501 10.1037 16.1037 10.1037 15.6751V11.0251H14.5755C14.9869 11.0251 15.3208 10.6787 15.3208 10.2501C15.3208 9.82151 14.9869 9.47508 14.5755 9.47508Z" fill="#231F20"/>
<mask id="mask0" mask-type="alpha" maskUnits="userSpaceOnUse" x="3" y="4" width="13" height="13">
<path fill-rule="evenodd" clip-rule="evenodd" d="M14.5755 9.47508H10.1037V4.82508C10.1037 4.3965 9.76979 4.05008 9.35839 4.05008C8.94698 4.05008 8.61309 4.3965 8.61309 4.82508V9.47508H4.1413C3.72989 9.47508 3.396 9.82151 3.396 10.2501C3.396 10.6787 3.72989 11.0251 4.1413 11.0251H8.61309V15.6751C8.61309 16.1037 8.94698 16.4501 9.35839 16.4501C9.76979 16.4501 10.1037 16.1037 10.1037 15.6751V11.0251H14.5755C14.9869 11.0251 15.3208 10.6787 15.3208 10.2501C15.3208 9.82151 14.9869 9.47508 14.5755 9.47508Z" fill="white"/>
</mask>
<g mask="url(#mask0)">
<rect x="0.415039" y="0.950073" width="17.8872" height="18.6" fill="white"/>
</g>
</svg>
