<svg width="26" height="26" viewBox="0 0 26 26" fill="none" xmlns="http://www.w3.org/2000/svg">
<path fill-rule="evenodd" clip-rule="evenodd" d="M4.76975 12.5906C5.97875 13.0055 6.94184 14.0173 7.34484 15.3L7.38817 15.43C7.84967 16.7907 7.66225 18.2553 6.88875 19.3538C6.74792 19.5532 6.77934 19.7915 6.92775 19.9042L9.17242 21.6093C9.2515 21.6689 9.32842 21.6689 9.37609 21.6635C9.43026 21.6548 9.50934 21.6256 9.57326 21.5346L9.8235 21.1792C10.5699 20.1208 11.7724 19.4676 13.0421 19.4307C14.4678 19.4015 15.7483 20.0547 16.5456 21.2063L16.6734 21.3916C16.7373 21.4826 16.8153 21.5129 16.8706 21.5216C16.9183 21.5313 16.9963 21.5281 17.0743 21.4674L19.307 19.7828C19.463 19.6658 19.4977 19.4156 19.3818 19.2477L19.1001 18.8414C18.3743 17.7927 18.1587 16.4321 18.5238 15.2025C18.9203 13.8635 19.9288 12.804 21.2234 12.3707L21.4412 12.297C21.6156 12.2396 21.7098 12.0229 21.6481 11.8236L20.7955 9.0925C20.7554 8.96466 20.6731 8.90725 20.6276 8.88341C20.5626 8.84983 20.4922 8.84441 20.425 8.86716L20.0567 8.98958C18.7968 9.40883 17.4068 9.18133 16.3398 8.37858L16.2228 8.29083C15.2088 7.52816 14.6053 6.29858 14.6097 5.00291L14.6118 4.69958C14.6118 4.5555 14.5436 4.46558 14.5024 4.42441C14.4634 4.38433 14.3973 4.33666 14.3042 4.33666L11.5449 4.33341C11.3759 4.33341 11.2383 4.49483 11.2373 4.69416L11.2362 4.95633C11.2308 6.27258 10.6143 7.52491 9.58734 8.30816L9.44759 8.41433C8.31767 9.27341 6.84434 9.51608 5.50967 9.06108C5.45875 9.04375 5.41109 9.047 5.36559 9.07083C5.33092 9.08816 5.26809 9.13258 5.23775 9.23116L4.35267 12.0435C4.28875 12.2482 4.39384 12.4617 4.59209 12.5299L4.76975 12.5906ZM9.33167 23.8334C8.80517 23.8334 8.29384 23.6622 7.86267 23.334L5.618 21.6299C4.5455 20.8174 4.30825 19.2542 5.08825 18.1459C5.49342 17.5717 5.57684 16.834 5.3385 16.1342L5.27892 15.9522C5.08067 15.3217 4.62784 14.832 4.06775 14.6402H4.06667L3.89009 14.5785C2.57059 14.1267 1.86642 12.7282 2.28567 11.3935L3.16967 8.58225C3.37009 7.94633 3.80234 7.43283 4.38734 7.13708C4.95934 6.84891 5.60609 6.8045 6.21059 7.01141C6.8595 7.23241 7.57992 7.11216 8.13567 6.68966L8.27542 6.5835C8.76942 6.2065 9.06734 5.59441 9.0695 4.94766L9.07059 4.68658C9.076 3.29558 10.1864 2.16675 11.5438 2.16675H11.5482L14.3074 2.17C14.9596 2.17108 15.5749 2.42891 16.0386 2.89583C16.5185 3.37791 16.7807 4.0225 16.7785 4.71041L16.7763 5.01266C16.7742 5.62583 17.0548 6.20541 17.5282 6.56075L17.6441 6.6485C18.1413 7.02225 18.7892 7.1295 19.3709 6.9345L19.7382 6.81208C20.3633 6.60408 21.0284 6.655 21.6145 6.95508C22.2158 7.26275 22.6599 7.7925 22.8636 8.44791L23.7162 11.179C24.1278 12.4985 23.415 13.922 22.1291 14.3521L21.9113 14.4247C21.2873 14.6348 20.7966 15.1548 20.6005 15.8178C20.4207 16.4256 20.5247 17.094 20.8811 17.6075L21.1628 18.0137C21.9363 19.1317 21.6893 20.7004 20.6124 21.5118L18.3797 23.1975C17.8434 23.6027 17.1858 23.7662 16.5261 23.6612C15.8609 23.5539 15.2803 23.1856 14.8913 22.6244L14.7635 22.4381C14.3843 21.8921 13.7777 21.5606 13.1418 21.5963C12.5048 21.6137 11.9544 21.9159 11.5948 22.4272L11.3445 22.7826C10.9523 23.3383 10.3706 23.7012 9.70867 23.8052C9.58192 23.8247 9.45625 23.8334 9.33167 23.8334ZM13.0001 11.375C12.1041 11.375 11.3751 12.1041 11.3751 13C11.3751 13.8959 12.1041 14.625 13.0001 14.625C13.896 14.625 14.6251 13.8959 14.6251 13C14.6251 12.1041 13.896 11.375 13.0001 11.375ZM13.0001 16.7916C10.9092 16.7916 9.20839 15.0908 9.20839 13C9.20839 10.9091 10.9092 9.20831 13.0001 9.20831C15.0909 9.20831 16.7917 10.9091 16.7917 13C16.7917 15.0908 15.0909 16.7916 13.0001 16.7916Z" fill="black"/>
</svg>
