<svg width="19" height="23" viewBox="0 0 19 23" fill="none" xmlns="http://www.w3.org/2000/svg">
<path d="M9.50038 11.2485C12.0585 11.2485 14.1325 8.73047 14.1325 5.62429C14.1325 2.51804 13.4515 0 9.50038 0C5.54921 0 4.86816 2.51804 4.86816 5.62429C4.86816 8.73047 6.94212 11.2485 9.50038 11.2485Z" fill="#4339F2"/>
<path d="M0.750911 19.836C0.750122 19.6466 0.749333 19.7827 0.750911 19.836V19.836Z" fill="#4339F2"/>
<path d="M18.2485 19.984C18.251 19.9321 18.2494 19.6243 18.2485 19.984V19.984Z" fill="#4339F2"/>
<path d="M18.239 19.609C18.1532 14.1979 17.4463 12.6561 12.0365 11.6801C12.0365 11.6801 11.275 12.6501 9.50008 12.6501C7.72516 12.6501 6.96352 11.6801 6.96352 11.6801C1.6128 12.6454 0.862862 14.1644 0.764256 19.4332C0.75617 19.8634 0.752423 19.886 0.750977 19.8361C0.751305 19.9297 0.7517 20.1027 0.7517 20.4046C0.7517 20.4046 2.03963 23 9.50008 23C16.9604 23 18.2485 20.4046 18.2485 20.4046C18.2485 20.2106 18.2486 20.0758 18.2488 19.9841C18.2474 20.0149 18.2445 19.9551 18.239 19.609Z" fill="#4339F2"/>
</svg>
