<svg width="26" height="26" viewBox="0 0 26 26" fill="none" xmlns="http://www.w3.org/2000/svg">
<path fill-rule="evenodd" clip-rule="evenodd" d="M20.5833 22.6296C20.5833 23.294 20.0644 23.8333 19.4225 23.8333C18.7807 23.8333 18.2618 23.294 18.2618 22.6296C18.2618 19.311 15.6583 16.6111 12.4583 16.6111C9.25816 16.6111 6.65468 19.311 6.65468 22.6296C6.65468 23.294 6.13584 23.8333 5.49397 23.8333C4.85209 23.8333 4.33325 23.294 4.33325 22.6296C4.33325 17.9833 7.97906 14.2037 12.4583 14.2037C16.9374 14.2037 20.5833 17.9833 20.5833 22.6296M12.4582 4.57403C13.7385 4.57403 14.7797 5.65376 14.7797 6.98144C14.7797 8.30913 13.7385 9.38885 12.4582 9.38885C11.178 9.38885 10.1368 8.30913 10.1368 6.98144C10.1368 5.65376 11.178 4.57403 12.4582 4.57403M12.4583 11.7963C15.0188 11.7963 17.1011 9.63681 17.1011 6.98144C17.1011 4.32607 15.0188 2.16663 12.4583 2.16663C9.89772 2.16663 7.8154 4.32607 7.8154 6.98144C7.8154 9.63681 9.89772 11.7963 12.4583 11.7963" fill="black"/>
</svg>
