<svg width="16" height="21" viewBox="0 0 16 21" fill="none" xmlns="http://www.w3.org/2000/svg">
<circle cx="8" cy="9" r="8" fill="#FF0000"/>
<path d="M8.744 14H7.134V7.7H8.744V14ZM6.966 5.432C6.966 5.152 7.05933 4.928 7.246 4.76C7.442 4.58267 7.68467 4.494 7.974 4.494C8.226 4.494 8.44067 4.58267 8.618 4.76C8.80467 4.93733 8.898 5.16133 8.898 5.432C8.898 5.73067 8.80467 5.97333 8.618 6.16C8.44067 6.34667 8.226 6.44 7.974 6.44C7.68467 6.44 7.442 6.34667 7.246 6.16C7.05933 5.97333 6.966 5.73067 6.966 5.432Z" fill="white"/>
</svg>
