<svg width="22" height="32" viewBox="0 0 22 32" fill="none" xmlns="http://www.w3.org/2000/svg">
<path d="M21.1333 16.7879C20.426 15.8266 19.3587 15.1663 17.9313 14.8074C19.7489 13.8329 20.5477 12.179 20.3284 9.84544C20.2551 8.99923 20.0326 8.26584 19.6604 7.6442C19.2879 7.02242 18.7853 6.52256 18.1506 6.14442C17.5164 5.7658 16.8266 5.47758 16.0829 5.27887C15.3389 5.08017 14.4849 4.93589 13.5212 4.84624V0H10.7037V4.71159C10.2158 4.71159 9.47175 4.72439 8.47161 4.75005V0H5.65373V4.84624C5.25107 4.8591 4.65955 4.86564 3.87891 4.86564L0 4.84624V8.00019H2.03084C2.95792 8.00019 3.50073 8.43619 3.65928 9.30786V14.8273C3.78143 14.8273 3.87891 14.8339 3.95216 14.8467H3.65928V22.5772C3.56181 23.2309 3.20811 23.5581 2.59814 23.5581H0.567423L0.000128103 27.0774H3.6596C3.89141 27.0774 4.22664 27.0807 4.66596 27.0865C5.10501 27.0929 5.43423 27.0962 5.65385 27.0962V32H8.47219V27.1538C8.98437 27.167 9.72842 27.1732 10.7043 27.1732V32H13.5218V27.0962C14.5223 27.045 15.4096 26.9493 16.1839 26.8078C16.9585 26.6663 17.6997 26.4455 18.407 26.144C19.1143 25.8429 19.7058 25.4677 20.1815 25.0189C20.6574 24.5706 21.0504 23.9998 21.362 23.3074C21.6726 22.6149 21.871 21.8137 21.9562 20.9032C22.1154 19.1216 21.8408 17.7496 21.1333 16.7879ZM8.52641 8.21115C8.61184 8.21115 8.85274 8.20792 9.24918 8.20145C9.64581 8.19485 9.97502 8.18852 10.2373 8.18205C10.4996 8.17572 10.8533 8.19175 11.2987 8.23021C11.7439 8.26867 12.119 8.32007 12.4238 8.38406C12.7287 8.44805 13.0644 8.55386 13.4301 8.70131C13.7963 8.84862 14.0889 9.0282 14.3082 9.2397C14.5279 9.4512 14.7139 9.72056 14.8661 10.0475C15.0188 10.3744 15.095 10.7494 15.095 11.1724C15.095 11.5314 15.0402 11.8584 14.9306 12.1534C14.8211 12.4483 14.656 12.6951 14.4367 12.8938C14.2174 13.0926 13.9913 13.2659 13.7595 13.4132C13.5279 13.5605 13.2318 13.6792 12.8721 13.7688C12.5125 13.8586 12.1984 13.9291 11.9302 13.9803C11.6618 14.0316 11.3264 14.067 10.9238 14.0861C10.5212 14.1053 10.2161 14.1183 10.0089 14.1247C9.80141 14.131 9.51789 14.131 9.15792 14.1247C8.79788 14.1183 8.58774 14.115 8.5266 14.115V8.21108H8.52641V8.21115ZM16.2207 21.3073C16.1045 21.6023 15.9553 21.8589 15.7724 22.077C15.5893 22.2945 15.3482 22.487 15.0495 22.6535C14.7509 22.8204 14.4609 22.9548 14.1806 23.0573C13.8999 23.1603 13.5612 23.2496 13.1652 23.3268C12.7682 23.4038 12.4208 23.4579 12.1217 23.4902C11.823 23.5223 11.4663 23.5478 11.0514 23.5672C10.6368 23.5861 10.3134 23.5959 10.0817 23.5959C9.84993 23.5959 9.55711 23.5924 9.20336 23.5861C8.84941 23.5801 8.62395 23.5769 8.52628 23.5769V17.0765C8.62376 17.0765 8.91349 17.0703 9.39542 17.0572C9.87742 17.0443 10.2706 17.0383 10.5756 17.0383C10.8805 17.0383 11.3015 17.0572 11.8384 17.0959C12.3748 17.1341 12.8262 17.1916 13.1924 17.2685C13.5582 17.3456 13.9574 17.464 14.3908 17.6244C14.8237 17.7846 15.1746 17.9801 15.443 18.2108C15.7114 18.442 15.9369 18.7364 16.1198 19.0955C16.3032 19.4544 16.3946 19.8647 16.3946 20.3264C16.3946 20.6858 16.3367 21.0122 16.2207 21.3073Z" fill="white"/>
</svg>
