<svg width="12" height="12" viewBox="0 0 12 12" fill="none" xmlns="http://www.w3.org/2000/svg">
<path d="M5.99951 0C2.69101 0 -0.000488281 2.6915 -0.000488281 6C-0.000488281 9.3085 2.69101 12 5.99951 12C9.30801 12 11.9995 9.3085 11.9995 6C11.9995 2.6915 9.30801 0 5.99951 0ZM9.04051 4.7285L5.79051 7.9785C5.69301 8.076 5.56501 8.125 5.43701 8.125C5.30901 8.125 5.18101 8.076 5.08351 7.9785L3.45851 6.3535C3.26301 6.158 3.26301 5.842 3.45851 5.6465C3.65401 5.451 3.97001 5.451 4.16551 5.6465L5.43701 6.918L8.33351 4.0215C8.52901 3.826 8.84501 3.826 9.04051 4.0215C9.23601 4.217 9.23601 4.533 9.04051 4.7285Z" fill="white"/>
</svg>
