<svg width="32" height="32" viewBox="0 0 32 32" fill="none" xmlns="http://www.w3.org/2000/svg">
<path fill-rule="evenodd" clip-rule="evenodd" d="M32 16C32 24.8366 24.8366 32 16 32C7.16344 32 0 24.8366 0 16C0 7.16344 7.16344 0 16 0C24.8366 0 32 7.16344 32 16ZM4.72021 10.368V10.3681H4.74377C5.27015 10.3713 6.27502 10.4818 6.28809 10.9037V16.1921H8.01609V10.3692C8.07215 10.3691 8.13416 10.3686 8.20102 10.368H8.20103H8.20104C8.76403 10.3631 9.67123 10.3552 10.2718 10.6412C11.6638 11.304 11.8398 11.8892 11.8398 13.6172C11.8398 15.3452 10.7678 16.1132 9.03976 16.5132C7.65736 16.8332 4.20776 16.5398 2.65576 16.3532C3.83443 16.6625 6.76136 17.2299 9.03976 17.0252C11.8878 16.7691 12.7838 15.8732 13.1038 15.0412C13.4238 14.2092 13.5198 12.2412 12.7838 11.0252C12.0448 9.80425 9.84013 9.79315 8.01621 9.79315V9.79211H8.01609H6.28809H4.72021V10.368ZM4.72021 21.6002V22.1762H9.71222V21.6002H4.72021ZM8.01609 17.472H6.28809V20.9601C6.23475 21.1414 6.03209 21.5233 5.64809 21.6001H6.28809V21.6H8.01609V17.472ZM8.01611 20.9601C8.06945 21.1414 8.27211 21.5233 8.65611 21.6001H8.01611V20.9601ZM14.2559 10.3679V10.368H14.2794C14.8092 10.3712 15.8239 10.4832 15.8239 10.9119L15.4077 19.9737V19.936C15.4077 19.9529 15.4075 19.9697 15.4071 19.9863L15.4027 20.0816C15.3204 21.2677 14.2337 21.5898 13.6797 21.6H15.333L15.333 21.6001H13.6797V22.1761H17.8077V21.6001H17.8076L17.8077 21.6C17.2914 21.6 16.2803 21.4707 16.1972 20.9641L16.4479 12.1602L21.0078 22.16H21.2958L26.0638 12.4847V20.8959C26.0638 21.4463 25.1251 21.5946 24.6558 21.5999L24.6578 21.6001H24.6558V22.1761H29.3278V21.6001H29.3268L29.3278 21.5999C28.7624 21.5946 27.6318 21.3599 27.6318 20.4639V10.9439C27.6318 10.7535 27.937 10.3743 29.1528 10.368H29.1996V9.79199H26.2238H26.2236V9.79225L21.5998 19.552L17.3918 10.784V10.368H17.3919V9.79199H14.2559V10.3679ZM17.3834 10.368H17.3598V10.4133L17.3834 10.368ZM26.0638 21.5999L26.0658 21.6001H26.0638V21.5999Z" fill="white"/>
</svg>
