<svg width="70" height="70" viewBox="0 0 70 70" fill="none" xmlns="http://www.w3.org/2000/svg">
<path d="M47.4194 24.8387C46.6087 24.8387 45.8105 24.8861 45.0213 24.9697C45.1048 24.1771 45.1613 23.38 45.1613 22.5806C45.1613 10.1297 35.0316 0 22.5806 0C10.1297 0 0 10.1297 0 22.5806C0 35.0316 10.1297 45.1613 22.5806 45.1613C23.38 45.1613 24.1771 45.106 24.9697 45.0224C24.8861 45.8105 24.8387 46.6098 24.8387 47.4194C24.8387 59.8703 34.9684 70 47.4194 70C59.8703 70 70 59.8703 70 47.4194C70 34.9684 59.8703 24.8387 47.4194 24.8387ZM22.5806 42.9032C11.375 42.9032 2.25806 33.7863 2.25806 22.5806C2.25806 11.375 11.375 2.25806 22.5806 2.25806C33.7863 2.25806 42.9032 11.375 42.9032 22.5806C42.9032 23.5076 42.8219 24.4311 42.6977 25.3434C41.8826 25.5173 41.0877 25.7442 40.3076 26.0039C40.5232 24.8805 40.6452 23.7368 40.6452 22.5806C40.6452 12.6203 32.541 4.51613 22.5806 4.51613C12.6203 4.51613 4.51613 12.6203 4.51613 22.5806C4.51613 32.541 12.6203 40.6452 22.5806 40.6452C23.7368 40.6452 24.8794 40.5232 26.0039 40.3076C25.7442 41.0877 25.5184 41.8826 25.3434 42.6966C24.43 42.8208 23.5076 42.9032 22.5806 42.9032ZM27.0505 37.7379C25.6042 38.1635 24.1037 38.3871 22.5806 38.3871C18.1876 38.3871 14.2111 36.5829 11.3445 33.6813C11.55 32.2779 12.5898 31.1455 14.0068 30.8587L18.1763 30.0131C18.436 29.9385 18.6821 29.8347 18.9203 29.7184L22.5806 34.6319L26.2489 29.7082C26.5097 29.8369 26.7806 29.9521 27.0719 30.0345L31.1545 30.8587C31.4018 30.9084 31.6355 30.9931 31.8624 31.0947C29.8776 32.9869 28.245 35.236 27.0505 37.7379ZM16.9355 22.5806C16.3134 22.5806 15.8065 22.0737 15.8065 21.4516C15.8065 20.8295 16.3134 20.3226 16.9355 20.3226V22.5806ZM17.8161 18.0645H16.9355C16.6385 18.0645 16.3552 18.1153 16.0808 18.1876C15.9069 17.6592 15.8065 17.1071 15.8065 16.5482C15.8065 13.6489 18.165 11.2903 21.0644 11.2903H24.0981C26.9963 11.2903 29.3548 13.6489 29.3548 16.5482C29.3548 17.1071 29.2544 17.6592 29.0805 18.1876C28.8061 18.1153 28.5227 18.0645 28.2258 18.0645H27.0968H25.1052C23.6284 18.0645 22.1494 17.7156 20.8273 17.054L20.589 16.9355H20.3226C19.3256 16.9355 18.4371 17.3769 17.8161 18.0645ZM28.2258 20.3226C28.8479 20.3226 29.3548 20.8295 29.3548 21.4516C29.3548 22.0737 28.8479 22.5806 28.2258 22.5806V20.3226ZM25.9677 22.5806C25.9677 24.4481 24.4481 25.9677 22.5806 25.9677C20.7132 25.9677 19.1935 24.4481 19.1935 22.5806V20.3226C19.1935 19.7739 19.5876 19.3144 20.1069 19.2139C21.665 19.9398 23.3868 20.3226 25.1052 20.3226H25.9677V22.5806ZM20.8431 27.9232C21.394 28.1039 21.971 28.2258 22.5806 28.2258C23.1915 28.2258 23.7684 28.1039 24.3194 27.9232C24.3826 28.0327 24.4503 28.14 24.5237 28.2439L22.5806 30.8519L20.6387 28.2461C20.711 28.1411 20.7787 28.0339 20.8431 27.9232ZM33.6802 29.54C33.0569 29.1087 32.3558 28.7971 31.6005 28.6458L27.6037 27.8419C27.0369 27.6805 26.5718 27.3011 26.2827 26.8066C26.9015 26.2635 27.4106 25.6019 27.746 24.8387H28.2258C30.0932 24.8387 31.6129 23.319 31.6129 21.4516C31.6129 20.729 31.3815 20.0629 30.9953 19.5119C31.3961 18.5782 31.6129 17.5689 31.6129 16.5482C31.6129 12.4035 28.2416 9.03226 24.0969 9.03226H21.0632C16.9197 9.03226 13.5484 12.4035 13.5484 16.5482C13.5484 17.57 13.7652 18.5782 14.166 19.5131C13.7798 20.0629 13.5484 20.729 13.5484 21.4516C13.5484 23.319 15.0681 24.8387 16.9355 24.8387H17.4142C17.7495 25.6031 18.2598 26.2647 18.8785 26.8077C18.594 27.3 18.1469 27.6748 17.6423 27.8205L13.5597 28.6447C11.8063 28.9981 10.4074 30.1339 9.6521 31.6456C7.84564 29.076 6.77419 25.9542 6.77419 22.5806C6.77419 13.8645 13.8645 6.77419 22.5806 6.77419C31.2968 6.77419 38.3871 13.8645 38.3871 22.5806C38.3871 24.106 38.1602 25.6065 37.7345 27.0527C36.2916 27.7415 34.9356 28.5747 33.6802 29.54ZM47.4194 67.7419C36.2137 67.7419 27.0968 58.625 27.0968 47.4194C27.0968 36.2137 36.2137 27.0968 47.4194 27.0968C58.625 27.0968 67.7419 36.2137 67.7419 47.4194C67.7419 58.625 58.625 67.7419 47.4194 67.7419Z" fill="white"/>
<path d="M63.8607 29.6066L66.0815 29.1957C65.9324 28.3952 65.7507 27.5902 65.5407 26.8044L63.3594 27.3892C63.5547 28.1174 63.7229 28.8637 63.8607 29.6066Z" fill="white"/>
<path d="M46.2904 10.1613C47.2682 10.1613 48.1432 9.73902 48.763 9.07289C55.2075 12.5063 60.2543 18.3355 62.6851 25.2147L64.8145 24.4627C62.1759 16.9953 56.6741 10.6772 49.6561 6.99321C49.6606 6.91983 49.6775 6.8487 49.6775 6.77418C49.6775 4.90676 48.1578 3.38708 46.2904 3.38708C44.423 3.38708 42.9033 4.90676 42.9033 6.77418C42.9033 8.6416 44.423 10.1613 46.2904 10.1613ZM46.2904 5.64515C46.9125 5.64515 47.4194 6.15209 47.4194 6.77418C47.4194 7.39628 46.9125 7.90321 46.2904 7.90321C45.6683 7.90321 45.1614 7.39628 45.1614 6.77418C45.1614 6.15209 45.6683 5.64515 46.2904 5.64515Z" fill="white"/>
<path d="M6.14024 40.3933L3.91943 40.8043C4.06847 41.6048 4.25024 42.4098 4.46024 43.1956L6.64153 42.6107C6.44621 41.8825 6.27798 41.1362 6.14024 40.3933Z" fill="white"/>
<path d="M23.7101 59.8387C22.7323 59.8387 21.8573 60.2609 21.2375 60.9271C14.7941 57.4937 9.74733 51.6645 7.31539 44.7853L5.18604 45.5372C7.82458 53.0046 13.3264 59.3227 20.3444 63.0067C20.3399 63.0801 20.323 63.1512 20.323 63.2258C20.323 65.0932 21.8426 66.6129 23.7101 66.6129C25.5775 66.6129 27.0972 65.0932 27.0972 63.2258C27.0972 61.3583 25.5775 59.8387 23.7101 59.8387ZM23.7101 64.3548C23.088 64.3548 22.581 63.8479 22.581 63.2258C22.581 62.6037 23.088 62.0967 23.7101 62.0967C24.3322 62.0967 24.8391 62.6037 24.8391 63.2258C24.8391 63.8479 24.3322 64.3548 23.7101 64.3548Z" fill="white"/>
<path d="M60.7747 37.4522C60.7735 37.4522 60.7735 37.4522 60.7747 37.4522C59.7123 36.3898 58.2445 35.9359 56.7474 36.2046C55.86 36.3649 55.0144 36.8267 54.3008 37.5402L41.7742 50.0646L38.2798 46.5691C37.5652 45.8567 36.7195 45.3949 35.8344 45.2357C34.3361 44.9648 32.8695 45.4198 31.8071 46.4822C30.7447 47.5446 30.2897 49.0123 30.5595 50.5094C30.7198 51.3969 31.1816 52.2425 31.8952 52.9561L38.5813 59.6433C39.4337 60.498 40.5673 60.9677 41.7742 60.9677C42.9811 60.9677 44.1147 60.498 44.9671 59.6444L60.6866 43.9249C61.4002 43.2114 61.8619 42.3657 62.0223 41.4783C62.291 39.9823 61.8371 38.5146 60.7747 37.4522ZM59.7992 41.0786C59.701 41.624 59.3589 42.0598 59.0902 42.3285L43.3706 58.048C42.5182 58.9015 41.0313 58.9015 40.1777 58.048L33.4905 51.3607C33.2218 51.0909 32.8797 50.6551 32.7815 50.1098C32.6448 49.3522 32.8718 48.6127 33.4047 48.0809C33.8337 47.6507 34.4005 47.4193 35.0023 47.4193C35.1434 47.4193 35.2879 47.4317 35.4335 47.4577C35.9777 47.5559 36.4147 47.898 36.6834 48.1667L41.7742 53.2575L55.8973 39.1356C56.1671 38.8669 56.6029 38.5248 57.1482 38.4265C57.9058 38.2899 58.6453 38.5169 59.1771 39.0486C59.7089 39.5804 59.9358 40.3199 59.7992 41.0786Z" fill="white"/>
</svg>
