<svg width="70" height="70" viewBox="0 0 70 70" fill="none" xmlns="http://www.w3.org/2000/svg">
<path d="M29.5333 50.0391C30.288 50.0391 30.9006 49.4266 30.9006 48.6719C30.9006 47.9173 30.288 47.3047 29.5333 47.3047C28.7786 47.3047 28.166 47.9173 28.166 48.6719C28.166 49.4266 28.7786 50.0391 29.5333 50.0391Z" fill="white"/>
<path d="M0.400571 53.1933L16.808 69.5995C17.3421 70.1336 18.2073 70.1336 18.7414 69.5995L27.7655 60.5761C28.2996 60.042 28.2996 59.1769 27.7655 58.6428L27.3649 58.2423H47.0741C48.8051 58.2423 50.457 57.5934 51.7309 56.411L68.3182 40.8661C69.9061 39.3916 70.4322 37.0492 69.6268 35.038C69.0446 33.5821 67.8557 32.4681 66.3656 31.9815C64.8749 31.4939 63.2582 31.6916 61.9283 32.5225C61.9198 32.5279 58.2457 34.9386 58.2457 34.9386C58.2206 27.5275 53.7412 19.6245 47.5751 16.0666C47.927 15.6623 48.2037 15.1838 48.3799 14.6481C49.0855 12.5018 47.9126 10.1786 45.7629 9.46885C45.6956 9.44642 45.6283 9.42666 45.561 9.40583L49.0807 3.08365C49.2831 2.71996 49.3093 2.28363 49.1506 1.89911C48.9925 1.51406 48.6678 1.22193 48.2678 1.10603C45.7442 0.372239 43.1212 0 40.4716 0C37.8225 0 35.199 0.372239 32.6754 1.1055C32.2754 1.22193 31.9506 1.51352 31.792 1.89858C31.6339 2.28363 31.6596 2.71996 31.8625 3.08365L35.3822 9.40583C35.3138 9.4272 35.2455 9.44749 35.1771 9.46992C33.0306 10.1786 31.8582 12.5012 32.5638 14.6492C32.74 15.1838 33.0188 15.6607 33.3719 16.0655C27.1139 19.6763 22.6969 27.6605 22.6969 35C22.6969 35.2003 22.7017 35.3979 22.7081 35.5939C20.2593 36.262 17.9825 37.4791 16.0677 39.1555L11.9125 42.7909L11.3581 42.2365C10.824 41.7025 9.95874 41.7025 9.42464 42.2365L0.400571 51.26C-0.133524 51.794 -0.133524 52.6592 0.400571 53.1933ZM35.1162 3.30635C36.8681 2.92611 38.6626 2.73438 40.4716 2.73438C42.2806 2.73438 44.0751 2.92611 45.8275 3.30635L42.7805 8.77885C41.2444 8.56469 39.6977 8.56469 38.1632 8.77885L35.1162 3.30635ZM36.0306 12.0676C38.8362 11.1495 41.895 11.0801 44.9089 12.0665C45.6261 12.3031 46.0176 13.0786 45.7821 13.7942C45.6048 14.3331 45.1241 14.6989 44.567 14.7315C41.8709 13.8743 39.0707 13.8727 36.3756 14.7288C36.3756 14.7288 36.3756 14.7288 36.3751 14.7288C35.8132 14.6935 35.3363 14.3261 35.1611 13.7947C34.9256 13.078 35.317 12.3026 36.0306 12.0676ZM36.7869 17.4749C39.1577 16.621 41.614 16.6007 43.9907 17.4172C50.3433 19.6015 55.5117 27.489 55.5117 35C55.5117 35.6366 55.4717 36.2433 55.3926 36.8105L48.8206 41.122C47.8031 39.8616 46.2612 39.1016 44.5734 39.1016H41.8389V37.4994C43.4305 36.9349 44.5734 35.415 44.5734 33.6329C44.5734 31.3711 42.7335 29.5313 40.4716 29.5313C39.718 29.5313 39.1043 28.9182 39.1043 28.1641C39.1043 27.41 39.718 26.7969 40.4716 26.7969C40.956 26.7969 41.4671 27.0442 41.9505 27.5115C42.4931 28.0365 43.3589 28.022 43.8839 27.48C44.4089 26.9374 44.3945 26.0717 43.8519 25.5467C43.1581 24.8748 42.4638 24.4951 41.8389 24.2879V22.6953C41.8389 21.9402 41.2268 21.3281 40.4716 21.3281C39.7164 21.3281 39.1043 21.9402 39.1043 22.6953V24.2975C37.5132 24.862 36.3697 26.3819 36.3697 28.1641C36.3697 30.4258 38.2097 32.2657 40.4716 32.2657C41.2257 32.2657 41.8389 32.8788 41.8389 33.6329C41.8389 34.3869 41.2257 35 40.4716 35C39.8873 35 39.2571 34.6326 38.6963 33.9656C38.2102 33.3877 37.3477 33.313 36.7698 33.7989C36.1919 34.2849 36.1171 35.1474 36.6031 35.7253C37.3338 36.5947 38.1937 37.2004 39.1043 37.5058V39.1016H38.6493C37.9774 39.1016 37.6756 38.6637 37.2024 38.3577C34.3135 36.1926 30.735 35 27.1256 35C26.5611 35 25.9955 35.0294 25.4325 35.0866C25.4325 35.0577 25.4315 35.0294 25.4315 35C25.4315 27.5943 30.5257 19.7329 36.7869 17.4749ZM17.8687 41.2127C20.4377 38.9633 23.7389 37.7344 27.1256 37.7344C30.1475 37.7344 33.1433 38.7326 35.5606 40.5446C35.9094 40.7486 36.8803 41.836 38.6487 41.836H44.5734C46.1298 41.836 47.308 43.1012 47.308 44.5704C47.308 46.078 46.0812 47.3047 44.5734 47.3047H35.0025C34.2472 47.3047 33.6352 47.9168 33.6352 48.6719C33.6352 49.4271 34.2472 50.0391 35.0025 50.0391H44.5734C47.5889 50.0391 50.0426 47.5857 50.0426 44.5704C50.0426 44.2569 50.0148 43.9477 49.9625 43.6432L63.3891 34.8345C64.0279 34.4398 64.8028 34.3474 65.5164 34.5803C66.2342 34.8153 66.8073 35.352 67.0877 36.0537C67.4824 37.0385 67.2346 38.1414 66.4527 38.8672L49.8658 54.4115C49.1042 55.1185 48.1129 55.5079 47.0741 55.5079H24.6303L13.8507 44.7284L17.8687 41.2127ZM10.3914 45.1365L24.8653 59.6094L17.7747 66.6996L3.30071 52.2266L10.3914 45.1365Z" fill="white"/>
</svg>
