<svg width="70" height="70" viewBox="0 0 70 70" fill="none" xmlns="http://www.w3.org/2000/svg">
<path d="M34.3031 37.173C34.5343 37.1816 34.7661 37.1875 35 37.1875C35.2169 37.1875 35.4326 37.1827 35.6478 37.1746C40.5441 37.2804 45.3597 38.576 49.6145 40.944C50.9342 41.6783 52.5993 41.2041 53.3337 39.8844C54.068 38.5648 53.5938 36.8996 52.2741 36.1653C50.3152 35.0753 48.2564 34.177 46.1308 33.4784C50.6586 30.084 53.5938 24.675 53.5938 18.5937C53.5938 8.3409 45.2523 0 35 0C24.7472 0 16.4063 8.3409 16.4063 18.5937C16.4063 24.6788 19.3447 30.0909 23.8772 33.4848C19.7249 34.8515 15.8284 36.9776 12.418 39.7824C6.16576 44.9254 1.81853 52.0989 0.177373 59.9815C-0.336924 62.4516 0.279378 64.9883 1.86766 66.9419C3.44794 68.8853 5.79191 69.9999 8.29771 69.9999H29.668C31.1778 69.9999 32.4024 68.7759 32.4024 67.2655C32.4024 65.7552 31.1778 64.5312 29.668 64.5312H8.29771C7.13026 64.5312 6.42637 63.8796 6.11021 63.4914C5.56494 62.8206 5.35399 61.9479 5.53129 61.0961C8.37088 47.4568 20.4075 37.4961 34.3031 37.173ZM21.875 18.5937C21.875 11.3567 27.7625 5.46874 35 5.46874C42.237 5.46874 48.125 11.3567 48.125 18.5937C48.125 25.6128 42.5868 31.362 35.651 31.7027C35.4337 31.6984 35.2169 31.6958 35 31.6958C34.7864 31.6958 34.5733 31.699 34.3602 31.7027C27.4191 31.3684 21.875 25.6166 21.875 18.5937ZM70 50.8358C70.0027 52.6623 69.2886 54.3788 67.9903 55.6701L62.9045 60.7276C62.371 61.2585 61.6735 61.5234 60.9766 61.5234C60.2743 61.5234 59.572 61.2542 59.0374 60.7169C57.9725 59.6462 57.9773 57.9153 59.0481 56.8504L62.457 53.4602H46.9613C43.9086 53.4602 41.4258 55.9435 41.4258 58.9957C41.4258 62.0478 43.8787 64.5312 46.8945 64.5312C48.4043 64.5312 49.6289 65.7552 49.6289 67.2655C49.6289 68.7759 48.4043 69.9999 46.8945 69.9999C43.9535 69.9999 41.1978 68.8517 39.1358 66.7662C37.0855 64.693 35.9571 61.9335 35.9571 58.9957C35.9571 52.9277 40.8933 47.9914 46.9613 47.9914H62.206L59.0534 44.8741C57.98 43.8119 57.9698 42.0805 59.0321 41.007C60.0938 39.9336 61.8252 39.9234 62.8992 40.9857L67.977 46.0069C69.279 47.2945 69.9973 49.0093 70 50.8358Z" fill="white"/>
</svg>
