<svg width="50" height="50" viewBox="0 0 50 50" fill="none" xmlns="http://www.w3.org/2000/svg">
<circle cx="25" cy="25" r="25" fill="white"/>
<path fill-rule="evenodd" clip-rule="evenodd" d="M33.4126 19.4142C34.1936 18.6332 34.1936 17.3668 33.4126 16.5858C32.6315 15.8047 31.3652 15.8047 30.5841 16.5858L24.9993 22.1706L19.4153 16.5866C18.6342 15.8055 17.3679 15.8055 16.5868 16.5866C15.8058 17.3676 15.8058 18.634 16.5868 19.415L22.1709 24.999L16.5858 30.5841C15.8047 31.3652 15.8047 32.6315 16.5858 33.4126C17.3668 34.1936 18.6332 34.1936 19.4142 33.4126L24.9993 27.8275L30.5852 33.4134C31.3662 34.1944 32.6326 34.1944 33.4136 33.4134C34.1947 32.6323 34.1947 31.366 33.4136 30.5849L27.8277 24.999L33.4126 19.4142Z" fill="#ED1019"/>
</svg>
