<svg width="149" height="20" viewBox="0 0 149 20" fill="none" xmlns="http://www.w3.org/2000/svg">
<path d="M23.996 0H27.3L21.7 19.6H18.48L13.748 5.432L9.1 19.6H5.852L0 0H3.864L7.812 13.972L12.18 0H15.596L20.076 14L23.996 0Z" fill="black"/>
<path d="M28.4745 18.06C27.2238 16.8093 26.5985 15.2227 26.5985 13.3C26.5985 11.3773 27.2238 9.8 28.4745 8.568C29.7251 7.31733 31.3865 6.692 33.4585 6.692C35.5118 6.692 37.1638 7.31733 38.4145 8.568C39.6838 9.8 40.3185 11.3773 40.3185 13.3C40.3185 15.204 39.6838 16.7907 38.4145 18.06C37.1451 19.292 35.4931 19.908 33.4585 19.908C31.3865 19.908 29.7251 19.292 28.4745 18.06ZM31.0225 10.724C30.3691 11.396 30.0425 12.2547 30.0425 13.3C30.0425 14.3453 30.3598 15.2133 30.9945 15.904C31.6478 16.576 32.4691 16.912 33.4585 16.912C34.4665 16.912 35.2878 16.576 35.9225 15.904C36.5758 15.232 36.9025 14.364 36.9025 13.3C36.9025 12.2547 36.5758 11.396 35.9225 10.724C35.2691 10.052 34.4478 9.716 33.4585 9.716C32.4878 9.716 31.6758 10.052 31.0225 10.724Z" fill="black"/>
<path d="M46.3251 19.6H43.1051V7H46.3251V8.232C47.0158 7.26133 47.9771 6.776 49.2091 6.776C50.0865 6.776 50.7398 6.93467 51.1691 7.252L50.0211 10.276C49.4798 9.95867 48.9385 9.8 48.3971 9.8C47.4638 9.8 46.7731 10.248 46.3251 11.144V19.6Z" fill="black"/>
<path d="M60.7876 7H64.8476L60.1156 12.768L65.4076 19.6H61.2636L56.2796 13.02L60.7876 7ZM56.2236 19.6H53.0036V0H56.2236V19.6Z" fill="black"/>
<path d="M71.7544 19.6H68.3104V0H79.5104V3.22H71.7544V8.764H78.6704V11.984H71.7544V19.6Z" fill="black"/>
<path d="M82.6698 18.06C81.4191 16.8093 80.7938 15.2227 80.7938 13.3C80.7938 11.3773 81.4191 9.8 82.6698 8.568C83.9204 7.31733 85.5818 6.692 87.6538 6.692C89.7071 6.692 91.3591 7.31733 92.6098 8.568C93.8791 9.8 94.5138 11.3773 94.5138 13.3C94.5138 15.204 93.8791 16.7907 92.6098 18.06C91.3404 19.292 89.6884 19.908 87.6538 19.908C85.5818 19.908 83.9204 19.292 82.6698 18.06ZM85.2178 10.724C84.5644 11.396 84.2378 12.2547 84.2378 13.3C84.2378 14.3453 84.5551 15.2133 85.1898 15.904C85.8431 16.576 86.6644 16.912 87.6538 16.912C88.6618 16.912 89.4831 16.576 90.1178 15.904C90.7711 15.232 91.0978 14.364 91.0978 13.3C91.0978 12.2547 90.7711 11.396 90.1178 10.724C89.4644 10.052 88.6431 9.716 87.6538 9.716C86.6831 9.716 85.8711 10.052 85.2178 10.724Z" fill="black"/>
<path d="M100.52 19.6H97.3004V7H100.52V8.232C101.211 7.26133 102.172 6.776 103.404 6.776C104.282 6.776 104.935 6.93467 105.364 7.252L104.216 10.276C103.675 9.95867 103.134 9.8 102.592 9.8C101.659 9.8 100.968 10.248 100.52 11.144V19.6Z" fill="black"/>
<path d="M119.155 0H122.879L115.907 11.424V19.6H112.463V11.424L105.547 0H109.467L114.339 8.204L119.155 0Z" fill="black"/>
<path d="M122.564 18.06C121.314 16.8093 120.688 15.2227 120.688 13.3C120.688 11.3773 121.314 9.8 122.564 8.568C123.815 7.31733 125.476 6.692 127.548 6.692C129.602 6.692 131.254 7.31733 132.504 8.568C133.774 9.8 134.408 11.3773 134.408 13.3C134.408 15.204 133.774 16.7907 132.504 18.06C131.235 19.292 129.583 19.908 127.548 19.908C125.476 19.908 123.815 19.292 122.564 18.06ZM125.112 10.724C124.459 11.396 124.132 12.2547 124.132 13.3C124.132 14.3453 124.45 15.2133 125.084 15.904C125.738 16.576 126.559 16.912 127.548 16.912C128.556 16.912 129.378 16.576 130.012 15.904C130.666 15.232 130.992 14.364 130.992 13.3C130.992 12.2547 130.666 11.396 130.012 10.724C129.359 10.052 128.538 9.716 127.548 9.716C126.578 9.716 125.766 10.052 125.112 10.724Z" fill="black"/>
<path d="M145.371 7H148.591V19.6H145.371V18.06C144.363 19.292 143.019 19.908 141.339 19.908C139.995 19.908 138.922 19.46 138.119 18.564C137.316 17.668 136.915 16.38 136.915 14.7V7H140.135V14.028C140.135 15.9507 140.938 16.912 142.543 16.912C143.644 16.912 144.587 16.3987 145.371 15.372V7Z" fill="black"/>
</svg>
