<svg width="34" height="50" viewBox="0 0 34 50" fill="none" xmlns="http://www.w3.org/2000/svg">
<path d="M32.6606 26.2311C31.5675 24.729 29.9179 23.6973 27.712 23.1366C30.5211 21.614 31.7556 19.0298 31.4166 15.3835C31.3033 14.0613 30.9595 12.9154 30.3842 11.9441C29.8086 10.9725 29.0318 10.1915 28.0509 9.60065C27.0707 9.00907 26.0047 8.55872 24.8553 8.24824C23.7056 7.93777 22.3857 7.71233 20.8964 7.57225V0H16.5421V7.36186C15.7881 7.36186 14.6382 7.38186 13.0925 7.42195V0H8.73758V7.57225C8.11529 7.59235 7.20112 7.60256 5.99468 7.60256L0 7.57225V12.5003H3.13857C4.57133 12.5003 5.41022 13.1815 5.65526 14.5435V23.1676C5.84403 23.1676 5.99468 23.1779 6.10788 23.1979H5.65526V35.2769C5.50461 36.2983 4.95799 36.8095 4.0153 36.8095H0.876927L0.000197977 42.3085H5.65575C6.01399 42.3085 6.53208 42.3136 7.21102 42.3226C7.88957 42.3327 8.39835 42.3378 8.73777 42.3378V50H13.0934V42.4279C13.8849 42.4484 15.0348 42.4582 16.543 42.4582V50H20.8974V42.3378C22.4435 42.2578 23.8149 42.1083 25.0114 41.8872C26.2086 41.6661 27.3541 41.3211 28.4472 40.85C29.5403 40.3796 30.4544 39.7932 31.1895 39.0921C31.925 38.3916 32.5325 37.4997 33.014 36.4178C33.494 35.3358 33.8007 34.0838 33.9322 32.6612C34.1784 29.8775 33.754 27.7338 32.6606 26.2311ZM13.1772 12.8299C13.3092 12.8299 13.6815 12.8249 14.2942 12.8148C14.9072 12.8045 15.4159 12.7946 15.8212 12.7845C16.2266 12.7746 16.7733 12.7996 17.4617 12.8597C18.1497 12.9198 18.7293 13.0001 19.2005 13.1001C19.6716 13.2001 20.1905 13.3654 20.7556 13.5958C21.3216 13.826 21.7737 14.1066 22.1126 14.437C22.4523 14.7675 22.7397 15.1884 22.9749 15.6992C23.2108 16.21 23.3287 16.7959 23.3287 17.4569C23.3287 18.0178 23.244 18.5288 23.0745 18.9898C22.9054 19.4504 22.6502 19.8362 22.3113 20.1466C21.9723 20.4572 21.6229 20.7279 21.2646 20.9581C20.9068 21.1882 20.4492 21.3737 19.8933 21.5138C19.3375 21.6541 18.852 21.7643 18.4376 21.8442C18.0228 21.9244 17.5045 21.9797 16.8823 22.0096C16.26 22.0395 15.7885 22.0599 15.4682 22.0698C15.1476 22.0797 14.7095 22.0797 14.1531 22.0698C13.5967 22.0599 13.272 22.0546 13.1775 22.0546V12.8298H13.1772V12.8299ZM25.0683 33.2926C24.8887 33.7536 24.6581 34.1545 24.3756 34.4953C24.0925 34.8352 23.72 35.136 23.2584 35.396C22.7968 35.6568 22.3487 35.8668 21.9154 36.0271C21.4816 36.188 20.9583 36.3275 20.3462 36.4481C19.7327 36.5684 19.1958 36.653 18.7335 36.7034C18.2719 36.7536 17.7207 36.7935 17.0795 36.8238C16.4388 36.8533 15.9389 36.8685 15.5809 36.8685C15.2226 36.8685 14.7701 36.8631 14.2234 36.8533C13.6764 36.8439 13.3279 36.8389 13.177 36.8389V26.6821C13.3276 26.6821 13.7754 26.6723 14.5202 26.6519C15.2651 26.6317 15.8727 26.6223 16.3441 26.6223C16.8153 26.6223 17.4659 26.6519 18.2957 26.7124C19.1247 26.7721 19.8223 26.8619 20.3883 26.982C20.9536 27.1024 21.5706 27.2875 22.2403 27.5382C22.9093 27.7884 23.4516 28.0939 23.8665 28.4544C24.2813 28.8156 24.6298 29.2757 24.9125 29.8367C25.1958 30.3975 25.3372 31.0387 25.3372 31.76C25.3371 32.3215 25.2476 32.8315 25.0683 33.2926Z" fill="white"/>
</svg>
