<svg width="50" height="50" viewBox="0 0 50 50" fill="none" xmlns="http://www.w3.org/2000/svg">
<path fill-rule="evenodd" clip-rule="evenodd" d="M50 25C50 38.8071 38.8071 50 25 50C11.1929 50 0 38.8071 0 25C0 11.1929 11.1929 0 25 0C38.8071 0 50 11.1929 50 25ZM7.37531 16.2V16.2001H7.41117C8.23339 16.205 9.80467 16.3775 9.8251 17.037V25.3001H12.5251V16.2011C12.6127 16.2011 12.7096 16.2002 12.8141 16.1993H12.8141C13.6938 16.1916 15.1113 16.1793 16.0496 16.6261C18.2246 17.6618 18.4996 18.5761 18.4996 21.2761C18.4996 23.9761 16.8246 25.1761 14.1246 25.8011C11.9646 26.3011 6.57463 25.8427 4.14963 25.5511C5.99129 26.0344 10.5646 26.9211 14.1246 26.6011C18.5746 26.2011 19.9746 24.8011 20.4746 23.5011C20.9746 22.2011 21.1246 19.1261 19.9746 17.2261C18.82 15.3184 15.375 15.3011 12.5251 15.3011V15.3001H12.5251H9.8251H7.37531V16.2ZM7.37531 33.7503V34.6503H15.1753V33.7503H7.37531ZM12.5251 27.3H9.8251V32.7501C9.74177 33.0334 9.4251 33.6301 8.8251 33.7501H9.8251V33.75H12.5251V27.3ZM12.5251 32.7501C12.6085 33.0334 12.9251 33.6301 13.525 33.7501H12.5251V32.7501ZM22.2747 16.1999V16.2H22.3116C23.1394 16.205 24.7246 16.3799 24.7246 17.0499L24.0745 31.2071V31.1501C24.0745 31.1574 24.0745 31.1648 24.0744 31.1721C24.0743 31.1898 24.074 31.2074 24.0737 31.2248L24.0665 31.3811C23.936 33.2315 22.2395 33.734 21.3745 33.7501H23.9577L23.9577 33.7502H21.3745V34.6502H27.8245V33.7502H27.8244L27.8245 33.7501C27.0175 33.7501 25.4369 33.5478 25.3079 32.7556L25.6996 19.0001H25.6996L32.8245 34.625H33.2745L40.7246 19.5069V32.6499C40.7246 33.5099 39.2579 33.7415 38.5246 33.7499L38.5278 33.7502H38.5246V34.6502H45.8246V33.7502H45.8231L45.8246 33.7499C44.9413 33.7415 43.1746 33.3749 43.1746 31.9749V17.0999C43.1746 16.8024 43.6515 16.2099 45.5513 16.2H45.6244V15.3H40.9744L33.7495 30.55L27.1746 16.85V16.2H27.1747V15.3H22.2747V16.1999ZM27.1615 16.2H27.1246V16.2707L27.1615 16.2ZM40.7246 33.7499L40.7278 33.7502H40.7246V33.7499Z" fill="white"/>
</svg>
