<svg width="716" height="506" viewBox="0 0 716 506" fill="none" xmlns="http://www.w3.org/2000/svg">
<path opacity="0.1" d="M4.09741 251.313C-27.2739 421.245 143.208 556.319 302.219 433.239C580.394 217.955 442.688 302.85 592.053 327.963C741.418 353.076 754.809 102.418 634.896 105.651C514.982 108.884 478.133 208.772 352.835 116.755C227.536 24.7379 30.2714 109.727 4.09741 251.313Z" fill="#1B253C"/>
<path d="M329.236 506C436.01 506 522.568 419.389 522.568 312.549C522.568 205.708 436.01 119.097 329.236 119.097C222.462 119.097 135.904 205.708 135.904 312.549C135.904 419.389 222.462 506 329.236 506Z" fill="#1B253C"/>
<path d="M114.693 270.476C130.623 270.476 143.536 257.554 143.536 241.615C143.536 225.676 130.623 212.754 114.693 212.754C98.7636 212.754 85.8502 225.676 85.8502 241.615C85.8502 257.554 98.7636 270.476 114.693 270.476Z" fill="#1B253C"/>
<path d="M132.72 189.703C141.15 189.703 147.984 182.865 147.984 174.429C147.984 165.994 141.15 159.156 132.72 159.156C124.29 159.156 117.456 165.994 117.456 174.429C117.456 182.865 124.29 189.703 132.72 189.703Z" fill="#46DDCF"/>
<path d="M163.295 224.795C166.088 224.795 168.352 222.53 168.352 219.735C168.352 216.941 166.088 214.675 163.295 214.675C160.502 214.675 158.238 216.941 158.238 219.735C158.238 222.53 160.502 224.795 163.295 224.795Z" fill="#1B253C"/>
<path d="M249.309 124.11C249.309 124.11 244.439 84.8955 256.707 66.998C272.72 43.7127 318.139 37.2003 339.818 50.0377C363.791 64.2338 382.895 100.872 374.514 132.965C410.146 143.226 418.668 183.753 393.617 194.154L415.062 240.116C428.407 268.695 414.781 302.85 384.159 317.609L329.329 344.033C329.329 344.033 228.145 359.963 208.105 313.064C188.065 266.165 227.302 231.963 227.302 231.963C227.302 231.963 195.275 196.356 210.54 161.639C225.851 126.922 249.309 124.11 249.309 124.11Z" fill="#495673"/>
<path d="M404.902 258.482C404.902 258.482 496.862 273.052 521.772 271.975C541.297 273.052 573.464 166.09 576.273 159.53C591.865 149.738 595.752 136.339 595.518 128.936C595.284 121.534 575.384 115.302 573.464 119.05C576.742 109.258 577.491 106.166 578.38 102.793C580.253 95.8119 574.916 90.5176 567.283 116.802C559.745 142.711 560.494 138.447 558.668 147.583C546.354 171.243 514.608 226.435 512.454 234.774C471.296 233.791 401.577 217.767 401.577 217.767L404.902 258.482Z" fill="#FFE3CA"/>
<path d="M220.747 233.51C220.747 233.51 177.155 315.36 168.68 338.223C160.252 355.231 247.811 433.567 252.727 439.236C255.771 457.836 263.824 464.255 270.66 467.581C277.496 470.861 290.747 456.009 288.078 452.542C295.804 460.132 298.333 462.24 301.048 464.677C306.714 469.643 313.597 467.394 292.48 448.091C271.644 429.022 275.296 431.74 267.617 425.743C250.667 403.488 212.272 348.859 205.483 342.955C222.011 306.552 263.215 251.594 263.215 251.594L220.747 233.51Z" fill="#FFE3CA"/>
<path d="M320.62 506L346.045 395.617L389.356 421.573C389.356 421.573 392.868 453.338 397.363 494.521C397.363 494.521 363.463 506.796 320.62 506Z" fill="#1B253C"/>
<path d="M364.306 502.626C371.236 460.741 376.761 427.008 376.761 427.008C376.761 427.008 258.252 410.516 257.831 442.937C257.69 452.87 258.861 471.985 261.623 493.818C323.945 513.871 364.306 502.626 364.306 502.626Z" fill="#0E538C"/>
<path d="M365.196 289.123C361.684 297.275 388.326 410.469 392.774 436.565C392.774 436.565 392.213 436.472 391.136 436.284C379.57 434.551 308.821 425.227 251.65 449.075L246.406 289.17L246.172 283.219C246.172 283.219 246.172 277.175 246.734 267.946V267.852C248.045 248.83 251.978 216.737 264.199 196.122C270.52 185.44 278.901 177.803 290.373 176.678C325.911 173.164 325.724 187.735 358.734 195.887L412.3 209.193C412.3 209.193 406.306 250.751 412.3 263.12H375.122C375.122 263.073 368.661 280.877 365.196 289.123Z" fill="#46DDCF"/>
<path d="M344.781 69.9966C344.781 69.9966 377.37 118.91 360.279 142.804C347.497 160.702 326.052 170.072 326.052 170.072V195.841C326.052 195.841 323.477 198.136 318.982 198.371C311.162 198.792 290.373 186.236 290.373 186.236V84.7549L344.781 69.9966Z" fill="#FFE3CA"/>
<path d="M246.312 295.729C246.312 295.729 295.476 238.71 287.657 211.255C279.838 183.8 242.66 193.217 221.871 224.842C201.081 256.467 192.841 267.29 192.841 267.29C192.841 267.29 214.239 296.244 246.312 295.729Z" fill="#46DDCF"/>
<path d="M344.687 65.3582C344.687 65.3582 347.216 116.286 322.681 128.608C298.145 140.93 316.687 171.29 293.323 193.966C286.393 200.666 276.092 199.542 268.179 197.199C256.848 193.826 243.878 196.262 235.965 204.461C235.215 205.258 234.513 206.101 233.951 206.944C203.61 186.892 280.493 75.4313 280.493 75.4313L344.687 65.3582Z" fill="#495673"/>
<path d="M433.791 343.799C423.163 360.244 416.982 379.828 416.982 400.865C416.982 458.914 464.039 506 522.053 506C580.066 506 627.123 458.914 627.123 400.865C627.123 342.815 580.066 295.729 522.053 295.729C496.44 295.729 472.935 304.912 454.721 320.186L419.089 310.768L433.791 343.799Z" fill="#46DDCF"/>
<path d="M557.123 28.8607C557.123 44.7904 544.2 65.3583 528.28 65.3583C512.36 65.3583 499.437 44.7904 499.437 28.8607C499.437 12.9311 512.313 0 528.28 0C544.247 0 557.123 12.9311 557.123 28.8607Z" fill="#46DDCF"/>
<path d="M529.17 78.43C526.22 78.43 523.457 76.3686 521.022 72.2925C519.29 69.3876 520.601 60.6263 522.006 51.3497C522.38 48.9134 522.708 46.5239 523.036 44.3687C520.976 37.95 521.444 33.7802 522.333 32.5621C522.661 32.0936 523.129 31.953 523.551 32.1404C524.394 32.5621 524.862 34.3424 524.862 37.2004C524.862 39.0745 524.628 41.4639 524.3 44.1345C524.44 44.603 524.628 45.0715 524.815 45.5869C526.501 50.0847 528.186 49.1008 528.748 48.726C530.106 47.9295 531.417 45.6806 532.4 43.1037C532.026 37.2941 532.447 33.1243 533.103 31.9061C533.431 31.2502 533.852 31.2034 534.039 31.2034C534.695 31.2502 535.022 32.1404 535.116 32.4215C535.959 34.6704 535.21 39.4024 533.665 43.4317C534.133 50.2252 535.725 59.5487 539.658 69.3408L539.845 69.7625L539.611 70.1373C539.424 70.4652 535.069 78.1958 529.31 78.2895C529.263 78.4301 529.216 78.43 529.17 78.43ZM523.879 46.8519C523.644 48.398 523.41 49.991 523.176 51.6308C521.959 59.783 520.554 68.966 521.959 71.3086C524.206 75.0099 526.641 76.8839 529.216 76.8371C533.665 76.7434 537.364 71.2149 538.3 69.7156C534.882 61.0949 533.196 52.6615 532.541 45.9149C531.558 47.8826 530.387 49.4756 529.17 50.1784C528.046 50.928 525.798 51.3965 523.879 46.8519ZM523.129 33.7334C522.802 34.3424 522.38 36.8256 523.364 41.0891C523.504 39.6367 523.598 38.3249 523.598 37.2473C523.598 35.0452 523.27 34.0613 523.129 33.7334ZM533.946 33.1711C533.665 34.1082 533.384 36.4508 533.43 39.8241C534.18 37.1067 534.461 34.483 533.946 33.1711Z" fill="white"/>
<path d="M528.28 82.3655C522.474 82.3655 517.651 77.9614 517.183 72.1986L516.2 61.1416L519.15 62.266C525.19 64.5618 531.839 64.5149 537.832 62.1255L540.314 61.1416L539.33 72.1986C538.862 77.9614 534.039 82.3655 528.28 82.3655Z" fill="#1B253C"/>
<path d="M647.538 84.0054C644.167 92.017 633.304 99.6539 625.297 96.2806C617.29 92.9072 615.136 79.8356 618.508 71.777C621.879 63.7654 631.103 59.9704 639.157 63.3437C647.21 66.717 650.909 75.9469 647.538 84.0054Z" fill="#46DDCF"/>
<path d="M622.956 103.027C621.457 102.418 620.521 100.778 620.146 98.2014C619.865 96.3742 622.394 92.2512 625.063 87.894C625.765 86.7695 626.421 85.6451 627.029 84.6143C627.357 80.9599 628.481 78.9453 629.183 78.5236C629.464 78.3362 629.698 78.383 629.886 78.5704C630.213 78.9453 630.073 79.976 629.464 81.3816C629.09 82.3186 628.434 83.4899 627.685 84.7549C627.685 85.036 627.638 85.3171 627.638 85.5982C627.544 88.2219 628.575 88.0814 628.949 88.0345C629.792 87.894 630.916 87.0506 631.993 85.973C633.023 82.9745 634.146 80.9599 634.708 80.4914C634.989 80.2571 635.223 80.304 635.317 80.3508C635.645 80.5382 635.598 81.0067 635.598 81.1942C635.551 82.506 634.146 84.708 632.508 86.4416C631.29 89.9555 630.12 94.9686 630.073 100.731V100.966L629.886 101.106C629.745 101.247 625.906 104.198 623.003 103.027C623.003 103.027 623.003 103.027 622.956 103.027ZM626.983 86.0199C626.561 86.7695 626.093 87.5192 625.625 88.2688C623.284 92.1106 620.661 96.4679 620.849 97.9203C621.177 100.263 622.019 101.715 623.33 102.231C625.578 103.121 628.621 101.106 629.417 100.544C629.511 95.484 630.447 90.8925 631.571 87.3317C630.682 88.1282 629.745 88.6436 628.996 88.7842C628.2 88.9247 626.983 88.6905 626.983 86.0199ZM629.371 79.2264C629.09 79.4606 628.34 80.6319 627.966 82.9745C628.34 82.2718 628.668 81.6158 628.902 81.1005C629.324 80.0229 629.417 79.4606 629.371 79.2264ZM634.942 81.241C634.615 81.6627 633.959 82.7871 633.304 84.4738C634.24 83.3025 634.942 82.0375 634.942 81.241Z" fill="white"/>
<path d="M621.692 104.808C618.789 103.59 617.29 100.357 618.227 97.3582L620.1 91.5955L621.364 92.7668C623.892 95.2031 627.263 96.5618 630.775 96.6555L632.227 96.7023L629.417 102.043C627.966 104.855 624.595 106.026 621.692 104.808Z" fill="#1B253C"/>
<path d="M535.304 129.826C535.865 136.292 531.417 145.1 524.956 145.662C518.494 146.225 512.501 138.4 511.939 131.935C511.377 125.469 516.106 119.753 522.568 119.191C529.029 118.629 534.695 123.361 535.304 129.826Z" fill="#46DDCF"/>
<path d="M525.752 150.91C524.534 151.003 523.364 150.301 522.24 148.708C521.444 147.583 521.631 143.976 521.865 140.181C521.912 139.197 521.959 138.213 522.006 137.323C520.929 134.793 520.976 133.106 521.303 132.591C521.444 132.403 521.584 132.309 521.772 132.356C522.146 132.497 522.38 133.2 522.474 134.371C522.521 135.121 522.521 136.104 522.474 137.229C522.568 137.416 522.661 137.604 522.755 137.791C523.598 139.572 524.253 139.103 524.441 138.916C524.956 138.541 525.424 137.604 525.705 136.526C525.33 134.184 525.377 132.497 525.564 131.982C525.658 131.7 525.845 131.654 525.939 131.654C526.22 131.654 526.36 131.982 526.407 132.122C526.829 133.012 526.688 134.933 526.22 136.667C526.641 139.384 527.625 143.132 529.591 146.927L529.685 147.115L529.591 147.302C529.544 147.443 528.046 150.722 525.705 151.003C525.798 150.91 525.798 150.91 525.752 150.91ZM522.474 138.307C522.427 138.916 522.38 139.618 522.38 140.274C522.193 143.601 521.959 147.396 522.615 148.286C523.645 149.692 524.722 150.394 525.752 150.254C527.531 150.066 528.842 147.677 529.17 147.021C527.484 143.648 526.501 140.274 525.939 137.557C525.611 138.4 525.19 139.056 524.722 139.431C524.3 139.806 523.41 140.087 522.474 138.307ZM521.678 133.012C521.538 133.293 521.491 134.324 522.053 135.964C522.053 135.355 522.053 134.839 522.006 134.418C521.912 133.528 521.772 133.153 521.678 133.012ZM526.079 132.403C525.986 132.778 525.986 133.762 526.126 135.121C526.314 133.996 526.314 132.919 526.079 132.403Z" fill="white"/>
<path d="M525.564 152.55C523.223 152.784 521.116 151.144 520.695 148.848L519.899 144.397L521.116 144.725C523.645 145.428 526.36 145.147 528.701 143.976L529.685 143.46V147.958C529.685 150.395 527.905 152.362 525.564 152.55Z" fill="#1B253C"/>
</svg>
