<svg width="72" height="72" viewBox="0 0 72 72" fill="none" xmlns="http://www.w3.org/2000/svg">
<circle cx="36" cy="36" r="36" fill="white"/>
<g clip-path="url(#clip0)">
<path d="M36.3222 21C30.6301 21 25.9995 25.7034 25.9995 31.4844V39.8335C25.9995 45.6145 30.6301 50.3176 36.3222 50.3176C42.0138 50.3176 46.6448 45.6287 46.6448 39.8655V31.4844C46.6448 25.7034 42.0138 21 36.3222 21ZM44.7032 39.8655C44.7032 44.5583 40.9437 48.376 36.3222 48.376C31.7009 48.376 27.9411 44.5437 27.9411 39.8332V31.4844C27.9411 26.7738 31.7009 22.9415 36.3222 22.9415C40.9437 22.9415 44.7032 26.7738 44.7032 31.4844V39.8655Z" fill="#FFA339"/>
<path d="M35.9708 29.0251C35.4346 29.0251 35 29.4598 35 29.9959V33.3937C35 33.9299 35.4346 34.3645 35.9708 34.3645C36.507 34.3645 36.9416 33.9299 36.9416 33.3937V29.9959C36.9416 29.4598 36.507 29.0251 35.9708 29.0251Z" fill="#FFA339"/>
</g>
<defs>
<clipPath id="clip0">
<rect width="29.3176" height="29.3176" fill="white" transform="translate(19.5928 21)"/>
</clipPath>
</defs>
</svg>
