<svg width="20" height="20" viewBox="0 0 20 20" fill="none" xmlns="http://www.w3.org/2000/svg">
<circle cx="10" cy="10" r="10" fill="#FFA339"/>
<path d="M13.2272 8.54556H10.8864V6.20461C10.8864 5.53934 10.3472 5 9.68181 5C9.01638 5 8.4772 5.53934 8.4772 6.20461V8.54556H6.13625C5.47082 8.54556 4.93164 9.0849 4.93164 9.75017C4.93164 10.4154 5.47082 10.9548 6.13625 10.9548H8.4772V13.2957C8.4772 13.961 9.01638 14.5003 9.68181 14.5003C10.3472 14.5003 10.8864 13.961 10.8864 13.2957V10.9548H13.2272C13.8926 10.9548 14.4318 10.4154 14.4318 9.75017C14.4318 9.0849 13.8926 8.54556 13.2272 8.54556Z" fill="white"/>
</svg>
