<svg width="14" height="20" viewBox="0 0 14 20" fill="none" xmlns="http://www.w3.org/2000/svg">
<path d="M13.3333 10.4924C12.8913 9.89162 12.2242 9.47893 11.3321 9.25463C12.4681 8.64559 12.9673 7.6119 12.8303 6.1534C12.7844 5.62452 12.6454 5.16615 12.4127 4.77763C12.1799 4.38902 11.8658 4.0766 11.4691 3.84026C11.0727 3.60363 10.6416 3.42349 10.1768 3.2993C9.71184 3.17511 9.17804 3.08493 8.57575 3.0289V0H6.81481V2.94474C6.50987 2.94474 6.04485 2.95274 5.41976 2.96878V0H3.65858V3.0289C3.40692 3.03694 3.03722 3.04102 2.54932 3.04102L0.125 3.0289V5.00012H1.39428C1.9737 5.00012 2.31296 5.27262 2.41205 5.81742V9.26705C2.4884 9.26705 2.54932 9.27117 2.5951 9.27917H2.41205V14.1108C2.35113 14.5193 2.13007 14.7238 1.74884 14.7238H0.47964L0.12508 16.9234H2.41225C2.55713 16.9234 2.76665 16.9254 3.04122 16.929C3.31563 16.9331 3.52139 16.9351 3.65866 16.9351V20H5.42012V16.9711C5.74023 16.9794 6.20526 16.9833 6.81517 16.9833V20H8.57615V16.9351C9.20143 16.9031 9.75602 16.8433 10.2399 16.7549C10.7241 16.6664 11.1873 16.5284 11.6294 16.34C12.0714 16.1518 12.4411 15.9173 12.7384 15.6368C13.0359 15.3566 13.2815 14.9999 13.4763 14.5671C13.6704 14.1343 13.7944 13.6335 13.8476 13.0645C13.9471 11.951 13.7755 11.0935 13.3333 10.4924ZM5.45401 5.13197C5.5074 5.13197 5.65796 5.12995 5.90574 5.12591C6.15363 5.12178 6.35939 5.11782 6.52329 5.11378C6.68723 5.10982 6.90833 5.11984 7.18671 5.14388C7.46497 5.16792 7.69936 5.20004 7.8899 5.24004C8.08044 5.28003 8.29028 5.34617 8.51879 5.43832C8.7477 5.53039 8.93055 5.64262 9.06761 5.77481C9.20496 5.907 9.32119 6.07535 9.41632 6.2797C9.51173 6.484 9.5594 6.71836 9.5594 6.98274C9.5594 7.20713 9.52515 7.41151 9.45662 7.59591C9.38821 7.78017 9.28503 7.93446 9.14796 8.05865C9.01085 8.18288 8.86954 8.29116 8.72467 8.38323C8.57995 8.4753 8.3949 8.54948 8.17008 8.60551C7.94529 8.66163 7.74899 8.7057 7.58136 8.7377C7.41362 8.76978 7.20401 8.79188 6.95239 8.80384C6.70073 8.81579 6.51007 8.82396 6.38054 8.82792C6.25088 8.83187 6.07368 8.83187 5.8487 8.82792C5.62368 8.82396 5.49234 8.82185 5.45413 8.82185V5.13193H5.45401V5.13197ZM10.2629 13.317C10.1903 13.5014 10.097 13.6618 9.98277 13.7981C9.86829 13.9341 9.71765 14.0544 9.53096 14.1584C9.34431 14.2627 9.16306 14.3467 8.98786 14.4108C8.81243 14.4752 8.60078 14.531 8.35325 14.5792C8.10515 14.6274 7.88802 14.6612 7.70104 14.6814C7.51435 14.7014 7.29145 14.7174 7.03214 14.7295C6.77303 14.7413 6.57088 14.7474 6.42608 14.7474C6.2812 14.7474 6.0982 14.7452 5.8771 14.7413C5.65588 14.7376 5.51497 14.7355 5.45393 14.7355V10.6728C5.51485 10.6728 5.69593 10.6689 5.99714 10.6608C6.29839 10.6527 6.54412 10.6489 6.73474 10.6489C6.92531 10.6489 7.18843 10.6608 7.524 10.685C7.85926 10.7088 8.14136 10.7447 8.37027 10.7928C8.5989 10.841 8.8484 10.915 9.11924 11.0153C9.38981 11.1154 9.60911 11.2375 9.77689 11.3818C9.94464 11.5263 10.0856 11.7103 10.1999 11.9347C10.3145 12.159 10.3717 12.4155 10.3717 12.704C10.3716 12.9286 10.3354 13.1326 10.2629 13.317Z" fill="white"/>
</svg>
