<svg width="20" height="20" viewBox="0 0 20 20" fill="none" xmlns="http://www.w3.org/2000/svg">
<path fill-rule="evenodd" clip-rule="evenodd" d="M0.269067 0.268721C-0.089228 0.627017 -0.0892275 1.20793 0.269068 1.56622L8.70267 9.99983L0.268722 18.4338C-0.0895738 18.7921 -0.0895739 19.373 0.268721 19.7313C0.627017 20.0896 1.20793 20.0896 1.56622 19.7313L10.0002 11.2973L18.4341 19.7313C18.7924 20.0895 19.3733 20.0895 19.7316 19.7313C20.0899 19.373 20.0899 18.792 19.7316 18.4337L11.2977 9.99983L19.7313 1.56625C20.0895 1.20795 20.0895 0.627043 19.7313 0.268747C19.373 -0.0895481 18.792 -0.0895476 18.4337 0.268748L10.0002 8.70232L1.56657 0.268722C1.20827 -0.0895738 0.627363 -0.0895739 0.269067 0.268721Z" fill="#191234"/>
</svg>
