<svg width="20" height="20" viewBox="0 0 20 20" fill="none" xmlns="http://www.w3.org/2000/svg">
<path fill-rule="evenodd" clip-rule="evenodd" d="M20 10C20 15.5228 15.5228 20 10 20C4.47715 20 0 15.5228 0 10C0 4.47715 4.47715 0 10 0C15.5228 0 20 4.47715 20 10ZM2.95032 6.47998V6.48011H2.97589C3.30763 6.48355 3.92215 6.55397 3.93024 6.81477V10.1201H5.01024V6.48109C5.04523 6.48109 5.08393 6.48075 5.12565 6.48039C5.47752 6.47732 6.04452 6.47237 6.41985 6.65109C7.28985 7.06537 7.39985 7.43109 7.39985 8.51109C7.39985 9.59109 6.72985 10.0711 5.64985 10.3211C4.78585 10.5211 2.62985 10.3378 1.65985 10.2211C2.39652 10.4144 4.22585 10.7691 5.64985 10.6411C7.42985 10.4811 7.98985 9.92109 8.18985 9.40109C8.38985 8.88109 8.44985 7.65109 7.98985 6.89109C7.52801 6.12805 6.15018 6.1211 5.01025 6.12109V6.12012H5.01024H3.93024H2.95032V6.47998ZM2.95032 13.5002V13.8602H6.07032V13.5002H2.95032ZM5.01024 10.9199H3.93024V13.1001C3.8969 13.2134 3.77024 13.4521 3.53024 13.5001H3.93024V13.4999H5.01024V10.9199ZM5.01025 13.1001C5.04358 13.2134 5.17023 13.4521 5.41019 13.5001H5.01025V13.1001ZM8.9101 6.47998V6.48012H8.93585C9.26981 6.4836 9.89005 6.55495 9.89005 6.81998L9.62999 12.4829V12.46C9.62999 12.4701 9.62988 12.4801 9.62966 12.49L9.6268 12.5522C9.57469 13.2925 8.89603 13.4936 8.54999 13.5H9.58328L9.58328 13.5H8.54999V13.86H11.13V13.5V13.5C10.8072 13.5 10.175 13.4191 10.1234 13.1022L10.28 7.60012L13.13 13.8501H13.31L16.29 7.80288V13.0599C16.29 13.4039 15.7034 13.4965 15.41 13.4999L15.4116 13.5H15.41V13.86H18.33V13.5H18.3293L18.33 13.4999C17.9767 13.4965 17.27 13.3499 17.27 12.7899V6.83985C17.27 6.72216 17.4566 6.48903 18.1959 6.48012H18.25V6.12012H16.39L13.5 12.2201L10.87 6.74012V6.48012H10.8701V6.12012H8.9101V6.47998ZM10.28 7.60012V7.59998L10.28 7.59995H10.2801L10.28 7.60012ZM10.85 6.5084V6.48012H10.8648L10.85 6.5084ZM16.29 13.4999L16.2916 13.5H16.29V13.4999Z" fill="white"/>
</svg>
