<svg width="34" height="42" viewBox="0 0 34 42" fill="none" xmlns="http://www.w3.org/2000/svg">
<path d="M16.9999 41.8334C14.6987 41.8334 12.8333 39.9679 12.8333 37.6667H21.1666C21.1666 39.9679 19.3011 41.8334 16.9999 41.8334ZM33.6666 35.5834H0.333252V31.4167L4.49992 29.3334V17.875C4.49992 10.6625 7.46034 5.98544 12.8333 4.70835V0.166687H19.0833C17.7248 1.96656 16.9931 4.16173 16.9999 6.41669C16.9998 6.94039 17.0388 7.46337 17.1166 7.98127H16.9999C14.458 7.81663 12.0062 8.95347 10.4895 11C9.19272 13.0512 8.55646 15.4508 8.66658 17.875V31.4167H25.3333V17.875C25.3333 17.4354 25.3187 17.0125 25.2895 16.625C26.6675 16.9097 28.0887 16.9147 29.4687 16.6396C29.4916 17.0792 29.4999 17.4979 29.4999 17.8896V29.3334L33.6666 31.4167V35.5834ZM27.4166 12.6667C26.1578 12.6682 24.9281 12.2883 23.8895 11.5771C21.4349 9.89915 20.5022 6.7242 21.6592 3.98524C22.8163 1.24628 25.7428 -0.29835 28.657 0.291765C31.5712 0.88188 33.6662 3.44335 33.6666 6.41669C33.6666 9.86847 30.8684 12.6667 27.4166 12.6667Z" fill="#0080FF"/>
</svg>
