<svg width="42" height="42" viewBox="0 0 42 42" fill="none" xmlns="http://www.w3.org/2000/svg">
<path d="M24.7917 41.8334H17.2084C16.2294 41.8334 15.3824 41.1521 15.1729 40.1959L14.325 36.2709C13.1939 35.7753 12.1213 35.1555 11.1271 34.4229L7.30003 35.6417C6.3667 35.9393 5.35209 35.5465 4.86253 34.6979L1.06253 28.1334C0.578342 27.2844 0.745156 26.2135 1.46462 25.5521L4.43337 22.8438C4.29836 21.6169 4.29836 20.379 4.43337 19.1521L1.46462 16.45C0.744096 15.7883 0.577216 14.7161 1.06253 13.8667L4.8542 7.29794C5.34376 6.44939 6.35837 6.05655 7.2917 6.35419L11.1188 7.57294C11.6272 7.19618 12.1566 6.8484 12.7042 6.53127C13.2299 6.2348 13.7709 5.96637 14.325 5.7271L15.175 1.80627C15.3835 0.849955 16.2296 0.167717 17.2084 0.166687H24.7917C25.7705 0.167717 26.6166 0.849955 26.825 1.80627L27.6834 5.72919C28.2683 5.98651 28.838 6.27727 29.3896 6.60002C29.9041 6.89755 30.4014 7.22376 30.8792 7.5771L34.7084 6.35835C35.6411 6.06183 36.6544 6.45452 37.1438 7.3021L40.9354 13.8709C41.4196 14.7198 41.2528 15.7907 40.5334 16.4521L37.5646 19.1604C37.6996 20.3873 37.6996 21.6253 37.5646 22.8521L40.5334 25.5604C41.2528 26.2219 41.4196 27.2928 40.9354 28.1417L37.1438 34.7104C36.6544 35.558 35.6411 35.9507 34.7084 35.6542L30.8792 34.4354C30.3947 34.7923 29.8912 35.1227 29.3709 35.425C28.8247 35.7415 28.2613 36.0274 27.6834 36.2813L26.825 40.1959C26.6157 41.1513 25.7698 41.8325 24.7917 41.8334ZM11.875 29.8104L13.5834 31.0604C13.9685 31.3441 14.3699 31.605 14.7854 31.8417C15.1765 32.0682 15.5791 32.274 15.9917 32.4584L17.9354 33.3104L18.8875 37.6667H23.1167L24.0688 33.3084L26.0125 32.4563C26.8611 32.0821 27.6665 31.6168 28.4146 31.0688L30.125 29.8188L34.3771 31.1729L36.4917 27.5104L33.1938 24.5042L33.4271 22.3959C33.5296 21.4737 33.5296 20.543 33.4271 19.6209L33.1938 17.5125L36.4938 14.5L34.3771 10.8354L30.125 12.1896L28.4146 10.9396C27.6663 10.389 26.861 9.92034 26.0125 9.54169L24.0688 8.6896L23.1167 4.33335H18.8875L17.9313 8.69169L15.9917 9.54169C15.5788 9.72303 15.1761 9.92681 14.7854 10.1521C14.3724 10.3882 13.9731 10.6477 13.5896 10.9292L11.8792 12.1792L7.6292 10.825L5.51045 14.5L8.80837 17.5021L8.57503 19.6125C8.47254 20.5347 8.47254 21.4654 8.57503 22.3875L8.80837 24.4959L5.51045 27.5021L7.62503 31.1646L11.875 29.8104ZM20.9917 29.3334C16.3893 29.3334 12.6584 25.6024 12.6584 21C12.6584 16.3976 16.3893 12.6667 20.9917 12.6667C25.5941 12.6667 29.325 16.3976 29.325 21C29.3193 25.6 25.5917 29.3276 20.9917 29.3334ZM20.9917 16.8334C18.7154 16.8357 16.8623 18.6643 16.8297 20.9403C16.7971 23.2163 18.597 25.0973 20.8723 25.1649C23.1476 25.2324 25.0559 23.4615 25.1584 21.1875V22.0209V21C25.1584 18.6988 23.2929 16.8334 20.9917 16.8334Z" fill="#0080FF"/>
</svg>
