<svg width="30" height="30" viewBox="0 0 30 30" fill="none" xmlns="http://www.w3.org/2000/svg">
<path d="M23.3332 29.5834C20.8053 29.5834 18.5263 28.0606 17.5589 25.7251C16.5915 23.3897 17.1263 20.7014 18.9138 18.9139C20.7012 17.1264 23.3895 16.5917 25.7249 17.5591C28.0604 18.5265 29.5832 20.8055 29.5832 23.3334C29.5832 24.991 28.9247 26.5807 27.7526 27.7528C26.5805 28.9249 24.9908 29.5834 23.3332 29.5834ZM6.6665 29.5834C3.21472 29.5834 0.416504 26.7851 0.416504 23.3334C0.416504 19.8816 3.21472 17.0834 6.6665 17.0834C10.1183 17.0834 12.9165 19.8816 12.9165 23.3334C12.9165 24.991 12.258 26.5807 11.0859 27.7528C9.91382 28.9249 8.32411 29.5834 6.6665 29.5834ZM23.3332 12.9167C19.8814 12.9167 17.0832 10.1185 17.0832 6.66669C17.0832 3.21491 19.8814 0.416687 23.3332 0.416687C26.785 0.416687 29.5832 3.21491 29.5832 6.66669C29.5832 10.1185 26.785 12.9167 23.3332 12.9167ZM6.6665 12.9167C3.21472 12.9167 0.416504 10.1185 0.416504 6.66669C0.416504 3.21491 3.21472 0.416687 6.6665 0.416687C10.1183 0.416687 12.9165 3.21491 12.9165 6.66669C12.9165 8.32429 12.258 9.914 11.0859 11.0861C9.91382 12.2582 8.32411 12.9167 6.6665 12.9167Z" fill="#0080FF"/>
</svg>
