<svg width="42" height="34" viewBox="0 0 42 34" fill="none" xmlns="http://www.w3.org/2000/svg">
<path d="M37.6665 33.6666H4.33317C2.03198 33.6666 0.166504 31.8012 0.166504 29.5V4.49998C0.166504 2.19879 2.03198 0.333313 4.33317 0.333313H37.6665C39.9677 0.333313 41.8332 2.19879 41.8332 4.49998V29.5C41.8332 31.8012 39.9677 33.6666 37.6665 33.6666ZM4.33317 4.49998V29.5H37.6665V4.49998H4.33317ZM28.2915 25.3333C25.415 25.3333 23.0832 23.0015 23.0832 20.125C23.0832 17.2485 25.415 14.9166 28.2915 14.9166C31.168 14.9166 33.4998 17.2485 33.4998 20.125C33.4998 21.5063 32.9511 22.8311 31.9744 23.8078C30.9976 24.7846 29.6728 25.3333 28.2915 25.3333ZM19.9582 25.3333C17.0817 25.3333 14.7498 23.0015 14.7498 20.125C14.7498 17.2485 17.0817 14.9166 19.9582 14.9166C21.089 14.9175 22.1878 15.2926 23.0832 15.9833C21.7733 16.9565 21.0011 18.4921 21.0011 20.1239C21.0011 21.7558 21.7733 23.2914 23.0832 24.2646C22.1881 24.956 21.0893 25.3318 19.9582 25.3333Z" fill="#0080FF"/>
</svg>
