<svg width="42" height="38" viewBox="0 0 42 38" fill="none" xmlns="http://www.w3.org/2000/svg">
<path d="M14.7498 0.25C8.99687 0.25 4.33317 4.9137 4.33317 10.6667C4.33317 16.4196 8.99687 21.0833 14.7498 21.0833C20.5028 21.0833 25.1665 16.4196 25.1665 10.6667C25.1665 4.9137 20.5028 0.25 14.7498 0.25ZM8.49984 10.6667C8.49984 7.21489 11.2981 4.41667 14.7498 4.41667C18.2016 4.41667 20.9998 7.21489 20.9998 10.6667C20.9998 14.1184 18.2016 16.9167 14.7498 16.9167C11.2981 16.9167 8.49984 14.1184 8.49984 10.6667Z" fill="#0080FF"/>
<path d="M31.2257 11.1214C30.6396 10.8226 29.9911 10.6668 29.3332 10.6668V6.50012C30.649 6.50012 31.9461 6.81159 33.1184 7.40927C33.2475 7.4751 33.3747 7.54419 33.4998 7.61645C34.5111 8.20029 35.3898 8.99102 36.0775 9.93865C36.8504 11.0036 37.3601 12.2364 37.5649 13.5362C37.7697 14.836 37.6639 16.1658 37.2559 17.4168C36.848 18.6678 36.1497 19.8044 35.218 20.7336C34.2864 21.6628 33.1479 22.3582 31.8959 22.7628C30.7817 23.1229 29.6058 23.2437 28.4447 23.1192C28.301 23.1038 28.1576 23.0846 28.0145 23.0617C26.7161 22.8536 25.4854 22.3412 24.423 21.5664L24.4208 21.5649L26.877 18.1991C27.4084 18.5869 28.0242 18.8433 28.6738 18.9474C29.3234 19.0515 29.9885 19.0003 30.6145 18.798C31.2405 18.5957 31.8097 18.248 32.2755 17.7834C32.7413 17.3188 33.0905 16.7505 33.2944 16.125C33.4984 15.4995 33.5513 14.8347 33.4489 14.1848C33.3465 13.5349 33.0917 12.9185 32.7053 12.3861C32.3188 11.8536 31.8118 11.4202 31.2257 11.1214Z" fill="#0080FF"/>
<path d="M37.6626 37.75C37.6626 36.6562 37.4471 35.5731 37.0285 34.5625C36.6099 33.5519 35.9964 32.6337 35.2229 31.8602C34.4495 31.0868 33.5313 30.4732 32.5207 30.0547C31.5101 29.6361 30.427 29.4206 29.3332 29.4206V25.25C30.7542 25.25 32.1631 25.4923 33.4998 25.9649C33.7073 26.0382 33.913 26.1171 34.1167 26.2015C35.6333 26.8297 37.0113 27.7504 38.172 28.9112C39.3327 30.0719 40.2535 31.4499 40.8817 32.9665C40.9661 33.1702 41.0449 33.3759 41.1183 33.5833C41.5909 34.92 41.8332 36.329 41.8332 37.75H37.6626Z" fill="#0080FF"/>
<path d="M29.3332 37.75H25.1665C25.1665 31.997 20.5028 27.3333 14.7498 27.3333C8.99687 27.3333 4.33317 31.997 4.33317 37.75H0.166504C0.166504 29.6958 6.69568 23.1667 14.7498 23.1667C22.804 23.1667 29.3332 29.6958 29.3332 37.75Z" fill="#0080FF"/>
</svg>
