<svg width="38" height="40" viewBox="0 0 38 40" fill="none" xmlns="http://www.w3.org/2000/svg">
<path d="M35.6667 0.25H2.33333C1.18125 0.25 0.25 1.18125 0.25 2.33333V7.72917C0.25 8.81875 0.69375 9.88958 1.46458 10.6604L12.75 21.9458V37.75C12.75 38.4729 13.125 39.1417 13.7396 39.5229C14.0729 39.7292 14.4521 39.8333 14.8333 39.8333C15.1521 39.8333 15.4708 39.7604 15.7646 39.6146L24.0979 35.4479C24.8042 35.0938 25.25 34.3729 25.25 33.5833V21.9458L36.5354 10.6604C37.3062 9.88958 37.75 8.81875 37.75 7.72917V2.33333C37.75 1.18125 36.8187 0.25 35.6667 0.25ZM21.6938 19.6104C21.3021 20 21.0833 20.5292 21.0833 21.0833V32.2958L16.9167 34.3792V21.0833C16.9167 20.5292 16.6979 20 16.3062 19.6104L4.41667 7.72917V4.41667H33.5854L33.5896 7.71458L21.6938 19.6104Z" fill="#0080FF"/>
</svg>
