<svg width="127" height="26" viewBox="0 0 127 26" fill="none" xmlns="http://www.w3.org/2000/svg">
<path d="M32.9868 5.8501L39.2138 20.15H36.9485L34.9328 15.4888H29.2545L27.1689 20.15H26.0513L32.428 5.8501H32.9868ZM29.6437 14.5819H34.5235L32.1186 9.04545L29.6437 14.5819Z" fill="white"/>
<path d="M47.191 6.16724H51.7814C52.5731 6.16724 53.2682 6.25862 53.867 6.44142C54.4657 6.61717 54.9648 6.86676 55.364 7.19018C55.7632 7.51357 56.0624 7.90023 56.262 8.35017C56.4683 8.79312 56.5714 9.27819 56.5714 9.8055C56.5714 10.2414 56.4916 10.6492 56.3319 11.0288C56.1789 11.4084 55.9592 11.7529 55.6731 12.0622C55.3937 12.3646 55.0546 12.6282 54.6554 12.8532C54.2562 13.0711 53.8172 13.2434 53.3382 13.3699L58.1582 20.1508H55.5735L50.9732 13.5808H49.4165V20.1508H47.191V6.16724ZM49.4165 12.8743H50.7037C51.2025 12.8743 51.6617 12.804 52.0806 12.6634C52.5066 12.5227 52.8726 12.3259 53.1785 12.0728C53.4911 11.8127 53.7341 11.4998 53.9069 11.1342C54.08 10.7687 54.1665 10.3574 54.1665 9.9004C54.1665 9.47857 54.0966 9.09191 53.9567 8.74038C53.8239 8.38884 53.631 8.09006 53.3781 7.84398C53.1319 7.59088 52.8359 7.39404 52.49 7.25342C52.1506 7.11284 51.7782 7.04251 51.3724 7.04251H49.4165V12.8743Z" fill="white"/>
<path d="M66.0955 6.16724H71.4241C72.1295 6.16724 72.7749 6.2516 73.3602 6.42033C73.9523 6.58204 74.4578 6.81405 74.8771 7.11635C75.3027 7.41864 75.6323 7.78074 75.8651 8.20256C76.0979 8.62439 76.2141 9.0884 76.2141 9.59459C76.2141 9.98125 76.1777 10.3257 76.1046 10.628C76.0315 10.9304 75.9015 11.2116 75.7153 11.4717C75.5291 11.7248 75.2794 11.9673 74.9668 12.1994C74.6609 12.4243 74.2716 12.6563 73.7993 12.8954V12.9375C74.2716 13.0149 74.6973 13.1485 75.0767 13.3383C75.4557 13.5281 75.7785 13.7707 76.0446 14.066C76.3173 14.3542 76.5271 14.6951 76.6733 15.0889C76.8196 15.4755 76.8927 15.9009 76.8927 16.3649C76.8927 16.8922 76.7832 17.3878 76.5635 17.8518C76.3508 18.3088 76.0414 18.7095 75.6355 19.054C75.2363 19.3915 74.7506 19.6587 74.1784 19.8555C73.6132 20.0523 72.9777 20.1508 72.2726 20.1508H66.0955V6.16724ZM68.3209 12.463H71.1549C71.6007 12.463 71.9964 12.3962 72.3422 12.2626C72.6884 12.1291 72.9809 11.9463 73.2204 11.7143C73.4599 11.4752 73.6397 11.194 73.7594 10.8706C73.8859 10.5402 73.9491 10.1851 73.9491 9.8055C73.9491 9.39772 73.876 9.02864 73.7294 8.69819C73.5831 8.36073 73.3535 8.07247 73.0409 7.83345C72.735 7.59443 72.3422 7.41162 71.8632 7.28508C71.3909 7.15853 70.8222 7.09525 70.157 7.09525H68.3209V12.463ZM68.3209 19.1279H70.7258C71.3711 19.1279 71.93 19.0646 72.4023 18.938C72.8813 18.8044 73.2737 18.6217 73.5796 18.3896C73.8926 18.1506 74.1219 17.8659 74.2684 17.5355C74.4214 17.205 74.4977 16.8429 74.4977 16.4492C74.4977 16.0063 74.4313 15.5951 74.2981 15.2154C74.1653 14.8358 73.9456 14.5088 73.6397 14.2347C73.3401 13.9534 72.9445 13.732 72.4521 13.5703C71.9664 13.4086 71.3676 13.3277 70.6558 13.3277H68.3209V19.1279Z" fill="white"/>
<path d="M85.7385 6.16724H87.9636V20.1508H85.7385V6.16724Z" fill="white"/>
<path d="M106.898 6.16724V7.07416H99.9226V12.0728H104.593V12.9797H99.9226V19.2438H106.898V20.1508H97.6975V6.16724H106.898Z" fill="white"/>
<path d="M115.015 20.1508H113.847L119.426 13.2539L114.337 6.16724H116.981L120.823 11.535L125.154 6.16724H126.331L121.362 12.3048L127 20.1508H124.336L119.965 14.0238L115.015 20.1508Z" fill="white"/>
<path d="M13.0256 0L0 26L12.0487 21.775L13.0256 0Z" fill="url(#paint0_linear)"/>
<path d="M16.282 22.75L12.0487 21.775L13.0256 0L16.282 22.75Z" fill="url(#paint1_linear)"/>
<path d="M12.0487 21.7751L0 26.0001L16.282 22.7501L12.0487 21.7751Z" fill="url(#paint2_linear)"/>
<defs>
<linearGradient id="paint0_linear" x1="13.0256" y1="13" x2="0" y2="13" gradientUnits="userSpaceOnUse">
<stop stop-color="#1AD9B6"/>
<stop offset="1" stop-color="#30F3D0"/>
</linearGradient>
<linearGradient id="paint1_linear" x1="12.0487" y1="11.375" x2="16.282" y2="11.375" gradientUnits="userSpaceOnUse">
<stop stop-color="#15FDD3"/>
<stop offset="1" stop-color="#1BD0AF"/>
</linearGradient>
<linearGradient id="paint2_linear" x1="8.14102" y1="21.7751" x2="8.14102" y2="26.0001" gradientUnits="userSpaceOnUse">
<stop stop-color="#11C4A3"/>
<stop offset="1" stop-color="#11A388"/>
</linearGradient>
</defs>
</svg>
