<svg width="195" height="40" viewBox="0 0 195 40" fill="none" xmlns="http://www.w3.org/2000/svg">
<path d="M50.6491 9L60.2102 30.9999H56.7319L53.6371 23.8288H44.9183L41.7161 30.9999H40L49.791 9H50.6491ZM45.516 22.4335H53.0085L49.3159 13.9159L45.516 22.4335Z" fill="#19233B"/>
<path d="M72.4587 9.48706H79.507C80.7225 9.48706 81.7899 9.62765 82.7092 9.90889C83.6285 10.1793 84.3949 10.5632 85.0078 11.0608C85.6207 11.5583 86.0801 12.1532 86.3865 12.8454C86.7033 13.5269 86.8617 14.2731 86.8617 15.0844C86.8617 15.755 86.7391 16.3823 86.4939 16.9664C86.2591 17.5505 85.9217 18.0804 85.4824 18.5563C85.0534 19.0214 84.5327 19.427 83.9198 19.7731C83.3069 20.1084 82.6327 20.3734 81.8972 20.5681L89.298 31.0002H85.3294L78.266 20.8926H75.8757V31.0002H72.4587V9.48706ZM75.8757 19.8056H77.8522C78.618 19.8056 79.3231 19.6974 79.9664 19.4811C80.6205 19.2648 81.1824 18.9619 81.6521 18.5725C82.1321 18.1724 82.5052 17.691 82.7705 17.1286C83.0362 16.5662 83.1691 15.9334 83.1691 15.2304C83.1691 14.5814 83.0617 13.9866 82.847 13.4457C82.643 12.9049 82.3469 12.4452 81.9585 12.0667C81.5805 11.6773 81.126 11.3745 80.595 11.1581C80.0738 10.9418 79.5021 10.8336 78.8789 10.8336H75.8757V19.8056Z" fill="#19233B"/>
<path d="M101.485 9.48706H109.667C110.75 9.48706 111.741 9.61685 112.64 9.87644C113.549 10.1252 114.325 10.4822 114.969 10.9472C115.622 11.4123 116.128 11.9694 116.486 12.6183C116.843 13.2673 117.022 13.9812 117.022 14.7599C117.022 15.3548 116.966 15.8847 116.853 16.3498C116.741 16.8149 116.542 17.2476 116.256 17.6477C115.97 18.0371 115.586 18.4103 115.106 18.7672C114.637 19.1134 114.039 19.4703 113.314 19.838V19.9029C114.039 20.0219 114.693 20.2274 115.275 20.5194C115.857 20.8115 116.353 21.1847 116.761 21.6389C117.18 22.0824 117.502 22.6069 117.727 23.2126C117.951 23.8075 118.064 24.4619 118.064 25.1757C118.064 25.987 117.895 26.7495 117.558 27.4633C117.231 28.1664 116.756 28.7829 116.133 29.3129C115.52 29.8321 114.775 30.2431 113.896 30.5459C113.028 30.8488 112.052 31.0002 110.97 31.0002H101.485V9.48706ZM104.902 19.1729H109.254C109.938 19.1729 110.546 19.0701 111.077 18.8646C111.608 18.6591 112.057 18.3779 112.425 18.0209C112.793 17.6532 113.069 17.2205 113.253 16.723C113.447 16.2146 113.544 15.6685 113.544 15.0844C113.544 14.457 113.432 13.8892 113.207 13.3808C112.982 12.8617 112.629 12.4182 112.149 12.0505C111.68 11.6827 111.077 11.4015 110.341 11.2068C109.616 11.0121 108.743 10.9148 107.721 10.9148H104.902V19.1729ZM104.902 29.4265H108.595C109.586 29.4265 110.444 29.3291 111.169 29.1344C111.904 28.9289 112.507 28.6477 112.977 28.2907C113.457 27.923 113.809 27.485 114.034 26.9766C114.269 26.4683 114.386 25.9112 114.386 25.3055C114.386 24.6242 114.284 23.9914 114.08 23.4073C113.876 22.8233 113.538 22.3203 113.069 21.8985C112.609 21.4658 112.001 21.1252 111.245 20.8764C110.499 20.6276 109.58 20.5032 108.487 20.5032H104.902V29.4265Z" fill="#19233B"/>
<path d="M131.646 9.48706H135.062V31.0002H131.646V9.48706Z" fill="#19233B"/>
<path d="M164.135 9.48706V10.8823H153.424V18.5725H160.595V19.9678H153.424V29.6049H164.135V31.0002H150.008V9.48706H164.135Z" fill="#19233B"/>
<path d="M176.598 31.0002H174.805L183.37 20.3896L175.556 9.48706H179.616L185.515 17.7451L192.166 9.48706H193.973L186.343 18.9295L195 31.0002H190.909L184.198 21.574L176.598 31.0002Z" fill="#19233B"/>
<path d="M20 0L0 40L18.5 33.5L20 0Z" fill="url(#paint0_linear)"/>
<path d="M25 35L18.5 33.5L20 0L25 35Z" fill="url(#paint1_linear)"/>
<path d="M18.5 33.5L0 40L25 35L18.5 33.5Z" fill="url(#paint2_linear)"/>
<defs>
<linearGradient id="paint0_linear" x1="20" y1="20" x2="0" y2="20" gradientUnits="userSpaceOnUse">
<stop stop-color="#1AD9B6"/>
<stop offset="1" stop-color="#30F3D0"/>
</linearGradient>
<linearGradient id="paint1_linear" x1="18.5" y1="17.5" x2="25" y2="17.5" gradientUnits="userSpaceOnUse">
<stop stop-color="#15FDD3"/>
<stop offset="1" stop-color="#1BD0AF"/>
</linearGradient>
<linearGradient id="paint2_linear" x1="12.5" y1="33.5" x2="12.5" y2="40" gradientUnits="userSpaceOnUse">
<stop stop-color="#11C4A3"/>
<stop offset="1" stop-color="#11A388"/>
</linearGradient>
</defs>
</svg>
