<svg width="559" height="525" viewBox="0 0 559 525" fill="none" xmlns="http://www.w3.org/2000/svg">
<mask id="mask0" mask-type="alpha" maskUnits="userSpaceOnUse" x="0" y="0" width="559" height="525">
<g opacity="0.2">
<path fill-rule="evenodd" clip-rule="evenodd" d="M268.212 73.4388C322.246 72.8545 356.136 -0.415641 410.154 1.02085C466.368 2.51575 539.535 27.1194 555.378 81.0754C572.686 140.023 509.919 191.972 482.341 246.87C466.037 279.326 435.882 303.095 426.254 338.116C411.823 390.602 449.4 457.399 413.266 498.11C380.361 535.184 317.044 524.699 268.212 516.18C223.211 508.329 191.029 471.601 149.706 452.129C103.814 430.504 30.8435 442.003 11.3775 395.154C-9.11414 345.837 65.9375 300.254 64.4194 246.87C62.8274 190.886 -11.3914 147.815 2.80327 93.6363C16.0357 43.131 75.9731 8.03364 128.033 4.07194C180.918 0.0474033 215.177 74.0124 268.212 73.4388Z" stroke="#19243A"/>
<path fill-rule="evenodd" clip-rule="evenodd" d="M277.961 231.985C286.589 231.891 292.001 220.131 300.626 220.362C309.603 220.601 321.287 224.55 323.816 233.21C326.58 242.671 316.557 251.009 312.154 259.82C309.55 265.029 304.735 268.844 303.197 274.465C300.893 282.889 306.893 293.61 301.123 300.144C295.869 306.095 285.758 304.412 277.961 303.045C270.775 301.784 265.636 295.89 259.037 292.764C251.709 289.294 240.057 291.139 236.948 283.62C233.676 275.704 245.661 268.388 245.418 259.82C245.164 250.835 233.312 243.922 235.579 235.226C237.692 227.12 247.263 221.487 255.576 220.851C264.021 220.205 269.492 232.077 277.961 231.985Z" stroke="#19243A"/>
<path d="M407.111 7.11362C354.354 5.71063 321.255 77.2721 268.483 77.8429C216.686 78.4031 183.226 6.16288 131.575 10.0936C80.7309 13.9629 22.1925 48.2418 9.26899 97.5694C-4.59439 150.484 67.8921 192.551 69.4469 247.23C70.9295 299.368 -2.37024 343.889 17.6431 392.056C36.6547 437.812 107.922 426.581 152.743 447.702C193.101 466.72 224.532 502.592 268.483 510.26C316.175 518.58 378.014 528.82 410.151 492.611C445.441 452.849 408.742 387.61 422.835 336.348C432.239 302.143 461.69 278.929 477.613 247.23C504.548 193.611 565.85 142.875 548.945 85.3014C533.472 32.6036 462.013 8.57367 407.111 7.11362Z" stroke="#19243A"/>
<path d="M404.068 13.2064C352.573 11.8369 320.264 81.6898 268.753 82.2469C218.194 82.7937 185.534 12.2784 135.118 16.1152C85.4887 19.8921 28.3494 53.3525 15.7347 101.502C2.20266 153.154 72.9567 194.217 74.4744 247.59C75.9216 298.483 4.37366 341.941 23.9087 388.958C42.4659 433.621 112.03 422.659 155.78 443.276C195.173 461.84 225.853 496.854 268.753 504.339C315.306 512.461 375.667 522.456 407.035 487.112C441.482 448.299 405.66 384.618 419.417 334.579C428.596 301.192 457.343 278.531 472.885 247.59C499.176 195.251 559.013 145.726 542.513 89.5273C527.409 38.0877 457.658 14.6316 404.068 13.2064Z" stroke="#19243A"/>
<path d="M401.026 19.2992C350.791 17.9632 319.274 86.1074 269.024 86.6509C219.703 87.1844 187.842 18.3938 138.66 22.1368C90.2465 25.8214 34.5062 58.4633 22.2004 105.435C8.99972 155.823 78.0213 195.882 79.5019 247.949C80.9136 297.598 11.1176 339.993 30.1742 385.859C48.2771 429.431 116.138 418.736 158.816 438.849C197.245 456.959 227.174 491.117 269.024 498.419C314.436 506.342 373.32 516.093 403.92 481.613C437.523 443.749 402.578 381.626 415.998 332.811C424.953 300.241 452.996 278.134 468.158 247.949C493.805 196.891 552.177 148.577 536.08 93.7533C521.347 43.5719 453.303 20.6895 401.026 19.2992Z" stroke="#19243A"/>
<path d="M397.985 25.392C349.011 24.0895 318.285 90.5251 269.296 91.055C221.213 91.575 190.152 24.5093 142.205 28.1584C95.0062 31.7506 40.665 63.5741 28.6681 109.368C15.7987 158.493 83.0879 197.547 84.5313 248.309C85.9076 296.713 17.8634 338.044 36.4418 382.761C54.0903 425.24 120.248 414.814 161.855 434.422C199.32 452.078 228.497 485.38 269.296 492.498C313.569 500.223 370.974 509.729 400.806 476.114C433.567 439.2 399.499 378.634 412.582 331.043C421.311 299.289 448.65 277.737 463.432 248.309C488.435 198.531 545.342 151.429 529.649 97.9792C515.286 49.0561 448.95 26.7474 397.985 25.392Z" stroke="#19243A"/>
<path d="M394.942 31.4848C347.229 30.2158 317.294 94.9429 269.567 95.4591C222.722 95.9658 192.461 30.6249 145.748 34.1802C99.764 37.68 46.8219 68.685 35.1338 113.302C22.5958 161.163 88.1525 199.212 89.5588 248.669C90.8996 295.828 24.6073 336.096 42.7074 379.663C59.9015 421.049 124.356 410.891 164.892 429.995C201.392 447.197 229.818 479.642 269.567 486.578C312.7 494.104 368.627 503.366 397.691 470.615C429.608 434.65 396.417 375.642 409.163 329.275C417.668 298.338 444.303 277.34 458.704 248.669C483.064 200.171 538.505 154.28 523.217 102.205C509.223 54.5404 444.595 32.8055 394.942 31.4848Z" stroke="#19243A"/>
<path d="M391.899 37.5776C345.447 36.3421 316.303 99.3605 269.837 99.8631C224.23 100.356 194.769 36.7404 149.29 40.2018C104.522 43.6092 52.9787 73.7958 41.5995 117.235C29.3928 163.832 93.2172 200.878 94.5862 249.029C95.8917 294.943 31.3512 334.148 48.9729 376.565C65.7127 416.859 128.464 406.969 167.928 425.568C203.464 442.316 231.139 473.905 269.837 480.658C311.83 487.985 366.28 497.002 394.576 465.116C425.649 430.1 393.335 372.65 405.745 327.507C414.025 297.386 439.956 276.943 453.977 249.029C477.693 201.811 531.669 157.131 516.784 106.431C503.16 60.0246 440.241 38.8634 391.899 37.5776Z" stroke="#19243A"/>
<path d="M388.857 43.6704C343.665 42.4684 315.313 103.778 270.108 104.267C225.739 104.747 197.077 42.8559 152.833 46.2234C109.28 49.5385 59.1356 78.9066 48.0653 121.168C36.1899 166.502 98.2818 202.543 99.6137 249.388C100.884 294.058 38.0951 332.2 55.2385 373.467C71.5239 412.668 132.572 403.046 170.965 421.142C205.536 437.435 232.46 468.168 270.108 474.737C310.961 481.866 363.932 490.638 391.46 459.617C421.69 425.551 390.254 369.658 402.326 325.739C410.382 296.435 435.609 276.546 449.249 249.388C472.321 203.451 524.832 159.983 510.352 110.657C497.098 65.5087 435.886 44.9213 388.857 43.6704Z" stroke="#19243A"/>
<path d="M385.814 49.7632C341.884 48.5947 314.322 108.196 270.378 108.671C227.247 109.138 199.385 48.9713 156.375 52.2451C114.037 55.4677 65.2924 84.0174 54.531 125.101C42.9869 169.172 103.346 204.208 104.641 249.748C105.876 293.172 44.839 330.252 61.5041 370.369C77.3351 408.477 136.679 399.124 174.002 416.715C207.608 432.554 233.781 462.43 270.378 468.817C310.092 475.747 361.585 484.275 388.345 454.118C417.731 421.001 387.172 366.666 398.908 323.971C406.738 295.484 431.262 276.149 444.521 249.748C466.95 205.091 517.996 162.834 503.919 114.883C491.035 70.9929 431.531 50.9792 385.814 49.7632Z" stroke="#19243A"/>
<path d="M382.771 55.8561C340.102 54.7211 313.331 112.614 270.649 113.075C228.755 113.529 201.693 55.0869 159.918 58.2668C118.795 61.3971 71.4493 89.1283 60.9967 129.034C49.784 171.841 108.411 205.873 109.669 250.108C110.868 292.287 51.5829 328.304 67.7697 367.271C83.1463 404.287 140.787 395.201 177.038 412.288C209.68 427.674 235.102 456.693 270.649 462.896C309.222 469.628 359.238 477.911 385.23 448.619C413.773 416.451 384.09 363.674 395.489 322.203C403.095 294.532 426.915 275.752 439.794 250.108C461.578 206.731 511.159 165.685 497.487 119.109C484.972 76.4772 427.176 57.0372 382.771 55.8561Z" stroke="#19243A"/>
<path d="M379.729 61.9488C338.32 60.8473 312.34 117.031 270.919 117.479C230.264 117.919 204.001 61.2024 163.461 64.2884C123.553 67.3263 77.6061 94.2391 67.4624 132.967C56.5811 174.511 113.476 207.539 114.696 250.468C115.86 291.402 58.3268 326.356 74.0353 364.172C88.9575 400.096 144.895 391.279 180.075 407.861C211.752 422.793 236.423 450.956 270.919 456.976C308.353 463.508 356.891 471.548 382.114 443.12C409.814 411.902 381.009 360.682 392.071 320.435C399.452 293.581 422.568 275.355 435.066 250.468C456.207 208.371 504.323 168.537 491.054 123.335C478.91 81.9614 422.821 63.0951 379.729 61.9488Z" stroke="#19243A"/>
<path d="M376.686 68.0416C336.538 66.9736 311.35 121.449 271.19 121.883C231.772 122.31 206.31 67.3179 167.003 70.3101C128.311 73.2555 83.763 99.3499 73.9281 136.9C63.3781 177.181 118.54 209.204 119.724 250.827C120.852 290.517 65.0707 324.408 80.3008 361.074C94.7687 395.906 149.003 387.356 183.112 403.434C213.825 417.912 237.743 445.218 271.19 451.055C307.484 457.389 354.543 465.184 378.999 437.621C405.855 407.352 377.927 357.69 388.652 318.667C395.809 292.629 418.22 274.957 430.338 250.827C450.835 210.011 497.486 171.388 484.622 127.561C472.847 87.4455 418.466 69.1531 376.686 68.0416Z" stroke="#19243A"/>
<path d="M373.645 74.1344C334.758 73.0999 310.361 125.867 271.462 126.287C233.283 126.7 208.62 73.4334 170.548 76.3317C133.07 79.1848 89.9218 104.461 80.3958 140.833C70.1771 179.85 123.607 210.869 124.753 251.187C125.846 289.632 71.8165 322.46 86.5684 357.976C100.582 391.715 153.113 383.434 186.15 399.008C215.899 413.031 239.066 439.481 271.462 445.135C306.616 451.27 352.198 458.821 375.886 432.122C401.898 402.802 374.847 354.698 385.236 316.899C392.167 291.678 413.875 274.56 425.612 251.187C445.466 211.651 490.652 174.239 478.191 131.787C466.786 92.9297 414.113 75.211 373.645 74.1344Z" stroke="#19243A"/>
<path d="M370.603 80.2272C332.977 79.2262 309.37 130.284 271.733 130.691C234.791 131.091 210.928 79.5488 174.09 82.3533C137.828 85.114 96.0786 109.571 86.8615 144.766C76.9742 182.52 128.672 212.534 129.78 251.547C130.838 288.747 78.5604 320.511 92.8339 354.878C106.393 387.524 157.221 379.511 189.187 394.581C217.971 408.15 240.387 433.744 271.733 439.214C305.747 445.151 349.851 452.457 372.77 426.623C397.94 398.253 371.766 351.706 381.817 315.131C388.524 290.727 409.528 274.163 420.885 251.547C440.094 213.291 483.815 177.091 471.759 136.013C460.723 98.4139 409.759 81.2689 370.603 80.2272Z" stroke="#19243A"/>
<path d="M367.56 86.32C331.195 85.3524 308.379 134.702 272.004 135.095C236.3 135.482 213.236 85.6643 177.633 88.3749C142.586 91.0433 102.235 114.682 93.3273 148.699C83.7712 185.19 133.736 214.199 134.808 251.906C135.83 287.862 85.3043 318.563 99.0995 351.78C112.204 383.333 161.329 375.589 192.224 390.154C220.043 403.269 241.708 428.006 272.004 433.294C304.878 439.032 347.503 446.093 369.655 421.124C393.981 393.703 368.684 348.714 378.399 313.363C384.881 289.775 405.181 273.766 416.157 251.906C434.723 214.931 476.978 179.942 465.326 140.239C454.661 103.898 405.404 87.3268 367.56 86.32Z" stroke="#19243A"/>
<path d="M364.517 92.4127C329.413 91.4787 307.389 139.12 272.274 139.5C237.808 139.872 215.544 91.7798 181.176 94.3966C147.344 96.9725 108.392 119.793 99.793 152.632C90.5683 187.859 138.801 215.865 139.835 252.266C140.822 286.976 92.0482 316.615 105.365 348.681C118.015 379.143 165.437 371.666 195.261 385.727C222.115 398.388 243.029 422.269 272.274 427.374C304.008 432.913 345.156 439.73 366.54 415.624C390.022 389.153 365.602 345.722 374.98 311.595C381.237 288.824 400.834 273.369 411.429 252.266C429.352 216.57 470.142 182.793 458.894 144.465C448.598 109.382 401.049 93.3847 364.517 92.4127Z" stroke="#19243A"/>
<path d="M361.474 98.5055C327.631 97.605 306.398 143.537 272.545 143.904C239.317 144.263 217.852 97.8953 184.718 100.418C152.102 102.902 114.549 124.904 106.259 156.565C97.3653 190.529 143.865 217.53 144.863 252.626C145.814 286.091 98.7921 314.667 111.631 345.583C123.827 374.952 169.545 367.744 198.297 381.3C224.187 393.507 244.35 416.531 272.545 421.453C303.139 426.794 342.809 433.366 363.424 410.125C386.063 384.604 362.521 342.73 371.562 309.826C377.594 287.872 396.487 272.972 406.702 252.626C423.98 218.21 463.305 185.645 452.461 148.691C442.535 114.866 396.694 99.4426 361.474 98.5055Z" stroke="#19243A"/>
<path d="M358.432 104.598C325.849 103.731 305.407 147.955 272.815 148.308C240.825 148.654 220.16 104.011 188.261 106.44C156.859 108.831 120.706 130.015 112.724 160.498C104.162 193.199 148.93 219.195 149.89 252.986C150.806 285.206 105.536 312.719 117.896 342.485C129.638 370.761 173.653 363.821 201.334 376.873C226.259 388.626 245.671 410.794 272.815 415.533C302.27 420.675 340.462 427.003 360.309 404.626C382.104 380.054 359.439 339.738 368.143 308.058C373.951 286.921 392.14 272.575 401.974 252.986C418.609 219.85 456.469 188.496 446.029 152.917C436.473 120.351 392.339 105.501 358.432 104.598Z" stroke="#19243A"/>
<path d="M355.389 110.691C324.068 109.858 304.416 152.373 273.086 152.712C242.334 153.044 222.469 110.126 191.803 112.461C161.617 114.76 126.863 135.125 119.19 164.431C110.959 195.868 153.995 220.86 154.918 253.345C155.798 284.321 112.28 310.771 124.162 339.387C135.449 366.571 177.761 359.899 204.371 372.447C228.331 383.745 246.992 405.057 273.086 409.612C301.4 414.556 338.114 420.639 357.194 399.127C378.146 375.504 356.357 336.746 364.725 306.29C370.308 285.969 387.793 272.177 397.246 253.345C413.237 221.49 449.632 191.347 439.596 157.143C430.41 125.835 387.984 111.558 355.389 110.691Z" stroke="#19243A"/>
<path d="M352.346 116.784C322.286 115.984 303.426 156.79 273.356 157.116C243.842 157.435 224.777 116.242 195.346 118.483C166.375 120.69 133.02 140.236 125.656 168.364C117.757 198.538 159.059 222.526 159.945 253.705C160.79 283.436 119.024 308.823 130.427 336.289C141.26 362.38 181.868 355.976 207.407 368.02C230.404 378.865 248.313 399.319 273.356 403.692C300.531 408.437 335.767 414.275 354.078 393.628C374.187 370.955 353.276 333.754 361.306 304.522C366.664 285.018 383.445 271.78 392.519 253.705C407.866 223.13 442.796 194.199 433.164 161.369C424.347 131.319 383.63 117.617 352.346 116.784Z" stroke="#19243A"/>
<path d="M349.306 122.877C320.506 122.11 302.437 161.208 273.629 161.52C245.352 161.826 227.087 122.357 198.891 124.505C171.135 126.619 139.179 145.347 132.124 172.297C124.556 201.208 164.126 224.191 164.975 254.065C165.784 282.551 125.77 306.874 136.695 333.191C147.073 358.19 185.978 352.054 210.446 363.593C232.478 373.984 249.636 393.582 273.629 397.771C299.664 402.317 333.422 407.912 350.965 388.129C370.23 366.405 350.196 330.762 357.89 302.754C363.023 284.067 379.1 271.383 387.793 254.065C402.496 224.77 435.961 197.05 426.733 165.595C418.286 136.803 379.277 123.674 349.306 122.877Z" stroke="#19243A"/>
<path d="M346.263 128.97C318.724 128.236 301.446 165.626 273.899 165.924C246.861 166.216 229.395 128.473 202.433 130.526C175.892 132.548 145.335 150.458 138.589 176.23C131.353 203.877 169.191 225.856 170.002 254.424C170.776 281.665 132.514 304.926 142.961 330.092C152.885 353.999 190.086 348.131 213.483 359.166C234.55 369.103 250.957 387.845 273.899 391.851C298.794 396.198 331.074 401.548 347.85 382.63C366.271 361.855 347.114 327.77 354.471 300.986C359.38 283.115 374.753 270.986 383.065 254.424C397.125 226.41 429.125 199.901 420.3 169.821C412.224 142.287 374.922 129.732 346.263 128.97Z" stroke="#19243A"/>
<path d="M343.22 135.062C316.942 134.363 300.455 170.043 274.17 170.328C248.369 170.607 231.703 134.588 205.976 136.548C180.65 138.477 151.492 155.569 145.055 180.164C138.15 206.547 174.255 227.521 175.03 254.784C175.768 280.78 139.257 302.978 149.226 326.994C158.696 349.808 194.194 344.209 216.519 354.74C236.622 364.222 252.278 382.107 274.17 385.931C297.925 390.079 328.727 395.185 344.734 377.131C362.312 357.306 344.033 324.778 351.053 299.218C355.737 282.164 370.406 270.589 378.337 254.784C391.754 228.05 422.288 202.753 413.868 174.047C406.161 147.772 370.567 135.79 343.22 135.062Z" stroke="#19243A"/>
<path d="M340.178 141.155C315.16 140.489 299.465 174.461 274.44 174.732C249.878 174.998 234.011 140.704 209.518 142.57C185.408 144.407 157.649 160.68 151.521 184.097C144.947 209.216 179.32 229.187 180.057 255.144C180.76 279.895 146.001 301.03 155.492 323.896C164.507 345.618 198.302 340.286 219.556 350.313C238.694 359.341 253.599 376.37 274.44 380.01C297.056 383.96 326.38 388.821 341.619 371.632C358.354 352.756 340.951 321.786 347.634 297.45C352.093 281.213 366.059 270.192 373.61 255.144C386.382 229.69 415.452 205.604 407.435 178.273C400.098 153.256 366.212 141.848 340.178 141.155Z" stroke="#19243A"/>
<path d="M337.135 147.248C313.379 146.615 298.474 178.879 274.711 179.136C251.386 179.389 236.319 146.819 213.061 148.591C190.166 150.336 163.806 165.79 157.986 188.03C151.744 211.886 184.384 230.852 185.085 255.504C185.752 279.01 152.745 299.082 161.757 320.798C170.318 341.427 202.41 336.364 222.593 345.886C240.766 354.46 254.92 370.633 274.711 374.09C296.186 377.841 324.033 382.458 338.504 366.133C354.395 348.206 337.869 318.794 344.216 295.682C348.45 280.261 361.712 269.795 368.882 255.504C381.011 231.33 408.615 208.455 401.003 182.499C394.035 158.74 361.857 147.906 337.135 147.248Z" stroke="#19243A"/>
<path d="M334.092 153.341C311.597 152.742 297.483 183.296 274.981 183.54C252.895 183.779 238.628 152.935 216.604 154.613C194.924 156.265 169.963 170.901 164.452 191.963C158.541 214.556 189.449 232.517 190.112 255.863C190.744 278.125 159.489 297.134 168.023 317.7C176.129 337.236 206.518 332.441 225.629 341.459C242.838 349.579 256.24 364.895 274.981 368.169C295.317 371.722 321.685 376.094 335.388 360.634C350.436 343.657 334.788 315.802 340.797 293.914C344.807 279.31 357.365 269.398 364.154 255.863C375.639 232.97 401.778 211.307 394.57 186.725C387.973 164.224 357.502 153.964 334.092 153.341Z" stroke="#19243A"/>
<path d="M331.05 159.434C309.815 158.868 296.492 187.714 275.252 187.944C254.403 188.17 240.936 159.05 220.146 160.635C199.681 162.194 176.12 176.012 170.918 195.896C165.338 217.225 194.514 234.182 195.14 256.223C195.736 277.24 166.233 295.186 174.288 314.602C181.941 333.046 210.626 328.519 228.666 337.032C244.91 344.698 257.561 359.158 275.252 362.249C294.448 365.603 319.338 369.73 332.273 355.135C346.477 339.107 331.706 312.81 337.379 292.146C341.164 278.358 353.018 269.001 359.427 256.223C370.268 234.61 394.942 214.158 388.138 190.951C381.91 169.708 353.148 160.022 331.05 159.434Z" stroke="#19243A"/>
<path d="M328.007 165.526C308.033 164.994 295.502 192.132 275.522 192.348C255.912 192.561 243.244 165.166 223.689 166.656C204.439 168.124 182.276 181.123 177.384 199.829C172.135 219.895 199.578 235.848 200.167 256.583C200.728 276.355 172.977 293.238 180.554 311.503C187.752 328.855 214.734 324.596 231.703 332.605C246.983 339.818 258.882 353.421 275.522 356.328C293.578 359.484 316.991 363.367 329.158 349.636C342.519 334.557 328.624 309.818 333.96 290.378C337.52 277.407 348.67 268.603 354.699 256.583C364.896 236.25 388.105 217.009 381.705 195.176C375.847 175.193 348.793 166.08 328.007 165.526Z" stroke="#19243A"/>
<path d="M324.966 171.619C306.253 171.121 294.513 196.549 275.795 196.752C257.422 196.951 245.554 171.281 227.233 172.678C209.199 174.053 188.435 186.234 183.851 203.762C178.934 222.565 204.645 237.513 205.196 256.942C205.722 275.469 179.723 291.289 186.822 308.405C193.565 324.664 218.844 320.674 234.742 328.179C249.057 334.937 260.205 347.683 275.795 350.408C292.711 353.365 314.645 357.003 326.044 344.137C338.562 330.007 325.544 306.826 330.544 288.61C333.879 276.455 344.325 268.206 349.973 256.942C359.527 237.89 381.271 219.861 375.275 199.402C369.786 180.677 344.44 172.138 324.966 171.619Z" stroke="#19243A"/>
<path d="M321.923 177.712C304.471 177.247 293.522 200.967 276.065 201.156C258.931 201.342 247.862 177.397 230.776 178.7C213.957 179.982 194.592 191.344 190.317 207.695C185.731 225.234 209.71 239.178 210.224 257.302C210.714 274.584 186.467 289.341 193.087 305.307C199.376 320.474 222.951 316.751 237.778 323.752C251.129 330.056 261.526 341.946 276.065 344.487C291.842 347.245 312.298 350.64 322.929 338.638C334.603 325.458 322.463 303.833 327.125 286.842C330.236 275.504 339.978 267.809 345.246 257.302C354.156 239.529 374.434 222.712 368.842 203.628C363.724 186.161 340.085 178.196 321.923 177.712Z" stroke="#19243A"/>
<path d="M318.881 183.805C302.69 183.373 292.531 205.385 276.336 205.56C260.439 205.732 250.17 183.512 234.319 184.721C218.714 185.911 200.749 196.455 196.783 211.628C192.528 227.904 214.774 240.843 215.251 257.662C215.706 273.699 193.211 287.393 199.353 302.209C205.187 316.283 227.059 312.828 240.815 319.325C253.201 325.175 262.847 336.208 276.336 338.567C290.972 341.126 309.951 344.276 319.814 333.139C330.644 320.908 319.381 300.841 323.707 285.073C326.593 274.553 335.631 267.412 340.518 257.662C348.784 241.169 367.598 225.563 362.41 207.854C357.661 191.645 335.73 184.254 318.881 183.805Z" stroke="#19243A"/>
<path d="M315.838 189.897C300.908 189.499 291.541 209.802 276.606 209.964C261.948 210.123 252.478 189.628 237.861 190.743C223.472 191.841 206.906 201.566 203.248 215.561C199.325 230.574 219.839 242.508 220.279 258.022C220.698 272.814 199.955 285.445 205.618 299.111C210.999 312.092 231.167 308.906 243.852 314.898C255.273 320.294 264.168 330.471 276.606 332.647C290.103 335.007 307.604 337.912 316.698 327.639C326.685 316.358 316.299 297.849 320.288 283.305C322.949 273.601 331.284 267.015 335.79 258.022C343.413 242.809 360.761 228.415 355.977 212.08C351.598 197.129 331.375 190.312 315.838 189.897Z" stroke="#19243A"/>
<path d="M312.795 195.99C299.126 195.626 290.55 214.22 276.877 214.368C263.456 214.514 254.787 195.743 241.404 196.765C228.23 197.77 213.063 206.677 209.714 219.494C206.122 233.243 224.903 244.174 225.306 258.381C225.69 271.929 206.698 283.497 211.884 296.013C216.81 307.902 235.275 304.984 246.888 310.472C257.345 315.413 265.489 324.734 276.877 326.726C289.234 328.888 305.256 331.549 313.583 322.141C322.727 311.809 313.218 294.857 316.87 281.537C319.306 272.65 326.937 266.618 331.062 258.381C338.041 244.449 353.925 231.266 349.545 216.306C345.536 202.614 327.02 196.37 312.795 195.99Z" stroke="#19243A"/>
<path d="M309.753 202.083C297.344 201.752 289.559 218.638 277.147 218.772C264.964 218.905 257.095 201.859 244.946 202.786C232.988 203.699 219.219 211.788 216.18 223.427C212.919 235.913 229.968 245.839 230.334 258.741C230.682 271.044 213.442 281.549 218.149 292.914C222.621 303.711 239.383 301.061 249.925 306.045C259.417 310.532 266.81 318.996 277.147 320.806C288.364 322.769 302.909 325.185 310.468 316.641C318.768 307.259 310.136 291.865 313.451 279.769C315.663 271.698 322.59 266.221 326.335 258.741C332.67 246.089 347.088 234.117 343.112 220.532C339.473 208.098 322.666 202.428 309.753 202.083Z" stroke="#19243A"/>
<path d="M306.71 208.176C295.562 207.878 288.568 223.055 277.418 223.176C266.473 223.295 259.403 207.974 248.489 208.808C237.746 209.628 225.376 216.898 222.646 227.36C219.716 238.583 235.033 247.504 235.361 259.101C235.675 270.159 220.186 279.601 224.415 289.816C228.432 299.52 243.491 297.138 252.962 301.618C261.489 305.651 268.131 313.259 277.418 314.885C287.495 316.65 300.562 318.822 307.352 311.142C314.809 302.709 307.054 288.873 310.033 278.001C312.02 270.747 318.242 265.824 321.607 259.101C327.298 247.729 340.252 236.969 336.68 224.758C333.41 213.582 318.311 208.485 306.71 208.176Z" stroke="#19243A"/>
<path d="M303.669 214.269C293.783 214.005 287.58 227.473 277.69 227.581C267.983 227.686 261.713 214.09 252.034 214.83C242.505 215.558 231.535 222.009 229.113 231.293C226.515 241.252 240.099 249.17 240.391 259.461C240.668 269.274 226.932 277.653 230.683 286.718C234.245 295.33 247.601 293.216 256 297.191C263.564 300.771 269.454 307.522 277.69 308.965C286.628 310.531 298.216 312.458 304.239 305.643C310.852 298.16 303.975 285.881 306.616 276.233C308.378 269.796 313.897 265.427 316.881 259.461C321.929 249.369 333.417 239.82 330.249 228.984C327.349 219.066 313.958 214.544 303.669 214.269Z" stroke="#19243A"/>
</g>
</mask>
<g mask="url(#mask0)">
<rect x="558" y="524" width="560" height="526" transform="rotate(-180 558 524)" fill="url(#paint0_linear)"/>
</g>
<defs>
<linearGradient id="paint0_linear" x1="570" y1="524" x2="1058" y2="1050" gradientUnits="userSpaceOnUse">
<stop stop-color="#19243A"/>
<stop offset="1" stop-color="#46DDCF"/>
</linearGradient>
</defs>
</svg>
