<svg width="780" height="883" viewBox="0 0 780 883" fill="none" xmlns="http://www.w3.org/2000/svg">
<g opacity="0.1">
<path fill-rule="evenodd" clip-rule="evenodd" d="M399.81 394.845C411.695 406.735 418.697 423.803 417.907 440.588C417.181 456.002 403.93 466.841 395.803 479.953C388.554 491.648 383.642 504.445 372.954 513.111C360.102 523.532 345.25 538.121 329.232 533.933C313.014 529.693 310.306 507.758 300.489 494.166C292.732 483.426 283.394 474.734 277.801 462.724C270.116 446.221 255.232 428.64 262.137 411.807C268.973 395.139 291.941 393.642 308.772 387.22C323.615 381.556 338.234 375.399 354.07 376.725C370.819 378.128 387.924 382.954 399.81 394.845Z" stroke="#19233B"/>
<path fill-rule="evenodd" clip-rule="evenodd" d="M556.195 226.037C595.014 267.557 579.656 333.023 593.669 388.109C609.756 451.347 669.572 512.104 644.267 572.25C619.106 632.053 540.619 647.399 477.781 663.551C425.551 676.976 374.083 656.246 320.159 655.556C252.861 654.695 174.858 702.179 123.218 659.014C72.3619 616.504 101.843 533.034 94.74 467.132C88.105 405.568 61.8046 344.457 83.0484 286.295C105.659 224.39 150.686 165.45 212.887 143.666C272.893 122.65 334.179 161.856 396.004 176.69C451.698 190.053 517.08 184.2 556.195 226.037Z" stroke="#19233B"/>
<path d="M421.975 439.088C422.404 421.369 415.947 403.12 403.406 390.508C390.856 377.887 372.573 373.321 354.875 371.626C337.917 369.97 322.159 375.021 306.215 381.059C288.277 387.857 264.772 390.755 257.55 408.525C250.296 426.366 265.459 445.01 273.118 462.612C278.747 475.935 287.139 486.452 295.947 497.967C306.784 512.28 311.329 532.522 328.793 536.68C345.734 540.782 361.48 527.055 375.292 516.56C387.252 507.712 393.959 494.853 401.645 481.984C410.191 467.725 421.66 455.668 421.975 439.088Z" stroke="#19233B"/>
<path d="M426.059 437.604C426.128 418.951 420.216 399.522 407.017 386.187C393.803 372.835 374.343 368.53 355.695 366.544C337.615 364.558 320.72 368.502 303.674 374.915C284.629 382.087 260.586 386.386 252.98 405.26C245.376 424.109 260.817 443.815 268.451 462.515C274.117 477.154 281.561 489.494 291.421 501.783C303.278 516.818 309.659 535.367 328.369 539.442C346.235 543.459 362.874 530.593 377.647 520.026C390.878 510.995 399.379 498.073 407.502 484.031C416.467 468.625 426.154 455.351 426.059 437.604Z" stroke="#19233B"/>
<path d="M430.16 436.137C429.867 416.55 424.501 395.94 410.645 381.882C396.767 367.8 376.13 363.755 356.531 361.477C337.33 359.163 319.296 362 301.149 368.787C280.997 376.334 256.416 382.034 248.425 402.012C240.471 421.869 256.191 442.636 263.799 462.436C269.502 478.388 276 492.552 286.911 505.617C299.788 521.372 308.005 538.228 327.961 542.221C346.589 546.119 363.981 534.355 379.608 523.784L380.017 523.508C394.52 514.294 404.816 501.31 413.376 486.095C422.76 469.542 430.664 455.05 430.16 436.137Z" stroke="#19233B"/>
<path d="M434.276 434.686C433.622 414.164 428.801 392.374 414.289 377.594C399.747 362.781 377.932 358.997 357.384 356.427C337.06 353.783 317.888 355.514 298.639 362.676C277.382 370.597 252.262 377.698 243.887 398.779C235.583 419.644 251.581 441.473 259.164 462.372C264.903 479.639 270.455 495.627 282.416 509.466C296.313 525.943 306.368 541.106 327.569 545.016C347.284 548.863 365.71 537.72 382.403 527.006C398.178 517.609 410.269 504.564 419.266 488.175C429.069 470.475 435.191 454.765 434.276 434.686Z" stroke="#19233B"/>
<path d="M438.409 433.251C437.393 411.795 433.118 388.824 417.949 373.321C402.742 357.778 379.75 354.255 358.252 351.393C336.807 348.419 316.497 349.044 296.146 356.58C273.782 364.876 248.124 373.379 239.364 395.563C230.711 417.436 246.987 440.326 254.544 462.324C260.321 480.906 264.925 498.717 277.938 513.332C292.855 530.53 304.746 544 327.193 547.828C347.833 551.589 367.151 541.307 384.805 530.52C401.853 520.941 415.738 507.833 425.171 490.271C435.393 471.424 439.733 454.497 438.409 433.251Z" stroke="#19233B"/>
<path d="M442.557 431.832C441.181 409.441 437.451 385.291 421.624 369.065C405.754 352.791 381.584 349.528 359.136 346.375C336.569 343.072 315.121 342.59 293.669 350.501C270.198 359.171 244.002 369.075 234.857 392.362C225.854 415.243 242.409 439.195 249.941 462.293C255.754 482.188 259.412 501.824 273.476 517.213C289.413 535.133 303.14 546.909 326.833 550.655C348.398 554.331 368.609 544.911 387.223 534.05C405.543 524.288 421.222 511.118 431.093 492.383C441.733 472.388 444.291 454.244 442.557 431.832Z" stroke="#19233B"/>
<path d="M446.72 430.428C444.983 407.103 441.798 381.772 425.315 364.823C408.78 347.82 383.433 344.817 360.035 341.372C336.346 337.739 313.76 336.151 291.206 344.436C266.629 353.482 239.895 364.786 230.366 389.177C221.013 413.066 237.846 438.08 245.352 462.276C251.202 483.486 253.913 504.946 269.028 521.11C285.985 539.751 301.549 549.834 326.488 553.497C348.977 557.088 370.081 548.529 389.656 537.595C409.247 527.651 426.722 514.419 437.029 494.51C448.089 473.368 448.865 454.006 446.72 430.428Z" stroke="#19233B"/>
<path d="M450.898 429.039C448.8 404.78 446.161 378.269 429.021 360.597C411.822 342.863 385.297 340.121 360.949 336.384C336.139 332.422 312.414 329.728 288.759 338.387C263.075 347.807 235.804 360.513 225.889 386.007C216.187 410.904 233.298 436.979 240.779 462.275C246.666 484.8 248.43 508.083 264.596 525.022C282.573 544.384 299.974 552.774 326.158 556.355C349.572 559.86 371.569 552.163 392.105 541.156C412.968 531.029 432.236 517.735 442.981 496.652C454.459 474.364 453.453 453.784 450.898 429.039Z" stroke="#19233B"/>
<path d="M455.091 427.665C452.632 402.472 450.538 374.78 432.741 356.386C414.877 337.921 387.175 335.44 361.878 331.411C335.946 327.12 311.083 323.319 286.326 332.353C259.536 342.147 231.726 356.254 221.427 382.852C211.375 408.757 228.765 435.894 236.219 462.288C242.143 486.127 242.96 511.234 260.178 528.948C279.176 549.032 298.412 555.729 325.843 559.227C350.181 562.647 373.071 555.811 394.567 544.731C416.702 534.422 437.765 521.065 448.946 498.809C460.844 475.373 458.056 453.576 455.091 427.665Z" stroke="#19233B"/>
<path d="M459.298 426.305C456.478 400.178 454.929 371.305 436.475 352.189C417.948 332.994 389.068 330.772 362.821 326.452C335.767 321.831 309.766 316.924 283.908 326.332C256.011 336.502 227.663 352.009 216.979 379.71C206.577 406.623 224.246 434.822 231.675 462.315C237.635 487.469 237.506 514.4 255.775 532.889C275.792 553.694 296.865 558.698 325.542 562.114C350.804 565.448 374.588 559.474 397.044 548.32C420.451 537.828 443.309 524.409 454.927 500.98C467.243 476.397 462.673 453.383 459.298 426.305Z" stroke="#19233B"/>
<path d="M463.518 424.958C460.337 397.897 459.334 367.844 440.223 348.005C421.031 328.079 390.974 326.119 363.777 321.507C335.602 316.556 308.462 310.543 281.503 320.325C252.499 330.869 223.613 347.778 212.545 376.582C201.793 404.503 219.74 433.764 227.143 462.356C233.141 488.825 232.064 517.579 251.385 536.843C272.422 558.369 295.331 561.68 325.254 565.013C351.441 568.263 376.118 563.15 399.535 551.923C424.213 541.248 448.865 527.767 460.92 503.165C473.656 477.435 467.303 453.203 463.518 424.958Z" stroke="#19233B"/>
<path d="M467.751 423.624C464.209 395.629 463.751 364.396 443.984 343.834C424.128 323.178 392.893 321.478 364.746 316.574C335.449 311.294 307.172 304.174 279.11 314.331C249 325.25 219.576 343.56 208.123 373.467C197.021 402.397 215.247 432.719 222.625 462.41C228.659 490.193 226.636 520.771 247.007 540.81C269.065 563.057 293.811 564.675 324.979 567.926C352.091 571.09 377.66 566.838 402.038 555.538C427.988 544.681 454.435 531.138 466.927 505.362C480.081 478.485 471.947 453.035 467.751 423.624Z" stroke="#19233B"/>
<path d="M471.997 422.303C468.094 393.374 468.181 360.96 447.757 339.675C427.237 318.289 394.825 316.849 365.727 311.654C335.309 306.045 305.893 297.818 276.73 308.35C245.514 319.643 215.552 339.354 203.714 370.365C192.262 400.302 210.766 431.686 218.118 462.476C224.19 491.574 221.22 523.976 242.642 544.79C265.72 567.758 292.302 567.683 324.716 570.851C352.753 573.93 379.215 570.54 404.553 559.166C431.776 548.127 460.017 534.521 472.945 507.572C486.519 479.548 476.602 452.881 471.997 422.303Z" stroke="#19233B"/>
<path d="M476.254 420.994C471.99 391.13 472.623 357.536 451.541 335.528C430.357 313.412 396.768 312.232 366.72 306.746C335.181 300.807 304.626 291.474 274.362 302.38C242.039 314.048 211.539 335.16 199.316 367.274C187.515 398.219 206.297 430.665 213.624 462.554C219.732 492.966 215.815 527.192 238.289 548.781C262.387 572.47 290.805 570.702 324.465 573.788C353.426 576.781 380.782 574.253 407.08 562.806C435.575 551.584 465.61 537.916 478.976 509.794C492.968 480.622 481.269 452.738 476.254 420.994Z" stroke="#19233B"/>
<path d="M480.522 419.695C475.897 388.897 477.075 354.122 455.337 331.392C433.488 308.545 398.721 307.626 367.724 301.848C335.063 295.58 303.37 285.14 272.004 296.421C238.575 308.463 207.537 330.976 194.929 364.194C182.778 396.147 201.839 429.654 209.14 462.643C215.285 494.369 210.421 530.419 233.946 552.782C259.064 577.194 289.319 573.732 324.225 576.736C354.111 579.644 382.359 577.976 409.618 566.456C439.385 555.052 471.215 541.322 485.017 512.026C499.429 481.707 485.948 452.605 480.522 419.695Z" stroke="#19233B"/>
<path d="M484.801 418.406C479.814 386.675 481.538 350.719 459.142 327.267C436.63 303.689 400.686 303.031 368.739 296.961C334.955 290.363 302.125 278.817 269.657 290.472C235.121 302.889 203.545 326.803 190.552 361.124C178.052 394.086 197.391 428.655 204.667 462.742C210.848 495.783 205.038 533.657 229.614 556.795C255.752 581.927 287.844 576.772 323.995 579.694C354.805 582.516 383.947 581.71 412.166 570.117C443.205 558.53 476.83 544.738 491.069 514.269C505.899 482.803 490.636 452.483 484.801 418.406Z" stroke="#19233B"/>
<path d="M489.089 417.128C483.741 384.462 486.01 347.326 462.958 323.151C439.781 298.843 402.659 298.445 369.763 292.083C334.858 285.156 300.889 272.503 267.32 284.533C231.677 297.325 199.563 322.64 186.186 358.064C173.336 392.034 192.953 427.664 200.203 462.851C206.421 497.206 199.664 536.904 225.292 560.817C252.45 586.67 286.378 579.822 323.775 582.661C355.51 585.399 385.545 585.454 414.724 573.788C447.035 562.018 482.454 548.164 497.13 516.521C512.38 483.908 495.334 452.371 489.089 417.128Z" stroke="#19233B"/>
<path d="M493.386 415.858C487.677 382.258 490.492 343.942 466.782 319.044C442.942 294.006 404.642 293.868 370.796 287.214C334.769 279.958 299.662 266.199 264.991 278.603C228.242 291.77 195.59 318.486 181.828 355.013C168.628 389.991 188.524 426.683 195.748 462.969C202.004 498.638 194.299 540.16 220.978 564.848C249.156 591.423 284.921 582.882 323.564 585.638C356.223 588.29 387.151 589.207 417.291 577.467C450.874 565.515 488.087 551.599 503.2 518.783C518.869 485.022 500.041 452.268 493.386 415.858Z" stroke="#19233B"/>
<path d="M497.691 414.597C491.621 380.063 494.982 340.566 470.615 314.945C446.111 289.177 406.634 289.3 371.837 282.354C334.689 274.768 298.443 259.903 262.671 272.681C224.815 286.223 191.625 314.34 177.478 351.971C163.929 387.956 184.104 425.71 191.302 463.095C197.594 500.079 188.943 543.424 216.673 568.887C245.871 596.184 283.472 585.949 323.362 588.623C356.945 591.19 388.766 592.968 419.867 581.155C454.721 569.021 493.729 555.042 509.279 521.053C525.367 486.145 504.757 452.173 497.691 414.597Z" stroke="#19233B"/>
<path d="M502.004 413.343C495.574 377.875 499.479 337.198 474.456 310.855C449.287 284.356 408.633 284.739 372.886 277.502C334.616 269.586 297.233 253.615 260.359 266.767C221.396 280.684 187.668 310.202 173.137 348.936C159.238 385.929 179.691 424.745 186.863 463.229C193.192 501.527 183.595 546.697 212.376 572.934C242.594 600.952 282.031 589.025 323.167 591.616C357.675 594.098 390.389 596.737 422.45 584.851C458.576 572.534 499.379 558.493 515.365 523.331C531.872 487.276 509.48 452.086 502.004 413.343Z" stroke="#19233B"/>
<path d="M506.325 412.097C499.533 375.695 503.984 333.837 478.304 306.771C452.471 279.542 410.639 280.186 373.943 272.657C334.551 264.412 296.029 247.334 258.054 260.861C217.985 275.152 183.719 306.071 168.802 345.909C154.553 383.91 175.285 423.788 182.432 463.37C188.798 502.983 178.254 549.976 208.086 576.989C239.324 605.728 280.598 592.107 322.979 594.617C358.412 597.013 392.019 600.514 425.04 588.554L425.526 588.392C462.806 575.932 505.107 561.794 521.459 525.616C538.385 488.414 514.211 452.006 506.325 412.097Z" stroke="#19233B"/>
<path d="M510.652 410.858C503.499 373.521 508.496 330.483 482.158 302.695C455.661 274.735 412.652 275.639 375.006 267.819C334.492 259.244 294.832 241.06 255.756 254.961C214.58 269.627 179.776 301.947 164.475 342.888C149.876 381.898 170.886 422.837 178.008 463.518C184.41 504.446 172.919 553.263 203.803 581.05C236.061 610.511 279.171 595.197 322.798 597.624C359.155 599.934 393.656 604.297 427.637 592.264L429.031 591.807C467.369 579.238 510.902 564.966 527.56 527.907C544.904 489.558 518.948 451.934 510.652 410.858Z" stroke="#19233B"/>
<path d="M514.986 409.625C507.472 371.354 513.013 327.136 486.019 298.624C458.858 269.934 414.671 271.099 376.075 262.987C334.44 254.083 293.642 234.792 253.464 249.068C211.181 264.108 175.839 297.829 160.154 339.874C145.205 379.891 166.493 421.892 173.589 463.673C180.029 505.915 167.591 556.556 199.526 585.118C232.804 615.299 277.751 598.293 322.624 600.637C359.905 602.862 395.299 608.086 430.241 595.98C470.183 583.115 516.369 568.888 533.666 530.206C551.43 490.709 523.692 451.867 514.986 409.625Z" stroke="#19233B"/>
<path d="M519.325 408.398C511.45 369.193 517.537 323.794 489.886 294.56C462.061 265.139 416.697 266.564 377.151 258.16C334.394 248.927 292.457 228.53 251.178 243.18C207.789 258.595 171.908 293.718 155.838 336.865C140.54 377.891 162.107 420.953 169.177 463.833C175.653 507.389 162.268 559.854 195.254 589.191C229.553 620.094 276.336 601.394 322.455 603.656C360.661 605.796 396.947 611.882 432.85 599.702C474.064 586.655 522.045 572.365 539.779 532.509C557.962 491.866 528.441 451.806 519.325 408.398Z" stroke="#19233B"/>
<path d="M523.67 407.176C515.434 367.037 522.066 320.457 493.758 290.5C465.269 260.349 418.727 262.035 378.231 253.34C334.353 243.777 291.278 222.273 248.897 237.298C204.401 253.087 167.983 289.611 151.528 333.862C135.88 375.895 157.725 420.02 164.77 463.999C171.283 508.869 156.951 563.158 190.989 593.27C226.307 624.894 274.927 604.501 322.291 606.681C361.422 608.735 398.602 615.682 435.465 603.43C477.951 590.199 527.726 575.848 545.897 534.819C564.498 493.028 533.196 451.751 523.67 407.176Z" stroke="#19233B"/>
<path d="M528.02 405.959C519.422 364.886 526.6 317.126 497.635 286.446C468.482 255.565 420.762 257.511 379.317 248.524C334.317 238.632 290.104 216.022 246.621 231.421C201.019 247.585 164.062 285.509 147.223 330.864C131.225 373.905 153.349 419.091 160.368 464.169C166.918 510.354 151.639 566.467 186.728 597.354C223.066 629.699 273.522 607.613 322.133 609.71C362.188 611.68 400.261 619.488 438.084 607.162C481.842 593.749 533.412 579.335 552.02 537.133C571.04 494.195 537.956 451.7 528.02 405.959Z" stroke="#19233B"/>
<path d="M532.374 404.746C523.416 362.739 531.139 313.799 501.517 282.396C471.699 250.785 422.802 252.991 380.407 243.712C334.285 233.491 288.934 209.774 244.35 225.548C197.641 242.087 160.146 281.412 142.922 327.87C126.575 371.92 148.977 418.167 155.97 464.344C162.557 511.844 146.332 569.78 182.471 601.442C219.83 634.509 272.122 610.729 321.979 612.744C362.959 614.628 401.924 623.298 440.708 610.899C485.738 597.303 539.103 582.827 558.147 539.452C577.587 495.366 542.72 451.654 532.374 404.746Z" stroke="#19233B"/>
<path d="M536.732 403.538C527.413 360.597 535.682 310.476 505.403 278.351C474.921 246.009 424.847 248.476 381.501 238.905C334.258 228.354 287.769 203.532 242.083 219.68C194.267 236.593 156.235 277.32 138.626 324.881C121.929 369.938 144.609 417.248 151.577 464.524C158.201 513.338 141.029 573.098 178.219 605.535C216.598 639.323 270.727 613.85 321.829 615.782C363.734 617.581 403.592 627.112 443.337 614.64C489.639 600.862 544.797 586.324 564.279 541.775C584.138 496.542 547.489 451.613 536.732 403.538Z" stroke="#19233B"/>
<path d="M541.095 402.334C531.415 358.459 540.229 307.158 509.293 274.31C478.147 241.237 426.895 243.965 382.6 234.103C334.235 223.222 286.607 197.293 239.82 213.815C190.898 231.103 152.327 273.231 134.333 321.896C117.287 367.961 140.246 416.332 147.188 464.707C153.849 514.836 135.729 576.42 173.972 609.631C213.37 644.141 269.336 616.975 321.684 618.825C364.513 620.538 405.264 630.931 445.969 618.385C493.543 604.425 550.496 589.824 570.415 544.102C590.692 497.722 552.261 451.575 541.095 402.334Z" stroke="#19233B"/>
<path d="M545.461 401.134C535.42 356.324 544.779 303.842 513.186 270.272C481.376 236.469 428.947 239.457 383.702 229.303C334.215 218.093 285.449 191.057 237.56 207.954C187.532 225.617 148.423 269.146 130.045 318.914C112.648 365.987 135.885 415.42 142.802 464.894C149.5 516.337 130.434 579.745 169.727 613.732C210.146 648.962 267.948 620.103 321.542 621.871C365.295 623.499 406.94 634.753 448.605 622.134C497.451 607.991 556.199 593.328 576.554 546.432C597.251 498.906 557.037 451.541 545.461 401.134Z" stroke="#19233B"/>
<path d="M549.831 399.937C539.428 354.193 549.333 300.531 517.084 266.238C484.609 231.704 431.003 234.953 384.807 224.507C334.199 212.968 284.295 184.826 235.304 202.097C184.17 220.134 144.523 265.064 125.759 315.936C108.013 364.017 131.529 414.512 138.42 465.085C145.154 517.842 125.142 583.074 165.486 617.835C206.925 653.787 266.563 623.235 321.403 624.92C366.081 626.463 408.619 638.578 451.245 625.886C501.363 611.56 561.905 596.836 582.697 548.767C603.812 500.093 561.817 451.511 549.831 399.937Z" stroke="#19233B"/>
<path d="M554.204 398.743C543.44 352.065 553.89 297.223 520.984 262.207C487.845 226.943 433.061 230.452 385.916 219.714C334.186 207.846 283.144 178.597 233.052 196.243C180.81 214.655 140.625 260.986 121.477 312.96C103.381 362.05 127.176 413.606 134.041 465.278C140.812 519.35 119.853 586.406 161.248 621.942C203.707 658.615 265.182 626.37 321.268 627.973C366.87 629.43 410.301 642.407 453.887 629.642C505.277 615.133 567.614 600.346 588.843 551.104C610.377 501.283 566.6 451.483 554.204 398.743Z" stroke="#19233B"/>
<path d="M558.579 397.552C547.455 349.94 558.45 293.917 524.887 258.178C491.084 222.184 435.123 225.954 387.028 214.924C334.176 202.726 281.995 172.371 230.802 190.391C177.454 209.178 136.731 256.91 117.198 309.988C98.7521 360.086 122.825 412.704 129.665 465.475C136.473 520.861 114.567 589.741 157.013 626.052C200.492 663.446 263.803 629.508 321.135 631.028C367.662 632.4 411.986 646.238 456.533 633.4C509.195 618.709 573.326 603.86 594.992 553.444C616.945 502.476 571.386 451.459 558.579 397.552Z" stroke="#19233B"/>
<path d="M562.958 396.364C551.472 347.817 563.013 290.614 528.793 254.153C494.326 217.428 437.187 221.458 388.142 210.137C334.168 197.61 280.85 166.148 228.554 184.543C174.1 203.704 132.839 252.837 112.921 307.019C94.1259 358.124 118.477 411.804 125.291 465.674C132.136 522.375 109.283 593.078 152.781 630.164C197.28 668.28 262.428 632.648 321.005 634.086C368.457 635.373 413.674 650.073 459.181 637.161C513.115 622.288 579.041 607.376 601.143 555.787C623.516 503.672 576.174 451.437 562.958 396.364Z" stroke="#19233B"/>
<path d="M567.338 395.178C555.492 345.697 567.578 287.314 532.701 250.13C497.57 212.675 439.253 216.966 389.259 205.353C334.164 192.496 279.707 159.928 226.31 178.697C170.749 198.233 128.95 248.767 108.647 304.052C89.5022 356.165 114.132 410.907 120.921 465.876C127.802 523.891 104.002 596.418 148.552 634.279C194.071 673.116 261.055 635.791 320.878 637.147C369.254 638.349 415.364 653.91 461.832 640.924C517.038 625.869 584.758 610.895 607.298 558.132C630.089 504.87 580.965 451.418 567.338 395.178Z" stroke="#19233B"/>
<path d="M571.722 393.995C559.514 343.58 572.146 284.016 536.612 246.11C500.817 207.924 441.323 212.475 390.378 200.571C334.161 187.384 278.566 153.71 224.068 172.853C167.4 192.764 125.063 244.699 104.376 301.087C84.8809 354.209 109.789 410.012 116.552 466.08C123.471 525.41 98.7238 599.761 144.324 638.397C190.864 677.955 259.684 638.937 320.753 640.21C370.054 641.327 417.057 657.749 464.485 644.69C520.963 629.452 590.478 614.416 613.454 560.48C636.664 506.071 585.758 451.401 571.722 393.995Z" stroke="#19233B"/>
<path d="M576.107 392.814C563.539 341.465 576.716 280.72 540.525 242.091C504.065 203.175 443.394 207.987 391.499 195.791C334.161 182.275 277.428 147.494 221.828 167.012C164.053 187.297 121.178 240.634 100.107 298.125C80.2618 352.255 105.448 409.119 112.186 466.287C119.141 526.931 93.4476 603.106 140.099 642.516C187.659 682.796 258.316 642.085 320.631 643.276C370.856 644.307 418.752 661.59 467.141 648.459C524.89 633.038 596.199 617.94 619.613 562.83C643.242 507.273 590.554 451.386 576.107 392.814Z" stroke="#19233B"/>
<path d="M580.495 391.635C567.565 339.352 581.287 277.427 544.439 238.075C507.316 198.429 445.467 203.501 392.623 191.013C334.163 177.167 276.291 141.28 219.59 161.172C160.709 181.833 117.296 236.57 95.8392 295.165C75.6447 350.302 101.11 408.229 107.822 466.495C114.814 528.454 88.1734 606.452 135.876 646.638C184.456 687.639 256.949 645.235 320.51 646.343C371.66 647.289 420.449 665.434 469.798 652.229C528.82 636.625 601.923 621.465 625.774 565.183C649.822 508.478 595.352 451.374 580.495 391.635Z" stroke="#19233B"/>
<path d="M584.884 390.458C571.593 337.24 585.861 274.135 548.356 234.061C510.569 193.684 447.543 199.016 393.748 186.237C334.166 172.062 275.157 135.068 217.354 155.335C157.366 176.37 113.415 232.508 91.5739 292.206C71.0296 348.352 96.7731 407.34 103.459 466.706C110.488 529.979 82.9011 609.801 131.655 650.762C181.255 692.484 255.584 648.386 320.391 649.412C372.466 650.273 422.148 669.279 472.457 656.001C532.751 640.215 607.649 624.993 631.936 567.537C656.404 509.685 600.151 451.363 584.884 390.458Z" stroke="#19233B"/>
<path d="M589.276 389.283C575.624 335.131 590.437 270.845 552.275 230.048C513.823 188.941 449.62 194.534 394.875 181.463C334.172 166.958 274.024 128.858 215.119 149.499C154.025 170.909 109.536 228.448 87.3102 289.25C66.4162 346.403 92.4381 406.453 99.0988 466.918C106.165 531.505 77.6306 613.152 127.436 654.887C178.055 697.33 254.222 651.54 320.274 652.483C373.273 653.259 423.849 673.127 475.119 659.775C536.684 643.806 613.377 628.522 638.101 569.892C662.987 510.894 604.952 451.354 589.276 389.283Z" stroke="#19233B"/>
</g>
</svg>
