<svg width="20" height="20" viewBox="0 0 20 20" fill="none" xmlns="http://www.w3.org/2000/svg">
<circle cx="10" cy="10" r="10" fill="#FF8700"/>
<path d="M13.9583 10.3078C13.682 9.93226 13.2651 9.67433 12.7075 9.53414C13.4176 9.15349 13.7296 8.50744 13.6439 7.59588C13.6153 7.26533 13.5284 6.97884 13.383 6.73602C13.2375 6.49313 13.0411 6.29788 12.7932 6.15016C12.5455 6.00227 12.276 5.88968 11.9855 5.81206C11.6949 5.73444 11.3613 5.67808 10.9848 5.64306V3.75H9.88425V5.59046C9.69367 5.59046 9.40303 5.59546 9.01235 5.60549V3.75H7.91161V5.64306C7.75432 5.64809 7.52326 5.65064 7.21832 5.65064L5.70312 5.64306V6.87507H6.49642C6.85856 6.87507 7.0706 7.04539 7.13253 7.38588V9.5419C7.18025 9.5419 7.21832 9.54448 7.24694 9.54948H7.13253V12.5692C7.09446 12.8246 6.95629 12.9524 6.71802 12.9524H5.92477L5.70318 14.3271H7.13266C7.22321 14.3271 7.35416 14.3284 7.52576 14.3307C7.69727 14.3332 7.82587 14.3344 7.91166 14.3344V16.25H9.01258V14.357C9.21265 14.3621 9.50329 14.3645 9.88448 14.3645V16.25H10.9851V14.3344C11.3759 14.3144 11.7225 14.2771 12.0249 14.2218C12.3275 14.1665 12.6171 14.0803 12.8934 13.9625C13.1696 13.8449 13.4007 13.6983 13.5865 13.523C13.7724 13.3479 13.9259 13.1249 14.0477 12.8544C14.169 12.584 14.2465 12.271 14.2797 11.9153C14.342 11.2194 14.2347 10.6835 13.9583 10.3078ZM9.03375 6.95748C9.06712 6.95748 9.16123 6.95622 9.31609 6.95369C9.47102 6.95111 9.59962 6.94864 9.70206 6.94611C9.80452 6.94364 9.94271 6.9499 10.1167 6.96493C10.2906 6.97995 10.4371 7.00003 10.5562 7.02502C10.6753 7.05002 10.8064 7.09135 10.9492 7.14895C11.0923 7.20649 11.2066 7.27664 11.2923 7.35926C11.3781 7.44188 11.4507 7.5471 11.5102 7.67481C11.5698 7.8025 11.5996 7.94898 11.5996 8.11421C11.5996 8.25445 11.5782 8.3822 11.5354 8.49744C11.4926 8.61261 11.4281 8.70904 11.3425 8.78666C11.2568 8.8643 11.1685 8.93198 11.0779 8.98952C10.9875 9.04706 10.8718 9.09342 10.7313 9.12844C10.5908 9.16352 10.4681 9.19107 10.3634 9.21106C10.2585 9.23111 10.1275 9.24493 9.97025 9.2524C9.81296 9.25987 9.6938 9.26497 9.61284 9.26745C9.5318 9.26992 9.42105 9.26992 9.28044 9.26745C9.1398 9.26497 9.05771 9.26366 9.03383 9.26366V6.95745H9.03375V6.95748ZM12.0393 12.0732C11.9939 12.1884 11.9357 12.2886 11.8642 12.3738C11.7927 12.4588 11.6985 12.534 11.5818 12.599C11.4652 12.6642 11.3519 12.7167 11.2424 12.7568C11.1328 12.797 11.0005 12.8319 10.8458 12.862C10.6907 12.8921 10.555 12.9133 10.4382 12.9259C10.3215 12.9384 10.1822 12.9484 10.0201 12.956C9.85814 12.9633 9.7318 12.9671 9.6413 12.9671C9.55075 12.9671 9.43637 12.9658 9.29819 12.9633C9.15992 12.961 9.07186 12.9597 9.0337 12.9597V10.4205C9.07178 10.4205 9.18496 10.4181 9.37321 10.413C9.56149 10.4079 9.71507 10.4056 9.83421 10.4056C9.95332 10.4056 10.1178 10.413 10.3275 10.4281C10.537 10.443 10.7133 10.4655 10.8564 10.4955C10.9993 10.5256 11.1552 10.5719 11.3245 10.6345C11.4936 10.6971 11.6307 10.7735 11.7356 10.8636C11.8404 10.9539 11.9285 11.0689 11.9999 11.2092C12.0716 11.3494 12.1073 11.5097 12.1073 11.69C12.1073 11.8304 12.0847 11.9579 12.0393 12.0732Z" fill="white"/>
</svg>
