<svg width="15" height="11" viewBox="0 0 15 11" fill="none" xmlns="http://www.w3.org/2000/svg">
<path d="M4.73642 10.0421C4.90723 10.2129 5.1389 10.3088 5.38048 10.3088C5.62209 10.3088 5.85372 10.2129 6.02454 10.0421L13.8228 2.24389C14.1785 1.88818 14.1785 1.31147 13.8228 0.955763C13.467 0.600053 12.8903 0.600011 12.5346 0.955763L5.38048 8.10992L2.46311 5.19251C2.1074 4.83676 1.53069 4.83676 1.17499 5.19251C0.819276 5.54822 0.819276 6.12492 1.17499 6.48063L4.73642 10.0421Z" fill="#37F060"/>
<path d="M5.38177 10.3311C5.13279 10.3311 4.8987 10.2342 4.72266 10.0581L1.16123 6.49668C0.79782 6.13323 0.79782 5.5419 1.16123 5.17845C1.33727 5.00236 1.57137 4.9054 1.82034 4.9054C2.06932 4.9054 2.30337 5.00236 2.47945 5.17845L5.38181 8.08081L12.5209 0.941702C12.6969 0.765612 12.931 0.668701 13.18 0.668701C13.4289 0.668701 13.663 0.765655 13.8391 0.941702C14.0152 1.11775 14.1121 1.35184 14.1121 1.60082C14.1121 1.84979 14.0152 2.08384 13.8391 2.25993L6.04088 10.0581C5.86488 10.2342 5.63079 10.3311 5.38177 10.3311ZM1.82034 4.94797C1.58272 4.94797 1.35934 5.0405 1.19133 5.20855C0.844511 5.55542 0.844511 6.11975 1.19133 6.46661L4.75276 10.028C4.92077 10.1961 5.14415 10.2886 5.38177 10.2886C5.61943 10.2886 5.84281 10.1961 6.01082 10.028L13.809 2.22987C13.977 2.06186 14.0696 1.83844 14.0696 1.60086C14.0696 1.36328 13.977 1.13982 13.809 0.971809C13.641 0.803756 13.4176 0.711268 13.1799 0.711268C12.9423 0.711268 12.7189 0.803799 12.5509 0.971809L5.38177 8.14098L2.44935 5.20855C2.28134 5.0405 2.05796 4.94797 1.82034 4.94797Z" fill="#37F060"/>
</svg>
