<svg width="15" height="11" viewBox="0 0 15 11" fill="none" xmlns="http://www.w3.org/2000/svg">
<path d="M4.73642 10.0421C4.90723 10.2129 5.1389 10.3088 5.38048 10.3088C5.62209 10.3088 5.85372 10.2129 6.02454 10.0421L13.8228 2.24389C14.1785 1.88818 14.1785 1.31147 13.8228 0.955763C13.467 0.600053 12.8903 0.600011 12.5346 0.955763L5.38048 8.10992L2.46311 5.19251C2.1074 4.83676 1.53069 4.83676 1.17499 5.19251C0.819276 5.54822 0.819276 6.12492 1.17499 6.48063L4.73642 10.0421Z" fill="white"/>
<path d="M5.38128 10.3311C5.13231 10.3311 4.89821 10.2342 4.72217 10.0581L1.16074 6.49668C0.797332 6.13323 0.797332 5.5419 1.16074 5.17845C1.33679 5.00236 1.57088 4.9054 1.81985 4.9054C2.06883 4.9054 2.30288 5.00236 2.47897 5.17845L5.38132 8.08081L12.5204 0.941702C12.6964 0.765612 12.9305 0.668701 13.1795 0.668701C13.4284 0.668701 13.6625 0.765655 13.8386 0.941702C14.0147 1.11775 14.1117 1.35184 14.1117 1.60082C14.1117 1.84979 14.0147 2.08384 13.8386 2.25993L6.0404 10.0581C5.86439 10.2342 5.6303 10.3311 5.38128 10.3311ZM1.81985 4.94797C1.58223 4.94797 1.35885 5.0405 1.19084 5.20855C0.844023 5.55542 0.844023 6.11975 1.19084 6.46661L4.75227 10.028C4.92028 10.1961 5.14366 10.2886 5.38128 10.2886C5.61895 10.2886 5.84232 10.1961 6.01033 10.028L13.8085 2.22987C13.9765 2.06186 14.0691 1.83844 14.0691 1.60086C14.0691 1.36328 13.9765 1.13982 13.8085 0.971809C13.6405 0.803756 13.4171 0.711268 13.1795 0.711268C12.9418 0.711268 12.7184 0.803799 12.5504 0.971809L5.38128 8.14098L2.44886 5.20855C2.28085 5.0405 2.05747 4.94797 1.81985 4.94797Z" fill="white"/>
</svg>
