<svg width="47" height="47" viewBox="0 0 47 47" fill="none" xmlns="http://www.w3.org/2000/svg">
<path d="M23.5003 43.0834C12.6847 43.0834 3.91699 34.3157 3.91699 23.5001C3.91699 12.6845 12.6847 3.91675 23.5003 3.91675C34.3159 3.91675 43.0837 12.6845 43.0837 23.5001C43.0718 34.3107 34.311 43.0715 23.5003 43.0834ZM23.5003 7.83342C14.8479 7.83342 7.83366 14.8476 7.83366 23.5001C7.83366 32.1525 14.8479 39.1668 23.5003 39.1668C32.1528 39.1668 39.167 32.1525 39.167 23.5001C39.1573 14.8516 32.1488 7.84313 23.5003 7.83342ZM33.292 25.4584H21.542V13.7084H25.4587V21.5417H33.292V25.4584Z" fill="white"/>
</svg>
