<svg width="20" height="20" viewBox="0 0 20 20" fill="none" xmlns="http://www.w3.org/2000/svg">
<path fill-rule="evenodd" clip-rule="evenodd" d="M20 10C20 15.5228 15.5228 20 10 20C4.47715 20 0 15.5228 0 10C0 4.47715 4.47715 0 10 0C15.5228 0 20 4.47715 20 10ZM2.9502 6.47998V6.48011H2.97576C3.3097 6.48357 3.9302 6.55491 3.9302 6.81998V6.48011H3.93066V10.1201H5.01066V6.48109C5.04542 6.48109 5.08381 6.48075 5.12517 6.48039C5.47704 6.47732 6.04404 6.47237 6.41937 6.65109C7.28937 7.06537 7.39937 7.43109 7.39937 8.51109C7.39937 9.59109 6.72937 10.0711 5.64937 10.3211C4.78537 10.5211 2.62937 10.3378 1.65937 10.2211C2.39604 10.4144 4.22538 10.7691 5.64937 10.6411C7.42937 10.4811 7.98938 9.92109 8.18937 9.40109C8.38937 8.88109 8.44938 7.65109 7.98938 6.89109C7.52765 6.12825 6.15041 6.1211 5.01066 6.12109V6.12012H5.01013H3.93066H2.9502V6.47998ZM2.9502 13.5002V13.8602H6.0702V13.5002H2.9502ZM5.01066 10.9199H3.93066V13.1001C3.89733 13.2134 3.77066 13.4521 3.53066 13.5001H3.93066V13.4999H5.01035V13.5001H5.41028C5.17107 13.4522 5.04447 13.2149 5.01066 13.1012V10.9199ZM8.91055 6.47998V6.48012H8.93633C9.27031 6.48361 9.8905 6.55496 9.8905 6.81998L9.63039 12.4839V12.46C9.63039 12.4708 9.63026 12.4815 9.63001 12.4922L9.62735 12.5501C9.57635 13.2921 8.89675 13.4935 8.55039 13.5H9.58373L9.58373 13.5H8.55039V13.86H11.1304V13.5H11.1304L11.1304 13.5C10.8077 13.5 10.1757 13.4191 10.1238 13.1025L10.2805 7.60094L13.13 13.8501H13.31L16.2905 7.80194V13.0599C16.2905 13.4039 15.7039 13.4965 15.4105 13.4999L15.4122 13.5H15.4105V13.86H18.3305V13.5H18.3298L18.3305 13.4999C17.9772 13.4965 17.2705 13.3499 17.2705 12.7899V6.83985C17.2705 6.72216 17.4572 6.48904 18.1964 6.48012H18.2502V6.12012H16.3902V6.34985H16.39V6.12012L13.5 12.2201L10.8701 6.74012V6.48012H10.8705V6.12012H8.91055V6.47998ZM10.8649 6.48012H10.8504V6.50781L10.8649 6.48012ZM16.2905 13.4999L16.2921 13.5H16.2905V13.4999Z" fill="#ED1019"/>
</svg>
