<svg width="20" height="20" viewBox="0 0 20 20" fill="none" xmlns="http://www.w3.org/2000/svg">
<path fill-rule="evenodd" clip-rule="evenodd" d="M10 20C15.5228 20 20 15.5228 20 10C20 4.47715 15.5228 0 10 0C4.47715 0 0 4.47715 0 10C0 15.5228 4.47715 20 10 20ZM8.91768 16.25H10.9302V8.37504H8.91768V16.25ZM9.05768 4.70004C8.82435 4.91004 8.70768 5.19004 8.70768 5.54004C8.70768 5.91337 8.82435 6.21671 9.05768 6.45004C9.30268 6.68337 9.60602 6.80004 9.96768 6.80004C10.2827 6.80004 10.551 6.68337 10.7727 6.45004C11.006 6.21671 11.1227 5.91337 11.1227 5.54004C11.1227 5.20171 11.006 4.92171 10.7727 4.70004C10.551 4.47837 10.2827 4.36754 9.96768 4.36754C9.60602 4.36754 9.30268 4.47837 9.05768 4.70004Z" fill="#FF0000"/>
</svg>
