<svg width="18" height="26" viewBox="0 0 18 26" fill="none" xmlns="http://www.w3.org/2000/svg">
<path d="M16.9167 13.6156C16.3641 12.8645 15.5302 12.3487 14.4151 12.0683C15.8351 11.307 16.4592 10.0149 16.2878 8.19175C16.2305 7.53065 16.0567 6.95769 15.7659 6.47203C15.4749 5.98627 15.0822 5.59575 14.5864 5.30033C14.0909 5.00453 13.552 4.77936 12.971 4.62412C12.3898 4.46888 11.7226 4.35616 10.9697 4.28612V0.5H8.76851V4.18093C8.38734 4.18093 7.80606 4.19093 7.0247 4.21098V0.5H4.82322V4.28612C4.50865 4.29617 4.04652 4.30128 3.43665 4.30128L0.40625 4.28612V6.75014H1.99285C2.71712 6.75014 3.1412 7.09077 3.26507 7.77177V12.0838C3.36049 12.0838 3.43665 12.089 3.49388 12.099H3.26507V18.1385C3.18891 18.6492 2.91259 18.9048 2.43604 18.9048H0.84955L0.40635 21.6543H3.26532C3.44641 21.6543 3.70831 21.6568 4.05153 21.6613C4.39454 21.6664 4.65174 21.6689 4.82332 21.6689V25.5H7.02515V21.7139C7.42529 21.7242 8.00658 21.7291 8.76896 21.7291V25.5H10.9702V21.6689C11.7518 21.6289 12.445 21.5542 13.0499 21.4436C13.6551 21.333 14.2341 21.1605 14.7867 20.925C15.3393 20.6898 15.8014 20.3966 16.173 20.046C16.5448 19.6958 16.8519 19.2499 17.0953 18.7089C17.3379 18.1679 17.493 17.5419 17.5595 16.8306C17.6839 15.4387 17.4694 14.3669 16.9167 13.6156ZM7.06751 6.91496C7.13425 6.91496 7.32245 6.91243 7.63217 6.90738C7.94204 6.90223 8.19924 6.89728 8.40411 6.89223C8.60904 6.88728 8.88542 6.8998 9.23339 6.92985C9.58121 6.9599 9.8742 7.00005 10.1124 7.05004C10.3505 7.10004 10.6129 7.18271 10.8985 7.2979C11.1846 7.41298 11.4132 7.55328 11.5845 7.71851C11.7562 7.88375 11.9015 8.09419 12.0204 8.34962C12.1397 8.605 12.1992 8.89795 12.1992 9.22843C12.1992 9.50891 12.1564 9.76439 12.0708 9.99488C11.9853 10.2252 11.8563 10.4181 11.6849 10.5733C11.5136 10.7286 11.3369 10.864 11.1558 10.979C10.9749 11.0941 10.7436 11.1868 10.4626 11.2569C10.1816 11.327 9.93624 11.3821 9.7267 11.4221C9.51702 11.4622 9.25502 11.4899 8.94049 11.5048C8.62591 11.5197 8.38759 11.5299 8.22567 11.5349C8.0636 11.5398 7.84211 11.5398 7.56088 11.5349C7.27959 11.5299 7.11542 11.5273 7.06766 11.5273V6.91491H7.06751V6.91496ZM13.0786 17.1463C12.9879 17.3768 12.8713 17.5772 12.7285 17.7476C12.5854 17.9176 12.3971 18.068 12.1637 18.198C11.9304 18.3284 11.7038 18.4334 11.4848 18.5136C11.2655 18.594 11.001 18.6637 10.6916 18.724C10.3814 18.7842 10.11 18.8265 9.8763 18.8517C9.64294 18.8768 9.36431 18.8968 9.04018 18.9119C8.71629 18.9266 8.46359 18.9343 8.2826 18.9343C8.10151 18.9343 7.87275 18.9315 7.59637 18.9266C7.31985 18.922 7.14371 18.9194 7.06741 18.9194V13.841C7.14356 13.841 7.36992 13.8362 7.74643 13.8259C8.12298 13.8158 8.43015 13.8112 8.66842 13.8112C8.90664 13.8112 9.23554 13.8259 9.65501 13.8562C10.0741 13.886 10.4267 13.9309 10.7128 13.991C10.9986 14.0512 11.3105 14.1437 11.6491 14.2691C11.9873 14.3942 12.2614 14.5469 12.4711 14.7272C12.6808 14.9078 12.857 15.1378 12.9999 15.4184C13.1431 15.6987 13.2146 16.0193 13.2146 16.38C13.2145 16.6607 13.1693 16.9158 13.0786 17.1463Z" fill="white"/>
</svg>
