<svg width="21" height="16" viewBox="0 0 21 16" fill="none" xmlns="http://www.w3.org/2000/svg">
<path d="M19.0441 1.05439C18.3692 0.379009 17.4535 -0.00031166 16.4988 9.96831e-06C15.5444 -0.00224143 14.6287 0.376958 13.9552 1.05322L9.30873 5.69979C8.38939 6.62057 8.03793 7.9655 8.38931 9.21832C8.49219 9.58305 8.87127 9.79532 9.236 9.69244C9.60072 9.58956 9.813 9.21048 9.71012 8.84575C9.4935 8.07099 9.71084 7.23962 10.2789 6.67002L14.9254 2.02414C15.7942 1.15522 17.2028 1.15506 18.0717 2.02382C18.9406 2.89253 18.9408 4.30118 18.0721 5.1701L13.4256 9.81663C13.1211 10.1215 12.7343 10.3311 12.3127 10.4198C11.9417 10.497 11.7035 10.8604 11.7808 11.2313C11.8472 11.5504 12.1288 11.7786 12.4547 11.7776C12.5026 11.7777 12.5505 11.7726 12.5974 11.7626C13.2789 11.6188 13.9037 11.2798 14.3958 10.7869L19.0423 6.14102C20.4474 4.73687 20.4482 2.45954 19.0441 1.05439Z" fill="white"/>
<path d="M12.5911 6.58216C12.4882 6.21744 12.1091 6.00516 11.7444 6.10804C11.3797 6.21092 11.1674 6.59 11.2703 6.95473C11.4869 7.72949 11.2696 8.56086 10.7015 9.13046L6.05492 13.777C5.1862 14.6459 3.77755 14.6461 2.90863 13.7773C2.03971 12.9086 2.03955 11.5 2.90827 10.6311L7.55483 5.98381C7.85885 5.67899 8.24512 5.46941 8.66638 5.38068C9.03798 5.30634 9.27896 4.94487 9.20462 4.57331C9.13029 4.20175 8.76882 3.96073 8.39725 4.03507C8.39271 4.03599 8.38821 4.03692 8.38371 4.03792C7.7021 4.18181 7.07701 4.52081 6.58464 5.01362L1.93808 9.66019C0.543978 11.0758 0.561426 13.3535 1.97703 14.7476C3.3772 16.1264 5.62474 16.1266 7.02511 14.7479L11.6716 10.1007C12.591 9.17987 12.9425 7.83495 12.5911 6.58216Z" fill="white"/>
</svg>
