<svg width="26" height="26" viewBox="0 0 26 26" fill="none" xmlns="http://www.w3.org/2000/svg">
<path fill-rule="evenodd" clip-rule="evenodd" d="M25.5 13C25.5 19.9036 19.9036 25.5 13 25.5C6.09644 25.5 0.5 19.9036 0.5 13C0.5 6.09644 6.09644 0.5 13 0.5C19.9036 0.5 25.5 6.09644 25.5 13ZM4.18762 8.6001V8.60039H4.22981C4.64817 8.60604 5.40765 8.69585 5.4126 9.02189V13.1504H6.7626V8.60137C6.80632 8.60136 6.85466 8.60094 6.90678 8.60049L6.90682 8.60049H6.90683C7.34667 8.59665 8.05542 8.59046 8.52459 8.81387C9.61209 9.33172 9.74959 9.78887 9.74959 11.1389C9.74959 12.4889 8.91208 13.0889 7.56209 13.4014C6.48209 13.6514 3.78709 13.4222 2.57458 13.2764C3.49542 13.518 5.78209 13.9614 7.56209 13.8014C9.78708 13.6014 10.4871 12.9014 10.7371 12.2514C10.9871 11.6014 11.0621 10.0639 10.4871 9.11387C9.90979 8.16007 8.1875 8.15137 6.7626 8.15137V8.15039H6.76254H5.4126H4.18762V8.6001ZM4.18762 17.375V17.825H8.08762V17.375H7.26261C6.96266 17.315 6.80436 17.0167 6.7627 16.875V17.375H5.4126V17.3749H6.7626V14.1499H5.4126V16.875C5.37093 17.0167 5.2126 17.315 4.9126 17.375H4.18762ZM11.6373 8.6001V8.60039H11.6797C12.0995 8.60608 12.8623 8.6965 12.8623 9.0251L12.5369 16.1103V16.0752C12.5369 16.0932 12.5366 16.1109 12.5361 16.1284L12.5339 16.1752C12.4775 17.1068 11.6333 17.3637 11.1957 17.375H11.1869V17.3752V17.825H14.4119V17.3752V17.375H14.3807C13.9696 17.3699 13.2185 17.2644 13.1539 16.8796L13.3497 10.0012L16.9118 17.8129H17.1368L20.8617 10.2542V16.8245C20.8617 17.2545 20.1284 17.3703 19.7617 17.3745L19.7671 17.375H19.7617V17.825H23.4117V17.375H23.4093L23.4117 17.3745C22.9701 17.3703 22.0867 17.187 22.0867 16.487V9.04951C22.0867 8.90424 22.3142 8.61826 23.2097 8.60039H23.3117V8.15039H20.9868H20.9867V8.15055L17.3743 15.7754L14.0869 8.92539V8.60039H14.0873V8.15039H11.6373V8.6001ZM14.0803 8.60039H14.0616V8.63618L14.0803 8.60039ZM20.8617 17.3745L20.867 17.375H20.8617V17.3745Z" fill="white"/>
</svg>
