<svg width="14" height="14" viewBox="0 0 14 14" fill="none" xmlns="http://www.w3.org/2000/svg">
<path fill-rule="evenodd" clip-rule="evenodd" d="M3.94782 6.68983V7.25753C3.78332 7.28343 3.57402 7.25683 3.49352 7.34573C3.40532 7.44373 3.41932 7.64883 3.41652 7.80773C3.40812 8.27673 3.41372 8.28373 3.88832 8.27253C4.05352 8.26833 4.12772 8.31243 4.18162 8.48043C4.80672 10.4145 6.75692 11.4008 8.78202 10.8317C8.97032 10.7792 9.00252 10.7162 8.96052 10.5195C8.91782 10.3186 8.87232 10.1184 8.83032 9.91753C8.74982 9.53253 8.75122 9.53463 8.37182 9.62353C7.48422 9.83213 6.69322 9.67463 6.04852 8.99283C5.85882 8.79263 5.71252 8.56373 5.61172 8.27673H5.82592C6.43632 8.27673 7.04672 8.27323 7.65782 8.27883C7.81532 8.27953 7.89582 8.21933 7.91962 8.06183C7.94412 7.90573 7.98612 7.75243 8.01692 7.59703C8.06592 7.35483 8.00852 7.28413 7.76562 7.28413C7.03132 7.28413 6.29702 7.28413 5.56342 7.28413H5.35412V6.68983H5.58162C6.37472 6.68983 7.16712 6.68773 7.96022 6.69193C8.10862 6.69333 8.19052 6.64503 8.21292 6.49173C8.23882 6.32443 8.27872 6.15853 8.31232 5.99123C8.35922 5.76093 8.30392 5.69443 8.06452 5.69443C7.31342 5.69373 6.56162 5.69443 5.80982 5.69443H5.58232C5.85812 5.08613 6.28302 4.68293 6.88082 4.46803C7.36032 4.29583 7.84892 4.31543 8.33892 4.41973C8.55242 4.46523 8.59652 4.43653 8.65252 4.22793C8.72112 3.97383 8.78972 3.71903 8.85622 3.46353C8.89332 3.31933 8.84922 3.21503 8.69382 3.19053C8.42152 3.14783 8.14992 3.09603 7.87552 3.07853C6.36492 2.98193 4.95372 3.82683 4.32092 5.20023C4.25022 5.35423 4.23552 5.57753 4.11932 5.65593C3.99542 5.73923 3.78192 5.69023 3.60692 5.69443C3.48372 5.69723 3.41932 5.76233 3.41582 5.87783C3.40952 6.08363 3.41022 6.28943 3.41442 6.49453C3.41722 6.61843 3.48022 6.69123 3.61252 6.68983C3.72312 6.68913 3.83302 6.68983 3.94782 6.68983ZM6.99072 13.9999C3.11972 13.981 -0.0337787 10.8156 0.000521322 6.98313C0.0348213 3.10793 3.16802 -0.0147704 7.00752 -7.0383e-05C10.8736 0.0146296 14.0327 3.18563 13.997 7.01673C13.962 10.894 10.8267 14.0181 6.99072 13.9999Z" fill="#9F9FA8"/>
</svg>
