<svg width="16" height="9" viewBox="0 0 16 9" fill="none" xmlns="http://www.w3.org/2000/svg">
<path fill-rule="evenodd" clip-rule="evenodd" d="M4.55516 1.60896C4.55287 2.49771 3.82983 3.20271 2.92468 3.20196C2.01421 3.20046 1.30183 2.49021 1.30259 1.58496C1.30259 0.70971 2.03326 -0.00353989 2.92545 -0.000539887C3.84354 0.00396011 4.55745 0.70896 4.55516 1.60896ZM7.84423 0.000210113C9.11356 0.00921011 10.1254 1.00896 10.1223 2.24871C10.1185 3.50046 9.08156 4.50696 7.80613 4.49496C6.55508 4.48296 5.53337 3.45246 5.55089 2.21871C5.56842 0.98271 6.59318 -0.00953989 7.84423 0.000210113ZM15.0956 6.41234C15.424 6.34709 15.5954 6.12509 15.6891 5.82809V5.28434C15.6855 5.27334 15.6816 5.26242 15.6776 5.2515C15.6696 5.22967 15.6617 5.20784 15.6571 5.18534C15.5695 4.74583 15.3341 4.40459 14.9409 4.18109C13.8003 3.53384 12.6042 3.37109 11.3478 3.81284C10.9676 3.94709 10.5935 4.10084 10.288 4.37234C10.0487 4.58534 10.1097 4.83884 10.4083 4.95584C10.7923 5.10734 11.1733 5.26408 11.5497 5.43059C11.9634 5.61359 12.304 5.89109 12.5691 6.25409C12.6575 6.37559 12.768 6.42959 12.9196 6.42884C13.3103 6.42709 13.7009 6.42712 14.0915 6.42716H14.0915H14.0915H14.0915H14.0915C14.3704 6.42718 14.6493 6.42721 14.928 6.42659C14.9836 6.42659 15.0407 6.42359 15.0956 6.41234ZM6.62461 8.99925L7.83006 8.99908V8.99984C9.03615 8.99984 10.2415 8.99984 11.4476 8.99908C11.9291 8.99908 12.3123 8.70659 12.3916 8.26034C12.4159 8.12051 12.4119 7.97565 12.4078 7.83204L12.4061 7.76384C12.3923 7.06108 12.0899 6.49858 11.4781 6.14608C10.3504 5.49734 9.1192 5.15534 7.81406 5.15908C6.55158 5.16283 5.36606 5.50709 4.25977 6.10633C3.87196 6.31708 3.59691 6.63284 3.4171 7.03258C3.26777 7.36559 3.25939 7.71434 3.26472 8.06759C3.27234 8.61208 3.66244 8.99834 4.21329 8.99908C5.01688 8.99959 5.8208 8.99942 6.62461 8.99925ZM1.4128 6.42773L1.74487 6.42756C1.84384 6.42756 1.94287 6.42724 2.04193 6.42691H2.04201H2.04209C2.28006 6.42613 2.51818 6.42535 2.75592 6.42906C2.91287 6.43131 3.02792 6.37806 3.12011 6.25131C3.3723 5.90556 3.6923 5.63406 4.08468 5.45781C4.48316 5.27781 4.88849 5.11431 5.29459 4.95081C5.56202 4.84281 5.62526 4.58931 5.41802 4.39131C5.33802 4.31481 5.24811 4.24506 5.15211 4.19031C4.25306 3.67806 3.29764 3.44481 2.25916 3.62706C1.70068 3.72456 1.17345 3.91131 0.695731 4.21206C0.130398 4.56831 -0.0364592 5.10906 0.00620744 5.73906C0.033636 6.14181 0.334588 6.42531 0.749065 6.42756C0.970282 6.42806 1.19116 6.42789 1.41215 6.42773H1.41224H1.4128ZM11.1178 1.57641C11.114 2.48241 11.8241 3.19716 12.7308 3.20166C13.639 3.20616 14.3651 2.50416 14.3704 1.61841C14.3765 0.71691 13.6656 0.00741011 12.7506 -8.98873e-05C11.8554 -0.00683989 11.1216 0.70191 11.1178 1.57641Z" fill="#9F9FA8"/>
</svg>
