<svg width="253" height="27" viewBox="0 0 253 27" fill="none" xmlns="http://www.w3.org/2000/svg">
<path d="M10.11 22.36C6.15 22.36 2.87 21.2 0.27 18.88L3.51 15.01C5.61 16.69 7.88 17.53 10.32 17.53C11.92 17.53 12.72 17.03 12.72 16.03C12.72 15.59 12.48 15.23 12 14.95C11.52 14.65 10.58 14.34 9.18 14.02C7.9 13.72 6.84 13.43 6 13.15C5.18 12.85 4.37 12.46 3.57 11.98C2.79 11.48 2.21 10.85 1.83 10.09C1.45 9.33 1.26 8.42 1.26 7.36C1.26 5.38 1.99 3.77 3.45 2.53C4.93 1.27 6.91 0.64 9.39 0.64C12.83 0.64 15.71 1.57 18.03 3.43L15.12 7.54C13.16 6.16 11.2 5.47 9.24 5.47C8.56 5.47 8.04 5.6 7.68 5.86C7.32 6.12 7.14 6.46 7.14 6.88C7.14 7.36 7.38 7.74 7.86 8.02C8.36 8.3 9.33 8.6 10.77 8.92C13.41 9.5 15.37 10.28 16.65 11.26C17.95 12.22 18.6 13.64 18.6 15.52C18.6 17.64 17.83 19.31 16.29 20.53C14.75 21.75 12.69 22.36 10.11 22.36ZM26.5003 22.36C24.7803 22.36 23.4303 21.83 22.4503 20.77C21.4703 19.71 20.9803 18.25 20.9803 16.39V5.77H26.6803V14.56C26.6803 15.42 26.8903 16.09 27.3103 16.57C27.7303 17.05 28.2903 17.29 28.9903 17.29C29.6903 17.29 30.2603 17.05 30.7003 16.57C31.1403 16.09 31.3603 15.42 31.3603 14.56V5.77H37.0603V22H31.3603V19.78C30.0203 21.5 28.4003 22.36 26.5003 22.36ZM40.234 22V0.0999994H45.934V22H40.234ZM49.2281 22V0.0999994H54.9281V22H49.2281ZM58.2223 22V5.77H63.9223V22H58.2223ZM58.1023 4.3V0.0999994H64.0423V4.3H58.1023ZM72.3464 22.12L65.8664 5.77H71.8664L74.9864 15.25L78.1064 5.77H84.0164L77.5364 22.12H72.3464ZM89.5882 22.36C87.9882 22.36 86.6782 21.92 85.6582 21.04C84.6382 20.14 84.1282 18.89 84.1282 17.29C84.1282 15.65 84.6982 14.39 85.8382 13.51C86.9782 12.63 88.5282 12.19 90.4882 12.19C91.9082 12.19 93.2082 12.4 94.3882 12.82V12.55C94.3882 10.79 93.3082 9.91 91.1482 9.91C89.6882 9.91 88.1982 10.21 86.6782 10.81L85.5082 6.79C87.5482 5.95 89.7382 5.53 92.0782 5.53C94.8782 5.53 96.9382 6.19 98.2582 7.51C99.4182 8.65 99.9982 10.37 99.9982 12.67V22H94.3582V20.32C93.1382 21.68 91.5482 22.36 89.5882 22.36ZM91.6282 18.79C92.4682 18.79 93.1482 18.55 93.6682 18.07C94.1882 17.57 94.4482 16.92 94.4482 16.12V15.37C93.7882 15.09 93.0482 14.95 92.2282 14.95C91.4082 14.95 90.7682 15.14 90.3082 15.52C89.8482 15.88 89.6182 16.38 89.6182 17.02C89.6182 17.56 89.7982 17.99 90.1582 18.31C90.5382 18.63 91.0282 18.79 91.6282 18.79ZM102.897 22V5.77H108.597V8.05C109.957 6.29 111.577 5.41 113.457 5.41C115.177 5.41 116.527 5.95 117.507 7.03C118.487 8.09 118.977 9.54 118.977 11.38V22H113.277V13.21C113.277 12.35 113.067 11.68 112.647 11.2C112.247 10.72 111.697 10.48 110.997 10.48C110.277 10.48 109.697 10.72 109.257 11.2C108.817 11.68 108.597 12.35 108.597 13.21V22H102.897Z" fill="#4339F2"/>
<path d="M121.581 15.13V10.12H131.421V15.13H121.581ZM134.487 22V0.999999H140.307V8.86H147.777V0.999999H153.597V22H147.777V14.02H140.307V22H134.487ZM165.259 22.39C162.699 22.39 160.569 21.57 158.869 19.93C157.169 18.27 156.319 16.26 156.319 13.9C156.319 11.56 157.169 9.56 158.869 7.9C160.589 6.24 162.739 5.41 165.319 5.41C167.879 5.41 170.009 6.24 171.709 7.9C173.409 9.54 174.259 11.54 174.259 13.9C174.259 16.24 173.399 18.24 171.679 19.9C169.979 21.56 167.839 22.39 165.259 22.39ZM165.319 17.56C166.339 17.56 167.159 17.21 167.779 16.51C168.399 15.81 168.709 14.94 168.709 13.9C168.709 12.9 168.379 12.04 167.719 11.32C167.059 10.6 166.239 10.24 165.259 10.24C164.239 10.24 163.419 10.59 162.799 11.29C162.179 11.99 161.869 12.86 161.869 13.9C161.869 14.9 162.199 15.76 162.859 16.48C163.519 17.2 164.339 17.56 165.319 17.56ZM176.787 22V0.0999994H182.487V22H176.787ZM192.231 22.36C190.231 22.36 188.531 21.59 187.131 20.05C185.751 18.49 185.061 16.44 185.061 13.9C185.061 11.34 185.751 9.29 187.131 7.75C188.511 6.19 190.201 5.41 192.201 5.41C194.161 5.41 195.821 6.19 197.181 7.75V0.0999994H202.881V22H197.181V19.84C195.801 21.52 194.151 22.36 192.231 22.36ZM191.601 16.54C192.261 17.24 193.051 17.59 193.971 17.59C194.891 17.59 195.671 17.24 196.311 16.54C196.951 15.84 197.271 14.94 197.271 13.84C197.271 12.78 196.951 11.91 196.311 11.23C195.671 10.53 194.891 10.18 193.971 10.18C193.031 10.18 192.241 10.53 191.601 11.23C190.961 11.93 190.641 12.82 190.641 13.9C190.641 14.96 190.961 15.84 191.601 16.54ZM206.054 22V5.77H211.754V22H206.054ZM205.934 4.3V0.0999994H211.874V4.3H205.934ZM214.928 22V5.77H220.628V8.05C221.988 6.29 223.608 5.41 225.488 5.41C227.208 5.41 228.558 5.95 229.538 7.03C230.518 8.09 231.008 9.54 231.008 11.38V22H225.308V13.21C225.308 12.35 225.098 11.68 224.678 11.2C224.278 10.72 223.728 10.48 223.028 10.48C222.308 10.48 221.728 10.72 221.288 11.2C220.848 11.68 220.628 12.35 220.628 13.21V22H214.928ZM241.922 26.86C238.922 26.86 236.212 26.24 233.792 25L235.622 21.22C237.462 22.24 239.352 22.75 241.292 22.75C244.132 22.75 245.552 21.42 245.552 18.76V18.13C244.152 19.75 242.482 20.56 240.542 20.56C238.482 20.56 236.762 19.87 235.382 18.49C234.022 17.11 233.342 15.27 233.342 12.97C233.342 10.71 234.022 8.89 235.382 7.51C236.762 6.11 238.422 5.41 240.362 5.41C242.322 5.41 244.022 6.17 245.462 7.69V5.77H251.162V18.1C251.162 21.02 250.462 23.18 249.062 24.58C247.542 26.1 245.162 26.86 241.922 26.86ZM242.252 16.18C243.212 16.18 244.002 15.88 244.622 15.28C245.242 14.68 245.552 13.91 245.552 12.97C245.552 12.07 245.242 11.33 244.622 10.75C244.002 10.15 243.212 9.85 242.252 9.85C241.272 9.85 240.472 10.15 239.852 10.75C239.232 11.35 238.922 12.12 238.922 13.06C238.922 13.96 239.232 14.71 239.852 15.31C240.472 15.89 241.272 16.18 242.252 16.18Z" fill="#FFB200"/>
</svg>
