<svg width="261" height="25" viewBox="0 0 261 25" fill="none" xmlns="http://www.w3.org/2000/svg">
<path d="M6.99 22V6.1H0.69V0.999999H19.11V6.1H12.81V22H6.99ZM21.6647 22V0.999999H31.5947C34.6547 0.999999 36.9347 1.75 38.4347 3.25C39.6747 4.49 40.2947 6.15 40.2947 8.23C40.2947 11.31 38.8547 13.46 35.9747 14.68L40.9847 22H34.2647L30.0347 15.64H27.4847V22H21.6647ZM27.4847 11.08H31.3247C32.3047 11.08 33.0647 10.86 33.6047 10.42C34.1647 9.96 34.4447 9.33 34.4447 8.53C34.4447 7.71 34.1647 7.09 33.6047 6.67C33.0647 6.25 32.2947 6.04 31.2947 6.04H27.4847V11.08ZM41.1956 22L50.1356 0.849999H55.7456L64.6856 22H58.4456L56.9156 18.25H48.8156L47.3156 22H41.1956ZM50.5256 13.72H55.2356L52.8956 7.75L50.5256 13.72ZM66.7233 22V0.999999H74.8233C78.5033 0.999999 81.3933 1.96 83.4933 3.88C85.6133 5.8 86.6733 8.32 86.6733 11.44C86.6733 14.54 85.6033 17.08 83.4633 19.06C81.3233 21.02 78.4033 22 74.7033 22H66.7233ZM72.5433 16.84H74.9133C76.6733 16.84 78.0733 16.37 79.1133 15.43C80.1733 14.49 80.7033 13.17 80.7033 11.47C80.7033 9.81 80.1733 8.5 79.1133 7.54C78.0733 6.58 76.6733 6.1 74.9133 6.1H72.5433V16.84ZM89.6627 22V0.999999H97.7627C101.443 0.999999 104.333 1.96 106.433 3.88C108.553 5.8 109.613 8.32 109.613 11.44C109.613 14.54 108.543 17.08 106.403 19.06C104.263 21.02 101.343 22 97.6427 22H89.6627ZM95.4827 16.84H97.8527C99.6127 16.84 101.013 16.37 102.053 15.43C103.113 14.49 103.643 13.17 103.643 11.47C103.643 9.81 103.113 8.5 102.053 7.54C101.013 6.58 99.6127 6.1 97.8527 6.1H95.4827V16.84ZM112.602 22V0.999999H129.492V5.95H118.362V9.13H128.442V13.72H118.362V17.05H129.642V22H112.602ZM131.082 22L138.282 11.32L131.382 0.999999H138.072L141.792 6.91L145.542 0.999999H152.082L145.182 11.26L152.382 22H145.692L141.672 15.67L137.622 22H131.082Z" fill="#4339F2"/>
<path d="M170.016 20V3.2H173.712V16.64H182.088V20H170.016ZM184.563 5.72V2.48H188.403V5.72H184.563ZM184.659 20V7.136H188.307V20H184.659ZM191.734 20V7.136H195.382V8.96C196.454 7.584 197.718 6.896 199.174 6.896C200.886 6.896 202.094 7.576 202.798 8.936C203.966 7.576 205.374 6.896 207.022 6.896C208.398 6.896 209.462 7.304 210.214 8.12C210.982 8.92 211.366 10.088 211.366 11.624V20H207.718V12.824C207.718 11.08 207.006 10.208 205.582 10.208C204.894 10.208 204.35 10.432 203.95 10.88C203.566 11.328 203.374 11.976 203.374 12.824V20H199.726V12.824C199.726 11.08 199.014 10.208 197.59 10.208C196.902 10.208 196.358 10.432 195.958 10.88C195.574 11.328 195.382 11.976 195.382 12.824V20H191.734ZM214.61 5.72V2.48H218.45V5.72H214.61ZM214.706 20V7.136H218.354V20H214.706ZM226.124 20.216C224.924 20.216 223.996 19.928 223.34 19.352C222.7 18.76 222.38 17.76 222.38 16.352V10.256H220.844V7.136H222.38V3.848H226.028V7.136H229.052V10.256H226.028V15.752C226.028 16.584 226.42 17 227.204 17C227.844 17 228.444 16.848 229.004 16.544V19.472C228.172 19.968 227.212 20.216 226.124 20.216ZM237.486 20.288C235.534 20.288 233.926 19.672 232.662 18.44C231.398 17.192 230.766 15.576 230.766 13.592C230.766 11.72 231.366 10.136 232.566 8.84C233.766 7.544 235.286 6.896 237.126 6.896C239.158 6.896 240.71 7.568 241.782 8.912C242.854 10.256 243.39 11.912 243.39 13.88C243.39 14.072 243.374 14.392 243.342 14.84H234.39C234.566 15.656 234.926 16.28 235.47 16.712C236.014 17.144 236.702 17.36 237.534 17.36C238.67 17.36 239.71 16.92 240.654 16.04L242.742 17.888C241.446 19.488 239.694 20.288 237.486 20.288ZM234.342 12.56H239.838C239.726 11.728 239.43 11.064 238.95 10.568C238.486 10.072 237.878 9.824 237.126 9.824C236.39 9.824 235.774 10.072 235.278 10.568C234.798 11.048 234.486 11.712 234.342 12.56ZM251.389 20.24C249.789 20.24 248.413 19.64 247.261 18.44C246.109 17.24 245.533 15.608 245.533 13.544C245.533 11.496 246.101 9.88 247.237 8.696C248.389 7.496 249.773 6.896 251.389 6.896C252.989 6.896 254.325 7.536 255.397 8.816V2.48H259.045V20H255.397V18.152C254.373 19.544 253.037 20.24 251.389 20.24ZM250.093 16.16C250.701 16.816 251.445 17.144 252.325 17.144C253.205 17.144 253.941 16.816 254.533 16.16C255.141 15.488 255.445 14.616 255.445 13.544C255.445 12.504 255.141 11.656 254.533 11C253.941 10.328 253.205 9.992 252.325 9.992C251.445 9.992 250.701 10.328 250.093 11C249.485 11.656 249.181 12.52 249.181 13.592C249.181 14.632 249.485 15.488 250.093 16.16Z" fill="#FFB200"/>
</svg>
