<svg width="188" height="32" viewBox="0 0 188 32" fill="none" xmlns="http://www.w3.org/2000/svg">
<mask id="mask0" mask-type="alpha" maskUnits="userSpaceOnUse" x="1" y="3" width="185" height="29">
<path d="M11.2793 26.3662C17.168 26.3662 20.6543 22.8799 20.6543 17.123V14.6914H11.5137V17.9873H16.3477L16.333 18.2949C16.2158 20.9023 14.2383 22.6162 11.3525 22.6162C7.83691 22.6162 5.61035 19.9062 5.61035 15.3213V15.3066C5.61035 10.8242 7.70508 8.24609 11.1914 8.24609C13.5791 8.24609 15.2637 9.43262 15.9668 11.4834L16.0254 11.6299H20.4639L20.4199 11.4248C19.7168 7.45508 16.2598 4.49609 11.1768 4.49609C4.98047 4.49609 1.09863 8.58301 1.09863 15.3506V15.3652C1.09863 22.25 4.96582 26.3662 11.2793 26.3662ZM23.2178 26H27.4951V17.2109C27.4951 14.9258 28.7256 13.666 30.835 13.666C31.4502 13.666 32.0361 13.7539 32.3877 13.9004V10.1357C32.0654 10.0479 31.626 9.97461 31.1572 9.97461C29.3262 9.97461 28.0518 11.1025 27.583 13.0361H27.4951V10.2969H23.2178V26ZM38.4375 26.249C40.5029 26.249 42.1729 25.2676 43.0664 23.6562H43.1543V26H47.4316V15.2334C47.4316 12.0693 44.8096 9.97461 40.752 9.97461C36.6064 9.97461 34.1162 12.0547 33.8818 14.9551L33.8672 15.1309H37.7783L37.8076 14.999C38.0127 13.9883 38.9795 13.2412 40.5762 13.2412C42.2461 13.2412 43.1543 14.1055 43.1543 15.4971V16.4639L39.2725 16.6982C35.376 16.9473 33.1641 18.6172 33.1641 21.4736V21.5029C33.1641 24.2715 35.2881 26.249 38.4375 26.249ZM37.3975 21.2832V21.2539C37.3975 20.1406 38.2617 19.4375 39.917 19.335L43.1543 19.1299V20.2578C43.1543 21.8984 41.748 23.1289 39.8291 23.1289C38.3496 23.1289 37.3975 22.4404 37.3975 21.2832ZM50.2002 26H54.4775V16.9766C54.4775 14.9258 55.6934 13.5195 57.6123 13.5195C59.5312 13.5195 60.498 14.6914 60.498 16.7422V26H64.7754V15.8633C64.7754 12.1865 62.8125 9.97461 59.3555 9.97461C56.9824 9.97461 55.3711 11.0732 54.5654 12.875H54.4775V10.2969H50.2002V26ZM73.3008 26.3223C75.5713 26.3223 77.2998 25.1797 78.1348 23.3193H78.2227V26H82.5V4.8623H78.2227V13.0215H78.1348C77.2852 11.1172 75.5273 9.97461 73.3008 9.97461C69.3457 9.97461 66.9141 13.0215 66.9141 18.1338V18.1484C66.9141 23.2461 69.3457 26.3223 73.3008 26.3223ZM74.7363 22.7773C72.5977 22.7773 71.2646 21.0049 71.2646 18.1484V18.1338C71.2646 15.2627 72.6123 13.5195 74.7363 13.5195C76.8018 13.5195 78.2373 15.3066 78.2373 18.1338V18.1484C78.2373 20.9902 76.8164 22.7773 74.7363 22.7773ZM90.7764 26H95.2002V8.50977H101.323V4.8623H84.668V8.50977H90.7764V26ZM101.411 26H105.688V17.2109C105.688 14.9258 106.919 13.666 109.028 13.666C109.644 13.666 110.229 13.7539 110.581 13.9004V10.1357C110.259 10.0479 109.819 9.97461 109.351 9.97461C107.52 9.97461 106.245 11.1025 105.776 13.0361H105.688V10.2969H101.411V26ZM116.631 26.249C118.696 26.249 120.366 25.2676 121.26 23.6562H121.348V26H125.625V15.2334C125.625 12.0693 123.003 9.97461 118.945 9.97461C114.8 9.97461 112.31 12.0547 112.075 14.9551L112.061 15.1309H115.972L116.001 14.999C116.206 13.9883 117.173 13.2412 118.77 13.2412C120.439 13.2412 121.348 14.1055 121.348 15.4971V16.4639L117.466 16.6982C113.569 16.9473 111.357 18.6172 111.357 21.4736V21.5029C111.357 24.2715 113.481 26.249 116.631 26.249ZM115.591 21.2832V21.2539C115.591 20.1406 116.455 19.4375 118.11 19.335L121.348 19.1299V20.2578C121.348 21.8984 119.941 23.1289 118.022 23.1289C116.543 23.1289 115.591 22.4404 115.591 21.2832ZM134.209 26.3223C136.479 26.3223 138.208 25.1797 139.043 23.3193H139.131V26H143.408V4.8623H139.131V13.0215H139.043C138.193 11.1172 136.436 9.97461 134.209 9.97461C130.254 9.97461 127.822 13.0215 127.822 18.1338V18.1484C127.822 23.2461 130.254 26.3223 134.209 26.3223ZM135.645 22.7773C133.506 22.7773 132.173 21.0049 132.173 18.1484V18.1338C132.173 15.2627 133.521 13.5195 135.645 13.5195C137.71 13.5195 139.146 15.3066 139.146 18.1338V18.1484C139.146 20.9902 137.725 22.7773 135.645 22.7773ZM148.491 8.27539C149.78 8.27539 150.776 7.26465 150.776 6.04883C150.776 4.83301 149.78 3.82227 148.491 3.82227C147.202 3.82227 146.206 4.83301 146.206 6.04883C146.206 7.26465 147.202 8.27539 148.491 8.27539ZM146.353 26H150.63V10.2969H146.353V26ZM153.501 26H157.778V16.9766C157.778 14.9258 158.994 13.5195 160.913 13.5195C162.832 13.5195 163.799 14.6914 163.799 16.7422V26H168.076V15.8633C168.076 12.1865 166.113 9.97461 162.656 9.97461C160.283 9.97461 158.672 11.0732 157.866 12.875H157.778V10.2969H153.501V26ZM178.125 31.4492C182.842 31.4492 185.786 29.0615 185.786 25.5605V10.2969H181.509V12.9775H181.421C180.571 11.1465 178.857 9.97461 176.646 9.97461C172.676 9.97461 170.215 12.9482 170.215 17.958V17.9727C170.215 22.8506 172.646 25.7803 176.572 25.7803C178.843 25.7803 180.601 24.7402 181.421 23.0996H181.509V25.502C181.509 27.2598 180.337 28.4023 178.125 28.4023C176.338 28.4023 175.195 27.7285 174.858 26.9521L174.814 26.8496H170.654L170.669 26.9814C171.079 29.501 173.804 31.4492 178.125 31.4492ZM178.052 22.6455C175.913 22.6455 174.565 20.9023 174.565 18.0752V18.0605C174.565 15.248 175.928 13.5195 178.052 13.5195C180.132 13.5195 181.523 15.2627 181.523 18.0605V18.0752C181.523 20.8877 180.146 22.6455 178.052 22.6455Z" fill="black"/>
</mask>
<g mask="url(#mask0)">
<rect width="187" height="32" rx="2" fill="url(#paint0_linear)"/>
</g>
<defs>
<linearGradient id="paint0_linear" x1="0" y1="0" x2="210.997" y2="123.281" gradientUnits="userSpaceOnUse">
<stop stop-color="#FD5A16"/>
<stop offset="1" stop-color="#CC32CD"/>
</linearGradient>
</defs>
</svg>
