<svg width="127" height="26" viewBox="0 0 127 26" fill="none" xmlns="http://www.w3.org/2000/svg">
<path d="M32.9868 5.8501L39.2138 20.15H36.9485L34.9328 15.4888H29.2545L27.1689 20.15H26.0513L32.428 5.8501H32.9868ZM29.6437 14.5819H34.5235L32.1186 9.04545L29.6437 14.5819Z" fill="white"/>
<path d="M47.1909 6.16724H51.7813C52.5729 6.16724 53.2681 6.25862 53.8669 6.44142C54.4656 6.61717 54.9647 6.86676 55.3639 7.19018C55.7631 7.51357 56.0623 7.90023 56.2618 8.35017C56.4681 8.79312 56.5713 9.27819 56.5713 9.8055C56.5713 10.2414 56.4914 10.6492 56.3318 11.0288C56.1788 11.4084 55.9591 11.7529 55.673 12.0622C55.3936 12.3646 55.0545 12.6282 54.6553 12.8532C54.2561 13.0711 53.817 13.2434 53.338 13.3699L58.158 20.1508H55.5734L50.9731 13.5808H49.4163V20.1508H47.1909V6.16724ZM49.4163 12.8743H50.7036C51.2024 12.8743 51.6616 12.804 52.0805 12.6634C52.5065 12.5227 52.8725 12.3259 53.1784 12.0728C53.491 11.8127 53.734 11.4998 53.9068 11.1342C54.0799 10.7687 54.1664 10.3574 54.1664 9.9004C54.1664 9.47857 54.0965 9.09191 53.9566 8.74038C53.8238 8.38884 53.6309 8.09006 53.378 7.84398C53.1318 7.59088 52.8357 7.39404 52.4899 7.25342C52.1505 7.11284 51.7781 7.04251 51.3722 7.04251H49.4163V12.8743Z" fill="white"/>
<path d="M66.0952 6.16724H71.4239C72.1293 6.16724 72.7747 6.2516 73.36 6.42033C73.952 6.58204 74.4575 6.81405 74.8768 7.11635C75.3025 7.41864 75.632 7.78074 75.8648 8.20256C76.0976 8.62439 76.2139 9.0884 76.2139 9.59459C76.2139 9.98125 76.1775 10.3257 76.1043 10.628C76.0312 10.9304 75.9012 11.2116 75.7151 11.4717C75.5289 11.7248 75.2792 11.9673 74.9666 12.1994C74.6606 12.4243 74.2714 12.6563 73.7991 12.8954V12.9375C74.2714 13.0149 74.697 13.1485 75.0764 13.3383C75.4555 13.5281 75.7783 13.7707 76.0443 14.066C76.317 14.3542 76.5268 14.6951 76.6731 15.0889C76.8193 15.4755 76.8925 15.9009 76.8925 16.3649C76.8925 16.8922 76.7829 17.3878 76.5632 17.8518C76.3505 18.3088 76.0411 18.7095 75.6352 19.054C75.2361 19.3915 74.7504 19.6587 74.1781 19.8555C73.6129 20.0523 72.9774 20.1508 72.2724 20.1508H66.0952V6.16724ZM68.3206 12.463H71.1547C71.6005 12.463 71.9961 12.3962 72.342 12.2626C72.6881 12.1291 72.9806 11.9463 73.2201 11.7143C73.4596 11.4752 73.6394 11.194 73.7592 10.8706C73.8856 10.5402 73.9489 10.1851 73.9489 9.8055C73.9489 9.39772 73.8757 9.02864 73.7292 8.69819C73.5829 8.36073 73.3533 8.07247 73.0407 7.83345C72.7348 7.59443 72.342 7.41162 71.863 7.28508C71.3907 7.15853 70.822 7.09525 70.1568 7.09525H68.3206V12.463ZM68.3206 19.1279H70.7255C71.3709 19.1279 71.9297 19.0646 72.402 18.938C72.881 18.8044 73.2735 18.6217 73.5794 18.3896C73.8923 18.1506 74.1216 17.8659 74.2682 17.5355C74.4211 17.205 74.4975 16.8429 74.4975 16.4492C74.4975 16.0063 74.431 15.5951 74.2979 15.2154C74.165 14.8358 73.9453 14.5088 73.6394 14.2347C73.3399 13.9534 72.9442 13.732 72.4518 13.5703C71.9661 13.4086 71.3674 13.3277 70.6556 13.3277H68.3206V19.1279Z" fill="white"/>
<path d="M85.7383 6.16724H87.9634V20.1508H85.7383V6.16724Z" fill="white"/>
<path d="M106.898 6.16724V7.07416H99.9224V12.0728H104.593V12.9797H99.9224V19.2438H106.898V20.1508H97.6973V6.16724H106.898Z" fill="white"/>
<path d="M115.015 20.1508H113.847L119.426 13.2539L114.336 6.16724H116.981L120.823 11.535L125.154 6.16724H126.331L121.362 12.3048L127 20.1508H124.335L119.965 14.0238L115.015 20.1508Z" fill="white"/>
<path d="M13.0256 0L0 26L12.0487 21.775L13.0256 0Z" fill="url(#paint0_linear)"/>
<path d="M16.2822 22.75L12.0488 21.775L13.0258 0L16.2822 22.75Z" fill="url(#paint1_linear)"/>
<path d="M12.0487 21.7751L0 26.0001L16.282 22.7501L12.0487 21.7751Z" fill="url(#paint2_linear)"/>
<defs>
<linearGradient id="paint0_linear" x1="13.0256" y1="13" x2="0" y2="13" gradientUnits="userSpaceOnUse">
<stop stop-color="#1AD9B6"/>
<stop offset="1" stop-color="#30F3D0"/>
</linearGradient>
<linearGradient id="paint1_linear" x1="12.0488" y1="11.375" x2="16.2822" y2="11.375" gradientUnits="userSpaceOnUse">
<stop stop-color="#15FDD3"/>
<stop offset="1" stop-color="#1BD0AF"/>
</linearGradient>
<linearGradient id="paint2_linear" x1="8.14102" y1="21.7751" x2="8.14102" y2="26.0001" gradientUnits="userSpaceOnUse">
<stop stop-color="#11C4A3"/>
<stop offset="1" stop-color="#11A388"/>
</linearGradient>
</defs>
</svg>
