<svg width="16" height="21" viewBox="0 0 16 21" fill="none" xmlns="http://www.w3.org/2000/svg">
<circle cx="8.00024" cy="9" r="8" fill="#FF0000"/>
<path d="M8.74424 14H7.13424V7.7H8.74424V14ZM6.96624 5.432C6.96624 5.152 7.05958 4.928 7.24624 4.76C7.44224 4.58267 7.68491 4.494 7.97424 4.494C8.22624 4.494 8.44091 4.58267 8.61824 4.76C8.80491 4.93733 8.89824 5.16133 8.89824 5.432C8.89824 5.73067 8.80491 5.97333 8.61824 6.16C8.44091 6.34667 8.22624 6.44 7.97424 6.44C7.68491 6.44 7.44224 6.34667 7.24624 6.16C7.05958 5.97333 6.96624 5.73067 6.96624 5.432Z" fill="white"/>
</svg>
