<svg width="14" height="20" viewBox="0 0 14 20" fill="none" xmlns="http://www.w3.org/2000/svg">
<path d="M13.2083 10.4924C12.7663 9.89162 12.0992 9.47893 11.2071 9.25463C12.3431 8.64559 12.8423 7.6119 12.7053 6.1534C12.6594 5.62452 12.5204 5.16615 12.2877 4.77763C12.0549 4.38902 11.7408 4.0766 11.3441 3.84026C10.9477 3.60363 10.5166 3.42349 10.0518 3.2993C9.58684 3.17511 9.05304 3.08493 8.45075 3.0289V0H6.68981V2.94474C6.38487 2.94474 5.91985 2.95274 5.29476 2.96878V0H3.53358V3.0289C3.28192 3.03694 2.91222 3.04102 2.42432 3.04102L0 3.0289V5.00012H1.26928C1.8487 5.00012 2.18796 5.27262 2.28705 5.81742V9.26705C2.3634 9.26705 2.42432 9.27117 2.4701 9.27917H2.28705V14.1108C2.22613 14.5193 2.00507 14.7238 1.62384 14.7238H0.35464L8.00643e-05 16.9234H2.28725C2.43213 16.9234 2.64165 16.9254 2.91622 16.929C3.19063 16.9331 3.39639 16.9351 3.53366 16.9351V20H5.29512V16.9711C5.61523 16.9794 6.08026 16.9833 6.69017 16.9833V20H8.45115V16.9351C9.07643 16.9031 9.63102 16.8433 10.1149 16.7549C10.5991 16.6664 11.0623 16.5284 11.5044 16.34C11.9464 16.1518 12.3161 15.9173 12.6134 15.6368C12.9109 15.3566 13.1565 14.9999 13.3513 14.5671C13.5454 14.1343 13.6694 13.6335 13.7226 13.0645C13.8221 11.951 13.6505 11.0935 13.2083 10.4924ZM5.32901 5.13197C5.3824 5.13197 5.53296 5.12995 5.78074 5.12591C6.02863 5.12178 6.23439 5.11782 6.39829 5.11378C6.56223 5.10982 6.78333 5.11984 7.06171 5.14388C7.33997 5.16792 7.57436 5.20004 7.7649 5.24004C7.95544 5.28003 8.16528 5.34617 8.39379 5.43832C8.6227 5.53039 8.80555 5.64262 8.94261 5.77481C9.07996 5.907 9.19619 6.07535 9.29132 6.2797C9.38673 6.484 9.4344 6.71836 9.4344 6.98274C9.4344 7.20713 9.40015 7.41151 9.33162 7.59591C9.26321 7.78017 9.16003 7.93446 9.02296 8.05865C8.88585 8.18288 8.74454 8.29116 8.59967 8.38323C8.45495 8.4753 8.2699 8.54948 8.04508 8.60551C7.82029 8.66163 7.62399 8.7057 7.45636 8.7377C7.28862 8.76978 7.07901 8.79188 6.82739 8.80384C6.57573 8.81579 6.38507 8.82396 6.25554 8.82792C6.12588 8.83187 5.94868 8.83187 5.7237 8.82792C5.49868 8.82396 5.36734 8.82185 5.32913 8.82185V5.13193H5.32901V5.13197ZM10.1379 13.317C10.0653 13.5014 9.97204 13.6618 9.85777 13.7981C9.74329 13.9341 9.59265 14.0544 9.40596 14.1584C9.21931 14.2627 9.03806 14.3467 8.86286 14.4108C8.68743 14.4752 8.47578 14.531 8.22825 14.5792C7.98015 14.6274 7.76302 14.6612 7.57604 14.6814C7.38935 14.7014 7.16645 14.7174 6.90714 14.7295C6.64803 14.7413 6.44588 14.7474 6.30108 14.7474C6.1562 14.7474 5.9732 14.7452 5.7521 14.7413C5.53088 14.7376 5.38997 14.7355 5.32893 14.7355V10.6728C5.38985 10.6728 5.57093 10.6689 5.87214 10.6608C6.17339 10.6527 6.41912 10.6489 6.60974 10.6489C6.80031 10.6489 7.06343 10.6608 7.399 10.685C7.73426 10.7088 8.01636 10.7447 8.24527 10.7928C8.4739 10.841 8.7234 10.915 8.99424 11.0153C9.26481 11.1154 9.48411 11.2375 9.65189 11.3818C9.81964 11.5263 9.96059 11.7103 10.0749 11.9347C10.1895 12.159 10.2467 12.4155 10.2467 12.704C10.2466 12.9286 10.2104 13.1326 10.1379 13.317Z" fill="white"/>
</svg>
