<svg width="27" height="14" viewBox="0 0 27 14" fill="none" xmlns="http://www.w3.org/2000/svg">
<path fill-rule="evenodd" clip-rule="evenodd" d="M3.00325 1.51327V1.51348H3.04314C3.56075 1.51884 4.51958 1.62871 4.5322 2.03563V7.19289H6.2173V1.51443C6.27189 1.51443 6.33226 1.5139 6.39735 1.51333C6.94637 1.50854 7.83104 1.50082 8.41667 1.77968C9.77411 2.42607 9.94574 2.9967 9.94574 4.6818C9.94574 6.3669 8.90035 7.11583 7.21525 7.5059C5.86717 7.81796 2.50322 7.5319 0.989746 7.34987C2.13915 7.65153 4.99342 8.2049 7.21525 8.00519C9.99255 7.75554 10.8663 6.88179 11.1784 6.07045C11.4904 5.2591 11.584 3.33996 10.8663 2.15415C10.1457 0.963599 7.99591 0.952737 6.21732 0.952734V0.951782H6.2173H4.5322H3.00325V1.51327ZM3.00325 12.4668V13.0285H7.87132V12.4668H3.00325ZM6.2173 8.44081H4.5322V11.8425C4.48019 12.0193 4.28255 12.3917 3.90808 12.4666H4.5322V12.4663H6.2173V8.44081ZM6.21732 11.8425C6.26932 12.0193 6.46692 12.3917 6.84133 12.4666H6.21732V11.8425Z" fill="white"/>
<path fill-rule="evenodd" clip-rule="evenodd" d="M12.3021 1.51348V1.51327V0.951782H15.3602V1.51348H15.3601V1.91915L19.4636 10.4695L23.9728 0.951782H26.8749V1.51348H26.7906C25.6371 1.5274 25.3459 1.89114 25.3459 2.07477V11.3584C25.3459 12.2322 26.4485 12.461 26.9998 12.4662L26.9987 12.4664H26.9998V13.0281H22.4438V12.4664H22.4463L22.4438 12.4662C22.9015 12.461 23.8169 12.3164 23.8169 11.7797V3.57736L19.1672 13.0127H18.8863L14.4396 3.26099L14.4397 3.26073H14.4396L14.4396 3.26078L14.4396 3.26099L14.1951 11.8458C14.2757 12.3402 15.2621 12.4664 15.7658 12.4664L15.7657 12.4664H15.7658V13.0281H11.7402V12.4664H13.3525L13.3525 12.4664H11.7402C12.2802 12.4564 13.339 12.1427 13.4204 10.9876L13.4248 10.8906C13.4252 10.8751 13.4253 10.8595 13.4253 10.8437V10.8794L13.8311 2.04376C13.8311 1.63026 12.8634 1.51892 12.3423 1.51348H12.3021ZM15.3289 1.51348V1.5576L15.352 1.51348H15.3289ZM23.8193 12.4664L23.8169 12.4662V12.4664H23.8193Z" fill="white"/>
</svg>
