<svg width="40" height="40" viewBox="0 0 40 40" fill="none" xmlns="http://www.w3.org/2000/svg">
<path d="M14.298 14.7018C14.298 11.5528 16.8508 9 19.9998 9C23.1488 9 25.7015 11.5528 25.7015 14.7018C25.7015 17.8507 23.1488 20.4035 19.9998 20.4035C16.8508 20.4035 14.298 17.8507 14.298 14.7018ZM19.9998 18.1228C21.8892 18.1228 23.4208 16.5911 23.4208 14.7018C23.4208 12.8124 21.8892 11.2807 19.9998 11.2807C18.1104 11.2807 16.5787 12.8124 16.5787 14.7018C16.5787 16.5911 18.1104 18.1228 19.9998 18.1228Z" fill="#7B839D"/>
<path d="M13.549 24.2159C11.8381 25.9267 10.877 28.2471 10.877 30.6667H13.1577C13.1577 28.852 13.8785 27.1117 15.1617 25.8286C16.4448 24.5454 18.1851 23.8246 19.9998 23.8246C21.8144 23.8246 23.5547 24.5454 24.8379 25.8286C26.121 27.1117 26.8419 28.852 26.8419 30.6667H29.1226C29.1226 28.2471 28.1614 25.9267 26.4506 24.2159C24.7397 22.505 22.4193 21.5439 19.9998 21.5439C17.5802 21.5439 15.2598 22.505 13.549 24.2159Z" fill="#7B839D"/>
</svg>
