<svg width="150" height="55" viewBox="0 0 150 55" fill="none" xmlns="http://www.w3.org/2000/svg">
<path d="M55 27.5C55 42.6878 42.6878 55 27.5 55C12.3122 55 0 42.6878 0 27.5C0 12.3122 12.3122 0 27.5 0C42.6878 0 55 12.3122 55 27.5Z" fill="white"/>
<path d="M19.8336 36C18.3474 36 17.0043 35.6676 15.8043 35.0027C14.618 34.3378 13.684 33.4253 13.0022 32.2653C12.3341 31.0911 12 29.7754 12 28.3183C12 26.8612 12.3341 25.5526 13.0022 24.3926C13.684 23.2184 14.618 22.2989 15.8043 21.634C17.0043 20.9691 18.3474 20.6366 19.8336 20.6366C21.3199 20.6366 22.6562 20.9691 23.8425 21.634C25.0288 22.2989 25.9628 23.2184 26.6446 24.3926C27.3264 25.5526 27.6673 26.8612 27.6673 28.3183C27.6673 29.7754 27.3264 31.0911 26.6446 32.2653C25.9628 33.4253 25.0288 34.3378 23.8425 35.0027C22.6562 35.6676 21.3199 36 19.8336 36ZM19.8336 33.0716C20.6791 33.0716 21.4426 32.8736 22.1244 32.4775C22.8062 32.0672 23.338 31.5013 23.7198 30.7798C24.1152 30.0584 24.3129 29.2378 24.3129 28.3183C24.3129 27.3988 24.1152 26.5782 23.7198 25.8568C23.338 25.1353 22.8062 24.5765 22.1244 24.1804C21.4426 23.7701 20.6791 23.565 19.8336 23.565C18.9882 23.565 18.2246 23.7701 17.5429 24.1804C16.8611 24.5765 16.3225 25.1353 15.927 25.8568C15.5453 26.5782 15.3544 27.3988 15.3544 28.3183C15.3544 29.2378 15.5453 30.0584 15.927 30.7798C16.3225 31.5013 16.8611 32.0672 17.5429 32.4775C18.2246 32.8736 18.9882 33.0716 19.8336 33.0716Z" fill="#12AF65"/>
<path d="M34.6572 31.2679L33.1232 32.8382V35.7454H29.9325V20H33.1232V28.9125L37.7866 24.3289H41.5909L37.0094 29.1671L42 35.7454H38.1343L34.6572 31.2679Z" fill="#12AF65"/>
<path d="M84.6844 20V35.8293H81.4592V34.5067C80.6222 35.5022 79.4101 36 77.8227 36C76.726 36 75.7303 35.7582 74.8356 35.2747C73.9553 34.7911 73.2627 34.1013 72.7576 33.2053C72.2525 32.3093 72 31.2711 72 30.0907C72 28.9102 72.2525 27.872 72.7576 26.976C73.2627 26.08 73.9553 25.3902 74.8356 24.9067C75.7303 24.4231 76.726 24.1813 77.8227 24.1813C79.309 24.1813 80.4707 24.6436 81.3077 25.568V20H84.6844ZM78.4071 33.2693C79.2585 33.2693 79.9656 32.9849 80.5284 32.416C81.0912 31.8329 81.3726 31.0578 81.3726 30.0907C81.3726 29.1236 81.0912 28.3556 80.5284 27.7867C79.9656 27.2036 79.2585 26.912 78.4071 26.912C77.5413 26.912 76.827 27.2036 76.2642 27.7867C75.7014 28.3556 75.42 29.1236 75.42 30.0907C75.42 31.0578 75.7014 31.8329 76.2642 32.416C76.827 32.9849 77.5413 33.2693 78.4071 33.2693Z" fill="white"/>
<path d="M91.0349 25.8667C91.4389 25.312 91.9801 24.8924 92.6583 24.608C93.351 24.3236 94.1446 24.1813 95.0393 24.1813V27.2533C94.6641 27.2249 94.4116 27.2107 94.2817 27.2107C93.3149 27.2107 92.5573 27.4809 92.0089 28.0213C91.4606 28.5476 91.1864 29.344 91.1864 30.4107V35.8293H87.8097V24.352H91.0349V25.8667Z" fill="white"/>
<path d="M108.349 30.1333C108.349 30.176 108.327 30.4747 108.284 31.0293H99.474C99.6327 31.7404 100.008 32.3022 100.6 32.7147C101.191 33.1271 101.927 33.3333 102.807 33.3333C103.414 33.3333 103.947 33.248 104.409 33.0773C104.885 32.8924 105.326 32.608 105.73 32.224L107.526 34.144C106.429 35.3813 104.828 36 102.721 36C101.408 36 100.246 35.7511 99.2359 35.2533C98.2258 34.7413 97.4465 34.0373 96.8982 33.1413C96.3498 32.2453 96.0756 31.2284 96.0756 30.0907C96.0756 28.9671 96.3426 27.9573 96.8765 27.0613C97.4249 26.1511 98.168 25.4471 99.106 24.9493C100.058 24.4373 101.119 24.1813 102.288 24.1813C103.428 24.1813 104.46 24.4231 105.383 24.9067C106.307 25.3902 107.028 26.0871 107.548 26.9973C108.082 27.8933 108.349 28.9387 108.349 30.1333ZM102.31 26.6987C101.545 26.6987 100.903 26.912 100.383 27.3387C99.8636 27.7653 99.5461 28.3484 99.4307 29.088H105.167C105.051 28.3627 104.734 27.7867 104.214 27.36C103.695 26.9191 103.06 26.6987 102.31 26.6987Z" fill="white"/>
<path d="M114.977 24.1813C116.781 24.1813 118.166 24.608 119.133 25.4613C120.1 26.3004 120.583 27.5733 120.583 29.28V35.8293H117.423V34.4C116.788 35.4667 115.605 36 113.873 36C112.978 36 112.199 35.8507 111.535 35.552C110.886 35.2533 110.388 34.8409 110.042 34.3147C109.695 33.7884 109.522 33.1911 109.522 32.5227C109.522 31.456 109.926 30.6169 110.734 30.0053C111.557 29.3938 112.82 29.088 114.522 29.088H117.206C117.206 28.3627 116.983 27.808 116.535 27.424C116.088 27.0258 115.417 26.8267 114.522 26.8267C113.902 26.8267 113.289 26.9262 112.682 27.1253C112.091 27.3102 111.586 27.5662 111.167 27.8933L109.955 25.568C110.59 25.1271 111.348 24.7858 112.228 24.544C113.123 24.3022 114.039 24.1813 114.977 24.1813ZM114.717 33.76C115.294 33.76 115.807 33.632 116.254 33.376C116.701 33.1058 117.019 32.7147 117.206 32.2027V31.0293H114.89C113.505 31.0293 112.812 31.4773 112.812 32.3733C112.812 32.8 112.978 33.1413 113.31 33.3973C113.657 33.6391 114.125 33.76 114.717 33.76Z" fill="white"/>
<path d="M138.553 24.1813C140.011 24.1813 141.165 24.608 142.016 25.4613C142.882 26.3004 143.315 27.5662 143.315 29.2587V35.8293H139.938V29.7707C139.938 28.8604 139.744 28.1849 139.354 27.744C138.979 27.2889 138.438 27.0613 137.731 27.0613C136.937 27.0613 136.309 27.3173 135.847 27.8293C135.386 28.3271 135.155 29.0738 135.155 30.0693V35.8293H131.778V29.7707C131.778 27.9644 131.042 27.0613 129.57 27.0613C128.791 27.0613 128.17 27.3173 127.709 27.8293C127.247 28.3271 127.016 29.0738 127.016 30.0693V35.8293H123.639V24.352H126.864V25.6747C127.297 25.1911 127.824 24.8213 128.445 24.5653C129.08 24.3093 129.772 24.1813 130.523 24.1813C131.345 24.1813 132.088 24.3449 132.752 24.672C133.416 24.9849 133.95 25.4471 134.354 26.0587C134.83 25.4613 135.429 24.9991 136.15 24.672C136.886 24.3449 137.687 24.1813 138.553 24.1813Z" fill="white"/>
<path d="M145.909 20.896H149.935L149.264 30.6453H146.58L145.909 20.896ZM147.922 36C147.33 36 146.833 35.8151 146.428 35.4453C146.039 35.0613 145.844 34.5991 145.844 34.0587C145.844 33.5182 146.039 33.0702 146.428 32.7147C146.818 32.3449 147.316 32.16 147.922 32.16C148.528 32.16 149.026 32.3449 149.416 32.7147C149.805 33.0702 150 33.5182 150 34.0587C150 34.5991 149.798 35.0613 149.394 35.4453C149.004 35.8151 148.514 36 147.922 36Z" fill="white"/>
</svg>
