<svg width="8" height="10" viewBox="0 0 8 10" fill="none" xmlns="http://www.w3.org/2000/svg">
<path fill-rule="evenodd" clip-rule="evenodd" d="M4 7.5L7.125 9.375V1.875C7.125 1.54348 6.9933 1.22554 6.75888 0.991117C6.52446 0.756696 6.20652 0.625 5.875 0.625H2.125C1.79348 0.625 1.47554 0.756696 1.24112 0.991117C1.0067 1.22554 0.875 1.54348 0.875 1.875V9.375L4 7.5ZM1.5 8.27125L4 6.77125L6.5 8.27125V1.875C6.5 1.70924 6.43415 1.55027 6.31694 1.43306C6.19973 1.31585 6.04076 1.25 5.875 1.25H2.125C1.95924 1.25 1.80027 1.31585 1.68306 1.43306C1.56585 1.55027 1.5 1.70924 1.5 1.875V8.27125Z" fill="#555555"/>
</svg>
