<svg width="34" height="34" viewBox="0 0 34 34" fill="none" xmlns="http://www.w3.org/2000/svg">
<path d="M18.3646 16.9037L15.7814 20.1975L14.4168 18.4576C14.392 18.4259 14.3602 18.4002 14.324 18.3825C14.2877 18.3649 14.2479 18.3557 14.2076 18.3557C14.1673 18.3557 14.1275 18.3649 14.0913 18.3825C14.055 18.4002 14.0233 18.4259 13.9984 18.4576L10.6848 22.6811C10.6541 22.7202 10.6351 22.7672 10.6299 22.8166C10.6247 22.8661 10.6335 22.916 10.6553 22.9607C10.6771 23.0054 10.7111 23.043 10.7533 23.0693C10.7955 23.0956 10.8442 23.1095 10.8939 23.1094H23.1094C23.3318 23.1094 23.4547 22.8537 23.3186 22.6811L18.7863 16.9037C18.7611 16.8719 18.7291 16.8462 18.6926 16.8286C18.6561 16.8109 18.616 16.8017 18.5755 16.8017C18.5349 16.8017 18.4949 16.8109 18.4584 16.8286C18.4219 16.8462 18.3898 16.8719 18.3646 16.9037ZM11.9531 14.6758C11.9531 15.028 12.0931 15.3658 12.3421 15.6149C12.5912 15.864 12.929 16.0039 13.2812 16.0039C13.6335 16.0039 13.9713 15.864 14.2204 15.6149C14.4694 15.3658 14.6094 15.028 14.6094 14.6758C14.6094 14.3235 14.4694 13.9857 14.2204 13.7367C13.9713 13.4876 13.6335 13.3477 13.2812 13.3477C12.929 13.3477 12.5912 13.4876 12.3421 13.7367C12.0931 13.9857 11.9531 14.3235 11.9531 14.6758ZM28.3754 9.58242L21.2301 2.43711C21.0309 2.23789 20.7619 2.125 20.4797 2.125H6.375C5.7873 2.125 5.3125 2.5998 5.3125 3.1875V30.8125C5.3125 31.4002 5.7873 31.875 6.375 31.875H27.625C28.2127 31.875 28.6875 31.4002 28.6875 30.8125V10.3361C28.6875 10.0539 28.5746 9.78164 28.3754 9.58242ZM26.2371 10.8242H19.9883V4.57539L26.2371 10.8242ZM26.2969 29.4844H7.70312V4.51562H17.7305V11.6875C17.7305 12.0574 17.8774 12.4121 18.1389 12.6736C18.4004 12.9351 18.7551 13.082 19.125 13.082H26.2969V29.4844Z" fill="#939393"/>
</svg>
