<svg width="4" height="8" viewBox="0 0 4 8" fill="none" xmlns="http://www.w3.org/2000/svg">
<path d="M3.43237 7.99897C3.56476 7.99923 3.69307 7.95283 3.79502 7.86783C3.85239 7.81997 3.89982 7.76118 3.93458 7.69484C3.96935 7.62851 3.99076 7.55592 3.99761 7.48124C4.00445 7.40657 3.99658 7.33126 3.97446 7.25965C3.95234 7.18803 3.91639 7.12151 3.86868 7.0639L1.33016 4.00782L3.77802 0.946038C3.82508 0.887717 3.86023 0.820611 3.88144 0.748577C3.90265 0.676542 3.90951 0.601001 3.90161 0.526293C3.89371 0.451585 3.87122 0.379185 3.83542 0.313253C3.79962 0.247321 3.75123 0.189158 3.69302 0.142106C3.63439 0.0902005 3.56574 0.0510487 3.49136 0.0271081C3.41698 0.00316741 3.33849 -0.00504506 3.26081 0.00298564C3.18313 0.0110163 3.10793 0.035117 3.03995 0.0737752C2.97196 0.112433 2.91265 0.164814 2.86574 0.227631L0.128902 3.64862C0.0455606 3.75064 0 3.87861 0 4.01067C0 4.14273 0.0455606 4.2707 0.128902 4.37272L2.96206 7.79371C3.01891 7.86271 3.09112 7.91725 3.17283 7.95292C3.25454 7.98858 3.34346 8.00436 3.43237 7.99897Z" fill="#555555"/>
</svg>
