<svg width="12" height="16" viewBox="0 0 12 16" fill="none" xmlns="http://www.w3.org/2000/svg">
<path d="M5.99998 2.39999C5.32188 2.39999 4.659 2.58767 4.09517 2.93929C3.53135 3.29091 3.0919 3.79068 2.8324 4.37541C2.5729 4.96013 2.505 5.60354 2.63729 6.22428C2.76958 6.84502 3.09612 7.41521 3.57562 7.86274C4.05511 8.31026 4.66602 8.61503 5.3311 8.73851C5.99618 8.86198 6.68555 8.79861 7.31204 8.55641C7.93853 8.31421 8.474 7.90406 8.85073 7.37782C9.22747 6.85158 9.42855 6.23289 9.42855 5.59999C9.42855 4.7513 9.06733 3.93737 8.42435 3.33725C7.78137 2.73714 6.9093 2.39999 5.99998 2.39999ZM5.99998 7.68306C5.55856 7.68306 5.12705 7.56089 4.76003 7.332C4.393 7.10311 4.10694 6.77778 3.93801 6.39715C3.76909 6.01652 3.72489 5.59768 3.81101 5.19361C3.89712 4.78953 4.10969 4.41836 4.42182 4.12704C4.73395 3.83572 5.13163 3.63732 5.56457 3.55695C5.99751 3.47657 6.44626 3.51782 6.85408 3.67549C7.2619 3.83315 7.61047 4.10014 7.85571 4.4427C8.10095 4.78526 8.23184 5.188 8.23184 5.59999C8.23026 6.15149 7.99442 6.67989 7.57604 7.06934C7.15765 7.45878 6.59087 7.67748 5.99998 7.67748V7.68306Z" fill="#1E1E1E"/>
<path d="M5.99745 4.86298e-10C4.41164 0.00127802 2.89079 0.608013 1.76706 1.68769C0.643341 2.76736 0.00806975 4.23223 0 5.76236C0 8.05649 1.3339 9.97728 2.31141 11.3773L2.48961 11.6328C3.46217 12.9929 4.50551 14.3046 5.61561 15.5628L6.00255 16L6.38948 15.5628C7.49944 14.3044 8.54277 12.9928 9.51548 11.6328L9.69368 11.3724C10.6661 9.97237 12 8.05649 12 5.76236C11.9919 4.23138 11.356 2.76577 10.2311 1.68595C9.10631 0.606142 7.58415 -1.98249e-05 5.99745 4.86298e-10ZM8.84344 10.8075L8.66016 11.0679C7.78447 12.3353 6.62367 13.755 5.99745 14.4575C5.39669 13.755 4.21044 12.3353 3.33475 11.0679L3.15655 10.8075C2.25541 9.51059 1.01824 7.73718 1.01824 5.74271C1.01824 5.11178 1.14703 4.48703 1.39726 3.90414C1.64749 3.32124 2.01426 2.7916 2.47662 2.34547C2.93898 1.89934 3.48789 1.54545 4.09199 1.304C4.6961 1.06256 5.34358 0.938287 5.99745 0.938287C6.65133 0.938287 7.29881 1.06256 7.90292 1.304C8.50702 1.54545 9.05593 1.89934 9.51829 2.34547C9.98065 2.7916 10.3474 3.32124 10.5976 3.90414C10.8479 4.48703 10.9767 5.11178 10.9767 5.74271C10.9767 7.75683 9.74459 9.53024 8.84344 10.8075Z" fill="#1E1E1E"/>
</svg>
