<svg width="18" height="10" viewBox="0 0 18 10" fill="none" xmlns="http://www.w3.org/2000/svg">
<path d="M16.9825 0.712438C17.0992 0.324938 16.9825 0.0407715 16.4308 0.0407715H14.6033C14.1383 0.0407715 13.9258 0.286605 13.8092 0.556605C13.8092 0.556605 12.88 2.82244 11.5633 4.2916C11.1383 4.7191 10.9442 4.8541 10.7125 4.8541C10.5967 4.8541 10.4283 4.71911 10.4283 4.3316V0.712438C10.4283 0.247438 10.2942 0.0407715 9.90666 0.0407715H7.03499C6.74499 0.0407715 6.56999 0.255772 6.56999 0.460772C6.56999 0.900772 7.22832 1.00244 7.29582 2.24244V4.93244C7.29582 5.52161 7.18999 5.62911 6.95666 5.62911C6.33749 5.62911 4.83082 3.35494 3.93666 0.751605C3.76249 0.245772 3.58666 0.0416052 3.11999 0.0416052H1.29332C0.770823 0.0416052 0.666656 0.287438 0.666656 0.557438C0.666656 1.04244 1.28582 3.44244 3.55082 6.6166C5.06082 8.78411 7.18666 9.95911 9.12332 9.95911C10.2842 9.95911 10.4275 9.69827 10.4275 9.24827V7.60994C10.4275 7.08827 10.5383 6.98327 10.9058 6.98327C11.1758 6.98327 11.6408 7.11994 12.725 8.16411C13.9633 9.40244 14.1683 9.95827 14.8642 9.95827H16.6908C17.2125 9.95827 17.4733 9.69744 17.3233 9.18244C17.1592 8.66994 16.5675 7.92411 15.7825 7.0416C15.3558 6.53827 14.7183 5.99661 14.5242 5.72577C14.2533 5.37661 14.3317 5.22244 14.5242 4.91244C14.525 4.91327 16.7508 1.77827 16.9825 0.712438Z" fill="white"/>
</svg>
