<svg width="20" height="14" viewBox="0 0 20 14" fill="none" xmlns="http://www.w3.org/2000/svg">
<path d="M19.5801 2.16942C19.464 1.75426 19.2426 1.37611 18.9374 1.07161C18.6323 0.767097 18.2536 0.546543 17.8382 0.431299C16.2788 0.0144242 10.0101 0.0144243 10.0101 0.0144243C10.0101 0.0144243 3.75322 0.00442421 2.1776 0.431299C1.76284 0.547049 1.38497 0.767835 1.08049 1.07232C0.776006 1.3768 0.55522 1.75467 0.43947 2.16942C0.143345 3.76581 -0.00250088 5.38644 0.00384534 7.01005C0.000955906 8.62585 0.146779 10.2385 0.43947 11.8276C0.555595 12.2425 0.776446 12.6207 1.08082 12.9257C1.3852 13.2307 1.76287 13.4524 2.1776 13.5694C3.73697 13.9863 10.0101 13.9863 10.0101 13.9863C10.0101 13.9863 16.2632 13.9863 17.8382 13.5694C18.2536 13.4529 18.632 13.2315 18.9371 12.9264C19.2421 12.6214 19.4636 12.2429 19.5801 11.8276C19.867 10.2394 20.007 8.62443 19.997 7.01005C20.007 5.38505 19.8701 3.76755 19.5801 2.16942ZM8.0076 10.0019V4.00505L13.2257 7.01005L8.0076 10.0019Z" fill="white"/>
</svg>
