<svg width="374" height="85" viewBox="0 0 374 85" fill="none" xmlns="http://www.w3.org/2000/svg">
<g clip-path="url(#clip0)">
<path d="M156.174 82.3619C156.031 80.5835 155.803 78.9043 155.784 77.2251C155.654 68.0489 155.309 58.8662 155.582 49.6967C155.751 43.8723 158.034 38.7025 162.919 35.0929C170.165 29.7445 178.627 33.136 179.908 42.0345C180.324 44.897 180.233 47.8456 180.207 50.7478C180.129 60.0892 179.98 69.4307 179.83 78.7655C179.811 79.9422 179.622 81.1124 179.511 82.3024C184.487 82.3024 189.261 82.3024 194.1 82.3024C193.892 79.7637 193.548 77.3639 193.528 74.9575C193.437 64.0757 193.483 53.1873 193.385 42.3055C193.339 37.4001 192.552 32.6468 189.339 28.7066C185.508 23.9995 180.35 22.3269 174.536 22.0889C168.22 21.8311 162.496 23.2987 157.787 27.7678C156.272 29.2024 154.984 30.8948 153.514 32.5542C153.306 32.1377 153.124 31.8138 152.98 31.47C151.348 27.4637 148.349 24.9449 144.466 23.3847C141.162 22.0559 137.695 21.8575 134.235 22.1881C127.776 22.8095 122.202 25.2358 118.423 30.9279C118.306 31.1064 118.098 31.2254 117.675 31.589C117.675 28.6471 117.675 26.0357 117.675 23.4905C113.109 23.4905 108.719 23.4905 104.686 23.4905C104.777 33.4269 104.94 43.2046 104.94 52.9758C104.94 62.7337 104.771 72.4982 104.68 82.342C109.031 82.342 113.662 82.342 118.475 82.342C118.332 80.5042 118.111 78.7721 118.085 77.0334C117.955 68.6241 117.942 60.2215 117.753 51.8122C117.675 48.4736 118.423 45.3598 119.783 42.4179C121.903 37.8232 124.973 34.207 130.222 33.1558C135.835 32.0319 140.323 34.5904 141.722 39.866C142.099 41.2874 142.398 42.7881 142.398 44.2492C142.379 55.1838 142.287 66.1185 142.177 77.0532C142.157 78.7853 141.904 80.5174 141.754 82.342C146.606 82.3619 151.289 82.3619 156.174 82.3619Z" fill="white"/>
<path d="M316.667 0.537129C317.142 27.8408 317.194 55.0585 316.634 82.3423C321.129 82.3423 325.799 82.3423 330.183 82.3423C330.079 76.1477 329.975 70.0589 329.897 63.9768C329.89 63.4082 329.916 62.6413 330.254 62.2976C332.817 59.7192 335.458 57.2203 338.176 54.5957C340.752 58.4235 343.302 62.0331 345.669 65.7684C349.032 71.0638 352.245 76.4584 355.588 81.7671C355.849 82.177 356.636 82.4282 357.182 82.4282C362.327 82.4745 367.465 82.4613 372.61 82.4547C372.903 82.4547 373.195 82.3951 373.319 82.3819C364.727 70.5019 356.161 58.6483 347.517 46.6955C355.582 38.9539 363.576 31.2851 371.628 23.5568C371.374 23.4642 371.231 23.3717 371.095 23.3717C365.358 23.3585 359.615 23.3386 353.878 23.3915C353.403 23.3981 352.824 23.8279 352.473 24.2245C351.211 25.6525 350.125 27.2524 348.798 28.6076C342.892 34.6568 336.934 40.653 330.983 46.6558C330.71 46.9335 330.371 47.1516 330.202 47.2905C330.202 31.7016 330.202 16.1326 330.202 0.530518C325.727 0.537129 321.09 0.537129 316.667 0.537129Z" fill="white"/>
<path d="M258.349 65.5699C259.676 72.3198 262.889 77.5689 268.847 80.3985C279.469 85.4427 290.396 85.37 301.043 80.5836C308.757 77.1194 312.081 69.7481 310.462 61.438C309.271 55.3161 305.096 51.9247 299.691 49.981C296.094 48.6853 292.308 47.9184 288.614 46.8804C284.822 45.8095 280.913 45.0161 277.29 43.5154C272.932 41.7106 272.613 36.6069 276.386 33.7178C278.461 32.1246 280.9 31.5626 283.397 31.4767C290.129 31.2387 294.077 33.2286 295.521 39.2976C295.541 39.3835 295.658 39.443 295.775 39.562C300.068 39.0001 304.393 38.4315 308.757 37.8564C308.757 37.539 308.803 37.3143 308.751 37.1159C307.014 30.4255 303.086 25.7581 296.542 23.4972C290.845 21.5271 284.984 21.2957 279.079 21.9568C275.345 22.3733 271.761 23.4244 268.568 25.5334C263.228 29.0504 260.489 33.9889 260.964 40.5272C261.419 46.7813 264.938 50.814 270.402 53.2072C272.769 54.2452 275.241 55.1112 277.739 55.7723C282.337 56.9887 287.02 57.8812 291.599 59.1638C293.245 59.6266 295.014 60.5257 296.165 61.7619C299.365 65.2063 297.726 70.3761 292.92 72.3132C288.659 74.0254 284.243 74.0651 279.846 72.9081C276.919 72.1347 274.76 70.277 273.478 67.4739C272.958 66.3368 272.555 65.1534 272.054 63.8708C267.579 64.4262 263.085 64.9815 258.349 65.5699Z" fill="white"/>
<path d="M14.5568 82.362C9.71109 82.362 5.01501 82.362 0.325439 82.362C1.41165 62.7206 0.58561 43.1321 0.852285 23.4642C5.18412 23.4642 9.38588 23.4642 13.8218 23.4642C13.8218 25.4938 13.8218 27.4903 13.8218 29.943C19.422 24.8657 25.5034 22.1486 32.6256 22.1882C39.6047 22.2279 46.0894 23.9534 51.9758 28.0985C52.4051 27.7746 52.8279 27.4639 53.2441 27.1333C63.8526 18.7307 81.6678 19.762 90.8713 29.3414C95.4828 34.141 97.6162 40.1306 98.5398 46.6095C98.9821 49.6968 99.0927 52.8238 99.3724 56.2087C84.5817 56.2087 70.0121 56.2087 55.4426 56.2087C55.293 65.127 60.0216 70.753 66.1941 72.6636C70.3829 73.9594 74.5261 73.8272 78.5652 72.1083C82.6239 70.3828 85.3167 67.302 86.7411 63.0247C90.7737 64.3403 94.6568 65.6162 98.6569 66.9186C96.1398 73.1925 92.2502 78.0979 86.3443 80.934C76.2367 85.7932 65.96 85.813 56.0735 80.425C47.8001 75.9162 43.9821 68.1681 42.7202 58.9986C41.8682 52.8371 42.2584 46.7351 44.0341 40.7389C44.1577 40.3157 43.9756 39.5224 43.6503 39.2646C32.489 30.4124 17.8024 35.4897 14.3096 48.4539C14.0169 49.5514 13.8868 50.7281 13.8868 51.8652C13.9194 59.7258 13.9714 67.5797 14.0885 75.4403C14.121 77.6814 14.3877 79.9225 14.5568 82.362ZM85.8825 46.0145C85.6354 39.615 80.9523 32.0585 70.8317 32.0718C62.9745 32.085 55.6052 38.8679 55.7938 46.0145C65.7844 46.0145 75.7749 46.0145 85.8825 46.0145Z" fill="white"/>
<path d="M156.174 82.362C151.296 82.362 146.606 82.362 141.748 82.362C141.897 80.5373 142.151 78.8052 142.17 77.0731C142.281 66.1385 142.372 55.2038 142.391 44.2691C142.391 42.8081 142.092 41.3074 141.715 39.886C140.317 34.6104 135.829 32.0585 130.215 33.1758C124.967 34.2269 121.897 37.8432 119.776 42.4378C118.417 45.3798 117.675 48.4936 117.747 51.8321C117.935 60.2348 117.948 68.6441 118.079 77.0533C118.105 78.792 118.332 80.5241 118.469 82.362C113.656 82.362 109.025 82.362 104.673 82.362C104.771 72.5181 104.933 62.7602 104.933 52.9957C104.933 43.218 104.771 33.4468 104.68 23.5104C108.706 23.5104 113.103 23.5104 117.669 23.5104C117.669 26.0491 117.669 28.6604 117.669 31.6089C118.092 31.2387 118.3 31.1263 118.417 30.9478C122.196 25.2491 127.763 22.8229 134.229 22.208C137.689 21.8775 141.156 22.0824 144.46 23.4046C148.343 24.9648 151.341 27.4837 152.974 31.4899C153.11 31.8337 153.299 32.1577 153.507 32.5742C154.977 30.9148 156.265 29.229 157.781 27.7878C162.49 23.3253 168.213 21.8576 174.529 22.1089C180.344 22.3469 185.502 24.0195 189.333 28.7265C192.546 32.6733 193.333 37.4267 193.378 42.3255C193.476 53.2073 193.43 64.0956 193.521 74.9774C193.541 77.3839 193.886 79.7837 194.094 82.3223C189.261 82.3223 184.481 82.3223 179.505 82.3223C179.615 81.1323 179.804 79.9622 179.823 78.7854C179.973 69.444 180.116 60.1092 180.201 50.7678C180.227 47.8589 180.318 44.9104 179.902 42.0544C178.614 33.1559 170.158 29.7645 162.912 35.1128C158.028 38.7158 155.745 43.8923 155.576 49.7166C155.309 58.8795 155.654 68.0689 155.777 77.245C155.803 78.911 156.031 80.5836 156.174 82.362Z" fill="white"/>
<path d="M316.667 0.537109C321.09 0.537109 325.727 0.537109 330.209 0.537109C330.209 16.1392 330.209 31.7082 330.209 47.2971C330.384 47.1582 330.716 46.9401 330.989 46.6624C336.934 40.653 342.899 34.6633 348.804 28.6142C350.131 27.2524 351.218 25.6591 352.479 24.2311C352.831 23.8344 353.409 23.3981 353.884 23.3981C359.621 23.3452 365.358 23.3651 371.101 23.3783C371.244 23.3783 371.387 23.4708 371.634 23.5634C363.582 31.2917 355.588 38.9605 347.523 46.7021C356.167 58.6549 364.733 70.5085 373.326 82.3885C373.202 82.4017 372.909 82.4612 372.617 82.4612C367.472 82.4678 362.333 82.4877 357.188 82.4348C356.642 82.4282 355.855 82.177 355.595 81.7737C352.252 76.465 349.039 71.0704 345.676 65.7749C343.308 62.0463 340.759 58.4301 338.183 54.6023C335.458 57.2269 332.817 59.7258 330.261 62.3041C329.923 62.6479 329.897 63.4148 329.903 63.9834C329.975 70.0721 330.085 76.1543 330.189 82.3489C325.805 82.3489 321.135 82.3489 316.641 82.3489C317.194 55.0584 317.142 27.8407 316.667 0.537109Z" fill="white"/>
<path d="M240.118 45.241C240.118 42.8808 240.359 40.5604 240.066 38.306C239.572 34.5245 237.146 32.3164 232.95 31.4635C229.217 30.7033 225.523 30.9545 221.893 32.118C218.257 33.2816 215.662 35.5492 214.491 39.3307C214.368 39.7406 214.173 40.1306 213.971 40.6397C209.691 39.8596 205.45 39.0795 201.099 38.2861C202.79 32.9378 205.717 28.7266 210.407 25.8111C214.472 23.2791 218.908 22.1221 223.617 21.7519C228.658 21.3553 233.692 21.3817 238.629 22.5122C247.123 24.4558 253.205 29.8306 253.205 40.5009C253.205 52.0437 253.231 63.5866 253.322 75.1295C253.341 77.4765 253.699 79.8234 253.914 82.3091C249.4 82.3091 244.951 82.3091 240.3 82.3091C240.3 80.2663 240.3 78.2235 240.3 75.9096C239.838 76.2534 239.617 76.3856 239.435 76.5641C233.243 82.6132 225.568 83.7702 217.464 83.3272C213.405 83.1025 209.548 82.0315 206.257 79.473C198.328 73.3115 198.107 60.6249 205.763 53.3263C209.854 49.4258 214.96 47.7267 220.293 46.9929C226.55 46.1335 232.885 45.8492 239.182 45.3203C239.494 45.2939 239.806 45.2674 240.118 45.241ZM240.196 54.0799C235.396 54.5559 230.765 54.8733 226.179 55.5212C222.596 56.0302 219.051 56.9624 216.202 59.4613C213.685 61.6628 212.891 64.5188 213.496 67.778C214.082 70.9447 216.15 72.8752 219.103 73.4702C225.997 74.8585 232.072 72.9743 237.055 67.9433C240.782 64.175 240.417 59.2895 240.196 54.0799Z" fill="white"/>
<path d="M258.349 65.57C263.085 64.9816 267.573 64.4197 272.067 63.8643C272.568 65.1469 272.971 66.3369 273.491 67.4674C274.773 70.2771 276.932 72.1348 279.859 72.9016C284.256 74.0586 288.672 74.0189 292.933 72.3067C297.739 70.3762 299.378 65.2064 296.178 61.7554C295.027 60.5191 293.258 59.62 291.612 59.1573C287.033 57.8747 282.35 56.9822 277.752 55.7658C275.254 55.1047 272.782 54.2453 270.415 53.2007C264.951 50.8009 261.432 46.7682 260.977 40.5207C260.496 33.9824 263.241 29.0505 268.581 25.5269C271.774 23.4245 275.365 22.3734 279.092 21.9503C284.997 21.2892 290.858 21.5272 296.556 23.4907C303.099 25.7516 307.027 30.419 308.764 37.1094C308.816 37.3077 308.771 37.5325 308.771 37.8499C304.413 38.425 300.081 38.9936 295.788 39.5555C295.671 39.4365 295.554 39.377 295.534 39.2911C294.09 33.2221 290.136 31.2388 283.41 31.4702C280.913 31.5561 278.474 32.1181 276.399 33.7113C272.626 36.6004 272.945 41.7041 277.303 43.5089C280.926 45.0096 284.835 45.8029 288.627 46.8739C292.321 47.9119 296.1 48.6788 299.704 49.9745C305.109 51.9248 309.278 55.3096 310.475 61.4315C312.094 69.7482 308.764 77.1129 301.056 80.5771C290.409 85.3635 279.482 85.4362 268.86 80.392C262.889 77.569 259.676 72.3265 258.349 65.57Z" fill="white"/>
</g>
<defs>
<clipPath id="clip0">
<rect width="373" height="84" fill="white" transform="translate(0.325439 0.537109)"/>
</clipPath>
</defs>
</svg>
