<svg width="92" height="78" viewBox="0 0 92 78" fill="none" xmlns="http://www.w3.org/2000/svg">
<g clip-path="url(#clip0)">
<path d="M46.5395 3.01079C49.3565 1.47188 52.5464 0.658557 55.7518 0.461455C57.6895 0.392144 59.6393 0.42355 61.5551 0.749528C65.5021 1.31376 69.1982 3.27504 71.9436 6.1092C74.9102 9.04625 76.6102 13.024 77.3035 17.0668C77.6809 19.1386 77.7678 21.246 77.8195 23.3449C77.8305 23.9232 77.7524 24.4993 77.7546 25.0776C66.51 25.0776 55.2654 25.0733 44.0219 25.0798C44.1517 27.5642 45.0155 30.0518 46.6771 31.9502C49.2057 34.9468 53.0911 36.633 56.9941 36.9244C58.4752 36.9699 59.9794 36.9688 61.4252 36.6027C63.4147 36.1175 65.2072 35.0421 66.7488 33.735C67.8458 32.8339 68.8109 31.7921 69.7484 30.734C71.784 32.274 73.8285 33.8054 75.8609 35.3497C72.0118 40.4451 65.6902 43.471 59.2949 43.7807C55.6131 44.071 51.8466 43.6291 48.4024 42.284C45.6471 41.226 43.0998 39.5885 41.0971 37.4409C39.8636 35.9399 38.7138 34.361 37.8533 32.6195C36.6242 30.1741 35.8935 27.5122 35.5227 24.8155C35.3742 22.7005 35.4501 20.5681 35.7439 18.4682C36.6825 12.0634 40.6966 6.06697 46.5395 3.01079ZM48.0756 10.2527C45.7231 12.4154 44.2387 15.4727 44.0208 18.6339C45.0331 18.6415 46.0477 18.609 47.0589 18.6859C54.4478 18.6913 61.8379 18.6859 69.2268 18.688C69.043 16.1712 68.4742 13.6067 67.058 11.4656C65.94 9.76752 64.2279 8.50909 62.3407 7.74342C57.6257 5.82005 51.7982 6.7839 48.0756 10.2527Z" fill="white"/>
<path d="M34.8416 50.321C35.9816 50.087 37.1227 49.865 38.2648 49.6484C38.1229 50.8755 38.2736 52.1144 38.1515 53.3425C38.1471 56.9207 38.1427 60.4977 38.1537 64.0748C38.2725 65.2769 38.1229 66.4888 38.2714 67.6887C37.7125 67.7104 37.1546 67.6671 36.5978 67.6476C36.0333 67.6812 35.4688 67.7061 34.9032 67.6909C34.8977 67.1722 34.8867 66.6512 34.9626 66.1368C32.6024 68.6169 28.2405 68.7154 25.6767 66.4877C24.3816 65.3744 23.8479 63.6622 23.6586 62.0323C23.4297 59.822 24.0173 57.3896 25.7328 55.8507C28.3198 53.6988 32.6343 53.8017 34.9582 56.2936C34.9582 56.0304 34.9615 55.7684 34.9505 55.5063C34.8416 54.1341 34.945 52.7566 34.8867 51.3834C34.8548 51.0303 34.8427 50.6751 34.8416 50.321ZM29.8196 56.9488C28.695 57.1827 27.7663 58.0166 27.3206 59.0455C26.6868 60.4068 26.7275 62.0432 27.3933 63.3861C27.7773 64.181 28.4463 64.8589 29.2826 65.1903C30.2025 65.5206 31.2511 65.604 32.1699 65.2239C34.0692 64.4615 35.2201 62.2608 34.7547 60.2941C34.4455 58.0892 32.0159 56.4604 29.8196 56.9488Z" fill="white"/>
<path d="M41.063 50.491C42.3053 50.1997 43.5553 49.9354 44.8053 49.6733C44.8042 50.6794 44.8053 51.6866 44.8053 52.6938C43.5586 52.6938 42.3119 52.6938 41.0652 52.6938C41.063 51.9595 41.0663 51.2253 41.063 50.491Z" fill="white"/>
<path d="M0.294531 52.1285C1.35418 51.861 2.42263 51.6303 3.48668 51.3823C3.48668 52.4696 3.48668 53.5559 3.48668 54.6432C4.64317 54.6659 5.79525 54.549 6.95283 54.5901C6.95173 55.4944 6.95393 56.3987 6.95173 57.3041C5.79745 57.225 4.64317 57.1611 3.48668 57.1265C3.48668 58.1759 3.48668 59.2253 3.48668 60.2758C3.47348 61.4995 3.43937 62.7309 3.59672 63.9482C3.64844 64.4658 4.07318 64.8817 4.54743 65.0647C5.25937 65.343 6.04283 65.2607 6.78777 65.2088C7.51401 65.9972 8.27546 66.752 8.9995 67.5437C7.7935 67.9389 6.53139 68.2281 5.25167 68.1859C4.02146 68.2032 2.73514 67.8545 1.84934 66.9762C0.751181 66.0188 0.212004 64.5611 0.275825 63.1338C0.32204 59.4657 0.281326 55.7966 0.294531 52.1285Z" fill="white"/>
<path d="M11.265 55.269C13.1412 54.1622 15.5124 53.9251 17.5866 54.5976C19.1282 55.0719 20.4608 56.1831 21.1463 57.6289C21.7735 58.9815 21.8703 60.4912 21.9837 61.9532C19.6311 61.9565 17.2796 61.9478 14.9281 61.9575C13.7673 62.0388 12.6031 61.9933 11.44 62.0117C11.6887 63.229 12.2444 64.508 13.3832 65.1567C14.4198 65.6884 15.7127 65.8303 16.7955 65.344C17.7451 64.9542 18.4933 64.2058 18.9984 63.3362C19.9854 63.6286 20.9713 63.9264 21.9507 64.2437C21.0891 65.6224 20.0349 67.0519 18.413 67.5988C16.7503 68.2172 14.8885 68.319 13.1676 67.8836C11.6282 67.4883 10.1845 66.5689 9.37021 65.1989C8.40189 63.5723 8.13561 61.6067 8.4239 59.7602C8.7232 57.9798 9.68822 56.247 11.265 55.269ZM11.5093 59.6215C12.208 59.628 12.9068 59.6237 13.6055 59.6237C14.1953 59.6205 14.7829 59.7136 15.3727 59.6735C16.5127 59.5815 17.6581 59.6432 18.8003 59.6248C18.4625 58.6848 17.942 57.748 17.0695 57.1935C16.3806 56.717 15.4959 56.691 14.6861 56.7127C13.1346 56.9173 12.0023 58.2353 11.5093 59.6215Z" fill="white"/>
<path d="M50.1036 54.8283C51.2205 54.3496 52.4617 54.3063 53.6611 54.3161C55.0894 54.341 56.5837 54.6247 57.7413 55.4976C58.4939 56.1355 58.8625 57.0733 59.2598 57.943C58.1803 58.0946 57.0964 58.2051 56.0148 58.335C55.7254 57.708 55.2665 57.1372 54.6074 56.8632C53.4862 56.3033 52.0392 56.508 51.1138 57.3398C50.6461 57.8293 50.8277 58.7054 51.4549 58.9751C53.4542 59.9335 55.8233 59.784 57.7754 60.8681C58.4037 61.2028 58.9781 61.6814 59.2708 62.3377C59.8639 63.5756 59.6284 65.1177 58.7844 66.1877C58.3817 66.7086 57.8106 67.0736 57.2032 67.3248C55.2445 68.1674 53.0009 68.2822 50.9399 67.7559C50.1499 67.549 49.3345 67.3064 48.6985 66.7779C47.8182 66.0383 47.2735 64.9878 46.9192 63.92C48.0405 63.7694 49.1661 63.6416 50.2907 63.5149C50.7848 64.2383 51.1897 65.1838 52.1063 65.4632C53.3563 65.7502 54.8264 65.7783 55.8783 64.9488C56.5782 64.4419 56.4087 63.2485 55.6319 62.903C53.6457 62.1005 51.3933 62.133 49.4753 61.1378C48.7095 60.762 48.0702 60.1035 47.816 59.2902C47.4551 58.3069 47.5948 57.1611 48.1978 56.299C48.649 55.6178 49.3576 55.1478 50.1036 54.8283Z" fill="white"/>
<path d="M67.1966 54.3442C69.2147 54.0691 71.3846 54.4059 73.0693 55.5831C74.0783 56.2752 74.8133 57.3148 75.1985 58.4585C75.9533 60.5833 75.8081 63.0438 74.6582 65.0083C74.0596 66.0545 73.121 66.9079 72.0085 67.4017C70.0114 68.2779 67.6731 68.4165 65.6044 67.7006C64.175 67.2025 62.8777 66.2516 62.1427 64.9293C61.1765 63.1922 61.0852 61.1064 61.4791 59.1971C61.8577 57.422 63.1033 55.8626 64.7417 55.0417C65.5065 54.6594 66.3537 54.472 67.1966 54.3442ZM65.6693 57.8942C64.9849 58.5938 64.6504 59.5523 64.5271 60.4999C64.4061 61.6793 64.613 62.9128 65.2215 63.9459C65.907 65.0192 67.1944 65.6007 68.4609 65.6148C69.4645 65.5877 70.4988 65.2607 71.2063 64.534C72.0679 63.6232 72.4222 62.3464 72.409 61.1248C72.3397 60.071 72.1406 58.961 71.4792 58.0989C70.1049 56.3921 67.1581 56.2773 65.6693 57.8942Z" fill="white"/>
<path d="M81.2218 56.5492C82.2858 55.5128 83.5941 54.5825 85.1291 54.4428C86.0226 54.4146 86.9414 54.3594 87.8107 54.615C89.2467 54.9778 90.631 56.0369 90.8741 57.5466C91.0755 59.2415 91.0095 60.9515 91.0205 62.655C91.0304 64.2492 90.9578 65.852 91.1855 67.4364V67.6389C89.9906 67.6378 88.7956 67.64 87.6017 67.6378C87.8635 65.0094 87.7513 62.368 87.7755 59.732C87.7568 58.8559 87.6237 57.8314 86.8413 57.2834C86.1184 56.8437 85.1853 56.8091 84.3897 57.0625C83.1782 57.4838 82.244 58.4595 81.6498 59.5566C81.2383 60.2681 81.3164 61.1161 81.2812 61.9034C81.2074 63.8311 81.3395 65.7578 81.4583 67.6822C80.2776 67.6811 79.0958 67.68 77.9163 67.6302C77.9966 66.4086 78.0527 65.1849 78.0362 63.9611C78.045 61.0782 78.0351 58.1964 78.0329 55.3135C79.1146 55.0785 80.1951 54.8413 81.2812 54.6215C81.2944 55.2648 81.2746 55.908 81.2218 56.5492Z" fill="white"/>
<path d="M41.1687 54.6442C42.3659 54.642 43.5631 54.6431 44.7603 54.6431C44.6734 55.9405 44.6558 57.2401 44.5864 58.5386C44.5776 61.5893 44.5512 64.6412 44.7614 67.6865C43.5653 67.6898 42.3692 67.6887 41.1731 67.6865C41.2061 65.8649 41.3095 64.0455 41.2842 62.2229C41.2677 60.489 41.3305 58.753 41.227 57.0213C41.2589 56.2275 41.1874 55.4369 41.1687 54.6442Z" fill="white"/>
<path d="M22.3458 72.7679C23.0214 72.4301 23.8885 72.4214 24.5487 72.7994C24.925 73.0073 25.144 73.3874 25.3058 73.7686C25.0395 73.8271 24.7732 73.8845 24.5069 73.9419C24.3881 73.7329 24.2923 73.4925 24.0844 73.3517C23.5111 72.9618 22.6022 73.1762 22.3194 73.8195C22.0498 74.4303 22.0553 75.1906 22.4096 75.7689C22.7639 76.3342 23.6178 76.4468 24.1526 76.0721C24.376 75.9162 24.4453 75.6411 24.5487 75.4082C24.8172 75.4537 25.0868 75.4971 25.3553 75.5436C25.2188 75.9367 25.0549 76.3602 24.6808 76.5941C24.0635 76.9861 23.2503 77.0132 22.5637 76.7966C21.8022 76.5508 21.3852 75.757 21.3368 75.0097C21.2542 74.1672 21.5524 73.1968 22.3458 72.7679Z" fill="white"/>
<path d="M30.3696 72.5447C31.0684 72.4505 31.8584 72.5935 32.3415 73.1382C33.0534 73.9493 33.0688 75.2543 32.4768 76.1348C31.8111 77.0618 30.3421 77.181 29.442 76.5301C28.6663 75.9399 28.5067 74.845 28.7466 73.9591C28.9359 73.2216 29.5994 72.6335 30.3696 72.5447ZM30.374 73.214C29.4101 73.5216 29.2561 74.7843 29.6313 75.5846C29.9548 76.3622 31.1388 76.5333 31.6934 75.9074C32.1599 75.3507 32.1852 74.5212 31.9145 73.8746C31.6758 73.2974 30.9616 73.0277 30.374 73.214Z" fill="white"/>
<path d="M36.3798 72.6064C36.722 72.6064 37.0642 72.6064 37.4064 72.6075C37.7838 73.7187 38.3219 74.7681 38.7708 75.8532C39.2143 74.7681 39.7568 73.7208 40.1265 72.6075C40.4698 72.6064 40.8142 72.6064 41.1586 72.6064C41.0948 74.0176 41.097 75.433 41.1553 76.8441C40.8934 76.8431 40.6316 76.8431 40.3697 76.8441C40.4566 75.7579 40.3455 74.6652 40.4511 73.579C40.0979 74.7063 39.4564 75.7211 39.0922 76.8441C38.8754 76.8431 38.6575 76.8431 38.4407 76.8441C38.0765 75.7211 37.4526 74.6988 37.0895 73.5757C37.1852 74.663 37.0785 75.7558 37.1654 76.8441C36.9024 76.8431 36.6405 76.8431 36.3787 76.8441C36.437 75.433 36.4359 74.0176 36.3798 72.6064Z" fill="white"/>
<path d="M44.7976 72.5925C45.515 72.6261 46.2336 72.586 46.9499 72.6174C47.3978 72.6358 47.8764 72.821 48.1009 73.2239C48.4453 73.865 48.2472 74.8246 47.5232 75.1202C46.9081 75.3563 46.2325 75.2318 45.5899 75.2599C45.5844 75.7884 45.5855 76.3169 45.6284 76.8443C45.3511 76.8432 45.0738 76.8432 44.7976 76.8443C44.8559 75.4289 44.8526 74.008 44.7976 72.5925ZM45.5899 73.2315C45.5888 73.6993 45.5888 74.1672 45.5899 74.6361C46.0531 74.6253 46.5241 74.6784 46.984 74.6004C47.5958 74.4683 47.6387 73.4676 47.049 73.2791C46.5692 73.1817 46.0751 73.2445 45.5899 73.2315Z" fill="white"/>
<path d="M52.706 72.6064C53.0306 72.6064 53.3541 72.6064 53.6787 72.6075C54.2388 74.0273 54.8121 75.4449 55.4239 76.8452C55.1158 76.8431 54.8066 76.8431 54.4985 76.8442C54.3917 76.4564 54.252 76.0796 54.1012 75.707C53.5015 75.707 52.9029 75.707 52.3032 75.707C52.1503 76.0807 52.0062 76.4575 51.8906 76.8431C51.5814 76.8431 51.2733 76.8431 50.9663 76.8452C51.5968 75.4536 52.1547 74.0295 52.706 72.6064ZM53.1912 73.2573C52.9712 73.8681 52.739 74.4746 52.5112 75.0843C52.9712 75.0843 53.4311 75.0832 53.8911 75.0854C53.6589 74.4746 53.419 73.8681 53.1912 73.2573Z" fill="white"/>
<path d="M58.7216 72.6064C59.0099 72.6064 59.2993 72.6064 59.5876 72.6075C60.2786 73.7111 61.1105 74.7226 61.8004 75.8272C61.7421 74.754 61.8224 73.6786 61.7366 72.6064C62.0083 72.6054 62.2823 72.6064 62.5552 72.6064C62.5002 74.0176 62.5002 75.433 62.5552 76.8441C62.2581 76.8431 61.9632 76.8431 61.6672 76.8441C60.9784 75.7384 60.13 74.7356 59.4698 73.6125C59.5578 74.6879 59.4632 75.7677 59.5391 76.8441C59.2651 76.8431 58.9912 76.8431 58.7183 76.8441C58.7744 75.433 58.7689 74.0176 58.7216 72.6064Z" fill="white"/>
<path d="M65.8433 72.6064C66.1712 72.6064 66.5002 72.6064 66.8292 72.6075C67.1648 73.2302 67.5664 73.8161 67.9383 74.4194C68.3125 73.8172 68.7295 73.24 69.0486 72.6075C69.3765 72.6064 69.7044 72.6064 70.0323 72.6064C69.5141 73.3255 69.0376 74.0728 68.5336 74.8027C68.4555 74.9316 68.3433 75.0572 68.3334 75.2153C68.3026 75.7579 68.3268 76.3027 68.3675 76.8441C68.0825 76.8441 67.7986 76.8431 67.5158 76.8441C67.551 76.3027 67.5785 75.7579 67.5466 75.2153C67.5356 75.0432 67.4102 74.9089 67.3265 74.7659C66.8292 74.0479 66.3604 73.3115 65.8433 72.6064Z" fill="white"/>
<path d="M13.5627 2.807C16.2894 2.1832 18.993 1.45435 21.7494 0.964844C21.7571 3.56941 21.7494 6.17399 21.7527 8.77856C24.6874 8.77856 27.6209 8.77856 30.5545 8.77856C30.5556 11.4676 30.5545 14.1577 30.5556 16.8468C27.6209 16.8468 24.6863 16.8468 21.7527 16.8468C21.7549 21.0715 21.7483 25.2962 21.7549 29.5209C21.8759 33.0179 25.2871 35.9267 28.7983 35.747C31.1806 35.7372 33.4407 34.3304 34.5862 32.2944C35.0803 31.4389 35.3697 30.4718 35.4236 29.4895C35.5743 27.9354 35.4698 26.3727 35.5226 24.8154C35.8934 27.512 36.6241 30.1739 37.8532 32.6193C38.7137 34.3608 39.8636 35.9397 41.0971 37.4408C39.5191 39.6749 37.3019 41.4532 34.781 42.5654C32.9995 43.3311 31.075 43.8574 29.1207 43.8693C25.1297 44.0058 21.1475 42.4712 18.2029 39.8374C15.5114 37.2913 13.6683 33.7716 13.5539 30.0613C13.5616 20.9762 13.544 11.891 13.5627 2.807Z" fill="#ADADAD"/>
<path opacity="0.5" d="M0.185547 52.1639L0.294483 52.1282C0.281278 55.7962 0.321992 59.4654 0.275777 63.1334L0.185547 62.8995V52.1639Z" fill="white"/>
</g>
<defs>
<clipPath id="clip0">
<rect width="91" height="77" fill="white" transform="translate(0.185547 0.168945)"/>
</clipPath>
</defs>
</svg>
