<svg width="100" height="100" viewBox="0 0 100 100" fill="none" xmlns="http://www.w3.org/2000/svg">
<path d="M50 0L57.0396 5.55403L65.4509 2.44717L70.4296 9.90471L79.3893 9.54915L81.8198 18.1802L90.4509 20.6107L90.0953 29.5704L97.5528 34.5491L94.446 42.9604L100 50L94.446 57.0396L97.5528 65.4509L90.0953 70.4296L90.4509 79.3893L81.8198 81.8198L79.3893 90.4509L70.4296 90.0953L65.4509 97.5528L57.0396 94.446L50 100L42.9604 94.446L34.5491 97.5528L29.5704 90.0953L20.6107 90.4509L18.1802 81.8198L9.54915 79.3893L9.90471 70.4296L2.44717 65.4509L5.55403 57.0396L0 50L5.55403 42.9604L2.44717 34.5491L9.90471 29.5704L9.54915 20.6107L18.1802 18.1802L20.6107 9.54915L29.5704 9.90471L34.5491 2.44717L42.9604 5.55403L50 0Z" fill="#1B253C"/>
<path d="M36.5 51.25L44.5 59.25L63.25 40.5" stroke="#46DDCF" stroke-width="4" stroke-linecap="round" stroke-linejoin="round"/>
</svg>
