<svg width="22" height="32" viewBox="0 0 22 32" fill="none" xmlns="http://www.w3.org/2000/svg">
<path d="M11 0C4.93464 0 0 4.98984 0 11.123C0 18.8318 11.0108 32 11.0108 32C11.0108 32 22 18.4527 22 11.123C22 4.98984 17.0655 0 11 0ZM14.3189 14.3799C13.4038 15.3051 12.202 15.7678 11 15.7678C9.79821 15.7678 8.59603 15.3051 7.68126 14.3799C5.85115 12.5295 5.85115 9.51855 7.68126 7.66797C8.56745 6.77148 9.74625 6.27773 11 6.27773C12.2537 6.27773 13.4324 6.77168 14.3189 7.66797C16.149 9.51855 16.149 12.5295 14.3189 14.3799Z" fill="#46DDCF"/>
</svg>
