<svg width="27" height="14" viewBox="0 0 27 14" fill="none" xmlns="http://www.w3.org/2000/svg">
<path fill-rule="evenodd" clip-rule="evenodd" d="M3.00337 1.51315V1.51336H3.04327C3.56087 1.51872 4.51971 1.62859 4.53232 2.03551V7.19277H6.21742V1.51431C6.27201 1.51431 6.33239 1.51378 6.39748 1.51321C6.94649 1.50842 7.83117 1.50069 8.41679 1.77956C9.77423 2.42595 9.94586 2.99658 9.94586 4.68168C9.94586 6.36678 8.90048 7.11571 7.21538 7.50578C5.8673 7.81783 2.50334 7.53178 0.989868 7.34975C2.13927 7.6514 4.99354 8.20478 7.21538 8.00507C9.99267 7.75542 10.8664 6.88167 11.1785 6.07032C11.4905 5.25898 11.5842 3.33984 10.8664 2.15403C10.1458 0.963477 7.99603 0.952615 6.21744 0.952612V0.95166H6.21742H4.53232H3.00337V1.51315ZM3.00337 12.4667V13.0284H7.87144V12.4667H3.00337ZM6.21742 8.44069H4.53232V11.8424C4.48031 12.0192 4.28267 12.3916 3.90821 12.4665H4.53232V12.4662H6.21742V8.44069ZM6.21744 11.8424C6.26944 12.0192 6.46705 12.3916 6.84145 12.4665H6.21744V11.8424Z" fill="#1B253C"/>
<path fill-rule="evenodd" clip-rule="evenodd" d="M12.3022 1.51336V1.51315V0.95166H15.3604V1.51336H15.3603V1.91903L19.4637 10.4694L23.9729 0.95166H26.875V1.51336H26.7907C25.6372 1.52728 25.3461 1.89102 25.3461 2.07465V11.3583C25.3461 12.2321 26.4486 12.4609 26.9999 12.4661L26.9988 12.4663H26.9999V13.028H22.4439V12.4663H22.4464L22.4439 12.4661C22.9016 12.4609 23.817 12.3163 23.817 11.7796V3.57723L19.1673 13.0126H18.8864L14.4397 3.26087L14.4398 3.26061H14.4397L14.4397 3.26066L14.4397 3.26087L14.1952 11.8457C14.2758 12.3401 15.2623 12.4663 15.7659 12.4663L15.7658 12.4663H15.7659V13.028H11.7404V12.4663H13.3526L13.3526 12.4663H11.7404C12.2803 12.4563 13.3392 12.1426 13.4205 10.9875L13.4249 10.8905C13.4253 10.875 13.4255 10.8594 13.4255 10.8436V10.8793L13.8312 2.04364C13.8312 1.63014 12.8635 1.5188 12.3424 1.51336H12.3022ZM15.3291 1.51336V1.55748L15.3521 1.51336H15.3291ZM23.8195 12.4663L23.817 12.4661V12.4663H23.8195Z" fill="#1B253C"/>
</svg>
