<svg width="22" height="22" viewBox="0 0 22 22" fill="none" xmlns="http://www.w3.org/2000/svg">
<path d="M21.738 8.52915C21.6638 8.30068 21.4664 8.13418 21.2287 8.09969L14.5517 7.12941L11.5655 1.07902C11.4593 0.863635 11.2399 0.727295 10.9997 0.727295C10.7595 0.727295 10.5402 0.863635 10.4339 1.07902L7.44763 7.12941L0.770732 8.09969C0.533094 8.13418 0.335589 8.30068 0.261383 8.52911C0.187134 8.75758 0.249057 9.00834 0.421069 9.17598L5.2524 13.8856L4.11204 20.5357C4.0714 20.7724 4.16875 21.0116 4.36306 21.1528C4.47298 21.2327 4.60317 21.2733 4.734 21.2733C4.83446 21.2733 4.93525 21.2494 5.02755 21.2008L10.9997 18.061L16.9716 21.2008C17.1842 21.3126 17.4418 21.294 17.6361 21.1528C17.8304 21.0116 17.9278 20.7723 17.8872 20.5356L16.7465 13.8856L21.5784 9.17593C21.7503 9.00834 21.8123 8.75758 21.738 8.52915Z" fill="white"/>
</svg>
