<svg width="31" height="31" viewBox="0 0 31 31" fill="none" xmlns="http://www.w3.org/2000/svg">
<path d="M15.4998 30.0834C7.44568 30.0834 0.916504 23.5542 0.916504 15.5001C0.916504 7.44593 7.44568 0.916748 15.4998 0.916748C23.554 0.916748 30.0832 7.44593 30.0832 15.5001C30.0743 23.5506 23.5503 30.0746 15.4998 30.0834ZM15.4998 3.83342C9.05651 3.83342 3.83317 9.05676 3.83317 15.5001C3.83317 21.9434 9.05651 27.1668 15.4998 27.1668C21.9432 27.1668 27.1665 21.9434 27.1665 15.5001C27.1593 9.05976 21.9402 3.84065 15.4998 3.83342ZM15.4998 22.7918L8.20817 15.5001L10.2644 13.4438L14.0415 17.2063V8.20842H16.9582V17.2063L20.7353 13.4438L22.7915 15.5001L15.4998 22.7918Z" fill="#1B253C"/>
</svg>
