<svg width="31" height="31" viewBox="0 0 31 31" fill="none" xmlns="http://www.w3.org/2000/svg">
<path d="M6.75019 30.0832C4.29164 30.0826 2.09738 28.5406 1.2638 26.2277C0.430217 23.9148 1.13628 21.3275 3.0292 19.7586C4.92211 18.1898 7.59548 17.9761 9.71352 19.2245L19.2248 9.71323C17.7368 7.18524 18.3604 3.94523 20.6804 2.15016C23.0005 0.355088 26.2933 0.564851 28.3667 2.6398C30.4402 4.71475 30.6477 8.0077 28.851 10.3264C27.0542 12.6452 23.8138 13.2665 21.2869 11.7768L11.7771 21.2866C12.8409 23.0903 12.8562 25.3259 11.8172 27.1441C10.7782 28.9623 8.8443 30.084 6.75019 30.0832ZM6.75019 21.3332C5.13936 21.3332 3.83352 22.6391 3.83352 24.2499C3.83352 25.8607 5.13936 27.1666 6.75019 27.1666C8.36102 27.1666 9.66686 25.8607 9.66686 24.2499C9.66686 22.6391 8.36102 21.3332 6.75019 21.3332ZM24.2502 3.83323C22.6568 3.83484 21.3596 5.11488 21.3368 6.7081C21.3139 8.30132 22.5739 9.618 24.1666 9.66528C25.7593 9.71255 27.0951 8.47291 27.1669 6.88114V7.46448V6.74989C27.1669 5.13906 25.861 3.83323 24.2502 3.83323Z" fill="#1B253C"/>
</svg>
