<svg width="29" height="31" viewBox="0 0 29 31" fill="none" xmlns="http://www.w3.org/2000/svg">
<path d="M23.5208 30.0832C21.9428 30.1014 20.4472 29.3804 19.4787 28.1344C18.5101 26.8885 18.1803 25.2612 18.5873 23.7365L9.45809 18.5186C7.88058 19.9638 5.56825 20.2697 3.66921 19.2844C1.77018 18.299 0.688943 16.2323 0.962371 14.1103C1.2358 11.9884 2.80565 10.2633 4.89245 9.79155C6.97924 9.31979 9.1385 10.2019 10.2981 11.9998L18.5858 7.26171C18.4786 6.85656 18.4217 6.43973 18.4166 6.02067C18.3957 3.58046 20.0905 1.46067 22.4755 0.94395C24.8604 0.427233 27.2806 1.6555 28.2715 3.88554C29.2625 6.11559 28.552 8.73495 26.5701 10.1587C24.5882 11.5824 21.8791 11.4195 20.082 9.76858L11.1118 14.8946C11.103 15.2728 11.0501 15.6487 10.9543 16.0146L20.082 21.2311C21.7624 19.689 24.2628 19.4509 26.204 20.6482C28.1452 21.8455 29.0546 24.1867 28.4308 26.3805C27.8069 28.5743 25.8015 30.0865 23.5208 30.0832ZM23.5208 22.7915C22.3127 22.7915 21.3333 23.7709 21.3333 24.979C21.3333 26.1871 22.3127 27.1665 23.5208 27.1665C24.7289 27.1665 25.7083 26.1871 25.7083 24.979C25.7083 23.7709 24.7289 22.7915 23.5208 22.7915ZM6.02079 12.5832C4.81267 12.5832 3.83329 13.5625 3.83329 14.7707C3.83329 15.9788 4.81267 16.9582 6.02079 16.9582C7.22892 16.9582 8.20829 15.9788 8.20829 14.7707C8.20829 13.5625 7.22892 12.5832 6.02079 12.5832ZM23.5208 3.83317C22.3127 3.83317 21.3333 4.81254 21.3333 6.02067C21.3333 7.22879 22.3127 8.20817 23.5208 8.20817C24.7289 8.20817 25.7083 7.22879 25.7083 6.02067C25.7083 4.81254 24.7289 3.83317 23.5208 3.83317Z" fill="#1B253C"/>
</svg>
