<svg width="25" height="25" viewBox="0 0 25 25" fill="none" xmlns="http://www.w3.org/2000/svg">
<path d="M0.833496 24.1668V13.9584H11.0418L6.35037 18.6542C7.96906 20.3094 10.185 21.2448 12.5002 21.25C16.2035 21.2446 19.5024 18.9083 20.7368 15.4167H20.7631C20.9301 14.9422 21.0565 14.4543 21.1408 13.9584H24.075C23.34 19.7916 18.3795 24.1665 12.5002 24.1668H12.4856C9.39211 24.1759 6.42352 22.9471 4.24162 20.7542L0.833496 24.1668ZM3.85808 11.0417H0.923913C1.65855 5.21071 6.61579 0.836497 12.4929 0.833311H12.5002C15.5942 0.823411 18.5635 2.0523 20.7456 4.24587L24.1668 0.833311V11.0417H13.9585L18.6572 6.34587C17.0369 4.68869 14.8179 3.75316 12.5002 3.75004C8.7968 3.7555 5.49795 6.0918 4.2635 9.58337H4.23725C4.06889 10.0575 3.9425 10.5455 3.85954 11.0417H3.85808Z" fill="#1B253C"/>
</svg>
