<svg width="22" height="20" viewBox="0 0 22 20" fill="none" xmlns="http://www.w3.org/2000/svg">
<path d="M13.2361 6.71592V4.05474H19.4014V0H2.61308V4.05474H8.77912V6.71378C3.76792 6.94097 0 7.92057 0 9.0941C0 10.2676 3.76973 11.2472 8.77912 11.4759V20H13.2376V11.4751C18.2397 11.2472 22 10.2683 22 9.09589C22 7.92343 18.2397 6.94454 13.2376 6.71664L13.2361 6.71592ZM13.2376 10.7531V10.751C13.1118 10.7589 12.4655 10.7971 11.0265 10.7971C9.87597 10.7971 9.06656 10.7649 8.7813 10.7503V10.7538C4.35404 10.5603 1.04936 9.79928 1.04936 8.88873C1.04936 7.97818 4.3544 7.21825 8.7813 7.02433V9.99571C9.07128 10.0154 9.90062 10.0637 11.0453 10.0637C12.4202 10.0637 13.1114 10.0072 13.2383 9.99571V7.02433C17.6568 7.21861 20.9539 7.98032 20.9539 8.88766C20.9539 9.79499 17.6554 10.5571 13.2383 10.7513" fill="#1B253C"/>
</svg>
